<?xml version="1.0" encoding="UTF-8" standalone="no"?>
<!DOCTYPE svg PUBLIC "-//W3C//DTD SVG 1.1//EN"
 "http://www.w3.org/Graphics/SVG/1.1/DTD/svg11.dtd">
<!-- Generated by graphviz version 2.43.0 (0)
 -->
<!-- Title: chesapeake Pages: 1 -->
<svg width="2994pt" height="1602pt"
 viewBox="0.00 0.00 2994.38 1602.36" xmlns="http://www.w3.org/2000/svg" xmlns:xlink="http://www.w3.org/1999/xlink">
<g id="graph0" class="graph" transform="scale(1 1) rotate(0) translate(4 1598.36)">
<title>chesapeake</title>
<polygon fill="white" stroke="transparent" points="-4,4 -4,-1598.36 2990.38,-1598.36 2990.38,4 -4,4"/>
<!-- 1 -->
<g id="node1" class="node">
<title>1</title>
<ellipse fill="#39c8b8" stroke="black" stroke-width="6.96" cx="836.38" cy="-1495.49" rx="87.86" ry="26.74"/>
<text text-anchor="middle" x="836.38" y="-1499.29" font-family="Times,serif" font-size="14.00">phytoplankton</text>
<text text-anchor="middle" x="836.38" y="-1484.29" font-family="Times,serif" font-size="14.00">(3480.0 gC.m²)</text>
</g>
<!-- 7 -->
<g id="node7" class="node">
<title>7</title>
<ellipse fill="#3fddcc" stroke="black" stroke-width="4.47" cx="583.38" cy="-1152.27" rx="87.86" ry="26.74"/>
<text text-anchor="middle" x="583.38" y="-1156.07" font-family="Times,serif" font-size="14.00">ciliates</text>
<text text-anchor="middle" x="583.38" y="-1141.07" font-family="Times,serif" font-size="14.00">(148.75 gC.m²)</text>
</g>
<!-- 1&#45;&gt;7 -->
<g id="edge56" class="edge">
<title>1&#45;&gt;7</title>
<path fill="none" stroke="black" stroke-width="2.84" d="M823.38,-1468.82C796.62,-1417.39 731.63,-1299.43 657.38,-1215.14 647.49,-1203.91 635.49,-1192.98 624.05,-1183.51"/>
<polygon fill="black" stroke="black" stroke-width="2.84" points="626.23,-1180.77 616.26,-1177.2 621.83,-1186.21 626.23,-1180.77"/>
</g>
<!-- 8 -->
<g id="node8" class="node">
<title>8</title>
<ellipse fill="#3edbca" stroke="black" stroke-width="4.69" cx="1458.38" cy="-1062.53" rx="81.13" ry="26.74"/>
<text text-anchor="middle" x="1458.38" y="-1066.33" font-family="Times,serif" font-size="14.00">zooplankton</text>
<text text-anchor="middle" x="1458.38" y="-1051.33" font-family="Times,serif" font-size="14.00">(197.5 gC.m²)</text>
</g>
<!-- 1&#45;&gt;8 -->
<g id="edge57" class="edge">
<title>1&#45;&gt;8</title>
<path fill="none" stroke="black" stroke-width="2.88" d="M923.69,-1492.53C1050.52,-1488.24 1278.16,-1474.76 1347.38,-1432.62 1393.25,-1404.7 1415.38,-1386.45 1415.38,-1332.75 1415.38,-1332.75 1415.38,-1332.75 1415.38,-1241.01 1415.38,-1190.66 1431.93,-1134.47 1444.5,-1099.07"/>
<polygon fill="black" stroke="black" stroke-width="2.88" points="1447.95,-1099.81 1448.08,-1089.22 1441.38,-1097.42 1447.95,-1099.81"/>
</g>
<!-- 11 -->
<g id="node11" class="node">
<title>11</title>
<ellipse fill="#3dd7c6" stroke="black" stroke-width="5.17" cx="964.38" cy="-629.57" rx="139.1" ry="26.74"/>
<text text-anchor="middle" x="964.38" y="-633.37" font-family="Times,serif" font-size="14.00">other suspension feeders</text>
<text text-anchor="middle" x="964.38" y="-618.37" font-family="Times,serif" font-size="14.00">(363.75 gC.m²)</text>
</g>
<!-- 1&#45;&gt;11 -->
<g id="edge58" class="edge">
<title>1&#45;&gt;11</title>
<path fill="none" stroke="black" stroke-width="2.39" d="M917.34,-1485.12C1058.17,-1466.54 1333.38,-1419.18 1333.38,-1332.75 1333.38,-1332.75 1333.38,-1332.75 1333.38,-882.05 1333.38,-751.49 1173.68,-683.87 1064.4,-652.89"/>
<polygon fill="black" stroke="black" stroke-width="2.39" points="1065.22,-649.48 1054.65,-650.18 1063.35,-656.23 1065.22,-649.48"/>
</g>
<!-- 12 -->
<g id="node12" class="node">
<title>12</title>
<ellipse fill="#3fdfce" stroke="black" stroke-width="4.23" cx="612.38" cy="-539.83" rx="81.13" ry="26.74"/>
<text text-anchor="middle" x="612.38" y="-543.63" font-family="Times,serif" font-size="14.00">mya arenaria</text>
<text text-anchor="middle" x="612.38" y="-528.63" font-family="Times,serif" font-size="14.00">(110.0 gC.m²)</text>
</g>
<!-- 1&#45;&gt;12 -->
<g id="edge59" class="edge">
<title>1&#45;&gt;12</title>
<path fill="none" stroke="black" stroke-width="2.25" d="M749.93,-1490.86C573.9,-1481.11 190.38,-1446.78 190.38,-1332.75 190.38,-1332.75 190.38,-1332.75 190.38,-1241.01 190.38,-1117.54 266.38,-1097.27 266.38,-973.79 266.38,-973.79 266.38,-973.79 266.38,-718.31 266.38,-656.81 441.62,-592.96 542.67,-561.25"/>
<polygon fill="black" stroke="black" stroke-width="2.25" points="544,-564.5 552.51,-558.19 541.92,-557.82 544,-564.5"/>
</g>
<!-- 13 -->
<g id="node13" class="node">
<title>13</title>
<ellipse fill="#3bcfbf" stroke="black" stroke-width="6.05" cx="567.38" cy="-629.57" rx="87.86" ry="26.74"/>
<text text-anchor="middle" x="567.38" y="-633.37" font-family="Times,serif" font-size="14.00">oysters</text>
<text text-anchor="middle" x="567.38" y="-618.37" font-family="Times,serif" font-size="14.00">(1100.0 gC.m²)</text>
</g>
<!-- 1&#45;&gt;13 -->
<g id="edge60" class="edge">
<title>1&#45;&gt;13</title>
<path fill="none" stroke="black" stroke-width="2.4" d="M812.25,-1469.4C801.88,-1458.34 789.78,-1445.06 779.38,-1432.62 752.94,-1400.97 748.05,-1391.68 723.38,-1358.62 693.78,-1318.94 686.59,-1308.86 657.38,-1268.88 639.98,-1245.05 642.66,-1231.92 618.38,-1215.14 568.36,-1180.57 530.79,-1220.68 486.38,-1179.14 415.86,-1113.17 415.38,-1070.36 415.38,-973.79 415.38,-973.79 415.38,-973.79 415.38,-882.05 415.38,-792.17 487.38,-706.89 532.28,-662.45"/>
<polygon fill="black" stroke="black" stroke-width="2.4" points="534.78,-664.9 539.5,-655.41 529.9,-659.88 534.78,-664.9"/>
</g>
<!-- 22 -->
<g id="node22" class="node">
<title>22</title>
<ellipse fill="#40e2d0" stroke="black" stroke-width="3.91" cx="1841.38" cy="-629.57" rx="81.13" ry="26.74"/>
<text text-anchor="middle" x="1841.38" y="-633.37" font-family="Times,serif" font-size="14.00">bay anchovy</text>
<text text-anchor="middle" x="1841.38" y="-618.37" font-family="Times,serif" font-size="14.00">(72.75 gC.m²)</text>
</g>
<!-- 1&#45;&gt;22 -->
<g id="edge61" class="edge">
<title>1&#45;&gt;22</title>
<path fill="none" stroke="black" stroke-width="1.78" d="M924.18,-1495C1261.22,-1495.83 2453.38,-1487.79 2453.38,-1332.75 2453.38,-1332.75 2453.38,-1332.75 2453.38,-1061.53 2453.38,-803.14 2084.18,-686.15 1919.3,-646.79"/>
<polygon fill="black" stroke="black" stroke-width="1.78" points="1919.75,-643.3 1909.22,-644.42 1918.15,-650.11 1919.75,-643.3"/>
</g>
<!-- 23 -->
<g id="node23" class="node">
<title>23</title>
<ellipse fill="#42e7d5" stroke="black" stroke-width="3.26" cx="2763.38" cy="-539.83" rx="87.86" ry="26.74"/>
<text text-anchor="middle" x="2763.38" y="-543.63" font-family="Times,serif" font-size="14.00">menhaden</text>
<text text-anchor="middle" x="2763.38" y="-528.63" font-family="Times,serif" font-size="14.00">(31.525 gC.m²)</text>
</g>
<!-- 1&#45;&gt;23 -->
<g id="edge62" class="edge">
<title>1&#45;&gt;23</title>
<path fill="none" stroke="black" stroke-width="1.21" d="M924.08,-1494.78C1152.47,-1494.68 1784.17,-1488.88 2306.38,-1432.62 2563.4,-1404.93 2879.38,-1591.26 2879.38,-1332.75 2879.38,-1332.75 2879.38,-1332.75 2879.38,-718.31 2879.38,-659.45 2834.12,-604.87 2800.15,-572.2"/>
<polygon fill="black" stroke="black" stroke-width="1.21" points="2802.34,-569.46 2792.66,-565.17 2797.55,-574.56 2802.34,-569.46"/>
</g>
<!-- 34 -->
<g id="node34" class="node">
<title>34</title>
<polygon fill="#35bbad" stroke="black" stroke-width="8.41" points="618.38,-1432.62 424.38,-1432.62 424.38,-1394.62 618.38,-1394.62 618.38,-1432.62"/>
<text text-anchor="middle" x="521.38" y="-1417.42" font-family="Times,serif" font-size="14.00">dissolved organic carbon</text>
<text text-anchor="middle" x="521.38" y="-1402.42" font-family="Times,serif" font-size="14.00">(21857.5 gC.m²)</text>
</g>
<!-- 1&#45;&gt;34 -->
<g id="edge63" class="edge">
<title>1&#45;&gt;34</title>
<path fill="none" stroke="black" stroke-width="3.04" d="M770.35,-1477.75C721.45,-1465.35 654.56,-1448.39 602.42,-1435.17"/>
<polygon fill="black" stroke="black" stroke-width="3.04" points="603.09,-1431.73 592.54,-1432.66 601.37,-1438.51 603.09,-1431.73"/>
</g>
<!-- 35 -->
<g id="node35" class="node">
<title>35</title>
<polygon fill="#37c2b3" stroke="black" stroke-width="7.58" points="887.38,-820.18 683.38,-820.18 683.38,-782.18 887.38,-782.18 887.38,-820.18"/>
<text text-anchor="middle" x="785.38" y="-804.98" font-family="Times,serif" font-size="14.00">suspended particulate org</text>
<text text-anchor="middle" x="785.38" y="-789.98" font-family="Times,serif" font-size="14.00">(7631.0 gC.m²)</text>
</g>
<!-- 1&#45;&gt;35 -->
<g id="edge64" class="edge">
<title>1&#45;&gt;35</title>
<path fill="none" stroke="black" stroke-width="3.13" d="M836.38,-1468.44C836.38,-1436.48 836.38,-1380.63 836.38,-1332.75 836.38,-1332.75 836.38,-1332.75 836.38,-1151.27 836.38,-1030.76 806.26,-889.28 792.31,-830.25"/>
<polygon fill="black" stroke="black" stroke-width="3.13" points="795.64,-829.13 789.91,-820.22 788.84,-830.76 795.64,-829.13"/>
</g>
<!-- 39 -->
<g id="node39" class="node">
<title>39</title>
<polygon fill="white" stroke="black" stroke-width="0.5" points="883.17,-14.54 883.17,-29.46 842.29,-40 784.48,-40 743.6,-29.46 743.6,-14.54 784.48,-4 842.29,-4 883.17,-14.54"/>
<polygon fill="none" stroke="black" stroke-width="0.5" points="887.18,-11.45 887.18,-32.55 842.8,-44 783.97,-44 739.59,-32.55 739.59,-11.45 783.97,0 842.8,0 887.18,-11.45"/>
<text text-anchor="middle" x="813.38" y="-18.3" font-family="Times,serif" font-size="14.00">Respiration</text>
</g>
<!-- 1&#45;&gt;39 -->
<g id="edge23" class="edge">
<title>1&#45;&gt;39</title>
<path fill="none" stroke="black" stroke-width="3.28" d="M924.13,-1493.9C1233.45,-1491.42 2272.15,-1479.7 2601.38,-1432.62 2763.21,-1409.48 2955.38,-1496.23 2955.38,-1332.75 2955.38,-1332.75 2955.38,-1332.75 2955.38,-628.57 2955.38,-331.47 2858.91,-162.1 2573.38,-80 2411.66,-33.5 1226.28,-24.82 897.65,-23.3"/>
<polygon fill="black" stroke="black" stroke-width="3.28" points="897.27,-19.8 887.25,-23.26 897.24,-26.8 897.27,-19.8"/>
</g>
<!-- 2 -->
<g id="node2" class="node">
<title>2</title>
<ellipse fill="#40e1d0" stroke="black" stroke-width="3.97" cx="969.38" cy="-719.31" rx="143.59" ry="26.74"/>
<text text-anchor="middle" x="969.38" y="-723.11" font-family="Times,serif" font-size="14.00">bacteria in suspended poc</text>
<text text-anchor="middle" x="969.38" y="-708.11" font-family="Times,serif" font-size="14.00">(79.0 gC.m²)</text>
</g>
<!-- 2&#45;&gt;7 -->
<g id="edge65" class="edge">
<title>2&#45;&gt;7</title>
<path fill="none" stroke="black" stroke-width="2.14" d="M1060.7,-740.12C1132.12,-761.61 1219.38,-803.86 1219.38,-882.05 1219.38,-973.79 1219.38,-973.79 1219.38,-973.79 1219.38,-1084.77 855.59,-1129.4 678.28,-1144.56"/>
<polygon fill="black" stroke="black" stroke-width="2.14" points="677.84,-1141.08 668.17,-1145.41 678.43,-1148.06 677.84,-1141.08"/>
</g>
<!-- 2&#45;&gt;8 -->
<g id="edge66" class="edge">
<title>2&#45;&gt;8</title>
<path fill="none" stroke="black" stroke-width="2.08" d="M1094.91,-732.4C1141.1,-741.16 1192.14,-756.24 1233.38,-782.18 1332.96,-844.81 1408.09,-967.11 1440.63,-1026.92"/>
<polygon fill="black" stroke="black" stroke-width="2.08" points="1437.68,-1028.81 1445.49,-1035.96 1443.84,-1025.5 1437.68,-1028.81"/>
</g>
<!-- 9 -->
<g id="node9" class="node">
<title>9</title>
<ellipse fill="#43ead8" stroke="black" stroke-width="2.88" cx="978.38" cy="-972.79" rx="81.13" ry="26.74"/>
<text text-anchor="middle" x="978.38" y="-976.59" font-family="Times,serif" font-size="14.00">ctenophores</text>
<text text-anchor="middle" x="978.38" y="-961.59" font-family="Times,serif" font-size="14.00">(19.25 gC.m²)</text>
</g>
<!-- 2&#45;&gt;9 -->
<g id="edge67" class="edge">
<title>2&#45;&gt;9</title>
<path fill="none" stroke="black" stroke-width="1.59" d="M970.32,-746.51C971.94,-791.67 975.25,-884.23 977.09,-935.54"/>
<polygon fill="black" stroke="black" stroke-width="1.59" points="973.6,-935.96 977.45,-945.83 980.59,-935.71 973.6,-935.96"/>
</g>
<!-- 2&#45;&gt;11 -->
<g id="edge68" class="edge">
<title>2&#45;&gt;11</title>
<path fill="none" stroke="black" stroke-width="1.64" d="M967.88,-691.99C967.43,-684.02 966.92,-675.13 966.44,-666.64"/>
<polygon fill="black" stroke="black" stroke-width="1.64" points="969.93,-666.36 965.87,-656.57 962.94,-666.76 969.93,-666.36"/>
</g>
<!-- 2&#45;&gt;12 -->
<g id="edge69" class="edge">
<title>2&#45;&gt;12</title>
<path fill="none" stroke="black" stroke-width="1.46" d="M904.06,-695.23C876.44,-684.62 844.27,-671.14 816.38,-656.44 778.16,-636.3 772.75,-624.39 735.38,-602.7 713.5,-590 688.67,-577.22 667.09,-566.6"/>
<polygon fill="black" stroke="black" stroke-width="1.46" points="668.58,-563.43 658.05,-562.19 665.5,-569.72 668.58,-563.43"/>
</g>
<!-- 2&#45;&gt;13 -->
<g id="edge70" class="edge">
<title>2&#45;&gt;13</title>
<path fill="none" stroke="black" stroke-width="1.56" d="M878.42,-698.46C808.91,-683.29 714.03,-662.58 647.4,-648.03"/>
<polygon fill="black" stroke="black" stroke-width="1.56" points="647.88,-644.56 637.37,-645.85 646.39,-651.4 647.88,-644.56"/>
</g>
<!-- 2&#45;&gt;22 -->
<g id="edge71" class="edge">
<title>2&#45;&gt;22</title>
<path fill="none" stroke="black" stroke-width="1.1" d="M1093.86,-705.79C1272.97,-687.76 1598.93,-654.97 1754.39,-639.32"/>
<polygon fill="black" stroke="black" stroke-width="1.1" points="1754.78,-642.8 1764.38,-638.32 1754.08,-635.84 1754.78,-642.8"/>
</g>
<!-- 2&#45;&gt;23 -->
<g id="edge72" class="edge">
<title>2&#45;&gt;23</title>
<path fill="none" stroke="black" stroke-width="0.91" d="M1107.78,-711.94C1294.86,-702.75 1638.74,-683.82 1931.38,-656.44 2012.75,-648.83 2581.06,-581.76 2661.38,-566.7 2670.58,-564.98 2680.18,-562.91 2689.65,-560.7"/>
<polygon fill="black" stroke="black" stroke-width="0.91" points="2690.54,-564.08 2699.45,-558.36 2688.91,-557.28 2690.54,-564.08"/>
</g>
<!-- 2&#45;&gt;35 -->
<g id="edge73" class="edge">
<title>2&#45;&gt;35</title>
<path fill="none" stroke="black" stroke-width="2.37" d="M919.76,-744.57C895.81,-755.27 867.01,-767.75 842.19,-778.17"/>
<polygon fill="black" stroke="black" stroke-width="2.37" points="840.77,-774.97 832.9,-782.06 843.47,-781.43 840.77,-774.97"/>
</g>
<!-- 36 -->
<g id="node36" class="node">
<title>36</title>
<polygon fill="#30aa9c" stroke="black" stroke-width="10.5" points="1476.38,-476.96 1274.38,-476.96 1274.38,-438.96 1476.38,-438.96 1476.38,-476.96"/>
<text text-anchor="middle" x="1375.38" y="-461.76" font-family="Times,serif" font-size="14.00">sediment particulate orga</text>
<text text-anchor="middle" x="1375.38" y="-446.76" font-family="Times,serif" font-size="14.00">(305000.0 gC.m²)</text>
</g>
<!-- 2&#45;&gt;36 -->
<g id="edge74" class="edge">
<title>2&#45;&gt;36</title>
<path fill="none" stroke="black" stroke-width="2.57" d="M1032.23,-695C1057.79,-684.53 1087.18,-671.21 1112.38,-656.44 1203.07,-603.29 1215.95,-575.56 1300.38,-512.96 1313.81,-503.01 1328.73,-492.21 1341.7,-482.91"/>
<polygon fill="black" stroke="black" stroke-width="2.57" points="1343.82,-485.7 1349.91,-477.03 1339.74,-480.01 1343.82,-485.7"/>
</g>
<!-- 2&#45;&gt;39 -->
<g id="edge24" class="edge">
<title>2&#45;&gt;39</title>
<path fill="none" stroke="black" stroke-width="2.67" d="M851.86,-703.81C812.29,-694.79 769.56,-680.17 735.38,-656.44 711.36,-639.76 722.78,-617.22 697.38,-602.7 613.75,-554.9 341.39,-625.88 265.38,-566.7 225.44,-535.6 228.38,-509.59 228.38,-458.96 228.38,-458.96 228.38,-458.96 228.38,-195.61 228.38,-141.79 222.75,-114.1 264.38,-80 299.57,-51.19 584.41,-33.76 729.34,-26.68"/>
<polygon fill="black" stroke="black" stroke-width="2.67" points="729.7,-30.17 739.52,-26.19 729.37,-23.18 729.7,-30.17"/>
</g>
<!-- 3 -->
<g id="node3" class="node">
<title>3</title>
<ellipse fill="#3cd3c3" stroke="black" stroke-width="5.57" cx="1149.38" cy="-376.09" rx="136.44" ry="26.74"/>
<text text-anchor="middle" x="1149.38" y="-379.89" font-family="Times,serif" font-size="14.00">bacteria in sediment poc</text>
<text text-anchor="middle" x="1149.38" y="-364.89" font-family="Times,serif" font-size="14.00">(600.0 gC.m²)</text>
</g>
<!-- 14 -->
<g id="node14" class="node">
<title>14</title>
<ellipse fill="#3bcfbf" stroke="black" stroke-width="6.11" cx="918.38" cy="-286.35" rx="101.65" ry="26.74"/>
<text text-anchor="middle" x="918.38" y="-290.15" font-family="Times,serif" font-size="14.00">other polychaetes</text>
<text text-anchor="middle" x="918.38" y="-275.15" font-family="Times,serif" font-size="14.00">(1186.5 gC.m²)</text>
</g>
<!-- 3&#45;&gt;14 -->
<g id="edge75" class="edge">
<title>3&#45;&gt;14</title>
<path fill="none" stroke="black" stroke-width="3.16" d="M1088.39,-351.92C1056.39,-339.77 1017.16,-324.87 984.44,-312.44"/>
<polygon fill="black" stroke="black" stroke-width="3.16" points="985.55,-309.12 974.96,-308.84 983.06,-315.66 985.55,-309.12"/>
</g>
<!-- 15 -->
<g id="node15" class="node">
<title>15</title>
<ellipse fill="#3fdfcd" stroke="black" stroke-width="4.25" cx="1126.38" cy="-286.35" rx="87.86" ry="26.74"/>
<text text-anchor="middle" x="1126.38" y="-290.15" font-family="Times,serif" font-size="14.00">nereis</text>
<text text-anchor="middle" x="1126.38" y="-275.15" font-family="Times,serif" font-size="14.00">(113.25 gC.m²)</text>
</g>
<!-- 3&#45;&gt;15 -->
<g id="edge76" class="edge">
<title>3&#45;&gt;15</title>
<path fill="none" stroke="black" stroke-width="2.74" d="M1142.61,-349.24C1140.47,-341.1 1138.08,-331.96 1135.8,-323.26"/>
<polygon fill="black" stroke="black" stroke-width="2.74" points="1139.11,-322.1 1133.19,-313.32 1132.34,-323.88 1139.11,-322.1"/>
</g>
<!-- 16 -->
<g id="node16" class="node">
<title>16</title>
<ellipse fill="#3accbc" stroke="black" stroke-width="6.47" cx="1744.38" cy="-286.35" rx="94.09" ry="26.74"/>
<text text-anchor="middle" x="1744.38" y="-290.15" font-family="Times,serif" font-size="14.00">macoma spp.</text>
<text text-anchor="middle" x="1744.38" y="-275.15" font-family="Times,serif" font-size="14.00">(1890.25 gC.m²)</text>
</g>
<!-- 3&#45;&gt;16 -->
<g id="edge77" class="edge">
<title>3&#45;&gt;16</title>
<path fill="none" stroke="black" stroke-width="2.92" d="M1256.45,-359.3C1369.24,-342.67 1545.04,-316.75 1651.98,-300.98"/>
<polygon fill="black" stroke="black" stroke-width="2.92" points="1652.72,-304.4 1662.11,-299.48 1651.7,-297.48 1652.72,-304.4"/>
</g>
<!-- 17 -->
<g id="node17" class="node">
<title>17</title>
<ellipse fill="#3dd7c7" stroke="black" stroke-width="5.11" cx="565.38" cy="-286.35" rx="81.13" ry="26.74"/>
<text text-anchor="middle" x="565.38" y="-290.15" font-family="Times,serif" font-size="14.00">meiofauna</text>
<text text-anchor="middle" x="565.38" y="-275.15" font-family="Times,serif" font-size="14.00">(337.5 gC.m²)</text>
</g>
<!-- 3&#45;&gt;17 -->
<g id="edge78" class="edge">
<title>3&#45;&gt;17</title>
<path fill="none" stroke="black" stroke-width="2.82" d="M1026.54,-364.36C927.18,-354.52 783.98,-337.74 660.38,-313.22 651.92,-311.54 643.09,-309.52 634.39,-307.35"/>
<polygon fill="black" stroke="black" stroke-width="2.82" points="635.18,-303.94 624.63,-304.85 633.45,-310.72 635.18,-303.94"/>
</g>
<!-- 18 -->
<g id="node18" class="node">
<title>18</title>
<ellipse fill="#3edac9" stroke="black" stroke-width="4.8" cx="1375.38" cy="-286.35" rx="142.67" ry="26.74"/>
<text text-anchor="middle" x="1375.38" y="-290.15" font-family="Times,serif" font-size="14.00">crustacean deposit feeder</text>
<text text-anchor="middle" x="1375.38" y="-275.15" font-family="Times,serif" font-size="14.00">(228.0 gC.m²)</text>
</g>
<!-- 3&#45;&gt;18 -->
<g id="edge79" class="edge">
<title>3&#45;&gt;18</title>
<path fill="none" stroke="black" stroke-width="2.61" d="M1209.06,-351.92C1238.69,-340.42 1274.66,-326.45 1305.57,-314.46"/>
<polygon fill="black" stroke="black" stroke-width="2.61" points="1306.93,-317.68 1314.98,-310.8 1304.39,-311.16 1306.93,-317.68"/>
</g>
<!-- 3&#45;&gt;36 -->
<g id="edge80" class="edge">
<title>3&#45;&gt;36</title>
<path fill="none" stroke="black" stroke-width="3.09" d="M1218.43,-399.33C1251.17,-410.6 1289.72,-424.23 1320.45,-435.4"/>
<polygon fill="black" stroke="black" stroke-width="3.09" points="1319.54,-438.79 1330.13,-438.94 1321.94,-432.22 1319.54,-438.79"/>
</g>
<!-- 3&#45;&gt;39 -->
<g id="edge25" class="edge">
<title>3&#45;&gt;39</title>
<path fill="none" stroke="black" stroke-width="3.32" d="M1016.71,-369.65C950.72,-362.44 871.56,-346.75 807.38,-313.22 757.32,-287.06 739.04,-275.65 717.38,-223.48 692.85,-164.38 695.73,-134.43 729.38,-80 737.75,-66.47 750.65,-55.4 763.86,-46.73"/>
<polygon fill="black" stroke="black" stroke-width="3.32" points="765.86,-49.61 772.53,-41.38 762.18,-43.65 765.86,-49.61"/>
</g>
<!-- 4 -->
<g id="node4" class="node">
<title>4</title>
<ellipse fill="#3edccb" stroke="black" stroke-width="4.6" cx="405.38" cy="-539.83" rx="92.76" ry="26.74"/>
<text text-anchor="middle" x="405.38" y="-543.63" font-family="Times,serif" font-size="14.00">benthic diatoms</text>
<text text-anchor="middle" x="405.38" y="-528.63" font-family="Times,serif" font-size="14.00">(177.25 gC.m²)</text>
</g>
<!-- 4&#45;&gt;17 -->
<g id="edge81" class="edge">
<title>4&#45;&gt;17</title>
<path fill="none" stroke="black" stroke-width="2.7" d="M421.61,-513.33C450.54,-467.86 511.04,-372.77 543.57,-321.63"/>
<polygon fill="black" stroke="black" stroke-width="2.7" points="546.7,-323.23 549.12,-312.91 540.8,-319.47 546.7,-323.23"/>
</g>
<!-- 4&#45;&gt;36 -->
<g id="edge82" class="edge">
<title>4&#45;&gt;36</title>
<path fill="none" stroke="black" stroke-width="2.83" d="M474.35,-521.73C490.06,-518.35 506.73,-515.17 522.38,-512.96 786.64,-475.61 1100.63,-464.09 1264.03,-460.54"/>
<polygon fill="black" stroke="black" stroke-width="2.83" points="1264.17,-464.03 1274.09,-460.32 1264.02,-457.04 1264.17,-464.03"/>
</g>
<!-- 4&#45;&gt;39 -->
<g id="edge26" class="edge">
<title>4&#45;&gt;39</title>
<path fill="none" stroke="black" stroke-width="2.8" d="M377.52,-514.09C347.62,-484.67 304.38,-432.54 304.38,-377.09 304.38,-377.09 304.38,-377.09 304.38,-195.61 304.38,-142.3 295.95,-114.75 336.38,-80 393.62,-30.82 608.32,-22.69 729.24,-22.14"/>
<polygon fill="black" stroke="black" stroke-width="2.8" points="729.58,-25.64 739.57,-22.12 729.56,-18.64 729.58,-25.64"/>
</g>
<!-- 5 -->
<g id="node5" class="node">
<title>5</title>
<ellipse fill="#3dd6c6" stroke="black" stroke-width="5.23" cx="495.38" cy="-1331.75" rx="81.13" ry="26.74"/>
<text text-anchor="middle" x="495.38" y="-1335.55" font-family="Times,serif" font-size="14.00">free bacteria</text>
<text text-anchor="middle" x="495.38" y="-1320.55" font-family="Times,serif" font-size="14.00">(390.5 gC.m²)</text>
</g>
<!-- 6 -->
<g id="node6" class="node">
<title>6</title>
<ellipse fill="#41e6d4" stroke="black" stroke-width="3.42" cx="469.38" cy="-1242.01" rx="140.01" ry="26.74"/>
<text text-anchor="middle" x="469.38" y="-1245.81" font-family="Times,serif" font-size="14.00">heterotrophic microflagel</text>
<text text-anchor="middle" x="469.38" y="-1230.81" font-family="Times,serif" font-size="14.00">(39.0 gC.m²)</text>
</g>
<!-- 5&#45;&gt;6 -->
<g id="edge83" class="edge">
<title>5&#45;&gt;6</title>
<path fill="none" stroke="black" stroke-width="3.07" d="M487.72,-1304.9C485.29,-1296.67 482.54,-1287.42 479.94,-1278.63"/>
<polygon fill="black" stroke="black" stroke-width="3.07" points="483.28,-1277.57 477.08,-1268.98 476.56,-1279.56 483.28,-1277.57"/>
</g>
<!-- 5&#45;&gt;35 -->
<g id="edge84" class="edge">
<title>5&#45;&gt;35</title>
<path fill="none" stroke="black" stroke-width="2.49" d="M548.27,-1311.14C571.42,-1300.87 597.92,-1286.69 618.38,-1268.88 692.39,-1204.47 699.38,-1161.64 699.38,-1063.53 699.38,-1063.53 699.38,-1063.53 699.38,-971.79 699.38,-916.03 736.82,-860.01 762.3,-828.35"/>
<polygon fill="black" stroke="black" stroke-width="2.49" points="765.14,-830.41 768.8,-820.47 759.74,-825.95 765.14,-830.41"/>
</g>
<!-- 5&#45;&gt;39 -->
<g id="edge27" class="edge">
<title>5&#45;&gt;39</title>
<path fill="none" stroke="black" stroke-width="3.05" d="M426.02,-1317.73C391.47,-1308.55 350.71,-1293.39 320.38,-1268.88 210.61,-1180.19 0.38,-861.44 0.38,-720.31 0.38,-720.31 0.38,-720.31 0.38,-195.61 0.38,-141.79 -5.76,-113.46 36.38,-80 89.69,-37.67 539.58,-26.67 729.41,-23.9"/>
<polygon fill="black" stroke="black" stroke-width="3.05" points="729.67,-27.39 739.62,-23.75 729.57,-20.4 729.67,-27.39"/>
</g>
<!-- 6&#45;&gt;7 -->
<g id="edge85" class="edge">
<title>6&#45;&gt;7</title>
<path fill="none" stroke="black" stroke-width="2.84" d="M502.05,-1215.87C515.02,-1205.89 530.06,-1194.32 543.65,-1183.86"/>
<polygon fill="black" stroke="black" stroke-width="2.84" points="546.1,-1186.38 551.89,-1177.51 541.83,-1180.84 546.1,-1186.38"/>
</g>
<!-- 6&#45;&gt;35 -->
<g id="edge86" class="edge">
<title>6&#45;&gt;35</title>
<path fill="none" stroke="black" stroke-width="2.63" d="M470.25,-1215.04C471.72,-1191.12 475.7,-1154.98 486.38,-1125.4 533.97,-993.63 543.41,-946.66 650.38,-856.18 666.69,-842.39 686.96,-831.82 706.8,-823.84"/>
<polygon fill="black" stroke="black" stroke-width="2.63" points="708.09,-827.09 716.17,-820.24 705.58,-820.56 708.09,-827.09"/>
</g>
<!-- 6&#45;&gt;39 -->
<g id="edge28" class="edge">
<title>6&#45;&gt;39</title>
<path fill="none" stroke="black" stroke-width="2.91" d="M448.79,-1215.17C405.94,-1162.09 302.99,-1038.07 204.38,-945.92 185.42,-928.2 175.8,-929.17 158.38,-909.92 91.47,-835.97 38.38,-820.04 38.38,-720.31 38.38,-720.31 38.38,-720.31 38.38,-195.61 38.38,-141.79 32.3,-113.54 74.38,-80 124.66,-39.93 546.8,-27.68 729.57,-24.24"/>
<polygon fill="black" stroke="black" stroke-width="2.91" points="729.74,-27.74 739.68,-24.05 729.61,-20.74 729.74,-27.74"/>
</g>
<!-- 7&#45;&gt;8 -->
<g id="edge87" class="edge">
<title>7&#45;&gt;8</title>
<path fill="none" stroke="black" stroke-width="2.52" d="M666.8,-1143.86C790.55,-1132.74 1030.04,-1110.77 1233.38,-1089.4 1279.44,-1084.56 1330.75,-1078.7 1372.73,-1073.78"/>
<polygon fill="black" stroke="black" stroke-width="2.52" points="1373.39,-1077.23 1382.91,-1072.58 1372.57,-1070.27 1373.39,-1077.23"/>
</g>
<!-- 7&#45;&gt;9 -->
<g id="edge88" class="edge">
<title>7&#45;&gt;9</title>
<path fill="none" stroke="black" stroke-width="2.34" d="M631.42,-1129.69C704.82,-1096.71 844.54,-1033.93 922.42,-998.94"/>
<polygon fill="black" stroke="black" stroke-width="2.34" points="923.91,-1002.1 931.6,-994.81 921.04,-995.72 923.91,-1002.1"/>
</g>
<!-- 7&#45;&gt;11 -->
<g id="edge89" class="edge">
<title>7&#45;&gt;11</title>
<path fill="none" stroke="black" stroke-width="1.78" d="M577.36,-1125.24C566.39,-1071.83 547.95,-947.22 590.38,-856.18 642.36,-744.66 778.7,-683.87 871.57,-654.31"/>
<polygon fill="black" stroke="black" stroke-width="1.78" points="872.76,-657.61 881.27,-651.29 870.68,-650.92 872.76,-657.61"/>
</g>
<!-- 7&#45;&gt;12 -->
<g id="edge90" class="edge">
<title>7&#45;&gt;12</title>
<path fill="none" stroke="black" stroke-width="1.65" d="M559.38,-1126.26C550.02,-1115.54 539.79,-1102.48 532.38,-1089.4 505.53,-1041.96 491.38,-1028.31 491.38,-973.79 491.38,-973.79 491.38,-973.79 491.38,-882.05 491.38,-756.98 387.23,-706.24 457.38,-602.7 467.63,-587.57 505.42,-572.33 541.11,-560.76"/>
<polygon fill="black" stroke="black" stroke-width="1.65" points="542.62,-563.95 551.1,-557.6 540.51,-557.28 542.62,-563.95"/>
</g>
<!-- 7&#45;&gt;13 -->
<g id="edge91" class="edge">
<title>7&#45;&gt;13</title>
<path fill="none" stroke="black" stroke-width="1.79" d="M569.22,-1125.68C563.64,-1114.76 557.58,-1101.72 553.38,-1089.4 536.47,-1039.72 529.38,-1026.27 529.38,-973.79 529.38,-973.79 529.38,-973.79 529.38,-800.18 529.38,-753.01 543.55,-700.2 554.59,-666.23"/>
<polygon fill="black" stroke="black" stroke-width="1.79" points="558.05,-666.91 557.89,-656.32 551.41,-664.7 558.05,-666.91"/>
</g>
<!-- 7&#45;&gt;35 -->
<g id="edge92" class="edge">
<title>7&#45;&gt;35</title>
<path fill="none" stroke="black" stroke-width="2.88" d="M592.15,-1125.23C598.05,-1114.46 605.19,-1101.64 610.38,-1089.4 652.47,-990.24 609.01,-940.23 676.38,-856.18 686.81,-843.18 701.24,-832.88 716.22,-824.91"/>
<polygon fill="black" stroke="black" stroke-width="2.88" points="718.2,-827.83 725.59,-820.25 715.08,-821.57 718.2,-827.83"/>
</g>
<!-- 7&#45;&gt;39 -->
<g id="edge29" class="edge">
<title>7&#45;&gt;39</title>
<path fill="none" stroke="black" stroke-width="2.87" d="M534.31,-1129.84C407.07,-1070.57 76.38,-891.43 76.38,-630.57 76.38,-630.57 76.38,-630.57 76.38,-195.61 76.38,-141.92 69.6,-113.71 111.38,-80 158.53,-41.96 553.37,-28.66 729.34,-24.59"/>
<polygon fill="black" stroke="black" stroke-width="2.87" points="729.67,-28.08 739.59,-24.36 729.51,-21.08 729.67,-28.08"/>
</g>
<!-- 8&#45;&gt;9 -->
<g id="edge93" class="edge">
<title>8&#45;&gt;9</title>
<path fill="none" stroke="black" stroke-width="2.5" d="M1388.33,-1048.73C1300.59,-1032.69 1150.6,-1005.27 1058.41,-988.42"/>
<polygon fill="black" stroke="black" stroke-width="2.5" points="1059.04,-984.98 1048.57,-986.62 1057.78,-991.86 1059.04,-984.98"/>
</g>
<!-- 10 -->
<g id="node10" class="node">
<title>10</title>
<ellipse fill="#46f8e5" stroke="black" stroke-width="1.3" cx="1091.38" cy="-883.05" rx="100.32" ry="26.74"/>
<text text-anchor="middle" x="1091.38" y="-886.85" font-family="Times,serif" font-size="14.00">sea nettle</text>
<text text-anchor="middle" x="1091.38" y="-871.85" font-family="Times,serif" font-size="14.00">(1.750007 gC.m²)</text>
</g>
<!-- 8&#45;&gt;10 -->
<g id="edge94" class="edge">
<title>8&#45;&gt;10</title>
<path fill="none" stroke="black" stroke-width="2.1" d="M1413.75,-1039.95C1346.88,-1007.61 1220.78,-946.63 1147.68,-911.28"/>
<polygon fill="black" stroke="black" stroke-width="2.1" points="1149.13,-908.09 1138.6,-906.89 1146.08,-914.39 1149.13,-908.09"/>
</g>
<!-- 20 -->
<g id="node20" class="node">
<title>20</title>
<ellipse fill="#48feea" stroke="black" stroke-width="0.58" cx="1506.38" cy="-539.83" rx="106.55" ry="26.74"/>
<text text-anchor="middle" x="1506.38" y="-543.63" font-family="Times,serif" font-size="14.00">fish larvae</text>
<text text-anchor="middle" x="1506.38" y="-528.63" font-family="Times,serif" font-size="14.00">(0.1000075 gC.m²)</text>
</g>
<!-- 8&#45;&gt;20 -->
<g id="edge95" class="edge">
<title>8&#45;&gt;20</title>
<path fill="none" stroke="black" stroke-width="0.91" d="M1462.22,-1035.44C1466.95,-1000.89 1474.38,-938.04 1474.38,-884.05 1474.38,-884.05 1474.38,-884.05 1474.38,-718.31 1474.38,-668.58 1486.7,-612.25 1496.05,-576.64"/>
<polygon fill="black" stroke="black" stroke-width="0.91" points="1499.5,-577.3 1498.72,-566.73 1492.74,-575.48 1499.5,-577.3"/>
</g>
<!-- 21 -->
<g id="node21" class="node">
<title>21</title>
<ellipse fill="#47f9e6" stroke="black" stroke-width="1.11" cx="2455.38" cy="-539.83" rx="125.73" ry="26.74"/>
<text text-anchor="middle" x="2455.38" y="-543.63" font-family="Times,serif" font-size="14.00">alewife &amp; blue herring</text>
<text text-anchor="middle" x="2455.38" y="-528.63" font-family="Times,serif" font-size="14.00">(1.15 gC.m²)</text>
</g>
<!-- 8&#45;&gt;21 -->
<g id="edge96" class="edge">
<title>8&#45;&gt;21</title>
<path fill="none" stroke="black" stroke-width="1.25" d="M1539.6,-1060.09C1740.9,-1055.89 2251.28,-1041.23 2315.38,-999.66 2364.3,-967.94 2377.38,-942.36 2377.38,-884.05 2377.38,-884.05 2377.38,-884.05 2377.38,-718.31 2377.38,-665.02 2407.23,-609.75 2429.99,-575.34"/>
<polygon fill="black" stroke="black" stroke-width="1.25" points="2433.19,-576.87 2435.9,-566.63 2427.39,-572.94 2433.19,-576.87"/>
</g>
<!-- 8&#45;&gt;22 -->
<g id="edge97" class="edge">
<title>8&#45;&gt;22</title>
<path fill="none" stroke="black" stroke-width="2.16" d="M1514.31,-1042.98C1578.02,-1017.9 1673.38,-966.57 1673.38,-884.05 1673.38,-884.05 1673.38,-884.05 1673.38,-800.18 1673.38,-734.44 1737.89,-685.05 1786.96,-656.98"/>
<polygon fill="black" stroke="black" stroke-width="2.16" points="1788.89,-659.92 1795.92,-651.99 1785.48,-653.8 1788.89,-659.92"/>
</g>
<!-- 8&#45;&gt;23 -->
<g id="edge98" class="edge">
<title>8&#45;&gt;23</title>
<path fill="none" stroke="black" stroke-width="1.75" d="M1539.32,-1059.42C1746.04,-1053.53 2282.28,-1035.01 2354.38,-999.66 2551.73,-902.91 2696.27,-664.85 2745.23,-575.48"/>
<polygon fill="black" stroke="black" stroke-width="1.75" points="2748.38,-577.02 2750.07,-566.56 2742.23,-573.68 2748.38,-577.02"/>
</g>
<!-- 24 -->
<g id="node24" class="node">
<title>24</title>
<ellipse fill="#48fce9" stroke="black" stroke-width="0.79" cx="2173.38" cy="-539.83" rx="100.32" ry="26.74"/>
<text text-anchor="middle" x="2173.38" y="-543.63" font-family="Times,serif" font-size="14.00">shad</text>
<text text-anchor="middle" x="2173.38" y="-528.63" font-family="Times,serif" font-size="14.00">(0.450005 gC.m²)</text>
</g>
<!-- 8&#45;&gt;24 -->
<g id="edge99" class="edge">
<title>8&#45;&gt;24</title>
<path fill="none" stroke="black" stroke-width="0.92" d="M1536.6,-1055.03C1699.75,-1039.29 2061.38,-992.22 2061.38,-884.05 2061.38,-884.05 2061.38,-884.05 2061.38,-718.31 2061.38,-660.22 2104.83,-605.64 2137.6,-572.74"/>
<polygon fill="black" stroke="black" stroke-width="0.92" points="2140.14,-575.15 2144.83,-565.65 2135.24,-570.15 2140.14,-575.15"/>
</g>
<!-- 8&#45;&gt;35 -->
<g id="edge100" class="edge">
<title>8&#45;&gt;35</title>
<path fill="none" stroke="black" stroke-width="2.76" d="M1378.33,-1057.59C1228.68,-1049.34 918.35,-1028.58 879.38,-999.66 823.74,-958.37 853.5,-915.91 818.38,-856.18 812.79,-846.66 805.71,-836.93 799.41,-828.4"/>
<polygon fill="black" stroke="black" stroke-width="2.76" points="802.19,-826.28 793.44,-820.32 796.56,-830.44 802.19,-826.28"/>
</g>
<!-- 38 -->
<g id="node38" class="node">
<title>38</title>
<polygon fill="white" stroke="black" stroke-width="0.5" points="2428.38,-40 2366.72,-22 2428.38,-4 2490.05,-22 2428.38,-40"/>
<polyline fill="none" stroke="black" stroke-width="0.5" points="2378.24,-25.36 2378.24,-18.64 "/>
<polyline fill="none" stroke="black" stroke-width="0.5" points="2416.86,-7.36 2439.9,-7.36 "/>
<polyline fill="none" stroke="black" stroke-width="0.5" points="2478.53,-18.64 2478.53,-25.36 "/>
<polyline fill="none" stroke="black" stroke-width="0.5" points="2439.9,-36.64 2416.86,-36.64 "/>
<text text-anchor="middle" x="2428.38" y="-18.3" font-family="Times,serif" font-size="14.00">Output</text>
</g>
<!-- 8&#45;&gt;38 -->
<g id="edge5" class="edge">
<title>8&#45;&gt;38</title>
<path fill="none" stroke="black" stroke-width="2.71" d="M1540.01,-1062.19C1740.56,-1062.87 2252.65,-1058.59 2411.38,-999.66 2764.49,-868.57 2986.38,-753.75 2986.38,-377.09 2986.38,-377.09 2986.38,-377.09 2986.38,-195.61 2986.38,-140.31 2984.36,-113.53 2940.38,-80 2872.94,-28.57 2624.39,-22.06 2500.11,-22.14"/>
<polygon fill="black" stroke="black" stroke-width="2.71" points="2499.92,-18.64 2489.93,-22.16 2499.94,-25.64 2499.92,-18.64"/>
</g>
<!-- 8&#45;&gt;39 -->
<g id="edge30" class="edge">
<title>8&#45;&gt;39</title>
<path fill="none" stroke="black" stroke-width="2.89" d="M1539.98,-1061.52C1751.54,-1059.3 2301.38,-1038.66 2301.38,-884.05 2301.38,-884.05 2301.38,-884.05 2301.38,-628.57 2301.38,-526.53 2352.89,-244.45 2283.38,-169.74 2234.34,-117.02 2030.82,-152.79 1961.38,-133.74 1905.42,-118.39 1898.76,-93.78 1842.38,-80 1663.9,-36.37 1109.47,-26.06 897.22,-23.69"/>
<polygon fill="black" stroke="black" stroke-width="2.89" points="897.1,-20.19 887.07,-23.58 897.03,-27.18 897.1,-20.19"/>
</g>
<!-- 9&#45;&gt;10 -->
<g id="edge101" class="edge">
<title>9&#45;&gt;10</title>
<path fill="none" stroke="black" stroke-width="1.93" d="M1009.26,-947.82C1022.37,-937.64 1037.82,-925.64 1051.75,-914.82"/>
<polygon fill="black" stroke="black" stroke-width="1.93" points="1054.01,-917.51 1059.76,-908.61 1049.71,-911.98 1054.01,-917.51"/>
</g>
<!-- 9&#45;&gt;35 -->
<g id="edge102" class="edge">
<title>9&#45;&gt;35</title>
<path fill="none" stroke="black" stroke-width="2.47" d="M955.38,-946.89C935.83,-921.75 906.55,-882.91 874.38,-856.18 860.02,-844.25 842.63,-833.66 826.98,-825.09"/>
<polygon fill="black" stroke="black" stroke-width="2.47" points="828.47,-821.92 818,-820.29 825.17,-828.09 828.47,-821.92"/>
</g>
<!-- 9&#45;&gt;36 -->
<g id="edge103" class="edge">
<title>9&#45;&gt;36</title>
<path fill="none" stroke="black" stroke-width="1.94" d="M1049.55,-959.65C1162.81,-935.81 1371.38,-871.38 1371.38,-720.31 1371.38,-720.31 1371.38,-720.31 1371.38,-628.57 1371.38,-578.74 1373.13,-520.69 1374.32,-487.05"/>
<polygon fill="black" stroke="black" stroke-width="1.94" points="1377.81,-487.15 1374.68,-477.03 1370.82,-486.9 1377.81,-487.15"/>
</g>
<!-- 9&#45;&gt;39 -->
<g id="edge31" class="edge">
<title>9&#45;&gt;39</title>
<path fill="none" stroke="black" stroke-width="2.48" d="M907.31,-959.57C700.64,-922.05 114.38,-800.61 114.38,-630.57 114.38,-630.57 114.38,-630.57 114.38,-195.61 114.38,-142.3 105.37,-114.06 146.38,-80 190.33,-43.51 560.19,-29.45 729.44,-24.89"/>
<polygon fill="black" stroke="black" stroke-width="2.48" points="729.65,-28.38 739.55,-24.62 729.47,-21.39 729.65,-28.38"/>
</g>
<!-- 10&#45;&gt;35 -->
<g id="edge104" class="edge">
<title>10&#45;&gt;35</title>
<path fill="none" stroke="black" stroke-width="1.88" d="M1021.18,-863.73C974.38,-851.51 912.79,-835.44 864.3,-822.78"/>
<polygon fill="black" stroke="black" stroke-width="1.88" points="865.03,-819.35 854.47,-820.21 863.26,-826.12 865.03,-819.35"/>
</g>
<!-- 10&#45;&gt;36 -->
<g id="edge105" class="edge">
<title>10&#45;&gt;36</title>
<path fill="none" stroke="black" stroke-width="1.69" d="M1108.51,-856.54C1158.87,-781.51 1306.14,-562.11 1357.48,-485.63"/>
<polygon fill="black" stroke="black" stroke-width="1.69" points="1360.59,-487.28 1363.26,-477.03 1354.78,-483.38 1360.59,-487.28"/>
</g>
<!-- 10&#45;&gt;39 -->
<g id="edge32" class="edge">
<title>10&#45;&gt;39</title>
<path fill="none" stroke="black" stroke-width="2.08" d="M1047.56,-858.8C1008.24,-838.14 948.83,-807.39 896.38,-782.18 861.24,-765.29 849.94,-766.04 816.38,-746.18 759.38,-712.44 741.94,-705.46 697.38,-656.44 678.53,-635.7 688.26,-617.38 664.38,-602.7 581.37,-551.67 304.3,-626.53 227.38,-566.7 187.42,-535.61 190.38,-509.59 190.38,-458.96 190.38,-458.96 190.38,-458.96 190.38,-195.61 190.38,-141.79 184.64,-113.96 226.38,-80 264.55,-48.95 576.31,-32.4 729.31,-26.07"/>
<polygon fill="black" stroke="black" stroke-width="2.08" points="729.75,-29.56 739.6,-25.65 729.47,-22.56 729.75,-29.56"/>
</g>
<!-- 19 -->
<g id="node19" class="node">
<title>19</title>
<ellipse fill="#3ed9c8" stroke="black" stroke-width="4.95" cx="1881.38" cy="-196.61" rx="81.13" ry="26.74"/>
<text text-anchor="middle" x="1881.38" y="-200.41" font-family="Times,serif" font-size="14.00">blue crab</text>
<text text-anchor="middle" x="1881.38" y="-185.41" font-family="Times,serif" font-size="14.00">(275.0 gC.m²)</text>
</g>
<!-- 11&#45;&gt;19 -->
<g id="edge106" class="edge">
<title>11&#45;&gt;19</title>
<path fill="none" stroke="black" stroke-width="1.92" d="M1042.02,-607.11C1127.33,-583.62 1268.47,-545.02 1390.38,-512.96 1582,-462.57 1643.28,-487.67 1822.38,-402.96 1883.23,-374.18 1914,-373.28 1944.38,-313.22 1955.16,-291.91 1953.62,-281.51 1944.38,-259.48 1939.47,-247.77 1931.14,-237.16 1922.12,-228.16"/>
<polygon fill="black" stroke="black" stroke-width="1.92" points="1924.48,-225.58 1914.78,-221.3 1919.7,-230.69 1924.48,-225.58"/>
</g>
<!-- 11&#45;&gt;36 -->
<g id="edge107" class="edge">
<title>11&#45;&gt;36</title>
<path fill="none" stroke="black" stroke-width="2.34" d="M1013.24,-604.19C1063.34,-579.64 1143.83,-541.42 1215.38,-512.96 1245.24,-501.08 1278.86,-489.48 1307.55,-480.09"/>
<polygon fill="black" stroke="black" stroke-width="2.34" points="1308.65,-483.41 1317.08,-476.99 1306.49,-476.75 1308.65,-483.41"/>
</g>
<!-- 11&#45;&gt;39 -->
<g id="edge33" class="edge">
<title>11&#45;&gt;39</title>
<path fill="none" stroke="black" stroke-width="2.33" d="M847.96,-614.75C811.9,-610.65 772.02,-606.3 735.38,-602.7 687.45,-598 341.39,-596.29 303.38,-566.7 263.44,-535.6 266.38,-509.59 266.38,-458.96 266.38,-458.96 266.38,-458.96 266.38,-195.61 266.38,-141.92 260.11,-114.33 301.38,-80 333.58,-53.22 592.77,-35.11 729.54,-27.32"/>
<polygon fill="black" stroke="black" stroke-width="2.33" points="729.79,-30.82 739.57,-26.76 729.39,-23.83 729.79,-30.82"/>
</g>
<!-- 12&#45;&gt;19 -->
<g id="edge108" class="edge">
<title>12&#45;&gt;19</title>
<path fill="none" stroke="black" stroke-width="1.72" d="M669.49,-520.61C679.08,-517.85 688.98,-515.18 698.38,-512.96 761.44,-498.05 1799.04,-356.35 1847.38,-313.22 1869.61,-293.39 1877.63,-259.86 1880.37,-234"/>
<polygon fill="black" stroke="black" stroke-width="1.72" points="1883.88,-234.06 1881.23,-223.8 1876.9,-233.47 1883.88,-234.06"/>
</g>
<!-- 26 -->
<g id="node26" class="node">
<title>26</title>
<ellipse fill="#44efdd" stroke="black" stroke-width="2.32" cx="813.38" cy="-196.61" rx="68.68" ry="26.74"/>
<text text-anchor="middle" x="813.38" y="-200.41" font-family="Times,serif" font-size="14.00">hogchoker</text>
<text text-anchor="middle" x="813.38" y="-185.41" font-family="Times,serif" font-size="14.00">(9.0 gC.m²)</text>
</g>
<!-- 12&#45;&gt;26 -->
<g id="edge109" class="edge">
<title>12&#45;&gt;26</title>
<path fill="none" stroke="black" stroke-width="1.03" d="M627.49,-513.18C663.23,-452.52 752.97,-300.17 793.26,-231.78"/>
<polygon fill="black" stroke="black" stroke-width="1.03" points="796.32,-233.48 798.38,-223.09 790.28,-229.93 796.32,-233.48"/>
</g>
<!-- 12&#45;&gt;36 -->
<g id="edge110" class="edge">
<title>12&#45;&gt;36</title>
<path fill="none" stroke="black" stroke-width="2.13" d="M670.79,-521.1C682.8,-517.97 695.43,-515.05 707.38,-512.96 901.32,-479.02 1130.74,-466.35 1263.99,-461.67"/>
<polygon fill="black" stroke="black" stroke-width="2.13" points="1264.34,-465.16 1274.21,-461.32 1264.1,-458.16 1264.34,-465.16"/>
</g>
<!-- 12&#45;&gt;38 -->
<g id="edge6" class="edge">
<title>12&#45;&gt;38</title>
<path fill="none" stroke="black" stroke-width="1.91" d="M692.25,-534.66C846.01,-526.29 1193.75,-505.78 1485.38,-476.96 1550.37,-470.54 2006.46,-423.67 2068.38,-402.96 2119.63,-385.82 2448.81,-181.86 2473.38,-133.74 2484.25,-112.47 2481.22,-102.56 2473.38,-80 2468.62,-66.28 2459.03,-53.36 2449.92,-43.31"/>
<polygon fill="black" stroke="black" stroke-width="1.91" points="2452.27,-40.7 2442.83,-35.9 2447.21,-45.54 2452.27,-40.7"/>
</g>
<!-- 12&#45;&gt;39 -->
<g id="edge34" class="edge">
<title>12&#45;&gt;39</title>
<path fill="none" stroke="black" stroke-width="2.2" d="M559.68,-519.32C481.11,-488.59 342.38,-427.22 342.38,-377.09 342.38,-377.09 342.38,-377.09 342.38,-195.61 342.38,-143.13 327.86,-115.64 366.38,-80 417.67,-32.56 614.98,-23.57 729.59,-22.47"/>
<polygon fill="black" stroke="black" stroke-width="2.2" points="729.76,-25.97 739.74,-22.39 729.71,-18.97 729.76,-25.97"/>
</g>
<!-- 13&#45;&gt;36 -->
<g id="edge111" class="edge">
<title>13&#45;&gt;36</title>
<path fill="none" stroke="black" stroke-width="2.16" d="M624.86,-609.14C650.17,-598.91 679.32,-584.71 702.38,-566.7 726.5,-547.88 718.4,-527.38 745.38,-512.96 789.89,-489.18 1095.46,-471.7 1264.12,-463.74"/>
<polygon fill="black" stroke="black" stroke-width="2.16" points="1264.46,-467.23 1274.28,-463.27 1264.13,-460.24 1264.46,-467.23"/>
</g>
<!-- 13&#45;&gt;38 -->
<g id="edge7" class="edge">
<title>13&#45;&gt;38</title>
<path fill="none" stroke="black" stroke-width="2.31" d="M647.42,-618.54C696.18,-612.86 759.78,-606.21 816.38,-602.7 865.58,-599.65 2548.98,-593.43 2590.38,-566.7 2778.78,-445.08 2880.8,-239.7 2723.38,-80 2691.17,-47.31 2563.85,-32.63 2487.4,-26.65"/>
<polygon fill="black" stroke="black" stroke-width="2.31" points="2487.2,-23.12 2476.96,-25.86 2486.67,-30.1 2487.2,-23.12"/>
</g>
<!-- 13&#45;&gt;39 -->
<g id="edge35" class="edge">
<title>13&#45;&gt;39</title>
<path fill="none" stroke="black" stroke-width="2.32" d="M480.41,-625.92C378.81,-620.98 219.14,-606.88 176.38,-566.7 140.63,-533.11 152.38,-508.02 152.38,-458.96 152.38,-458.96 152.38,-458.96 152.38,-195.61 152.38,-143.13 137.2,-114.9 176.38,-80 216.84,-43.97 565.83,-29.75 729.41,-25.02"/>
<polygon fill="black" stroke="black" stroke-width="2.32" points="729.54,-28.52 739.44,-24.74 729.35,-21.52 729.54,-28.52"/>
</g>
<!-- 25 -->
<g id="node25" class="node">
<title>25</title>
<ellipse fill="#47fae7" stroke="black" stroke-width="1.03" cx="1276.38" cy="-196.61" rx="106.55" ry="26.74"/>
<text text-anchor="middle" x="1276.38" y="-200.41" font-family="Times,serif" font-size="14.00">croaker</text>
<text text-anchor="middle" x="1276.38" y="-185.41" font-family="Times,serif" font-size="14.00">(0.9500025 gC.m²)</text>
</g>
<!-- 14&#45;&gt;25 -->
<g id="edge112" class="edge">
<title>14&#45;&gt;25</title>
<path fill="none" stroke="black" stroke-width="0.94" d="M991.26,-267.49C1049.36,-253.25 1130.8,-233.29 1191.78,-218.35"/>
<polygon fill="black" stroke="black" stroke-width="0.94" points="1192.88,-221.68 1201.76,-215.9 1191.22,-214.88 1192.88,-221.68"/>
</g>
<!-- 14&#45;&gt;26 -->
<g id="edge113" class="edge">
<title>14&#45;&gt;26</title>
<path fill="none" stroke="black" stroke-width="1.38" d="M888.58,-260.44C876.43,-250.29 862.27,-238.46 849.53,-227.82"/>
<polygon fill="black" stroke="black" stroke-width="1.38" points="851.74,-225.1 841.82,-221.37 847.25,-230.47 851.74,-225.1"/>
</g>
<!-- 27 -->
<g id="node27" class="node">
<title>27</title>
<ellipse fill="#42e6d5" stroke="black" stroke-width="3.34" cx="1707.38" cy="-196.61" rx="74.91" ry="26.74"/>
<text text-anchor="middle" x="1707.38" y="-200.41" font-family="Times,serif" font-size="14.00">spot</text>
<text text-anchor="middle" x="1707.38" y="-185.41" font-family="Times,serif" font-size="14.00">(35.0 gC.m²)</text>
</g>
<!-- 14&#45;&gt;27 -->
<g id="edge114" class="edge">
<title>14&#45;&gt;27</title>
<path fill="none" stroke="black" stroke-width="1.75" d="M989.41,-266.97C1002.62,-264.08 1016.37,-261.41 1029.38,-259.48 1274.35,-223.25 1340.07,-257.25 1585.38,-223.48 1601.9,-221.21 1619.52,-217.96 1636.09,-214.53"/>
<polygon fill="black" stroke="black" stroke-width="1.75" points="1637.19,-217.87 1646.25,-212.38 1635.74,-211.03 1637.19,-217.87"/>
</g>
<!-- 28 -->
<g id="node28" class="node">
<title>28</title>
<ellipse fill="#42e8d6" stroke="black" stroke-width="3.09" cx="1488.38" cy="-196.61" rx="87.86" ry="26.74"/>
<text text-anchor="middle" x="1488.38" y="-200.41" font-family="Times,serif" font-size="14.00">white perch</text>
<text text-anchor="middle" x="1488.38" y="-185.41" font-family="Times,serif" font-size="14.00">(25.475 gC.m²)</text>
</g>
<!-- 14&#45;&gt;28 -->
<g id="edge115" class="edge">
<title>14&#45;&gt;28</title>
<path fill="none" stroke="black" stroke-width="1.44" d="M990.06,-267.21C1003.09,-264.32 1016.6,-261.6 1029.38,-259.48 1189.34,-233.02 1232.91,-252.67 1392.38,-223.48 1400.35,-222.02 1408.62,-220.23 1416.82,-218.27"/>
<polygon fill="black" stroke="black" stroke-width="1.44" points="1417.89,-221.62 1426.76,-215.82 1416.21,-214.82 1417.89,-221.62"/>
</g>
<!-- 29 -->
<g id="node29" class="node">
<title>29</title>
<ellipse fill="#42e9d7" stroke="black" stroke-width="3" cx="987.38" cy="-196.61" rx="87.86" ry="26.74"/>
<text text-anchor="middle" x="987.38" y="-200.41" font-family="Times,serif" font-size="14.00">catfish</text>
<text text-anchor="middle" x="987.38" y="-185.41" font-family="Times,serif" font-size="14.00">(22.375 gC.m²)</text>
</g>
<!-- 14&#45;&gt;29 -->
<g id="edge116" class="edge">
<title>14&#45;&gt;29</title>
<path fill="none" stroke="black" stroke-width="1.59" d="M938.34,-259.97C945.49,-250.88 953.67,-240.49 961.26,-230.83"/>
<polygon fill="black" stroke="black" stroke-width="1.59" points="964.04,-232.96 967.47,-222.93 958.54,-228.63 964.04,-232.96"/>
</g>
<!-- 14&#45;&gt;36 -->
<g id="edge117" class="edge">
<title>14&#45;&gt;36</title>
<path fill="none" stroke="black" stroke-width="3.12" d="M930.07,-313.27C943.77,-340.41 969.15,-381.94 1004.38,-402.96 1047.13,-428.46 1171.2,-442.76 1264.17,-450.15"/>
<polygon fill="black" stroke="black" stroke-width="3.12" points="1263.97,-453.64 1274.21,-450.93 1264.51,-446.66 1263.97,-453.64"/>
</g>
<!-- 14&#45;&gt;39 -->
<g id="edge36" class="edge">
<title>14&#45;&gt;39</title>
<path fill="none" stroke="black" stroke-width="2.73" d="M823.91,-276.03C790.39,-267.64 755.91,-252.09 735.38,-223.48 696.32,-169.03 750.34,-92.42 786.14,-51.46"/>
<polygon fill="black" stroke="black" stroke-width="2.73" points="788.76,-53.79 792.81,-44 783.54,-49.13 788.76,-53.79"/>
</g>
<!-- 15&#45;&gt;19 -->
<g id="edge118" class="edge">
<title>15&#45;&gt;19</title>
<path fill="none" stroke="black" stroke-width="1.78" d="M1187.56,-267.08C1199.36,-264.11 1211.69,-261.39 1223.38,-259.48 1473.02,-218.69 1542.15,-266.67 1791.38,-223.48 1799.04,-222.15 1806.98,-220.42 1814.83,-218.48"/>
<polygon fill="black" stroke="black" stroke-width="1.78" points="1815.88,-221.82 1824.68,-215.92 1814.13,-215.04 1815.88,-221.82"/>
</g>
<!-- 15&#45;&gt;25 -->
<g id="edge119" class="edge">
<title>15&#45;&gt;25</title>
<path fill="none" stroke="black" stroke-width="0.73" d="M1165.79,-262.3C1184.39,-251.42 1206.78,-238.32 1226.54,-226.77"/>
<polygon fill="black" stroke="black" stroke-width="0.73" points="1228.54,-229.65 1235.41,-221.58 1225.01,-223.61 1228.54,-229.65"/>
</g>
<!-- 15&#45;&gt;26 -->
<g id="edge120" class="edge">
<title>15&#45;&gt;26</title>
<path fill="none" stroke="black" stroke-width="1.07" d="M1061.96,-268.1C1051.09,-265.21 1039.92,-262.25 1029.38,-259.48 967.66,-243.26 951.56,-241.65 890.38,-223.48 884.84,-221.83 879.1,-220.05 873.36,-218.22"/>
<polygon fill="black" stroke="black" stroke-width="1.07" points="874.34,-214.86 863.75,-215.1 872.19,-221.52 874.34,-214.86"/>
</g>
<!-- 15&#45;&gt;27 -->
<g id="edge121" class="edge">
<title>15&#45;&gt;27</title>
<path fill="none" stroke="black" stroke-width="1.49" d="M1188.4,-267.22C1199.96,-264.3 1211.98,-261.55 1223.38,-259.48 1382.46,-230.55 1425.62,-248.29 1585.38,-223.48 1601.77,-220.94 1619.28,-217.6 1635.76,-214.17"/>
<polygon fill="black" stroke="black" stroke-width="1.49" points="1636.82,-217.52 1645.88,-212.03 1635.37,-210.67 1636.82,-217.52"/>
</g>
<!-- 15&#45;&gt;28 -->
<g id="edge122" class="edge">
<title>15&#45;&gt;28</title>
<path fill="none" stroke="black" stroke-width="1.38" d="M1190.18,-267.84C1201.23,-264.95 1212.62,-262.06 1223.38,-259.48 1298.07,-241.58 1317.73,-241.48 1392.38,-223.48 1399.82,-221.69 1407.55,-219.74 1415.26,-217.75"/>
<polygon fill="black" stroke="black" stroke-width="1.38" points="1416.2,-221.12 1424.99,-215.21 1414.43,-214.35 1416.2,-221.12"/>
</g>
<!-- 15&#45;&gt;29 -->
<g id="edge123" class="edge">
<title>15&#45;&gt;29</title>
<path fill="none" stroke="black" stroke-width="1.17" d="M1089.13,-261.84C1072,-251.02 1051.49,-238.08 1033.4,-226.66"/>
<polygon fill="black" stroke="black" stroke-width="1.17" points="1035.06,-223.57 1024.74,-221.19 1031.32,-229.49 1035.06,-223.57"/>
</g>
<!-- 15&#45;&gt;36 -->
<g id="edge124" class="edge">
<title>15&#45;&gt;36</title>
<path fill="none" stroke="black" stroke-width="2.72" d="M1187.42,-305.81C1227.97,-318.83 1276.86,-336.19 1294.38,-349.22 1323.39,-370.8 1346.89,-405.57 1360.96,-429.75"/>
<polygon fill="black" stroke="black" stroke-width="2.72" points="1358.09,-431.79 1366.06,-438.77 1364.18,-428.34 1358.09,-431.79"/>
</g>
<!-- 15&#45;&gt;39 -->
<g id="edge37" class="edge">
<title>15&#45;&gt;39</title>
<path fill="none" stroke="black" stroke-width="2.13" d="M1122.41,-259.21C1117.39,-233.83 1106.55,-195.46 1084.38,-169.74 1028.18,-104.54 935.58,-63.33 874.53,-41.72"/>
<polygon fill="black" stroke="black" stroke-width="2.13" points="875.61,-38.38 865.01,-38.41 873.31,-45 875.61,-38.38"/>
</g>
<!-- 16&#45;&gt;19 -->
<g id="edge125" class="edge">
<title>16&#45;&gt;19</title>
<path fill="none" stroke="black" stroke-width="2.35" d="M1781.46,-261.61C1798.48,-250.7 1818.82,-237.68 1836.68,-226.24"/>
<polygon fill="black" stroke="black" stroke-width="2.35" points="1838.69,-229.11 1845.23,-220.77 1834.92,-223.21 1838.69,-229.11"/>
</g>
<!-- 16&#45;&gt;27 -->
<g id="edge126" class="edge">
<title>16&#45;&gt;27</title>
<path fill="none" stroke="black" stroke-width="1.37" d="M1733.48,-259.5C1729.95,-251.11 1725.96,-241.66 1722.19,-232.71"/>
<polygon fill="black" stroke="black" stroke-width="1.37" points="1725.32,-231.13 1718.21,-223.28 1718.87,-233.85 1725.32,-231.13"/>
</g>
<!-- 16&#45;&gt;36 -->
<g id="edge127" class="edge">
<title>16&#45;&gt;36</title>
<path fill="none" stroke="black" stroke-width="2.72" d="M1719.84,-312.41C1692.56,-338.81 1646.04,-379.72 1598.38,-402.96 1563.63,-419.91 1523.16,-431.77 1486.32,-439.96"/>
<polygon fill="black" stroke="black" stroke-width="2.72" points="1485.57,-436.54 1476.54,-442.07 1487.05,-443.38 1485.57,-436.54"/>
</g>
<!-- 16&#45;&gt;39 -->
<g id="edge38" class="edge">
<title>16&#45;&gt;39</title>
<path fill="none" stroke="black" stroke-width="2.77" d="M1690.04,-264.38C1667.87,-254.16 1642.91,-240.4 1623.38,-223.48 1601.28,-204.32 1609.09,-186.87 1585.38,-169.74 1474.65,-89.72 1425.07,-108.14 1291.38,-80 1155.07,-51.31 993.63,-35.81 897.57,-28.5"/>
<polygon fill="black" stroke="black" stroke-width="2.77" points="897.57,-24.99 887.33,-27.73 897.04,-31.97 897.57,-24.99"/>
</g>
<!-- 17&#45;&gt;36 -->
<g id="edge128" class="edge">
<title>17&#45;&gt;36</title>
<path fill="none" stroke="black" stroke-width="2.79" d="M608.04,-309.39C628.37,-320.5 652.71,-334.67 673.38,-349.22 703.48,-370.4 702.42,-388.79 736.38,-402.96 783.73,-422.72 1094.18,-442.02 1264.3,-451.28"/>
<polygon fill="black" stroke="black" stroke-width="2.79" points="1264.13,-454.77 1274.3,-451.82 1264.5,-447.78 1264.13,-454.77"/>
</g>
<!-- 17&#45;&gt;39 -->
<g id="edge39" class="edge">
<title>17&#45;&gt;39</title>
<path fill="none" stroke="black" stroke-width="2.74" d="M570.62,-259.52C580.64,-216.48 606.49,-129.91 660.38,-80 682.15,-59.84 711.69,-46.64 739,-38.08"/>
<polygon fill="black" stroke="black" stroke-width="2.74" points="740.36,-41.33 748.95,-35.13 738.37,-34.61 740.36,-41.33"/>
</g>
<!-- 18&#45;&gt;19 -->
<g id="edge129" class="edge">
<title>18&#45;&gt;19</title>
<path fill="none" stroke="black" stroke-width="2" d="M1495.39,-271.77C1578.9,-261.28 1692.56,-244.93 1791.38,-223.48 1798.48,-221.94 1805.85,-220.15 1813.17,-218.24"/>
<polygon fill="black" stroke="black" stroke-width="2" points="1814.34,-221.55 1823.09,-215.58 1812.52,-214.79 1814.34,-221.55"/>
</g>
<!-- 18&#45;&gt;25 -->
<g id="edge130" class="edge">
<title>18&#45;&gt;25</title>
<path fill="none" stroke="black" stroke-width="0.55" d="M1346.75,-259.97C1335.98,-250.43 1323.61,-239.46 1312.27,-229.41"/>
<polygon fill="black" stroke="black" stroke-width="0.55" points="1314.42,-226.64 1304.61,-222.63 1309.78,-231.88 1314.42,-226.64"/>
</g>
<!-- 18&#45;&gt;26 -->
<g id="edge131" class="edge">
<title>18&#45;&gt;26</title>
<path fill="none" stroke="black" stroke-width="1.07" d="M1274.54,-267.3C1257.49,-264.5 1239.95,-261.78 1223.38,-259.48 1075.94,-238.98 1035.79,-255.37 890.38,-223.48 884.24,-222.13 877.89,-220.47 871.61,-218.64"/>
<polygon fill="black" stroke="black" stroke-width="1.07" points="872.4,-215.22 861.82,-215.65 870.36,-221.92 872.4,-215.22"/>
</g>
<!-- 18&#45;&gt;27 -->
<g id="edge132" class="edge">
<title>18&#45;&gt;27</title>
<path fill="none" stroke="black" stroke-width="0.72" d="M1455.75,-264.11C1511.67,-249.33 1585.43,-229.84 1638.62,-215.78"/>
<polygon fill="black" stroke="black" stroke-width="0.72" points="1639.53,-219.16 1648.31,-213.22 1637.74,-212.39 1639.53,-219.16"/>
</g>
<!-- 18&#45;&gt;29 -->
<g id="edge133" class="edge">
<title>18&#45;&gt;29</title>
<path fill="none" stroke="black" stroke-width="1.31" d="M1286.37,-265.22C1220.11,-250.24 1130.47,-229.97 1066.66,-215.54"/>
<polygon fill="black" stroke="black" stroke-width="1.31" points="1067.18,-212.07 1056.65,-213.27 1065.63,-218.89 1067.18,-212.07"/>
</g>
<!-- 32 -->
<g id="node32" class="node">
<title>32</title>
<ellipse fill="#45f3e0" stroke="black" stroke-width="1.84" cx="2174.38" cy="-196.61" rx="100.32" ry="26.74"/>
<text text-anchor="middle" x="2174.38" y="-200.41" font-family="Times,serif" font-size="14.00">summer flounder</text>
<text text-anchor="middle" x="2174.38" y="-185.41" font-family="Times,serif" font-size="14.00">(4.425002 gC.m²)</text>
</g>
<!-- 18&#45;&gt;32 -->
<g id="edge134" class="edge">
<title>18&#45;&gt;32</title>
<path fill="none" stroke="black" stroke-width="0.63" d="M1499.86,-273.07C1665.26,-256.71 1942.18,-229.16 1989.38,-223.48 2018.19,-220.02 2049.45,-215.81 2077.93,-211.81"/>
<polygon fill="black" stroke="black" stroke-width="0.63" points="2078.47,-215.27 2087.89,-210.41 2077.5,-208.34 2078.47,-215.27"/>
</g>
<!-- 18&#45;&gt;36 -->
<g id="edge135" class="edge">
<title>18&#45;&gt;36</title>
<path fill="none" stroke="black" stroke-width="2.32" d="M1375.38,-313.37C1375.38,-344.55 1375.38,-396.61 1375.38,-428.74"/>
<polygon fill="black" stroke="black" stroke-width="2.32" points="1371.88,-428.81 1375.38,-438.81 1378.88,-428.81 1371.88,-428.81"/>
</g>
<!-- 18&#45;&gt;39 -->
<g id="edge40" class="edge">
<title>18&#45;&gt;39</title>
<path fill="none" stroke="black" stroke-width="2.51" d="M1271.45,-267.86C1234.47,-258.52 1193.77,-244.45 1160.38,-223.48 1133.27,-206.44 1134.59,-192.82 1112.38,-169.74 1072.56,-128.35 1069.27,-108.48 1019.38,-80 980.91,-58.04 933.52,-44.16 893.9,-35.61"/>
<polygon fill="black" stroke="black" stroke-width="2.51" points="894.51,-32.16 884,-33.55 893.08,-39.01 894.51,-32.16"/>
</g>
<!-- 19&#45;&gt;19 -->
<g id="edge136" class="edge">
<title>19&#45;&gt;19</title>
<path fill="none" stroke="black" stroke-width="1.74" d="M1945.86,-213.08C1965.42,-212.67 1980.7,-207.18 1980.7,-196.61 1980.7,-187.94 1970.42,-182.69 1955.93,-180.85"/>
<polygon fill="black" stroke="black" stroke-width="1.74" points="1956.09,-177.35 1945.86,-180.14 1955.59,-184.33 1956.09,-177.35"/>
</g>
<!-- 33 -->
<g id="node33" class="node">
<title>33</title>
<ellipse fill="#45f3e0" stroke="black" stroke-width="1.84" cx="2364.38" cy="-106.87" rx="100.32" ry="26.74"/>
<text text-anchor="middle" x="2364.38" y="-110.67" font-family="Times,serif" font-size="14.00">striped bass</text>
<text text-anchor="middle" x="2364.38" y="-95.67" font-family="Times,serif" font-size="14.00">(4.400002 gC.m²)</text>
</g>
<!-- 19&#45;&gt;33 -->
<g id="edge137" class="edge">
<title>19&#45;&gt;33</title>
<path fill="none" stroke="black" stroke-width="0.75" d="M1951.36,-182.9C2036.24,-167.48 2179.55,-141.45 2273.06,-124.46"/>
<polygon fill="black" stroke="black" stroke-width="0.75" points="2273.86,-127.87 2283.08,-122.64 2272.61,-120.98 2273.86,-127.87"/>
</g>
<!-- 19&#45;&gt;36 -->
<g id="edge138" class="edge">
<title>19&#45;&gt;36</title>
<path fill="none" stroke="black" stroke-width="2.14" d="M1907.48,-222.16C1926.42,-246.67 1945.37,-284.7 1927.38,-313.22 1902.69,-352.38 1783.64,-389.36 1739.38,-402.96 1657,-428.28 1560.07,-442 1486.91,-449.27"/>
<polygon fill="black" stroke="black" stroke-width="2.14" points="1486.36,-445.8 1476.75,-450.25 1487.04,-452.77 1486.36,-445.8"/>
</g>
<!-- 19&#45;&gt;38 -->
<g id="edge8" class="edge">
<title>19&#45;&gt;38</title>
<path fill="none" stroke="black" stroke-width="2.12" d="M1891.68,-169.57C1903.93,-142.32 1927.12,-100.7 1961.38,-80 2027.65,-39.96 2251.88,-27.97 2363.77,-24.43"/>
<polygon fill="black" stroke="black" stroke-width="2.12" points="2364.03,-27.93 2373.92,-24.13 2363.81,-20.93 2364.03,-27.93"/>
</g>
<!-- 19&#45;&gt;39 -->
<g id="edge41" class="edge">
<title>19&#45;&gt;39</title>
<path fill="none" stroke="black" stroke-width="2.38" d="M1829.34,-175.78C1801.74,-164.6 1767.58,-149.69 1738.38,-133.74 1700.79,-113.21 1698.91,-93.86 1658.38,-80 1519.36,-32.47 1082.44,-24.41 897.45,-23.16"/>
<polygon fill="black" stroke="black" stroke-width="2.38" points="897.25,-19.66 887.23,-23.1 897.21,-26.66 897.25,-19.66"/>
</g>
<!-- 20&#45;&gt;36 -->
<g id="edge139" class="edge">
<title>20&#45;&gt;36</title>
<path fill="none" stroke="black" stroke-width="0.84" d="M1466.72,-514.65C1449.95,-504.42 1430.48,-492.55 1413.84,-482.41"/>
<polygon fill="black" stroke="black" stroke-width="0.84" points="1415.28,-479.19 1404.92,-476.97 1411.64,-485.16 1415.28,-479.19"/>
</g>
<!-- 20&#45;&gt;38 -->
<g id="edge9" class="edge">
<title>20&#45;&gt;38</title>
<path fill="none" stroke="black" stroke-width="0.65" d="M1597.45,-525.67C1798.05,-495.12 2269.96,-414.25 2392.38,-313.22 2465.27,-253.07 2480,-224.48 2506.38,-133.74 2513.05,-110.81 2517.2,-101.3 2506.38,-80 2496.9,-61.33 2478.11,-47.31 2461.35,-37.85"/>
<polygon fill="black" stroke="black" stroke-width="0.65" points="2462.79,-34.65 2452.32,-33.06 2459.51,-40.83 2462.79,-34.65"/>
</g>
<!-- 20&#45;&gt;39 -->
<g id="edge42" class="edge">
<title>20&#45;&gt;39</title>
<path fill="none" stroke="black" stroke-width="0.61" d="M1401.45,-534.45C1153.99,-521.52 546.92,-473.72 442.38,-313.22 385.82,-226.36 374.88,-158.66 442.38,-80 478.61,-37.79 631.49,-26.53 729.34,-23.71"/>
<polygon fill="black" stroke="black" stroke-width="0.61" points="729.61,-27.2 739.52,-23.44 729.43,-20.21 729.61,-27.2"/>
</g>
<!-- 21&#45;&gt;33 -->
<g id="edge140" class="edge">
<title>21&#45;&gt;33</title>
<path fill="none" stroke="black" stroke-width="0.54" d="M2483.07,-513.41C2492.34,-503.11 2501.54,-490.45 2506.38,-476.96 2552.52,-348.45 2581.21,-283.96 2506.38,-169.74 2493.61,-150.24 2473.21,-136.86 2451.81,-127.68"/>
<polygon fill="black" stroke="black" stroke-width="0.54" points="2452.85,-124.32 2442.27,-123.87 2450.26,-130.83 2452.85,-124.32"/>
</g>
<!-- 21&#45;&gt;36 -->
<g id="edge141" class="edge">
<title>21&#45;&gt;36</title>
<path fill="none" stroke="black" stroke-width="1.11" d="M2358.14,-522.74C2333.48,-519.08 2307,-515.53 2282.38,-512.96 1996.46,-483.13 1657.97,-468.4 1486.66,-462.4"/>
<polygon fill="black" stroke="black" stroke-width="1.11" points="1486.74,-458.9 1476.62,-462.05 1486.5,-465.89 1486.74,-458.9"/>
</g>
<!-- 21&#45;&gt;38 -->
<g id="edge10" class="edge">
<title>21&#45;&gt;38</title>
<path fill="none" stroke="black" stroke-width="0.86" d="M2487.77,-513.68C2577.51,-441.02 2815.15,-226.68 2696.38,-80 2670.46,-47.98 2556.9,-33.19 2486.18,-26.98"/>
<polygon fill="black" stroke="black" stroke-width="0.86" points="2486.34,-23.48 2476.08,-26.12 2485.75,-30.46 2486.34,-23.48"/>
</g>
<!-- 21&#45;&gt;39 -->
<g id="edge43" class="edge">
<title>21&#45;&gt;39</title>
<path fill="none" stroke="black" stroke-width="1.01" d="M2465.11,-512.91C2476.07,-481.32 2492.38,-426.06 2492.38,-377.09 2492.38,-377.09 2492.38,-377.09 2492.38,-285.35 2492.38,-160.31 2365.98,-192.08 2255.38,-133.74 2218.79,-114.44 2218.54,-93.35 2179.38,-80 2058.51,-38.79 1175.45,-26.58 897.15,-23.74"/>
<polygon fill="black" stroke="black" stroke-width="1.01" points="897.14,-20.24 887.11,-23.64 897.07,-27.24 897.14,-20.24"/>
</g>
<!-- 22&#45;&gt;27 -->
<g id="edge142" class="edge">
<title>22&#45;&gt;27</title>
<path fill="none" stroke="black" stroke-width="1.12" d="M1898.13,-610.13C1918.29,-600.53 1938.83,-586.54 1950.38,-566.7 1962.4,-546.06 1954.23,-536.53 1950.38,-512.96 1931.25,-395.69 1947.29,-345.56 1865.38,-259.48 1858.2,-251.93 1810.7,-233.83 1769.64,-219.14"/>
<polygon fill="black" stroke="black" stroke-width="1.12" points="1770.78,-215.84 1760.18,-215.78 1768.43,-222.43 1770.78,-215.84"/>
</g>
<!-- 22&#45;&gt;28 -->
<g id="edge143" class="edge">
<title>22&#45;&gt;28</title>
<path fill="none" stroke="black" stroke-width="1.13" d="M1792.42,-608.06C1772.09,-597.81 1749.35,-583.89 1732.38,-566.7 1622.93,-455.77 1662.82,-379.47 1563.38,-259.48 1553.85,-247.97 1541.93,-237.02 1530.43,-227.62"/>
<polygon fill="black" stroke="black" stroke-width="1.13" points="1532.57,-224.85 1522.56,-221.37 1528.21,-230.33 1532.57,-224.85"/>
</g>
<!-- 30 -->
<g id="node30" class="node">
<title>30</title>
<ellipse fill="#46f7e4" stroke="black" stroke-width="1.43" cx="2070.38" cy="-106.87" rx="100.32" ry="26.74"/>
<text text-anchor="middle" x="2070.38" y="-110.67" font-family="Times,serif" font-size="14.00">bluefish</text>
<text text-anchor="middle" x="2070.38" y="-95.67" font-family="Times,serif" font-size="14.00">(2.250002 gC.m²)</text>
</g>
<!-- 22&#45;&gt;30 -->
<g id="edge144" class="edge">
<title>22&#45;&gt;30</title>
<path fill="none" stroke="black" stroke-width="0.8" d="M1904.13,-612.36C1937.02,-602.2 1977.06,-587.12 2009.38,-566.7 2038.28,-548.45 2037.99,-534.67 2064.38,-512.96 2185.24,-413.52 2281.58,-451.76 2354.38,-313.22 2385.07,-254.82 2366.48,-212.66 2316.38,-169.74 2293.54,-150.17 2225.04,-133.87 2166.1,-122.92"/>
<polygon fill="black" stroke="black" stroke-width="0.8" points="2166.45,-119.43 2155.98,-121.08 2165.19,-126.31 2166.45,-119.43"/>
</g>
<!-- 31 -->
<g id="node31" class="node">
<title>31</title>
<ellipse fill="#45f1de" stroke="black" stroke-width="2.07" cx="1841.38" cy="-539.83" rx="100.32" ry="26.74"/>
<text text-anchor="middle" x="1841.38" y="-543.63" font-family="Times,serif" font-size="14.00">weakfish</text>
<text text-anchor="middle" x="1841.38" y="-528.63" font-family="Times,serif" font-size="14.00">(6.300002 gC.m²)</text>
</g>
<!-- 22&#45;&gt;31 -->
<g id="edge145" class="edge">
<title>22&#45;&gt;31</title>
<path fill="none" stroke="black" stroke-width="1.53" d="M1841.38,-602.25C1841.38,-594.28 1841.38,-585.39 1841.38,-576.9"/>
<polygon fill="black" stroke="black" stroke-width="1.53" points="1844.88,-576.83 1841.38,-566.83 1837.88,-576.83 1844.88,-576.83"/>
</g>
<!-- 22&#45;&gt;32 -->
<g id="edge146" class="edge">
<title>22&#45;&gt;32</title>
<path fill="none" stroke="black" stroke-width="1.09" d="M1892.56,-608.58C1916.47,-597.99 1944.61,-583.65 1967.38,-566.7 1998.19,-543.77 2188.36,-348.97 2202.38,-313.22 2212.66,-287.03 2204.07,-255.97 2193.78,-232.65"/>
<polygon fill="black" stroke="black" stroke-width="1.09" points="2196.9,-231.05 2189.48,-223.48 2190.56,-234.02 2196.9,-231.05"/>
</g>
<!-- 22&#45;&gt;33 -->
<g id="edge147" class="edge">
<title>22&#45;&gt;33</title>
<path fill="none" stroke="black" stroke-width="1.16" d="M1896.9,-609.77C1906.94,-606.97 1917.4,-604.45 1927.38,-602.7 2000.06,-589.98 2539.65,-620.26 2590.38,-566.7 2712.91,-437.34 2658.05,-298 2534.38,-169.74 2513.81,-148.4 2485.3,-134.39 2457.51,-125.2"/>
<polygon fill="black" stroke="black" stroke-width="1.16" points="2458.31,-121.78 2447.72,-122.15 2456.22,-128.46 2458.31,-121.78"/>
</g>
<!-- 22&#45;&gt;36 -->
<g id="edge148" class="edge">
<title>22&#45;&gt;36</title>
<path fill="none" stroke="black" stroke-width="2.1" d="M1789.26,-608.77C1761.88,-597.64 1728.13,-582.79 1699.38,-566.7 1662.96,-546.32 1660.62,-529.68 1622.38,-512.96 1579.76,-494.32 1530.09,-481.86 1486.51,-473.65"/>
<polygon fill="black" stroke="black" stroke-width="2.1" points="1486.91,-470.17 1476.45,-471.81 1485.65,-477.05 1486.91,-470.17"/>
</g>
<!-- 22&#45;&gt;38 -->
<g id="edge11" class="edge">
<title>22&#45;&gt;38</title>
<path fill="none" stroke="black" stroke-width="1.53" d="M1922.79,-628.84C2151.37,-628.89 2787.23,-623.84 2860.38,-566.7 2911.68,-526.63 2948.38,-352.44 2948.38,-287.35 2948.38,-287.35 2948.38,-287.35 2948.38,-195.61 2948.38,-141.38 2951.49,-114.17 2909.38,-80 2848,-30.19 2617.32,-22.8 2499.14,-22.39"/>
<polygon fill="black" stroke="black" stroke-width="1.53" points="2499.1,-18.89 2489.1,-22.37 2499.09,-25.89 2499.1,-18.89"/>
</g>
<!-- 22&#45;&gt;39 -->
<g id="edge44" class="edge">
<title>22&#45;&gt;39</title>
<path fill="none" stroke="black" stroke-width="1.99" d="M1761.38,-624.68C1501.34,-610.65 684.84,-555.12 477.38,-402.96 437.03,-373.36 429.19,-359.17 409.38,-313.22 368.34,-218.01 332.09,-154.31 404.38,-80 448.09,-35.07 622.91,-24.93 729.34,-23.01"/>
<polygon fill="black" stroke="black" stroke-width="1.99" points="729.47,-26.51 739.42,-22.85 729.36,-19.51 729.47,-26.51"/>
</g>
<!-- 23&#45;&gt;30 -->
<g id="edge149" class="edge">
<title>23&#45;&gt;30</title>
<path fill="none" stroke="black" stroke-width="0.79" d="M2746.09,-513.1C2698.6,-444.71 2558.65,-257.64 2392.38,-169.74 2354.5,-149.71 2249.8,-131.84 2169.98,-120.52"/>
<polygon fill="black" stroke="black" stroke-width="0.79" points="2170.27,-117.02 2159.88,-119.1 2169.3,-123.96 2170.27,-117.02"/>
</g>
<!-- 23&#45;&gt;32 -->
<g id="edge150" class="edge">
<title>23&#45;&gt;32</title>
<path fill="none" stroke="black" stroke-width="1" d="M2723.36,-515.65C2619,-455.18 2338.7,-292.8 2224.17,-226.45"/>
<polygon fill="black" stroke="black" stroke-width="1" points="2225.65,-223.26 2215.24,-221.28 2222.14,-229.32 2225.65,-223.26"/>
</g>
<!-- 23&#45;&gt;33 -->
<g id="edge151" class="edge">
<title>23&#45;&gt;33</title>
<path fill="none" stroke="black" stroke-width="1.06" d="M2765.04,-512.58C2767.78,-443.71 2764.59,-257.19 2658.38,-169.74 2629.25,-145.75 2539.13,-129.12 2466.27,-119.18"/>
<polygon fill="black" stroke="black" stroke-width="1.06" points="2466.48,-115.68 2456.11,-117.83 2465.56,-122.62 2466.48,-115.68"/>
</g>
<!-- 23&#45;&gt;36 -->
<g id="edge152" class="edge">
<title>23&#45;&gt;36</title>
<path fill="none" stroke="black" stroke-width="1.61" d="M2688.23,-525.85C2657.92,-521.07 2622.58,-516.07 2590.38,-512.96 2185.1,-473.76 1700.96,-462.98 1486.75,-460.04"/>
<polygon fill="black" stroke="black" stroke-width="1.61" points="1486.49,-456.54 1476.44,-459.9 1486.39,-463.54 1486.49,-456.54"/>
</g>
<!-- 23&#45;&gt;38 -->
<g id="edge12" class="edge">
<title>23&#45;&gt;38</title>
<path fill="none" stroke="black" stroke-width="0.99" d="M2787.29,-513.97C2796.52,-503.27 2806.5,-490.19 2813.38,-476.96 2854.81,-397.41 2945.76,-147.22 2886.38,-80 2860.45,-50.63 2606.78,-32.87 2488.51,-26.12"/>
<polygon fill="black" stroke="black" stroke-width="0.99" points="2488.37,-22.6 2478.19,-25.54 2487.97,-29.59 2488.37,-22.6"/>
</g>
<!-- 23&#45;&gt;39 -->
<g id="edge45" class="edge">
<title>23&#45;&gt;39</title>
<path fill="none" stroke="black" stroke-width="1.72" d="M2771.13,-512.89C2774.02,-501.91 2776.95,-488.92 2778.38,-476.96 2789.96,-380.08 2785.58,-349.69 2748.38,-259.48 2730.64,-216.45 2729.76,-199.99 2694.38,-169.74 2613.81,-100.85 2577.07,-102.1 2473.38,-80 2318.97,-47.08 1213.79,-28.77 897.66,-24.16"/>
<polygon fill="black" stroke="black" stroke-width="1.72" points="897.24,-20.66 887.19,-24.01 897.14,-27.66 897.24,-20.66"/>
</g>
<!-- 24&#45;&gt;36 -->
<g id="edge153" class="edge">
<title>24&#45;&gt;36</title>
<path fill="none" stroke="black" stroke-width="0.8" d="M2083.11,-527.9C2042.55,-523.11 1994.09,-517.55 1950.38,-512.96 1789.34,-496.06 1602.65,-478.99 1486.76,-468.69"/>
<polygon fill="black" stroke="black" stroke-width="0.8" points="1486.73,-465.18 1476.46,-467.78 1486.11,-472.15 1486.73,-465.18"/>
</g>
<!-- 24&#45;&gt;38 -->
<g id="edge13" class="edge">
<title>24&#45;&gt;38</title>
<path fill="none" stroke="black" stroke-width="0.65" d="M2229.94,-517.59C2309.93,-484.95 2456.17,-415.33 2544.38,-313.22 2613.04,-233.75 2642.39,-166.19 2582.38,-80 2560.52,-48.59 2519.23,-34.45 2484.91,-28.1"/>
<polygon fill="black" stroke="black" stroke-width="0.65" points="2485.42,-24.64 2474.98,-26.44 2484.26,-31.54 2485.42,-24.64"/>
</g>
<!-- 24&#45;&gt;39 -->
<g id="edge46" class="edge">
<title>24&#45;&gt;39</title>
<path fill="none" stroke="black" stroke-width="0.72" d="M2168.77,-512.59C2155.17,-443.77 2108.49,-257.35 1989.38,-169.74 1908.51,-110.25 1855.82,-179.34 1766.38,-133.74 1736.22,-118.36 1743.26,-93.9 1712.38,-80 1639.25,-47.07 1106.05,-30.31 897.08,-24.96"/>
<polygon fill="black" stroke="black" stroke-width="0.72" points="897.16,-21.46 887.07,-24.7 896.98,-28.45 897.16,-21.46"/>
</g>
<!-- 25&#45;&gt;36 -->
<g id="edge154" class="edge">
<title>25&#45;&gt;36</title>
<path fill="none" stroke="black" stroke-width="0.87" d="M1353.28,-215.38C1426.04,-232.37 1524.6,-255.93 1527.38,-259.48 1576.47,-322.13 1476.53,-396.71 1416.39,-433.73"/>
<polygon fill="black" stroke="black" stroke-width="0.87" points="1414.57,-430.74 1407.83,-438.91 1418.19,-436.73 1414.57,-430.74"/>
</g>
<!-- 25&#45;&gt;38 -->
<g id="edge14" class="edge">
<title>25&#45;&gt;38</title>
<path fill="none" stroke="black" stroke-width="0.69" d="M1333.03,-173.8C1405.76,-146.82 1536.44,-101.8 1652.38,-80 1909.87,-31.6 2222.61,-23.82 2359.09,-22.89"/>
<polygon fill="black" stroke="black" stroke-width="0.69" points="2359.42,-26.39 2369.4,-22.83 2359.38,-19.39 2359.42,-26.39"/>
</g>
<!-- 25&#45;&gt;39 -->
<g id="edge47" class="edge">
<title>25&#45;&gt;39</title>
<path fill="none" stroke="black" stroke-width="0.79" d="M1257.25,-169.81C1235.67,-142.77 1198,-101.32 1155.38,-80 1074.06,-39.31 969.62,-26.8 897.67,-23.37"/>
<polygon fill="black" stroke="black" stroke-width="0.79" points="897.43,-19.86 887.29,-22.93 897.13,-26.85 897.43,-19.86"/>
</g>
<!-- 26&#45;&gt;36 -->
<g id="edge155" class="edge">
<title>26&#45;&gt;36</title>
<path fill="none" stroke="black" stroke-width="1.35" d="M803.07,-223.36C799.21,-234.31 795.3,-247.33 793.38,-259.48 783.15,-324.42 776.8,-363.49 829.38,-402.96 863.31,-428.43 1114.45,-444.6 1264.04,-452.08"/>
<polygon fill="black" stroke="black" stroke-width="1.35" points="1264.03,-455.59 1274.19,-452.58 1264.38,-448.6 1264.03,-455.59"/>
</g>
<!-- 26&#45;&gt;38 -->
<g id="edge15" class="edge">
<title>26&#45;&gt;38</title>
<path fill="none" stroke="black" stroke-width="1.08" d="M862.33,-177.76C938.66,-150.87 1091.24,-100.9 1225.38,-80 1447.58,-45.39 2145.71,-28.7 2363.1,-24.25"/>
<polygon fill="black" stroke="black" stroke-width="1.08" points="2363.46,-27.74 2373.39,-24.04 2363.32,-20.74 2363.46,-27.74"/>
</g>
<!-- 26&#45;&gt;39 -->
<g id="edge48" class="edge">
<title>26&#45;&gt;39</title>
<path fill="none" stroke="black" stroke-width="1.25" d="M813.38,-169.39C813.38,-138.55 813.38,-87.38 813.38,-54.44"/>
<polygon fill="black" stroke="black" stroke-width="1.25" points="816.88,-54.02 813.38,-44.02 809.88,-54.02 816.88,-54.02"/>
</g>
<!-- 27&#45;&gt;30 -->
<g id="edge156" class="edge">
<title>27&#45;&gt;30</title>
<path fill="none" stroke="black" stroke-width="1.01" d="M1761.87,-178.13C1771.66,-175.19 1781.8,-172.28 1791.38,-169.74 1854.49,-153.05 1926.42,-137.18 1981.44,-125.69"/>
<polygon fill="black" stroke="black" stroke-width="1.01" points="1982.43,-129.06 1991.51,-123.59 1981,-122.2 1982.43,-129.06"/>
</g>
<!-- 27&#45;&gt;36 -->
<g id="edge157" class="edge">
<title>27&#45;&gt;36</title>
<path fill="none" stroke="black" stroke-width="1.71" d="M1762.44,-215C1797.19,-227.22 1837.34,-244.06 1847.38,-259.48 1860.42,-279.49 1860.29,-293.12 1847.38,-313.22 1834.44,-333.38 1674.18,-395.62 1651.38,-402.96 1598.22,-420.06 1537.47,-432.66 1486.53,-441.37"/>
<polygon fill="black" stroke="black" stroke-width="1.71" points="1485.75,-437.95 1476.47,-443.06 1486.91,-444.85 1485.75,-437.95"/>
</g>
<!-- 27&#45;&gt;38 -->
<g id="edge16" class="edge">
<title>27&#45;&gt;38</title>
<path fill="none" stroke="black" stroke-width="1.41" d="M1757.41,-176.38C1783.57,-165.41 1815.63,-150.52 1842.38,-133.74 1874.14,-113.82 1872.86,-94.59 1907.38,-80 1988.82,-45.58 2246.85,-30.57 2366.44,-25.34"/>
<polygon fill="black" stroke="black" stroke-width="1.41" points="2366.69,-28.83 2376.53,-24.9 2366.39,-21.84 2366.69,-28.83"/>
</g>
<!-- 27&#45;&gt;39 -->
<g id="edge49" class="edge">
<title>27&#45;&gt;39</title>
<path fill="none" stroke="black" stroke-width="1.6" d="M1695.6,-169.66C1681.54,-142.08 1655.21,-99.77 1618.38,-80 1556.04,-46.53 1090.83,-30.39 897.38,-25.07"/>
<polygon fill="black" stroke="black" stroke-width="1.6" points="897.35,-21.57 887.26,-24.8 897.16,-28.57 897.35,-21.57"/>
</g>
<!-- 28&#45;&gt;36 -->
<g id="edge158" class="edge">
<title>28&#45;&gt;36</title>
<path fill="none" stroke="black" stroke-width="1.45" d="M1520.02,-221.99C1530.83,-232.25 1541.65,-245.15 1547.38,-259.48 1556.26,-281.65 1552.68,-289.93 1547.38,-313.22 1537.59,-356.35 1536.44,-372.49 1504.38,-402.96 1489.93,-416.7 1471.48,-427.18 1453.08,-435.08"/>
<polygon fill="black" stroke="black" stroke-width="1.45" points="1451.72,-431.86 1443.77,-438.87 1454.36,-438.34 1451.72,-431.86"/>
</g>
<!-- 28&#45;&gt;38 -->
<g id="edge17" class="edge">
<title>28&#45;&gt;38</title>
<path fill="none" stroke="black" stroke-width="1.18" d="M1539.89,-174.83C1607.95,-148.3 1732.12,-103.08 1842.38,-80 2029.44,-40.85 2255.84,-28.48 2364.34,-24.66"/>
<polygon fill="black" stroke="black" stroke-width="1.18" points="2364.59,-28.15 2374.47,-24.31 2364.35,-21.16 2364.59,-28.15"/>
</g>
<!-- 28&#45;&gt;39 -->
<g id="edge50" class="edge">
<title>28&#45;&gt;39</title>
<path fill="none" stroke="black" stroke-width="1.34" d="M1443.16,-173.29C1387.92,-146.97 1290.98,-103.8 1203.38,-80 1099.85,-51.87 976.84,-36.82 897.05,-29.37"/>
<polygon fill="black" stroke="black" stroke-width="1.34" points="897.33,-25.89 887.05,-28.46 896.69,-32.86 897.33,-25.89"/>
</g>
<!-- 29&#45;&gt;36 -->
<g id="edge159" class="edge">
<title>29&#45;&gt;36</title>
<path fill="none" stroke="black" stroke-width="1.53" d="M924.06,-215.46C875.14,-229.89 814.58,-249.39 807.38,-259.48 793.51,-278.92 795.89,-292.28 807.38,-313.22 843.13,-378.34 878.51,-377.75 948.38,-402.96 1051.26,-440.08 1176.07,-452.41 1264.11,-456.16"/>
<polygon fill="black" stroke="black" stroke-width="1.53" points="1263.99,-459.65 1274.12,-456.55 1264.27,-452.66 1263.99,-459.65"/>
</g>
<!-- 29&#45;&gt;38 -->
<g id="edge18" class="edge">
<title>29&#45;&gt;38</title>
<path fill="none" stroke="black" stroke-width="1.26" d="M1051.45,-178.08C1159.59,-148.75 1374.13,-91.77 1451.38,-80 1788.52,-28.62 2197.59,-22.77 2358.55,-22.64"/>
<polygon fill="black" stroke="black" stroke-width="1.26" points="2358.79,-26.14 2368.79,-22.64 2358.79,-19.14 2358.79,-26.14"/>
</g>
<!-- 29&#45;&gt;39 -->
<g id="edge51" class="edge">
<title>29&#45;&gt;39</title>
<path fill="none" stroke="black" stroke-width="1.42" d="M962.08,-170.51C930.1,-138.78 875.19,-84.32 841.8,-51.19"/>
<polygon fill="black" stroke="black" stroke-width="1.42" points="844.17,-48.61 834.61,-44.06 839.24,-53.58 844.17,-48.61"/>
</g>
<!-- 30&#45;&gt;36 -->
<g id="edge160" class="edge">
<title>30&#45;&gt;36</title>
<path fill="none" stroke="black" stroke-width="0.96" d="M2058.61,-133.68C2039.01,-174.83 1996.62,-256.41 1944.38,-313.22 1921.6,-338 1853.67,-390.56 1822.38,-402.96 1763.22,-426.4 1598.47,-441.87 1486.39,-450.02"/>
<polygon fill="black" stroke="black" stroke-width="0.96" points="1486.11,-446.54 1476.39,-450.74 1486.61,-453.52 1486.11,-446.54"/>
</g>
<!-- 30&#45;&gt;38 -->
<g id="edge19" class="edge">
<title>30&#45;&gt;38</title>
<path fill="none" stroke="black" stroke-width="0.77" d="M2144.56,-88.7C2217.55,-71.8 2326.44,-46.6 2385.89,-32.84"/>
<polygon fill="black" stroke="black" stroke-width="0.77" points="2386.74,-36.23 2395.7,-30.57 2385.17,-29.41 2386.74,-36.23"/>
</g>
<!-- 30&#45;&gt;39 -->
<g id="edge52" class="edge">
<title>30&#45;&gt;39</title>
<path fill="none" stroke="black" stroke-width="0.9" d="M1990.56,-90.48C1967.36,-86.5 1941.93,-82.6 1918.38,-80 1538.92,-38.07 1082.66,-26.89 897.54,-23.99"/>
<polygon fill="black" stroke="black" stroke-width="0.9" points="897.39,-20.48 887.33,-23.83 897.28,-27.48 897.39,-20.48"/>
</g>
<!-- 31&#45;&gt;32 -->
<g id="edge161" class="edge">
<title>31&#45;&gt;32</title>
<path fill="none" stroke="black" stroke-width="0.88" d="M1882,-515.24C1941.87,-478.7 2054.19,-403.17 2123.38,-313.22 2141.84,-289.23 2155.22,-257.51 2163.63,-233.37"/>
<polygon fill="black" stroke="black" stroke-width="0.88" points="2166.96,-234.45 2166.82,-223.86 2160.32,-232.22 2166.96,-234.45"/>
</g>
<!-- 31&#45;&gt;36 -->
<g id="edge162" class="edge">
<title>31&#45;&gt;36</title>
<path fill="none" stroke="black" stroke-width="1.39" d="M1758.34,-524.6C1682.66,-511.63 1570.27,-492.36 1486.8,-478.06"/>
<polygon fill="black" stroke="black" stroke-width="1.39" points="1487.21,-474.58 1476.77,-476.34 1486.03,-481.48 1487.21,-474.58"/>
</g>
<!-- 31&#45;&gt;38 -->
<g id="edge20" class="edge">
<title>31&#45;&gt;38</title>
<path fill="none" stroke="black" stroke-width="1" d="M1926.66,-525.52C2025.02,-509.95 2176.58,-485.26 2202.38,-476.96 2334.53,-434.43 2368.48,-409.61 2468.38,-313.22 2546.84,-237.53 2602.02,-172.54 2544.38,-80 2528.88,-55.11 2498.99,-40.78 2473.43,-32.72"/>
<polygon fill="black" stroke="black" stroke-width="1" points="2474.11,-29.27 2463.53,-29.82 2472.15,-35.99 2474.11,-29.27"/>
</g>
<!-- 31&#45;&gt;39 -->
<g id="edge53" class="edge">
<title>31&#45;&gt;39</title>
<path fill="none" stroke="black" stroke-width="1.28" d="M1751.39,-527.85C1711.83,-523.11 1664.82,-517.61 1622.38,-512.96 1200.3,-466.75 1082.04,-518.24 673.38,-402.96 661.76,-399.68 481.93,-323.37 475.38,-313.22 410.72,-212.92 542.85,-129.02 615.38,-80 649.39,-57.02 692.69,-43.18 730.12,-34.92"/>
<polygon fill="black" stroke="black" stroke-width="1.28" points="730.94,-38.32 740.01,-32.83 729.5,-31.47 730.94,-38.32"/>
</g>
<!-- 32&#45;&gt;36 -->
<g id="edge163" class="edge">
<title>32&#45;&gt;36</title>
<path fill="none" stroke="black" stroke-width="1.1" d="M2157.49,-223.11C2137.47,-252.81 2104.75,-299.55 2088.38,-313.22 2019.46,-370.77 1993.66,-378.08 1907.38,-402.96 1765.95,-443.74 1595.65,-454.72 1486.48,-457.17"/>
<polygon fill="black" stroke="black" stroke-width="1.1" points="1486.36,-453.67 1476.44,-457.38 1486.51,-460.67 1486.36,-453.67"/>
</g>
<!-- 32&#45;&gt;38 -->
<g id="edge21" class="edge">
<title>32&#45;&gt;38</title>
<path fill="none" stroke="black" stroke-width="0.87" d="M2186.24,-169.87C2199.54,-143.68 2223.51,-103.68 2255.38,-80 2291.93,-52.85 2342.08,-38.21 2378.98,-30.6"/>
<polygon fill="black" stroke="black" stroke-width="0.87" points="2379.87,-33.99 2389.01,-28.63 2378.53,-27.12 2379.87,-33.99"/>
</g>
<!-- 32&#45;&gt;39 -->
<g id="edge54" class="edge">
<title>32&#45;&gt;39</title>
<path fill="none" stroke="black" stroke-width="1.01" d="M2099.91,-178.55C2086.75,-175.58 2073.17,-172.54 2060.38,-169.74 1984.95,-153.19 1963.96,-157.21 1890.38,-133.74 1833.16,-115.48 1824.81,-93.95 1766.38,-80 1602.57,-40.89 1098.31,-27.96 897.33,-24.28"/>
<polygon fill="black" stroke="black" stroke-width="1.01" points="897.18,-20.78 887.12,-24.1 897.06,-27.78 897.18,-20.78"/>
</g>
<!-- 33&#45;&gt;36 -->
<g id="edge164" class="edge">
<title>33&#45;&gt;36</title>
<path fill="none" stroke="black" stroke-width="1.14" d="M2350.56,-133.62C2336.19,-158.7 2311.83,-196.85 2283.38,-223.48 2171.06,-328.62 2133.59,-355.07 1987.38,-402.96 1897.28,-432.48 1637.15,-447.04 1486.62,-453.18"/>
<polygon fill="black" stroke="black" stroke-width="1.14" points="1486.27,-449.7 1476.42,-453.59 1486.55,-456.69 1486.27,-449.7"/>
</g>
<!-- 33&#45;&gt;38 -->
<g id="edge22" class="edge">
<title>33&#45;&gt;38</title>
<path fill="none" stroke="black" stroke-width="0.89" d="M2384.28,-80.1C2392.97,-68.86 2403.05,-55.8 2411.38,-45.02"/>
<polygon fill="black" stroke="black" stroke-width="0.89" points="2414.28,-46.99 2417.62,-36.93 2408.74,-42.71 2414.28,-46.99"/>
</g>
<!-- 33&#45;&gt;39 -->
<g id="edge55" class="edge">
<title>33&#45;&gt;39</title>
<path fill="none" stroke="black" stroke-width="1.04" d="M2293.6,-87.69C2279.37,-84.64 2264.47,-81.86 2250.38,-80 1986.28,-45.1 1163.95,-28.78 897.58,-24.31"/>
<polygon fill="black" stroke="black" stroke-width="1.04" points="897.26,-20.8 887.2,-24.14 897.14,-27.8 897.26,-20.8"/>
</g>
<!-- 34&#45;&gt;5 -->
<g id="edge165" class="edge">
<title>34&#45;&gt;5</title>
<path fill="none" stroke="black" stroke-width="3.22" d="M515.48,-1394.5C512.95,-1386.72 509.91,-1377.36 506.96,-1368.3"/>
<polygon fill="black" stroke="black" stroke-width="3.22" points="510.25,-1367.1 503.82,-1358.68 503.59,-1369.27 510.25,-1367.1"/>
</g>
<!-- 35&#45;&gt;2 -->
<g id="edge166" class="edge">
<title>35&#45;&gt;2</title>
<path fill="none" stroke="black" stroke-width="2.84" d="M821.38,-782.06C843.68,-771.93 873.01,-759.1 899.69,-747.76"/>
<polygon fill="black" stroke="black" stroke-width="2.84" points="901.16,-750.94 909,-743.82 898.43,-744.5 901.16,-750.94"/>
</g>
<!-- 35&#45;&gt;7 -->
<g id="edge167" class="edge">
<title>35&#45;&gt;7</title>
<path fill="none" stroke="black" stroke-width="2.75" d="M742.46,-820.25C725.4,-828.72 706.97,-840.48 694.38,-856.18 627.01,-940.23 670.47,-990.24 628.38,-1089.4 624.34,-1098.92 619.12,-1108.8 613.61,-1117.78"/>
<polygon fill="black" stroke="black" stroke-width="2.75" points="610.51,-1116.13 608.03,-1126.43 616.39,-1119.93 610.51,-1116.13"/>
</g>
<!-- 35&#45;&gt;8 -->
<g id="edge168" class="edge">
<title>35&#45;&gt;8</title>
<path fill="none" stroke="black" stroke-width="2.9" d="M809.39,-820.32C818.83,-830.42 828.92,-843.49 836.38,-856.18 871.5,-915.91 841.74,-958.37 897.38,-999.66 934.62,-1027.3 1219.66,-1047.48 1368.55,-1056.42"/>
<polygon fill="black" stroke="black" stroke-width="2.9" points="1368.4,-1059.92 1378.59,-1057.02 1368.82,-1052.93 1368.4,-1059.92"/>
</g>
<!-- 35&#45;&gt;9 -->
<g id="edge169" class="edge">
<title>35&#45;&gt;9</title>
<path fill="none" stroke="black" stroke-width="2.33" d="M834.37,-820.29C853.68,-829.56 875.2,-841.9 892.38,-856.18 920.68,-879.69 946.74,-912.57 962.86,-937.25"/>
<polygon fill="black" stroke="black" stroke-width="2.33" points="960.04,-939.35 968.33,-945.94 965.96,-935.62 960.04,-939.35"/>
</g>
<!-- 35&#45;&gt;11 -->
<g id="edge170" class="edge">
<title>35&#45;&gt;11</title>
<path fill="none" stroke="black" stroke-width="2.27" d="M785.96,-781.89C787.63,-758.42 793.86,-717.73 816.38,-692.44 830.92,-676.12 850.45,-663.99 870.55,-655.01"/>
<polygon fill="black" stroke="black" stroke-width="2.27" points="871.96,-658.22 879.81,-651.11 869.24,-651.77 871.96,-658.22"/>
</g>
<!-- 35&#45;&gt;12 -->
<g id="edge171" class="edge">
<title>35&#45;&gt;12</title>
<path fill="none" stroke="black" stroke-width="2.14" d="M683,-785.18C608.49,-768.13 513.41,-732.07 470.38,-656.44 458.57,-635.68 457.3,-622.68 470.38,-602.7 484.76,-580.76 508.8,-566.55 533.05,-557.38"/>
<polygon fill="black" stroke="black" stroke-width="2.14" points="534.42,-560.6 542.69,-553.98 532.1,-554 534.42,-560.6"/>
</g>
<!-- 35&#45;&gt;13 -->
<g id="edge172" class="edge">
<title>35&#45;&gt;13</title>
<path fill="none" stroke="black" stroke-width="2.29" d="M747.64,-782.03C729.1,-772.42 706.85,-759.79 688.38,-746.18 654.69,-721.34 620.59,-687.83 597.22,-663.29"/>
<polygon fill="black" stroke="black" stroke-width="2.29" points="599.73,-660.85 590.32,-655.98 594.64,-665.66 599.73,-660.85"/>
</g>
<!-- 35&#45;&gt;22 -->
<g id="edge173" class="edge">
<title>35&#45;&gt;22</title>
<path fill="none" stroke="black" stroke-width="1.79" d="M887.51,-783.83C954.34,-773.13 1043.55,-758.83 1122.38,-746.18 1353.24,-709.13 1625.77,-665.28 1759.29,-643.79"/>
<polygon fill="black" stroke="black" stroke-width="1.79" points="1760.12,-647.2 1769.44,-642.15 1759.01,-640.29 1760.12,-647.2"/>
</g>
<!-- 35&#45;&gt;23 -->
<g id="edge174" class="edge">
<title>35&#45;&gt;23</title>
<path fill="none" stroke="black" stroke-width="1.56" d="M887.57,-792.73C1117.06,-775.31 1690.52,-727.89 2166.38,-656.44 2288.68,-638.08 2317.67,-624.54 2439.38,-602.7 2537.77,-585.05 2563.51,-587.01 2661.38,-566.7 2670.32,-564.85 2679.65,-562.73 2688.88,-560.53"/>
<polygon fill="black" stroke="black" stroke-width="1.56" points="2689.94,-563.87 2698.83,-558.11 2688.29,-557.07 2689.94,-563.87"/>
</g>
<!-- 35&#45;&gt;36 -->
<g id="edge175" class="edge">
<title>35&#45;&gt;36</title>
<path fill="none" stroke="black" stroke-width="3.33" d="M782.01,-782.15C775.88,-743.33 767.72,-651.46 816.38,-602.7 878.69,-540.28 1119.6,-495.74 1264.05,-474.01"/>
<polygon fill="black" stroke="black" stroke-width="3.33" points="1264.9,-477.42 1274.28,-472.48 1263.87,-470.49 1264.9,-477.42"/>
</g>
<!-- 36&#45;&gt;3 -->
<g id="edge176" class="edge">
<title>36&#45;&gt;3</title>
<path fill="none" stroke="black" stroke-width="3.5" d="M1318.63,-438.94C1288.32,-428.6 1250.81,-415.42 1218.78,-403.88"/>
<polygon fill="black" stroke="black" stroke-width="3.5" points="1219.63,-400.47 1209.03,-400.36 1217.25,-407.05 1219.63,-400.47"/>
</g>
<!-- 36&#45;&gt;19 -->
<g id="edge177" class="edge">
<title>36&#45;&gt;19</title>
<path fill="none" stroke="black" stroke-width="2.13" d="M1476.74,-448.74C1546.61,-441.35 1640.94,-427.68 1721.38,-402.96 1765.64,-389.36 1884.69,-352.38 1909.38,-313.22 1925.04,-288.41 1912.72,-256.39 1899.68,-232.35"/>
<polygon fill="black" stroke="black" stroke-width="2.13" points="1902.67,-230.53 1894.7,-223.55 1896.58,-233.98 1902.67,-230.53"/>
</g>
<!-- 37 -->
<g id="node37" class="node">
<title>37</title>
<polygon fill="white" stroke="black" stroke-width="0.5" points="658.76,-1581.92 614.38,-1594.36 570.01,-1581.92 586.96,-1561.8 641.81,-1561.8 658.76,-1581.92"/>
<text text-anchor="middle" x="614.38" y="-1572.66" font-family="Times,serif" font-size="14.00">Input</text>
</g>
<!-- 37&#45;&gt;1 -->
<g id="edge1" class="edge">
<title>37&#45;&gt;1</title>
<path fill="none" stroke="black" stroke-width="3.46" d="M644.32,-1564.72C676.61,-1553.26 729,-1534.64 770.91,-1519.75"/>
<polygon fill="black" stroke="black" stroke-width="3.46" points="772.25,-1522.99 780.5,-1516.34 769.91,-1516.39 772.25,-1522.99"/>
</g>
<!-- 37&#45;&gt;4 -->
<g id="edge2" class="edge">
<title>37&#45;&gt;4</title>
<path fill="none" stroke="black" stroke-width="3.03" d="M579.28,-1570.88C471.47,-1556.16 152.38,-1504.96 152.38,-1414.62 152.38,-1414.62 152.38,-1414.62 152.38,-718.31 152.38,-632.3 251.59,-584.42 325.75,-560.64"/>
<polygon fill="black" stroke="black" stroke-width="3.03" points="327.07,-563.89 335.58,-557.58 324.99,-557.21 327.07,-563.89"/>
</g>
<!-- 37&#45;&gt;34 -->
<g id="edge3" class="edge">
<title>37&#45;&gt;34</title>
<path fill="none" stroke="black" stroke-width="3.1" d="M606.46,-1561.66C591.12,-1535.15 557.13,-1476.41 537.07,-1441.73"/>
<polygon fill="black" stroke="black" stroke-width="3.1" points="539.84,-1439.54 531.81,-1432.64 533.79,-1443.04 539.84,-1439.54"/>
</g>
<!-- 37&#45;&gt;35 -->
<g id="edge4" class="edge">
<title>37&#45;&gt;35</title>
<path fill="none" stroke="black" stroke-width="3.23" d="M617.61,-1561.69C629.54,-1511.07 672.19,-1329.38 705.38,-1179.14 734.17,-1048.84 766.67,-892.75 779.61,-830.15"/>
<polygon fill="black" stroke="black" stroke-width="3.23" points="783.06,-830.75 781.66,-820.25 776.21,-829.34 783.06,-830.75"/>
</g>
</g>
</svg>
