<?xml version="1.0" encoding="UTF-8" standalone="no"?>
<!DOCTYPE svg PUBLIC "-//W3C//DTD SVG 1.1//EN"
 "http://www.w3.org/Graphics/SVG/1.1/DTD/svg11.dtd">
<!-- Generated by graphviz version 2.43.0 (0)
 -->
<!-- Title: chesapeake Pages: 1 -->
<svg width="3647pt" height="1837pt"
 viewBox="0.00 0.00 3647.28 1837.25" xmlns="http://www.w3.org/2000/svg" xmlns:xlink="http://www.w3.org/1999/xlink">
<g id="graph0" class="graph" transform="scale(1 1) rotate(0) translate(4 1833.25)">
<title>chesapeake</title>
<polygon fill="white" stroke="transparent" points="-4,4 -4,-1833.25 3643.28,-1833.25 3643.28,4 -4,4"/>
<!-- 1 -->
<g id="node1" class="node">
<title>1</title>
<ellipse fill="#a0e5de" stroke="black" cx="1049.28" cy="-1707.12" rx="177.5" ry="35.5"/>
<text text-anchor="middle" x="1049.28" y="-1713.69" font-family="Times,serif" font-size="23.04">phytoplankton</text>
<text text-anchor="middle" x="1049.28" y="-1688.69" font-family="Times,serif" font-size="23.04">(3480.00 gC.m²)</text>
</g>
<!-- 7 -->
<g id="node7" class="node">
<title>7</title>
<ellipse fill="#a0e5de" stroke="black" cx="748.28" cy="-1300.62" rx="151" ry="30"/>
<text text-anchor="middle" x="748.28" y="-1306.98" font-family="Times,serif" font-size="19.55">ciliates</text>
<text text-anchor="middle" x="748.28" y="-1284.98" font-family="Times,serif" font-size="19.55">(148.75 gC.m²)</text>
</g>
<!-- 1&#45;&gt;7 -->
<g id="edge56" class="edge">
<title>1&#45;&gt;7</title>
<path fill="none" stroke="black" stroke-width="2.84" d="M1032.54,-1671.67C999.95,-1606.87 922.96,-1464.57 830.28,-1366.62 820.03,-1355.79 807.93,-1345.23 796.21,-1335.87"/>
<polygon fill="black" stroke="black" stroke-width="2.84" points="798.22,-1333 788.19,-1329.6 793.91,-1338.51 798.22,-1333"/>
</g>
<!-- 8 -->
<g id="node8" class="node">
<title>8</title>
<ellipse fill="#a0e5de" stroke="black" cx="1800.28" cy="-1204.12" rx="153" ry="30.5"/>
<text text-anchor="middle" x="1800.28" y="-1210.23" font-family="Times,serif" font-size="19.87">zooplankton</text>
<text text-anchor="middle" x="1800.28" y="-1188.23" font-family="Times,serif" font-size="19.87">(197.50 gC.m²)</text>
</g>
<!-- 1&#45;&gt;8 -->
<g id="edge57" class="edge">
<title>1&#45;&gt;8</title>
<path fill="none" stroke="black" stroke-width="2.88" d="M1224.14,-1700.96C1370.81,-1693.77 1566.68,-1676.59 1633.28,-1635.62 1698.79,-1595.32 1729.28,-1568.54 1729.28,-1491.62 1729.28,-1491.62 1729.28,-1491.62 1729.28,-1393.62 1729.28,-1338.82 1755.89,-1280.47 1776.52,-1243.46"/>
<polygon fill="black" stroke="black" stroke-width="2.88" points="1779.71,-1244.94 1781.62,-1234.52 1773.63,-1241.47 1779.71,-1244.94"/>
</g>
<!-- 11 -->
<g id="node11" class="node">
<title>11</title>
<ellipse fill="#a0e5de" stroke="black" cx="1209.28" cy="-728.12" rx="158.5" ry="31.5"/>
<text text-anchor="middle" x="1209.28" y="-734.69" font-family="Times,serif" font-size="20.54">other suspension feeders</text>
<text text-anchor="middle" x="1209.28" y="-711.69" font-family="Times,serif" font-size="20.54">(363.75 gC.m²)</text>
</g>
<!-- 1&#45;&gt;11 -->
<g id="edge58" class="edge">
<title>1&#45;&gt;11</title>
<path fill="none" stroke="black" stroke-width="2.39" d="M1182.2,-1683.49C1350.63,-1650.97 1619.28,-1584.54 1619.28,-1491.62 1619.28,-1491.62 1619.28,-1491.62 1619.28,-1024.12 1619.28,-874.82 1437.91,-793.62 1316.43,-755.98"/>
<polygon fill="black" stroke="black" stroke-width="2.39" points="1317.29,-752.59 1306.7,-753.02 1315.25,-759.28 1317.29,-752.59"/>
</g>
<!-- 12 -->
<g id="node12" class="node">
<title>12</title>
<ellipse fill="#a0e5de" stroke="black" cx="769.28" cy="-628.12" rx="148.5" ry="29.5"/>
<text text-anchor="middle" x="769.28" y="-633.75" font-family="Times,serif" font-size="19.22">mya arenaria</text>
<text text-anchor="middle" x="769.28" y="-612.75" font-family="Times,serif" font-size="19.22">(110.00 gC.m²)</text>
</g>
<!-- 1&#45;&gt;12 -->
<g id="edge59" class="edge">
<title>1&#45;&gt;12</title>
<path fill="none" stroke="black" stroke-width="2.25" d="M877.77,-1697.93C627.13,-1681.21 190.28,-1631.93 190.28,-1491.62 190.28,-1491.62 190.28,-1491.62 190.28,-1393.62 190.28,-1264.03 266.28,-1241.71 266.28,-1112.12 266.28,-1112.12 266.28,-1112.12 266.28,-825.62 266.28,-743.25 503.25,-681.38 651.89,-650.68"/>
<polygon fill="black" stroke="black" stroke-width="2.25" points="652.89,-654.04 661.99,-648.61 651.49,-647.19 652.89,-654.04"/>
</g>
<!-- 13 -->
<g id="node13" class="node">
<title>13</title>
<ellipse fill="#a0e5de" stroke="black" cx="712.28" cy="-728.12" rx="168" ry="33.5"/>
<text text-anchor="middle" x="712.28" y="-734.71" font-family="Times,serif" font-size="21.76">oysters</text>
<text text-anchor="middle" x="712.28" y="-710.71" font-family="Times,serif" font-size="21.76">(1100.00 gC.m²)</text>
</g>
<!-- 1&#45;&gt;13 -->
<g id="edge60" class="edge">
<title>1&#45;&gt;13</title>
<path fill="none" stroke="black" stroke-width="2.4" d="M1008.35,-1672.37C995.21,-1661.05 980.82,-1648.12 968.28,-1635.62 855.59,-1523.38 868.05,-1449.46 732.28,-1366.62 675.96,-1332.26 638.96,-1372.85 588.28,-1330.62 541.21,-1291.4 531.28,-1266.38 531.28,-1205.12 531.28,-1205.12 531.28,-1205.12 531.28,-1024.12 531.28,-919.39 615.18,-820.52 668.74,-768.08"/>
<polygon fill="black" stroke="black" stroke-width="2.4" points="671.32,-770.46 676.08,-760.99 666.46,-765.42 671.32,-770.46"/>
</g>
<!-- 22 -->
<g id="node22" class="node">
<title>22</title>
<ellipse fill="#a0e5de" stroke="black" cx="2400.28" cy="-728.12" rx="145" ry="29"/>
<text text-anchor="middle" x="2400.28" y="-734.11" font-family="Times,serif" font-size="18.77">bay anchovy</text>
<text text-anchor="middle" x="2400.28" y="-713.11" font-family="Times,serif" font-size="18.77">(72.75 gC.m²)</text>
</g>
<!-- 1&#45;&gt;22 -->
<g id="edge61" class="edge">
<title>1&#45;&gt;22</title>
<path fill="none" stroke="black" stroke-width="1.78" d="M1226.77,-1705.64C1717.97,-1701.95 3059.28,-1675.1 3059.28,-1491.62 3059.28,-1491.62 3059.28,-1491.62 3059.28,-1203.12 3059.28,-933.14 2690.24,-801.79 2504.49,-752.78"/>
<polygon fill="black" stroke="black" stroke-width="1.78" points="2505.25,-749.36 2494.7,-750.23 2503.49,-756.13 2505.25,-749.36"/>
</g>
<!-- 23 -->
<g id="node23" class="node">
<title>23</title>
<ellipse fill="#a0e5de" stroke="black" cx="3397.28" cy="-628.12" rx="138" ry="27.5"/>
<text text-anchor="middle" x="3397.28" y="-633.83" font-family="Times,serif" font-size="17.86">menhaden</text>
<text text-anchor="middle" x="3397.28" y="-613.83" font-family="Times,serif" font-size="17.86">(31.52 gC.m²)</text>
</g>
<!-- 1&#45;&gt;23 -->
<g id="edge62" class="edge">
<title>1&#45;&gt;23</title>
<path fill="none" stroke="black" stroke-width="1.21" d="M1225.62,-1702.71C1613.67,-1694.63 2531.55,-1672.21 2840.28,-1635.62 3165.64,-1597.06 3563.28,-1819.27 3563.28,-1491.62 3563.28,-1491.62 3563.28,-1491.62 3563.28,-825.62 3563.28,-753.43 3497.09,-694.06 3448.3,-660.11"/>
<polygon fill="black" stroke="black" stroke-width="1.21" points="3450.26,-657.21 3440.03,-654.47 3446.32,-662.99 3450.26,-657.21"/>
</g>
<!-- 34 -->
<g id="node34" class="node">
<title>34</title>
<polygon fill="#a0e5de" stroke="black" points="814.78,-1635.62 427.78,-1635.62 427.78,-1558.62 814.78,-1558.62 814.78,-1635.62"/>
<text text-anchor="middle" x="621.28" y="-1605.06" font-family="Times,serif" font-size="25.08">dissolved organic carbon</text>
<text text-anchor="middle" x="621.28" y="-1577.06" font-family="Times,serif" font-size="25.08">(21857.50 gC.m²)</text>
</g>
<!-- 1&#45;&gt;34 -->
<g id="edge63" class="edge">
<title>1&#45;&gt;34</title>
<path fill="none" stroke="black" stroke-width="3.04" d="M941.27,-1678.87C892.43,-1666.55 833.74,-1651.73 780.03,-1638.18"/>
<polygon fill="black" stroke="black" stroke-width="3.04" points="780.61,-1634.72 770.06,-1635.67 778.9,-1641.51 780.61,-1634.72"/>
</g>
<!-- 35 -->
<g id="node35" class="node">
<title>35</title>
<polygon fill="#a0e5de" stroke="black" points="1148.78,-965.62 779.78,-965.62 779.78,-891.62 1148.78,-891.62 1148.78,-965.62"/>
<text text-anchor="middle" x="964.28" y="-935.49" font-family="Times,serif" font-size="23.91">suspended particulate org</text>
<text text-anchor="middle" x="964.28" y="-909.49" font-family="Times,serif" font-size="23.91">(7631.00 gC.m²)</text>
</g>
<!-- 1&#45;&gt;35 -->
<g id="edge64" class="edge">
<title>1&#45;&gt;35</title>
<path fill="none" stroke="black" stroke-width="3.13" d="M1047.2,-1671.59C1044.83,-1629.21 1041.28,-1555.16 1041.28,-1491.62 1041.28,-1491.62 1041.28,-1491.62 1041.28,-1110.12 1041.28,-1060.81 1016.66,-1009.56 995.27,-974.33"/>
<polygon fill="black" stroke="black" stroke-width="3.13" points="998.17,-972.37 989.92,-965.73 992.23,-976.07 998.17,-972.37"/>
</g>
<!-- 39 -->
<g id="node39" class="node">
<title>39</title>
<polygon fill="white" stroke="black" points="963.4,-25.31 906.34,-50.44 792.22,-50.44 735.16,-25.31 792.22,-0.19 906.34,-0.19 963.4,-25.31"/>
<text text-anchor="middle" x="849.28" y="-20.01" font-family="Times,serif" font-size="21.00">Respiration</text>
</g>
<!-- 1&#45;&gt;39 -->
<g id="edge23" class="edge">
<title>1&#45;&gt;39</title>
<path fill="none" stroke="black" stroke-width="3.28" d="M1226.9,-1706.44C1672.93,-1706.24 2831.54,-1699.41 3211.28,-1635.62 3409.2,-1602.38 3639.28,-1692.32 3639.28,-1491.62 3639.28,-1491.62 3639.28,-1491.62 3639.28,-727.12 3639.28,-382.76 3535.86,-175.9 3203.28,-86.62 2987.58,-28.72 1424.93,-25.72 972,-26.09"/>
<polygon fill="black" stroke="black" stroke-width="3.28" points="971.83,-22.59 961.83,-26.1 971.83,-29.59 971.83,-22.59"/>
</g>
<!-- 2 -->
<g id="node2" class="node">
<title>2</title>
<ellipse fill="#a0e5de" stroke="black" cx="1212.28" cy="-826.62" rx="145.5" ry="29"/>
<text text-anchor="middle" x="1212.28" y="-832.54" font-family="Times,serif" font-size="18.86">bacteria in suspended poc</text>
<text text-anchor="middle" x="1212.28" y="-811.54" font-family="Times,serif" font-size="18.86">(79.00 gC.m²)</text>
</g>
<!-- 2&#45;&gt;7 -->
<g id="edge65" class="edge">
<title>2&#45;&gt;7</title>
<path fill="none" stroke="black" stroke-width="2.14" d="M1306.19,-848.81C1391.89,-874.36 1505.28,-926.58 1505.28,-1024.12 1505.28,-1112.12 1505.28,-1112.12 1505.28,-1112.12 1505.28,-1234.72 1126.47,-1277.69 904.79,-1292.35"/>
<polygon fill="black" stroke="black" stroke-width="2.14" points="904.43,-1288.86 894.68,-1293 904.89,-1295.85 904.43,-1288.86"/>
</g>
<!-- 2&#45;&gt;8 -->
<g id="edge66" class="edge">
<title>2&#45;&gt;8</title>
<path fill="none" stroke="black" stroke-width="2.08" d="M1347.65,-837.29C1403.64,-845.87 1467.46,-861.87 1519.28,-891.62 1638.97,-960.34 1735.43,-1098 1777.47,-1164.89"/>
<polygon fill="black" stroke="black" stroke-width="2.08" points="1774.55,-1166.81 1782.8,-1173.46 1780.49,-1163.12 1774.55,-1166.81"/>
</g>
<!-- 9 -->
<g id="node9" class="node">
<title>9</title>
<ellipse fill="#a0e5de" stroke="black" cx="1259.28" cy="-1111.12" rx="133.5" ry="26.5"/>
<text text-anchor="middle" x="1259.28" y="-1116.25" font-family="Times,serif" font-size="17.33">ctenophores</text>
<text text-anchor="middle" x="1259.28" y="-1097.25" font-family="Times,serif" font-size="17.33">(19.25 gC.m²)</text>
</g>
<!-- 2&#45;&gt;9 -->
<g id="edge67" class="edge">
<title>2&#45;&gt;9</title>
<path fill="none" stroke="black" stroke-width="1.59" d="M1212.81,-855.94C1214.14,-898.39 1218.82,-980.77 1235.28,-1048.62 1237.42,-1057.44 1240.53,-1066.69 1243.81,-1075.26"/>
<polygon fill="black" stroke="black" stroke-width="1.59" points="1240.57,-1076.6 1247.54,-1084.59 1247.07,-1074 1240.57,-1076.6"/>
</g>
<!-- 2&#45;&gt;11 -->
<g id="edge68" class="edge">
<title>2&#45;&gt;11</title>
<path fill="none" stroke="black" stroke-width="1.64" d="M1211.4,-797.45C1211.13,-788.88 1210.84,-779.29 1210.55,-770.05"/>
<polygon fill="black" stroke="black" stroke-width="1.64" points="1214.04,-769.75 1210.23,-759.86 1207.04,-769.97 1214.04,-769.75"/>
</g>
<!-- 2&#45;&gt;12 -->
<g id="edge69" class="edge">
<title>2&#45;&gt;12</title>
<path fill="none" stroke="black" stroke-width="1.46" d="M1133.71,-802.04C1104.08,-791.62 1070.7,-777.99 1042.28,-761.62 1001.49,-738.13 1001.4,-717.5 960.28,-694.62 931.39,-678.55 897.87,-665.43 867.05,-655.27"/>
<polygon fill="black" stroke="black" stroke-width="1.46" points="867.74,-651.82 857.15,-652.08 865.59,-658.48 867.74,-651.82"/>
</g>
<!-- 2&#45;&gt;13 -->
<g id="edge70" class="edge">
<title>2&#45;&gt;13</title>
<path fill="none" stroke="black" stroke-width="1.56" d="M1110.19,-805.92C1032.16,-790.86 924.12,-770.01 840.3,-753.83"/>
<polygon fill="black" stroke="black" stroke-width="1.56" points="840.95,-750.39 830.47,-751.93 839.62,-757.26 840.95,-750.39"/>
</g>
<!-- 2&#45;&gt;22 -->
<g id="edge71" class="edge">
<title>2&#45;&gt;22</title>
<path fill="none" stroke="black" stroke-width="1.1" d="M1345.38,-814.81C1570.73,-796.51 2025.43,-759.57 2257.29,-740.74"/>
<polygon fill="black" stroke="black" stroke-width="1.1" points="2257.79,-744.21 2267.48,-739.91 2257.23,-737.23 2257.79,-744.21"/>
</g>
<!-- 2&#45;&gt;23 -->
<g id="edge72" class="edge">
<title>2&#45;&gt;23</title>
<path fill="none" stroke="black" stroke-width="0.91" d="M1357.1,-823.47C1603.51,-818.75 2119.89,-804.25 2554.28,-761.62 2573.59,-759.73 3226.15,-661.9 3245.28,-658.62 3260.64,-655.99 3276.83,-653.04 3292.7,-650.04"/>
<polygon fill="black" stroke="black" stroke-width="0.91" points="3293.36,-653.48 3302.53,-648.18 3292.05,-646.6 3293.36,-653.48"/>
</g>
<!-- 2&#45;&gt;35 -->
<g id="edge73" class="edge">
<title>2&#45;&gt;35</title>
<path fill="none" stroke="black" stroke-width="2.37" d="M1154.52,-853.33C1129.23,-863.81 1098.77,-876.18 1069.7,-887.78"/>
<polygon fill="black" stroke="black" stroke-width="2.37" points="1068.32,-884.57 1060.32,-891.52 1070.91,-891.07 1068.32,-884.57"/>
</g>
<!-- 36 -->
<g id="node36" class="node">
<title>36</title>
<polygon fill="#a0e5de" stroke="black" points="2011.28,-561.62 1579.28,-561.62 1579.28,-475.62 2011.28,-475.62 2011.28,-561.62"/>
<text text-anchor="middle" x="1795.28" y="-527.22" font-family="Times,serif" font-size="28.00">sediment particulate orga</text>
<text text-anchor="middle" x="1795.28" y="-496.22" font-family="Times,serif" font-size="28.00">(305000.00 gC.m²)</text>
</g>
<!-- 2&#45;&gt;36 -->
<g id="edge74" class="edge">
<title>2&#45;&gt;36</title>
<path fill="none" stroke="black" stroke-width="2.57" d="M1287.49,-801.72C1316.43,-791.18 1349.22,-777.56 1377.28,-761.62 1480.25,-703.14 1483.98,-655.53 1587.28,-597.62 1608.49,-585.73 1631.88,-574.96 1655.07,-565.49"/>
<polygon fill="black" stroke="black" stroke-width="2.57" points="1656.67,-568.62 1664.65,-561.65 1654.06,-562.13 1656.67,-568.62"/>
</g>
<!-- 2&#45;&gt;39 -->
<g id="edge24" class="edge">
<title>2&#45;&gt;39</title>
<path fill="none" stroke="black" stroke-width="2.67" d="M1082.98,-813.24C1040.62,-804.13 995.44,-788.46 960.28,-761.62 933.06,-740.86 951.38,-712.64 922.28,-694.62 859.17,-655.55 311.25,-707.36 255.28,-658.62 207.82,-617.3 228.28,-582.56 228.28,-519.62 228.28,-519.62 228.28,-519.62 228.28,-201.62 228.28,-147.93 223.57,-120.43 265.28,-86.62 301.09,-57.59 577.91,-39.47 737.24,-31.34"/>
<polygon fill="black" stroke="black" stroke-width="2.67" points="737.75,-34.82 747.56,-30.82 737.4,-27.83 737.75,-34.82"/>
</g>
<!-- 3 -->
<g id="node3" class="node">
<title>3</title>
<ellipse fill="#a0e5de" stroke="black" cx="1498.28" cy="-407.12" rx="162.5" ry="32.5"/>
<text text-anchor="middle" x="1498.28" y="-413.25" font-family="Times,serif" font-size="21.09">bacteria in sediment poc</text>
<text text-anchor="middle" x="1498.28" y="-390.25" font-family="Times,serif" font-size="21.09">(600.00 gC.m²)</text>
</g>
<!-- 14 -->
<g id="node14" class="node">
<title>14</title>
<ellipse fill="#a0e5de" stroke="black" cx="1139.28" cy="-304.12" rx="168.5" ry="33.5"/>
<text text-anchor="middle" x="1139.28" y="-310.64" font-family="Times,serif" font-size="21.85">other polychaetes</text>
<text text-anchor="middle" x="1139.28" y="-286.64" font-family="Times,serif" font-size="21.85">(1186.50 gC.m²)</text>
</g>
<!-- 3&#45;&gt;14 -->
<g id="edge75" class="edge">
<title>3&#45;&gt;14</title>
<path fill="none" stroke="black" stroke-width="3.16" d="M1406.29,-380.24C1356.72,-366.3 1295.36,-349.03 1243.96,-334.57"/>
<polygon fill="black" stroke="black" stroke-width="3.16" points="1244.73,-331.15 1234.15,-331.81 1242.83,-337.89 1244.73,-331.15"/>
</g>
<!-- 15 -->
<g id="node15" class="node">
<title>15</title>
<ellipse fill="#a0e5de" stroke="black" cx="1474.28" cy="-304.12" rx="148.5" ry="29.5"/>
<text text-anchor="middle" x="1474.28" y="-309.72" font-family="Times,serif" font-size="19.25">nereis</text>
<text text-anchor="middle" x="1474.28" y="-288.72" font-family="Times,serif" font-size="19.25">(113.25 gC.m²)</text>
</g>
<!-- 3&#45;&gt;15 -->
<g id="edge76" class="edge">
<title>3&#45;&gt;15</title>
<path fill="none" stroke="black" stroke-width="2.74" d="M1490.75,-374.44C1488.42,-364.64 1485.83,-353.73 1483.4,-343.52"/>
<polygon fill="black" stroke="black" stroke-width="2.74" points="1486.76,-342.53 1481.05,-333.61 1479.95,-344.15 1486.76,-342.53"/>
</g>
<!-- 16 -->
<g id="node16" class="node">
<title>16</title>
<ellipse fill="#a0e5de" stroke="black" cx="2253.28" cy="-304.12" rx="172.5" ry="34.5"/>
<text text-anchor="middle" x="2253.28" y="-311.23" font-family="Times,serif" font-size="22.36">macoma spp.</text>
<text text-anchor="middle" x="2253.28" y="-286.23" font-family="Times,serif" font-size="22.36">(1890.25 gC.m²)</text>
</g>
<!-- 3&#45;&gt;16 -->
<g id="edge77" class="edge">
<title>3&#45;&gt;16</title>
<path fill="none" stroke="black" stroke-width="2.92" d="M1631.08,-388.36C1762.77,-370.74 1964.24,-343.79 2102.02,-325.36"/>
<polygon fill="black" stroke="black" stroke-width="2.92" points="2102.79,-328.79 2112.24,-323.99 2101.86,-321.85 2102.79,-328.79"/>
</g>
<!-- 17 -->
<g id="node17" class="node">
<title>17</title>
<ellipse fill="#a0e5de" stroke="black" cx="642.28" cy="-304.12" rx="158" ry="31.5"/>
<text text-anchor="middle" x="642.28" y="-310.76" font-family="Times,serif" font-size="20.46">meiofauna</text>
<text text-anchor="middle" x="642.28" y="-287.76" font-family="Times,serif" font-size="20.46">(337.50 gC.m²)</text>
</g>
<!-- 3&#45;&gt;17 -->
<g id="edge78" class="edge">
<title>3&#45;&gt;17</title>
<path fill="none" stroke="black" stroke-width="2.82" d="M1346.66,-395.27C1207.72,-384.35 996.54,-365.31 814.28,-338.62 796.29,-335.99 777.33,-332.76 758.82,-329.36"/>
<polygon fill="black" stroke="black" stroke-width="2.82" points="759.37,-325.9 748.9,-327.51 758.09,-332.78 759.37,-325.9"/>
</g>
<!-- 18 -->
<g id="node18" class="node">
<title>18</title>
<ellipse fill="#a0e5de" stroke="black" cx="1795.28" cy="-304.12" rx="154.5" ry="31"/>
<text text-anchor="middle" x="1795.28" y="-310.1" font-family="Times,serif" font-size="20.02">crustacean deposit feeder</text>
<text text-anchor="middle" x="1795.28" y="-288.1" font-family="Times,serif" font-size="20.02">(228.00 gC.m²)</text>
</g>
<!-- 3&#45;&gt;18 -->
<g id="edge79" class="edge">
<title>3&#45;&gt;18</title>
<path fill="none" stroke="black" stroke-width="2.61" d="M1578.65,-378.79C1619.13,-365.02 1668.24,-348.32 1709.45,-334.31"/>
<polygon fill="black" stroke="black" stroke-width="2.61" points="1710.59,-337.62 1718.93,-331.08 1708.34,-330.99 1710.59,-337.62"/>
</g>
<!-- 3&#45;&gt;36 -->
<g id="edge80" class="edge">
<title>3&#45;&gt;36</title>
<path fill="none" stroke="black" stroke-width="3.09" d="M1578.45,-435.49C1609.23,-446.57 1644.99,-459.67 1678.5,-472.11"/>
<polygon fill="black" stroke="black" stroke-width="3.09" points="1677.29,-475.4 1687.88,-475.6 1679.73,-468.83 1677.29,-475.4"/>
</g>
<!-- 3&#45;&gt;39 -->
<g id="edge25" class="edge">
<title>3&#45;&gt;39</title>
<path fill="none" stroke="black" stroke-width="3.32" d="M1341.32,-398.7C1233.15,-390.61 1086.98,-373.74 962.28,-338.62 890.47,-318.4 879,-296.15 809.28,-269.62 759.22,-250.58 725.99,-276.78 694.28,-233.62 654.99,-180.16 676.77,-136.71 720.28,-86.62 734.07,-70.74 752.94,-58.76 771.99,-49.83"/>
<polygon fill="black" stroke="black" stroke-width="3.32" points="773.62,-52.94 781.34,-45.69 770.78,-46.54 773.62,-52.94"/>
</g>
<!-- 4 -->
<g id="node4" class="node">
<title>4</title>
<ellipse fill="#a0e5de" stroke="black" cx="448.28" cy="-628.12" rx="152.5" ry="30.5"/>
<text text-anchor="middle" x="448.28" y="-634.33" font-family="Times,serif" font-size="19.75">benthic diatoms</text>
<text text-anchor="middle" x="448.28" y="-612.33" font-family="Times,serif" font-size="19.75">(177.25 gC.m²)</text>
</g>
<!-- 4&#45;&gt;17 -->
<g id="edge81" class="edge">
<title>4&#45;&gt;17</title>
<path fill="none" stroke="black" stroke-width="2.7" d="M466.01,-597.69C501.03,-539.57 579.08,-410.01 618.51,-344.57"/>
<polygon fill="black" stroke="black" stroke-width="2.7" points="621.65,-346.15 623.81,-335.77 615.65,-342.53 621.65,-346.15"/>
</g>
<!-- 4&#45;&gt;36 -->
<g id="edge82" class="edge">
<title>4&#45;&gt;36</title>
<path fill="none" stroke="black" stroke-width="2.83" d="M554.54,-606.1C573.39,-602.88 592.87,-599.89 611.28,-597.62 943.1,-556.8 1330.06,-536.39 1568.88,-526.92"/>
<polygon fill="black" stroke="black" stroke-width="2.83" points="1569.22,-530.4 1579.08,-526.51 1568.95,-523.41 1569.22,-530.4"/>
</g>
<!-- 4&#45;&gt;39 -->
<g id="edge26" class="edge">
<title>4&#45;&gt;39</title>
<path fill="none" stroke="black" stroke-width="2.8" d="M413.05,-598.15C370.42,-559.6 304.28,-487.07 304.28,-408.12 304.28,-408.12 304.28,-408.12 304.28,-201.62 304.28,-148.57 295.98,-121.13 336.28,-86.62 366.33,-60.88 598.83,-41.96 740.31,-32.7"/>
<polygon fill="black" stroke="black" stroke-width="2.8" points="740.59,-36.19 750.34,-32.05 740.13,-29.2 740.59,-36.19"/>
</g>
<!-- 5 -->
<g id="node5" class="node">
<title>5</title>
<ellipse fill="#a0e5de" stroke="black" cx="599.28" cy="-1490.62" rx="159" ry="32"/>
<text text-anchor="middle" x="599.28" y="-1497.13" font-family="Times,serif" font-size="20.62">free bacteria</text>
<text text-anchor="middle" x="599.28" y="-1474.13" font-family="Times,serif" font-size="20.62">(390.50 gC.m²)</text>
</g>
<!-- 6 -->
<g id="node6" class="node">
<title>6</title>
<ellipse fill="#a0e5de" stroke="black" cx="584.28" cy="-1394.62" rx="139.5" ry="28"/>
<text text-anchor="middle" x="584.28" y="-1400.15" font-family="Times,serif" font-size="18.09">heterotrophic microflagel</text>
<text text-anchor="middle" x="584.28" y="-1380.15" font-family="Times,serif" font-size="18.09">(39.00 gC.m²)</text>
</g>
<!-- 5&#45;&gt;6 -->
<g id="edge83" class="edge">
<title>5&#45;&gt;6</title>
<path fill="none" stroke="black" stroke-width="3.07" d="M594.32,-1458.58C593.01,-1450.37 591.59,-1441.42 590.23,-1432.92"/>
<polygon fill="black" stroke="black" stroke-width="3.07" points="593.65,-1432.16 588.62,-1422.84 586.74,-1433.27 593.65,-1432.16"/>
</g>
<!-- 5&#45;&gt;35 -->
<g id="edge84" class="edge">
<title>5&#45;&gt;35</title>
<path fill="none" stroke="black" stroke-width="2.49" d="M697.87,-1465.38C768.26,-1442.68 858.89,-1401.36 908.28,-1330.62 950.49,-1270.17 939.95,-1074.48 951.28,-1001.62 952.58,-993.23 954.09,-984.32 955.61,-975.72"/>
<polygon fill="black" stroke="black" stroke-width="2.49" points="959.06,-976.28 957.39,-965.82 952.17,-975.05 959.06,-976.28"/>
</g>
<!-- 5&#45;&gt;39 -->
<g id="edge27" class="edge">
<title>5&#45;&gt;39</title>
<path fill="none" stroke="black" stroke-width="3.05" d="M512.83,-1463.63C486.46,-1453.33 458.36,-1439.77 435.28,-1422.62 143.17,-1205.7 0.28,-1092.96 0.28,-729.12 0.28,-729.12 0.28,-729.12 0.28,-201.62 0.28,-147.79 -4.15,-119.75 38.28,-86.62 91.52,-45.05 518.34,-31.93 730.47,-27.95"/>
<polygon fill="black" stroke="black" stroke-width="3.05" points="730.78,-31.45 740.72,-27.77 730.66,-24.45 730.78,-31.45"/>
</g>
<!-- 6&#45;&gt;7 -->
<g id="edge85" class="edge">
<title>6&#45;&gt;7</title>
<path fill="none" stroke="black" stroke-width="2.84" d="M629.96,-1368C648.7,-1357.48 670.61,-1345.19 690.45,-1334.06"/>
<polygon fill="black" stroke="black" stroke-width="2.84" points="692.39,-1336.99 699.4,-1329.04 688.96,-1330.88 692.39,-1336.99"/>
</g>
<!-- 6&#45;&gt;35 -->
<g id="edge86" class="edge">
<title>6&#45;&gt;35</title>
<path fill="none" stroke="black" stroke-width="2.63" d="M579.78,-1366.54C576.73,-1340.81 575.29,-1301.55 588.28,-1270.62 646.86,-1131.1 796.02,-1025.33 887.89,-970.81"/>
<polygon fill="black" stroke="black" stroke-width="2.63" points="889.75,-973.77 896.59,-965.69 886.2,-967.74 889.75,-973.77"/>
</g>
<!-- 6&#45;&gt;39 -->
<g id="edge28" class="edge">
<title>6&#45;&gt;39</title>
<path fill="none" stroke="black" stroke-width="2.91" d="M543.05,-1367.85C451.65,-1308.54 230.94,-1152.98 115.28,-965.62 57.21,-871.56 38.28,-839.66 38.28,-729.12 38.28,-729.12 38.28,-729.12 38.28,-201.62 38.28,-147.93 33.15,-119.91 75.28,-86.62 125.49,-46.95 527.19,-32.95 731.22,-28.36"/>
<polygon fill="black" stroke="black" stroke-width="2.91" points="731.46,-31.86 741.38,-28.14 731.31,-24.86 731.46,-31.86"/>
</g>
<!-- 7&#45;&gt;8 -->
<g id="edge87" class="edge">
<title>7&#45;&gt;8</title>
<path fill="none" stroke="black" stroke-width="2.52" d="M887.29,-1288.77C1041.73,-1276.5 1298.45,-1255.52 1519.28,-1234.62 1564.45,-1230.35 1613.67,-1225.31 1658.11,-1220.62"/>
<polygon fill="black" stroke="black" stroke-width="2.52" points="1658.53,-1224.1 1668.11,-1219.56 1657.79,-1217.13 1658.53,-1224.1"/>
</g>
<!-- 7&#45;&gt;9 -->
<g id="edge88" class="edge">
<title>7&#45;&gt;9</title>
<path fill="none" stroke="black" stroke-width="2.34" d="M818.26,-1273.94C915.47,-1238.27 1090.43,-1174.08 1188.22,-1138.2"/>
<polygon fill="black" stroke="black" stroke-width="2.34" points="1189.54,-1141.44 1197.72,-1134.71 1187.13,-1134.87 1189.54,-1141.44"/>
</g>
<!-- 7&#45;&gt;11 -->
<g id="edge89" class="edge">
<title>7&#45;&gt;11</title>
<path fill="none" stroke="black" stroke-width="1.78" d="M740.3,-1270.52C722.42,-1198.5 686.97,-1009.26 771.28,-891.62 836.02,-801.28 956.97,-761.09 1055.39,-743.25"/>
<polygon fill="black" stroke="black" stroke-width="1.78" points="1056.2,-746.67 1065.45,-741.49 1054.99,-739.77 1056.2,-746.67"/>
</g>
<!-- 7&#45;&gt;12 -->
<g id="edge90" class="edge">
<title>7&#45;&gt;12</title>
<path fill="none" stroke="black" stroke-width="1.65" d="M708.25,-1271.46C666.56,-1238.5 607.28,-1179.73 607.28,-1112.12 607.28,-1112.12 607.28,-1112.12 607.28,-1024.12 607.28,-872.43 425.54,-814.67 518.28,-694.62 527.42,-682.78 594.71,-665.58 657.31,-651.78"/>
<polygon fill="black" stroke="black" stroke-width="1.65" points="658.29,-655.15 667.31,-649.6 656.79,-648.31 658.29,-655.15"/>
</g>
<!-- 7&#45;&gt;13 -->
<g id="edge91" class="edge">
<title>7&#45;&gt;13</title>
<path fill="none" stroke="black" stroke-width="1.79" d="M729.03,-1270.82C707.1,-1235.15 674.28,-1171.79 674.28,-1112.12 674.28,-1112.12 674.28,-1112.12 674.28,-927.62 674.28,-872.96 688.35,-811.31 699.37,-771.43"/>
<polygon fill="black" stroke="black" stroke-width="1.79" points="702.75,-772.35 702.09,-761.77 696.01,-770.44 702.75,-772.35"/>
</g>
<!-- 7&#45;&gt;35 -->
<g id="edge92" class="edge">
<title>7&#45;&gt;35</title>
<path fill="none" stroke="black" stroke-width="2.88" d="M767.41,-1270.57C775.94,-1259.9 785.42,-1247.3 792.28,-1234.62 843.97,-1139.05 805.01,-1091.36 866.28,-1001.62 873.51,-991.03 882.75,-981.2 892.68,-972.42"/>
<polygon fill="black" stroke="black" stroke-width="2.88" points="895,-975.05 900.38,-965.92 890.48,-969.7 895,-975.05"/>
</g>
<!-- 7&#45;&gt;39 -->
<g id="edge29" class="edge">
<title>7&#45;&gt;39</title>
<path fill="none" stroke="black" stroke-width="2.87" d="M669.54,-1274.88C492.09,-1213.65 76.28,-1037.31 76.28,-729.12 76.28,-729.12 76.28,-729.12 76.28,-201.62 76.28,-148.07 70.45,-120.07 112.28,-86.62 159.52,-48.84 536.67,-34 732.35,-28.8"/>
<polygon fill="black" stroke="black" stroke-width="2.87" points="732.49,-32.3 742.39,-28.54 732.3,-25.3 732.49,-32.3"/>
</g>
<!-- 8&#45;&gt;9 -->
<g id="edge93" class="edge">
<title>8&#45;&gt;9</title>
<path fill="none" stroke="black" stroke-width="2.5" d="M1685.54,-1183.82C1592.02,-1168.09 1460.82,-1146.02 1368.75,-1130.54"/>
<polygon fill="black" stroke="black" stroke-width="2.5" points="1369.29,-1127.08 1358.85,-1128.87 1368.13,-1133.98 1369.29,-1127.08"/>
</g>
<!-- 10 -->
<g id="node10" class="node">
<title>10</title>
<ellipse fill="#a0e5de" stroke="black" cx="1360.28" cy="-1025.12" rx="116.5" ry="23.5"/>
<text text-anchor="middle" x="1360.28" y="-1030.03" font-family="Times,serif" font-size="15.12">sea nettle</text>
<text text-anchor="middle" x="1360.28" y="-1013.03" font-family="Times,serif" font-size="15.12">(1.75 gC.m²)</text>
</g>
<!-- 8&#45;&gt;10 -->
<g id="edge94" class="edge">
<title>8&#45;&gt;10</title>
<path fill="none" stroke="black" stroke-width="2.1" d="M1733.93,-1176.43C1648.8,-1142.19 1502.37,-1083.28 1420.38,-1050.3"/>
<polygon fill="black" stroke="black" stroke-width="2.1" points="1421.29,-1046.89 1410.71,-1046.41 1418.68,-1053.39 1421.29,-1046.89"/>
</g>
<!-- 20 -->
<g id="node20" class="node">
<title>20</title>
<ellipse fill="#a0e5de" stroke="black" cx="1797.28" cy="-628.12" rx="109" ry="22"/>
<text text-anchor="middle" x="1797.28" y="-632.84" font-family="Times,serif" font-size="14.11">fish larvae</text>
<text text-anchor="middle" x="1797.28" y="-616.84" font-family="Times,serif" font-size="14.11">(0.10 gC.m²)</text>
</g>
<!-- 8&#45;&gt;20 -->
<g id="edge95" class="edge">
<title>8&#45;&gt;20</title>
<path fill="none" stroke="black" stroke-width="0.91" d="M1799.74,-1173.37C1799.14,-1138.2 1798.28,-1077.9 1798.28,-1026.12 1798.28,-1026.12 1798.28,-1026.12 1798.28,-825.62 1798.28,-767.31 1797.83,-699.26 1797.53,-660.48"/>
<polygon fill="black" stroke="black" stroke-width="0.91" points="1801.03,-660.32 1797.46,-650.35 1794.03,-660.38 1801.03,-660.32"/>
</g>
<!-- 21 -->
<g id="node21" class="node">
<title>21</title>
<ellipse fill="#a0e5de" stroke="black" cx="3050.28" cy="-628.12" rx="114.5" ry="23"/>
<text text-anchor="middle" x="3050.28" y="-632.24" font-family="Times,serif" font-size="14.85">alewife &amp; blue herring</text>
<text text-anchor="middle" x="3050.28" y="-616.24" font-family="Times,serif" font-size="14.85">(1.15 gC.m²)</text>
</g>
<!-- 8&#45;&gt;21 -->
<g id="edge96" class="edge">
<title>8&#45;&gt;21</title>
<path fill="none" stroke="black" stroke-width="1.25" d="M1953.26,-1202.29C2241.05,-1199.55 2841.37,-1187.82 2921.28,-1137.62 2969.29,-1107.46 2983.28,-1082.82 2983.28,-1026.12 2983.28,-1026.12 2983.28,-1026.12 2983.28,-825.62 2983.28,-764.32 3012.85,-697.74 3032.7,-659.95"/>
<polygon fill="black" stroke="black" stroke-width="1.25" points="3035.87,-661.45 3037.52,-650.98 3029.7,-658.14 3035.87,-661.45"/>
</g>
<!-- 8&#45;&gt;22 -->
<g id="edge97" class="edge">
<title>8&#45;&gt;22</title>
<path fill="none" stroke="black" stroke-width="2.16" d="M1921.41,-1185.34C2011.27,-1164.48 2118.28,-1119.95 2118.28,-1026.12 2118.28,-1026.12 2118.28,-1026.12 2118.28,-927.62 2118.28,-835.28 2220.63,-782.16 2302.01,-754.51"/>
<polygon fill="black" stroke="black" stroke-width="2.16" points="2303.43,-757.73 2311.82,-751.27 2301.23,-751.08 2303.43,-757.73"/>
</g>
<!-- 8&#45;&gt;23 -->
<g id="edge98" class="edge">
<title>8&#45;&gt;23</title>
<path fill="none" stroke="black" stroke-width="1.75" d="M1952.72,-1201.15C2247.21,-1196.38 2873.17,-1181.19 2961.28,-1137.62 3178.18,-1030.38 3330.52,-761.55 3379.96,-664.64"/>
<polygon fill="black" stroke="black" stroke-width="1.75" points="3383.17,-666.05 3384.55,-655.55 3376.92,-662.89 3383.17,-666.05"/>
</g>
<!-- 24 -->
<g id="node24" class="node">
<title>24</title>
<ellipse fill="#a0e5de" stroke="black" cx="2768.28" cy="-628.12" rx="111" ry="22"/>
<text text-anchor="middle" x="2768.28" y="-632.59" font-family="Times,serif" font-size="14.41">shad</text>
<text text-anchor="middle" x="2768.28" y="-616.59" font-family="Times,serif" font-size="14.41">(0.45 gC.m²)</text>
</g>
<!-- 8&#45;&gt;24 -->
<g id="edge99" class="edge">
<title>8&#45;&gt;24</title>
<path fill="none" stroke="black" stroke-width="0.92" d="M1953.49,-1202.97C2203.41,-1198.53 2671.28,-1170.88 2671.28,-1026.12 2671.28,-1026.12 2671.28,-1026.12 2671.28,-825.62 2671.28,-760.46 2714.69,-694.54 2743.43,-658.04"/>
<polygon fill="black" stroke="black" stroke-width="0.92" points="2746.49,-659.83 2750.03,-649.84 2741.03,-655.44 2746.49,-659.83"/>
</g>
<!-- 8&#45;&gt;35 -->
<g id="edge100" class="edge">
<title>8&#45;&gt;35</title>
<path fill="none" stroke="black" stroke-width="2.76" d="M1651.13,-1196.98C1460.83,-1187.79 1151.17,-1168.2 1108.28,-1137.62 1054.19,-1099.06 1087.25,-1053.91 1046.28,-1001.62 1038.06,-991.13 1028.01,-981.26 1017.79,-972.38"/>
<polygon fill="black" stroke="black" stroke-width="2.76" points="1019.87,-969.55 1009.96,-965.79 1015.36,-974.91 1019.87,-969.55"/>
</g>
<!-- 38 -->
<g id="node38" class="node">
<title>38</title>
<polygon fill="white" stroke="black" points="3115.38,-25.31 3078.33,-50.44 3004.23,-50.44 2967.17,-25.31 3004.23,-0.19 3078.33,-0.19 3115.38,-25.31"/>
<text text-anchor="middle" x="3041.28" y="-20.01" font-family="Times,serif" font-size="21.00">Output</text>
</g>
<!-- 8&#45;&gt;38 -->
<g id="edge5" class="edge">
<title>8&#45;&gt;38</title>
<path fill="none" stroke="black" stroke-width="2.71" d="M1951.91,-1200.04C2255.89,-1193.11 2919.11,-1174.01 3016.28,-1137.62 3415.56,-988.09 3639.28,-834.49 3639.28,-408.12 3639.28,-408.12 3639.28,-408.12 3639.28,-201.62 3639.28,-141.08 3617.58,-118.77 3566.28,-86.62 3494.37,-41.56 3252.24,-30.13 3123.45,-27.26"/>
<polygon fill="black" stroke="black" stroke-width="2.71" points="3123.31,-23.75 3113.24,-27.04 3123.17,-30.75 3123.31,-23.75"/>
</g>
<!-- 8&#45;&gt;39 -->
<g id="edge30" class="edge">
<title>8&#45;&gt;39</title>
<path fill="none" stroke="black" stroke-width="2.89" d="M1953.24,-1202.92C2116.36,-1199.88 2381.35,-1186.76 2604.28,-1137.62 2744.41,-1106.74 2907.28,-1169.62 2907.28,-1026.12 2907.28,-1026.12 2907.28,-1026.12 2907.28,-627.12 2907.28,-525.9 2976.6,-246.31 2908.28,-171.62 2847.44,-105.12 2591.83,-157.03 2504.28,-135.62 2448.72,-122.04 2441.16,-98.82 2385.28,-86.62 2117.11,-28.08 1288.17,-24.68 972.8,-25.6"/>
<polygon fill="black" stroke="black" stroke-width="2.89" points="972.69,-22.1 962.7,-25.63 972.72,-29.1 972.69,-22.1"/>
</g>
<!-- 9&#45;&gt;10 -->
<g id="edge101" class="edge">
<title>9&#45;&gt;10</title>
<path fill="none" stroke="black" stroke-width="1.93" d="M1289.31,-1085.15C1300.74,-1075.64 1313.86,-1064.73 1325.68,-1054.89"/>
<polygon fill="black" stroke="black" stroke-width="1.93" points="1328.17,-1057.38 1333.62,-1048.29 1323.7,-1051.99 1328.17,-1057.38"/>
</g>
<!-- 9&#45;&gt;35 -->
<g id="edge102" class="edge">
<title>9&#45;&gt;35</title>
<path fill="none" stroke="black" stroke-width="2.47" d="M1222.27,-1085.61C1191.04,-1062.45 1145.07,-1027.51 1102.28,-1001.62 1084.12,-990.64 1064.05,-979.94 1044.95,-970.29"/>
<polygon fill="black" stroke="black" stroke-width="2.47" points="1046.46,-967.13 1035.96,-965.78 1043.33,-973.39 1046.46,-967.13"/>
</g>
<!-- 9&#45;&gt;36 -->
<g id="edge103" class="edge">
<title>9&#45;&gt;36</title>
<path fill="none" stroke="black" stroke-width="1.94" d="M1377.44,-1098.76C1415.73,-1090.04 1456.08,-1074.87 1486.28,-1048.62 1650.83,-905.6 1540.23,-765.55 1679.28,-597.62 1688.33,-586.69 1699.3,-576.68 1710.85,-567.74"/>
<polygon fill="black" stroke="black" stroke-width="1.94" points="1712.99,-570.51 1718.91,-561.73 1708.8,-564.9 1712.99,-570.51"/>
</g>
<!-- 9&#45;&gt;39 -->
<g id="edge31" class="edge">
<title>9&#45;&gt;39</title>
<path fill="none" stroke="black" stroke-width="2.48" d="M1146.09,-1096.99C857.04,-1060.33 114.28,-945.11 114.28,-729.12 114.28,-729.12 114.28,-729.12 114.28,-201.62 114.28,-148.57 105.44,-120.49 146.28,-86.62 190.31,-50.1 544.44,-34.76 732.64,-29.14"/>
<polygon fill="black" stroke="black" stroke-width="2.48" points="732.96,-32.63 742.85,-28.84 732.75,-25.64 732.96,-32.63"/>
</g>
<!-- 10&#45;&gt;35 -->
<g id="edge104" class="edge">
<title>10&#45;&gt;35</title>
<path fill="none" stroke="black" stroke-width="1.88" d="M1287.18,-1006.68C1241.75,-995.84 1181.49,-981.46 1125.34,-968.06"/>
<polygon fill="black" stroke="black" stroke-width="1.88" points="1125.81,-964.57 1115.27,-965.66 1124.19,-971.38 1125.81,-964.57"/>
</g>
<!-- 10&#45;&gt;36 -->
<g id="edge105" class="edge">
<title>10&#45;&gt;36</title>
<path fill="none" stroke="black" stroke-width="1.69" d="M1370.4,-1001.34C1401.98,-932.43 1505,-723.32 1645.28,-597.62 1657.98,-586.24 1672.64,-576.01 1687.72,-566.99"/>
<polygon fill="black" stroke="black" stroke-width="1.69" points="1689.74,-569.87 1696.63,-561.82 1686.22,-563.81 1689.74,-569.87"/>
</g>
<!-- 10&#45;&gt;39 -->
<g id="edge32" class="edge">
<title>10&#45;&gt;39</title>
<path fill="none" stroke="black" stroke-width="2.08" d="M1331.8,-1002.33C1293.82,-974 1223.76,-924.31 1158.28,-891.62 1116.01,-870.52 1100.28,-877.23 1058.28,-855.62 992.94,-822.01 970.27,-817.26 922.28,-761.62 900.59,-736.49 916.98,-712.91 889.28,-694.62 765.02,-612.6 333.57,-755.22 220.28,-658.62 172.18,-617.62 190.28,-582.82 190.28,-519.62 190.28,-519.62 190.28,-519.62 190.28,-201.62 190.28,-147.79 186.23,-120.23 228.28,-86.62 266.99,-55.68 567.72,-38.16 736.06,-30.68"/>
<polygon fill="black" stroke="black" stroke-width="2.08" points="736.37,-34.17 746.21,-30.23 736.07,-27.18 736.37,-34.17"/>
</g>
<!-- 19 -->
<g id="node19" class="node">
<title>19</title>
<ellipse fill="#a0e5de" stroke="black" cx="2385.28" cy="-202.62" rx="156" ry="31"/>
<text text-anchor="middle" x="2385.28" y="-208.44" font-family="Times,serif" font-size="20.23">blue crab</text>
<text text-anchor="middle" x="2385.28" y="-186.44" font-family="Times,serif" font-size="20.23">(275.00 gC.m²)</text>
</g>
<!-- 11&#45;&gt;19 -->
<g id="edge106" class="edge">
<title>11&#45;&gt;19</title>
<path fill="none" stroke="black" stroke-width="1.92" d="M1289.01,-700.84C1381.76,-671.29 1539.98,-623.98 1679.28,-597.62 1829.02,-569.29 1871.34,-593.91 2020.28,-561.62 2187.85,-525.3 2232.66,-515.79 2386.28,-439.62 2476.03,-395.12 2588.92,-353.59 2534.28,-269.62 2523.63,-253.27 2507.91,-240.93 2490.61,-231.64"/>
<polygon fill="black" stroke="black" stroke-width="1.92" points="2491.95,-228.4 2481.44,-227.05 2488.82,-234.66 2491.95,-228.4"/>
</g>
<!-- 11&#45;&gt;36 -->
<g id="edge107" class="edge">
<title>11&#45;&gt;36</title>
<path fill="none" stroke="black" stroke-width="2.34" d="M1251.68,-697.66C1295.87,-668.26 1368.07,-623.78 1436.28,-597.62 1478.3,-581.51 1524.44,-568.35 1569.23,-557.74"/>
<polygon fill="black" stroke="black" stroke-width="2.34" points="1570.12,-561.13 1579.06,-555.45 1568.53,-554.31 1570.12,-561.13"/>
</g>
<!-- 11&#45;&gt;39 -->
<g id="edge33" class="edge">
<title>11&#45;&gt;39</title>
<path fill="none" stroke="black" stroke-width="2.33" d="M1083.77,-708.84C1044.32,-703.6 1000.54,-698.32 960.28,-694.62 885.6,-687.76 341.63,-709.23 286.28,-658.62 240.21,-616.51 266.28,-582.04 266.28,-519.62 266.28,-519.62 266.28,-519.62 266.28,-201.62 266.28,-148.07 260.92,-120.66 302.28,-86.62 335.25,-59.49 588.91,-40.84 738.96,-32.06"/>
<polygon fill="black" stroke="black" stroke-width="2.33" points="739.36,-35.54 749.14,-31.47 738.95,-28.55 739.36,-35.54"/>
</g>
<!-- 12&#45;&gt;19 -->
<g id="edge108" class="edge">
<title>12&#45;&gt;19</title>
<path fill="none" stroke="black" stroke-width="1.72" d="M873.65,-607.09C890.25,-603.91 907.23,-600.67 923.28,-597.62 1210.75,-542.98 1281.96,-525.63 1570.28,-475.62 1594.25,-471.47 2419.48,-357.12 2435.28,-338.62 2458.99,-310.86 2439.36,-270.82 2418.13,-241.56"/>
<polygon fill="black" stroke="black" stroke-width="1.72" points="2420.66,-239.1 2411.84,-233.23 2415.07,-243.32 2420.66,-239.1"/>
</g>
<!-- 26 -->
<g id="node26" class="node">
<title>26</title>
<ellipse fill="#a0e5de" stroke="black" cx="849.28" cy="-202.62" rx="127.5" ry="25.5"/>
<text text-anchor="middle" x="849.28" y="-207.38" font-family="Times,serif" font-size="16.55">hogchoker</text>
<text text-anchor="middle" x="849.28" y="-189.38" font-family="Times,serif" font-size="16.55">(9.00 gC.m²)</text>
</g>
<!-- 12&#45;&gt;26 -->
<g id="edge109" class="edge">
<title>12&#45;&gt;26</title>
<path fill="none" stroke="black" stroke-width="1.03" d="M774.71,-598.35C788.95,-522.98 827.29,-320.03 842.71,-238.36"/>
<polygon fill="black" stroke="black" stroke-width="1.03" points="846.23,-238.59 844.65,-228.12 839.35,-237.3 846.23,-238.59"/>
</g>
<!-- 12&#45;&gt;36 -->
<g id="edge110" class="edge">
<title>12&#45;&gt;36</title>
<path fill="none" stroke="black" stroke-width="2.13" d="M872.97,-606.93C892.62,-603.51 913.04,-600.23 932.28,-597.62 1147.61,-568.46 1394.7,-547.38 1569.15,-534.54"/>
<polygon fill="black" stroke="black" stroke-width="2.13" points="1569.51,-538.02 1579.22,-533.8 1568.99,-531.04 1569.51,-538.02"/>
</g>
<!-- 12&#45;&gt;38 -->
<g id="edge6" class="edge">
<title>12&#45;&gt;38</title>
<path fill="none" stroke="black" stroke-width="1.91" d="M917.8,-627.11C1152.84,-625.34 1624.46,-614.72 2020.28,-561.62 2198.35,-537.74 2238.57,-508.13 2415.28,-475.62 2520.92,-456.19 2553.36,-476.44 2654.28,-439.62 2706.19,-420.68 2711.96,-401.45 2760.28,-374.62 2791.56,-357.26 2801.92,-357.56 2832.28,-338.62 2958.45,-259.91 3032.33,-268.92 3098.28,-135.62 3107.93,-116.1 3106.33,-106.86 3098.28,-86.62 3094.12,-76.17 3087.19,-66.48 3079.57,-58.06"/>
<polygon fill="black" stroke="black" stroke-width="1.91" points="3081.92,-55.45 3072.44,-50.7 3076.89,-60.32 3081.92,-55.45"/>
</g>
<!-- 12&#45;&gt;39 -->
<g id="edge34" class="edge">
<title>12&#45;&gt;39</title>
<path fill="none" stroke="black" stroke-width="2.2" d="M687.96,-603.4C564.07,-564.81 342.28,-484.98 342.28,-408.12 342.28,-408.12 342.28,-408.12 342.28,-201.62 342.28,-149.41 327.88,-122.01 366.28,-86.62 417.14,-39.75 600.43,-28.16 726.01,-25.9"/>
<polygon fill="black" stroke="black" stroke-width="2.2" points="726.14,-29.4 736.08,-25.73 726.02,-22.4 726.14,-29.4"/>
</g>
<!-- 13&#45;&gt;36 -->
<g id="edge111" class="edge">
<title>13&#45;&gt;36</title>
<path fill="none" stroke="black" stroke-width="2.16" d="M830.65,-704.28C864.02,-694.04 898.92,-679.41 927.28,-658.62 954.03,-639.01 941.58,-614.26 970.28,-597.62 996.04,-582.68 1333.78,-554.43 1569.03,-536.34"/>
<polygon fill="black" stroke="black" stroke-width="2.16" points="1569.4,-539.82 1579.11,-535.56 1568.87,-532.84 1569.4,-539.82"/>
</g>
<!-- 13&#45;&gt;38 -->
<g id="edge7" class="edge">
<title>13&#45;&gt;38</title>
<path fill="none" stroke="black" stroke-width="2.31" d="M855.43,-710.47C913.36,-704.39 980.92,-698.16 1042.28,-694.62 1101.41,-691.22 3123.73,-689.5 3174.28,-658.62 3287.65,-589.35 3445.96,-176.68 3348.28,-86.62 3315.25,-56.17 3196.71,-39.89 3116.97,-32.18"/>
<polygon fill="black" stroke="black" stroke-width="2.31" points="3117.24,-28.69 3106.96,-31.24 3116.59,-35.66 3117.24,-28.69"/>
</g>
<!-- 13&#45;&gt;39 -->
<g id="edge35" class="edge">
<title>13&#45;&gt;39</title>
<path fill="none" stroke="black" stroke-width="2.32" d="M544.27,-726.8C407.09,-722.83 227.79,-707.92 176.28,-658.62 130.99,-615.28 152.28,-582.31 152.28,-519.62 152.28,-519.62 152.28,-519.62 152.28,-201.62 152.28,-149.41 137.27,-121.33 176.28,-86.62 216.89,-50.48 551.56,-35.06 733.13,-29.3"/>
<polygon fill="black" stroke="black" stroke-width="2.32" points="733.38,-32.79 743.26,-28.98 733.16,-25.8 733.38,-32.79"/>
</g>
<!-- 25 -->
<g id="node25" class="node">
<title>25</title>
<ellipse fill="#a0e5de" stroke="black" cx="1473.28" cy="-202.62" rx="113.5" ry="22.5"/>
<text text-anchor="middle" x="1473.28" y="-206.83" font-family="Times,serif" font-size="14.74">croaker</text>
<text text-anchor="middle" x="1473.28" y="-190.83" font-family="Times,serif" font-size="14.74">(0.95 gC.m²)</text>
</g>
<!-- 14&#45;&gt;25 -->
<g id="edge112" class="edge">
<title>14&#45;&gt;25</title>
<path fill="none" stroke="black" stroke-width="0.94" d="M1230.54,-275.93C1284.87,-259.75 1352.75,-239.53 1402.91,-224.59"/>
<polygon fill="black" stroke="black" stroke-width="0.94" points="1404.11,-227.88 1412.7,-221.67 1402.11,-221.17 1404.11,-227.88"/>
</g>
<!-- 14&#45;&gt;26 -->
<g id="edge113" class="edge">
<title>14&#45;&gt;26</title>
<path fill="none" stroke="black" stroke-width="1.38" d="M1056.95,-274.88C1014.16,-260.2 962.36,-242.42 921.2,-228.3"/>
<polygon fill="black" stroke="black" stroke-width="1.38" points="922.11,-224.91 911.51,-224.98 919.83,-231.53 922.11,-224.91"/>
</g>
<!-- 27 -->
<g id="node27" class="node">
<title>27</title>
<ellipse fill="#a0e5de" stroke="black" cx="2072.28" cy="-202.62" rx="138.5" ry="27.5"/>
<text text-anchor="middle" x="2072.28" y="-208.24" font-family="Times,serif" font-size="17.97">spot</text>
<text text-anchor="middle" x="2072.28" y="-188.24" font-family="Times,serif" font-size="17.97">(35.00 gC.m²)</text>
</g>
<!-- 14&#45;&gt;27 -->
<g id="edge114" class="edge">
<title>14&#45;&gt;27</title>
<path fill="none" stroke="black" stroke-width="1.75" d="M1253.85,-279.42C1274.88,-275.68 1296.68,-272.2 1317.28,-269.62 1568.71,-238.13 1634.46,-261.83 1886.28,-233.62 1910.7,-230.89 1936.82,-227.17 1961.52,-223.29"/>
<polygon fill="black" stroke="black" stroke-width="1.75" points="1962.32,-226.71 1971.64,-221.68 1961.22,-219.79 1962.32,-226.71"/>
</g>
<!-- 28 -->
<g id="node28" class="node">
<title>28</title>
<ellipse fill="#a0e5de" stroke="black" cx="1741.28" cy="-202.62" rx="136" ry="27"/>
<text text-anchor="middle" x="1741.28" y="-207.52" font-family="Times,serif" font-size="17.63">white perch</text>
<text text-anchor="middle" x="1741.28" y="-188.52" font-family="Times,serif" font-size="17.63">(25.48 gC.m²)</text>
</g>
<!-- 14&#45;&gt;28 -->
<g id="edge115" class="edge">
<title>14&#45;&gt;28</title>
<path fill="none" stroke="black" stroke-width="1.44" d="M1256.88,-280C1276.99,-276.33 1297.71,-272.72 1317.28,-269.62 1440.76,-250.05 1472.97,-254.3 1596.28,-233.62 1611.25,-231.11 1627.03,-228.16 1642.45,-225.11"/>
<polygon fill="black" stroke="black" stroke-width="1.44" points="1643.41,-228.49 1652.52,-223.09 1642.03,-221.63 1643.41,-228.49"/>
</g>
<!-- 29 -->
<g id="node29" class="node">
<title>29</title>
<ellipse fill="#a0e5de" stroke="black" cx="1130.28" cy="-202.62" rx="135" ry="27"/>
<text text-anchor="middle" x="1130.28" y="-207.63" font-family="Times,serif" font-size="17.49">catfish</text>
<text text-anchor="middle" x="1130.28" y="-188.63" font-family="Times,serif" font-size="17.49">(22.38 gC.m²)</text>
</g>
<!-- 14&#45;&gt;29 -->
<g id="edge116" class="edge">
<title>14&#45;&gt;29</title>
<path fill="none" stroke="black" stroke-width="1.59" d="M1136.33,-270.54C1135.44,-260.7 1134.46,-249.83 1133.55,-239.77"/>
<polygon fill="black" stroke="black" stroke-width="1.59" points="1137.02,-239.3 1132.63,-229.66 1130.05,-239.93 1137.02,-239.3"/>
</g>
<!-- 14&#45;&gt;36 -->
<g id="edge117" class="edge">
<title>14&#45;&gt;36</title>
<path fill="none" stroke="black" stroke-width="3.12" d="M1173.4,-337.01C1208.99,-368.35 1267.78,-414.95 1327.28,-439.62 1402.89,-470.98 1490.32,-489.74 1569,-500.97"/>
<polygon fill="black" stroke="black" stroke-width="3.12" points="1568.66,-504.45 1579.05,-502.37 1569.62,-497.52 1568.66,-504.45"/>
</g>
<!-- 14&#45;&gt;39 -->
<g id="edge36" class="edge">
<title>14&#45;&gt;39</title>
<path fill="none" stroke="black" stroke-width="2.73" d="M990.53,-288.38C874.7,-275.35 730.57,-255.13 712.28,-233.62 662.73,-175.36 747.51,-98.37 804.33,-56.54"/>
<polygon fill="black" stroke="black" stroke-width="2.73" points="806.44,-59.33 812.49,-50.62 802.34,-53.66 806.44,-59.33"/>
</g>
<!-- 15&#45;&gt;19 -->
<g id="edge118" class="edge">
<title>15&#45;&gt;19</title>
<path fill="none" stroke="black" stroke-width="1.78" d="M1567.03,-281.07C1588.36,-276.66 1611.02,-272.51 1632.28,-269.62 1891.72,-234.37 1960.35,-265.1 2220.28,-233.62 2235.72,-231.75 2251.9,-229.36 2267.83,-226.74"/>
<polygon fill="black" stroke="black" stroke-width="1.78" points="2268.44,-230.19 2277.72,-225.08 2267.28,-223.28 2268.44,-230.19"/>
</g>
<!-- 15&#45;&gt;25 -->
<g id="edge119" class="edge">
<title>15&#45;&gt;25</title>
<path fill="none" stroke="black" stroke-width="0.73" d="M1473.99,-274.61C1473.87,-262.32 1473.72,-247.9 1473.59,-235.27"/>
<polygon fill="black" stroke="black" stroke-width="0.73" points="1477.09,-235.14 1473.49,-225.18 1470.09,-235.21 1477.09,-235.14"/>
</g>
<!-- 15&#45;&gt;26 -->
<g id="edge120" class="edge">
<title>15&#45;&gt;26</title>
<path fill="none" stroke="black" stroke-width="1.07" d="M1379.51,-281.28C1359.06,-277.02 1337.5,-272.87 1317.28,-269.62 1171.17,-246.15 1132.32,-257.48 986.28,-233.62 971,-231.13 954.86,-228.02 939.23,-224.76"/>
<polygon fill="black" stroke="black" stroke-width="1.07" points="939.56,-221.25 929.05,-222.6 938.11,-228.1 939.56,-221.25"/>
</g>
<!-- 15&#45;&gt;27 -->
<g id="edge121" class="edge">
<title>15&#45;&gt;27</title>
<path fill="none" stroke="black" stroke-width="1.49" d="M1570.58,-281.61C1590.91,-277.38 1612.26,-273.16 1632.28,-269.62 1744.56,-249.79 1773.55,-250.7 1886.28,-233.62 1909.48,-230.11 1934.29,-226.21 1957.98,-222.41"/>
<polygon fill="black" stroke="black" stroke-width="1.49" points="1958.74,-225.83 1968.06,-220.79 1957.63,-218.92 1958.74,-225.83"/>
</g>
<!-- 15&#45;&gt;28 -->
<g id="edge122" class="edge">
<title>15&#45;&gt;28</title>
<path fill="none" stroke="black" stroke-width="1.38" d="M1542.34,-277.76C1581.31,-263.24 1630.16,-245.03 1669.7,-230.3"/>
<polygon fill="black" stroke="black" stroke-width="1.38" points="1671.13,-233.5 1679.28,-226.73 1668.68,-226.94 1671.13,-233.5"/>
</g>
<!-- 15&#45;&gt;29 -->
<g id="edge123" class="edge">
<title>15&#45;&gt;29</title>
<path fill="none" stroke="black" stroke-width="1.17" d="M1392.32,-279.42C1338.72,-263.91 1268.87,-243.71 1214.77,-228.06"/>
<polygon fill="black" stroke="black" stroke-width="1.17" points="1215.44,-224.61 1204.86,-225.2 1213.49,-231.34 1215.44,-224.61"/>
</g>
<!-- 15&#45;&gt;36 -->
<g id="edge124" class="edge">
<title>15&#45;&gt;36</title>
<path fill="none" stroke="black" stroke-width="2.72" d="M1566.67,-327.22C1601.04,-338.1 1639.22,-353.53 1670.28,-374.62 1706.43,-399.18 1738.65,-436.64 1761.33,-467.06"/>
<polygon fill="black" stroke="black" stroke-width="2.72" points="1758.73,-469.44 1767.46,-475.43 1764.38,-465.3 1758.73,-469.44"/>
</g>
<!-- 15&#45;&gt;39 -->
<g id="edge37" class="edge">
<title>15&#45;&gt;39</title>
<path fill="none" stroke="black" stroke-width="2.13" d="M1397.23,-278.79C1370.11,-267.81 1340.6,-252.89 1317.28,-233.62 1291.43,-212.26 1301.03,-191.84 1274.28,-171.62 1175.07,-96.68 1034.58,-58.73 942.72,-40.75"/>
<polygon fill="black" stroke="black" stroke-width="2.13" points="943.35,-37.31 932.87,-38.87 942.03,-44.19 943.35,-37.31"/>
</g>
<!-- 16&#45;&gt;19 -->
<g id="edge125" class="edge">
<title>16&#45;&gt;19</title>
<path fill="none" stroke="black" stroke-width="2.35" d="M2296.5,-270.54C2309.82,-260.5 2324.56,-249.39 2338.13,-239.16"/>
<polygon fill="black" stroke="black" stroke-width="2.35" points="2340.54,-241.73 2346.41,-232.92 2336.32,-236.14 2340.54,-241.73"/>
</g>
<!-- 16&#45;&gt;27 -->
<g id="edge126" class="edge">
<title>16&#45;&gt;27</title>
<path fill="none" stroke="black" stroke-width="1.37" d="M2195.51,-271.37C2173.41,-259.22 2148.31,-245.42 2126.55,-233.46"/>
<polygon fill="black" stroke="black" stroke-width="1.37" points="2128.21,-230.38 2117.76,-228.63 2124.84,-236.51 2128.21,-230.38"/>
</g>
<!-- 16&#45;&gt;36 -->
<g id="edge127" class="edge">
<title>16&#45;&gt;36</title>
<path fill="none" stroke="black" stroke-width="2.72" d="M2206.44,-337.4C2162.24,-366.85 2093.35,-410.14 2029.28,-439.62 2003.44,-451.51 1975.26,-462.48 1947.69,-472.21"/>
<polygon fill="black" stroke="black" stroke-width="2.72" points="1946.25,-469 1937.96,-475.6 1948.56,-475.61 1946.25,-469"/>
</g>
<!-- 16&#45;&gt;39 -->
<g id="edge38" class="edge">
<title>16&#45;&gt;39</title>
<path fill="none" stroke="black" stroke-width="2.77" d="M2131.66,-279.65C2041.99,-261.97 1934.09,-239.77 1925.28,-233.62 1898.58,-215 1912.96,-190.27 1886.28,-171.62 1739.39,-68.94 1203.63,-38.23 965.14,-29.54"/>
<polygon fill="black" stroke="black" stroke-width="2.77" points="965.16,-26.04 955.04,-29.18 964.91,-33.03 965.16,-26.04"/>
</g>
<!-- 17&#45;&gt;36 -->
<g id="edge128" class="edge">
<title>17&#45;&gt;36</title>
<path fill="none" stroke="black" stroke-width="2.79" d="M734.31,-329.9C765.93,-340.8 800.57,-355.55 829.28,-374.62 862.27,-396.55 854.63,-422.33 890.28,-439.62 905.48,-447 1306.11,-479.47 1569.17,-500.12"/>
<polygon fill="black" stroke="black" stroke-width="2.79" points="1569.01,-503.62 1579.25,-500.91 1569.55,-496.64 1569.01,-503.62"/>
</g>
<!-- 17&#45;&gt;39 -->
<g id="edge39" class="edge">
<title>17&#45;&gt;39</title>
<path fill="none" stroke="black" stroke-width="2.74" d="M631.66,-272.65C617.93,-227.19 600.3,-141.17 641.28,-86.62 655.88,-67.18 708.82,-51.99 757.63,-41.72"/>
<polygon fill="black" stroke="black" stroke-width="2.74" points="758.56,-45.1 767.65,-39.66 757.15,-38.24 758.56,-45.1"/>
</g>
<!-- 18&#45;&gt;19 -->
<g id="edge129" class="edge">
<title>18&#45;&gt;19</title>
<path fill="none" stroke="black" stroke-width="2" d="M1914.45,-284.21C1999.7,-270.55 2117.13,-251.43 2220.28,-233.62 2234.15,-231.23 2248.66,-228.67 2263.09,-226.09"/>
<polygon fill="black" stroke="black" stroke-width="2" points="2263.82,-229.51 2273.05,-224.3 2262.59,-222.62 2263.82,-229.51"/>
</g>
<!-- 18&#45;&gt;25 -->
<g id="edge130" class="edge">
<title>18&#45;&gt;25</title>
<path fill="none" stroke="black" stroke-width="0.55" d="M1713.19,-277.76C1660.26,-261.4 1592.21,-240.38 1542.12,-224.89"/>
<polygon fill="black" stroke="black" stroke-width="0.55" points="1542.93,-221.48 1532.35,-221.88 1540.87,-228.17 1542.93,-221.48"/>
</g>
<!-- 18&#45;&gt;26 -->
<g id="edge131" class="edge">
<title>18&#45;&gt;26</title>
<path fill="none" stroke="black" stroke-width="1.07" d="M1696.11,-280.32C1675.13,-276.18 1653.05,-272.32 1632.28,-269.62 1347.12,-232.58 1271.19,-272.5 986.28,-233.62 970.29,-231.44 953.41,-228.38 937.16,-225.04"/>
<polygon fill="black" stroke="black" stroke-width="1.07" points="937.64,-221.57 927.14,-222.93 936.2,-228.42 937.64,-221.57"/>
</g>
<!-- 18&#45;&gt;27 -->
<g id="edge132" class="edge">
<title>18&#45;&gt;27</title>
<path fill="none" stroke="black" stroke-width="0.72" d="M1868.78,-276.72C1908.7,-262.38 1957.92,-244.7 1997.96,-230.32"/>
<polygon fill="black" stroke="black" stroke-width="0.72" points="1999.18,-233.6 2007.41,-226.92 1996.81,-227.01 1999.18,-233.6"/>
</g>
<!-- 18&#45;&gt;29 -->
<g id="edge133" class="edge">
<title>18&#45;&gt;29</title>
<path fill="none" stroke="black" stroke-width="1.31" d="M1693.36,-280.73C1673.18,-276.7 1652.1,-272.79 1632.28,-269.62 1493.13,-247.42 1456.88,-252.79 1317.28,-233.62 1292.55,-230.23 1266.04,-226.21 1240.98,-222.23"/>
<polygon fill="black" stroke="black" stroke-width="1.31" points="1241.51,-218.77 1231.08,-220.65 1240.41,-225.69 1241.51,-218.77"/>
</g>
<!-- 32 -->
<g id="node32" class="node">
<title>32</title>
<ellipse fill="#a0e5de" stroke="black" cx="2776.28" cy="-202.62" rx="122.5" ry="24.5"/>
<text text-anchor="middle" x="2776.28" y="-206.92" font-family="Times,serif" font-size="15.87">summer flounder</text>
<text text-anchor="middle" x="2776.28" y="-189.92" font-family="Times,serif" font-size="15.87">(4.43 gC.m²)</text>
</g>
<!-- 18&#45;&gt;32 -->
<g id="edge134" class="edge">
<title>18&#45;&gt;32</title>
<path fill="none" stroke="black" stroke-width="0.63" d="M1922.35,-286.46C1969.4,-280.63 2023.22,-274.37 2072.28,-269.62 2292.27,-248.35 2348.54,-257.41 2568.28,-233.62 2602.38,-229.93 2639.49,-224.9 2672.8,-220.02"/>
<polygon fill="black" stroke="black" stroke-width="0.63" points="2673.63,-223.44 2683.01,-218.51 2672.6,-216.51 2673.63,-223.44"/>
</g>
<!-- 18&#45;&gt;36 -->
<g id="edge135" class="edge">
<title>18&#45;&gt;36</title>
<path fill="none" stroke="black" stroke-width="2.32" d="M1795.28,-335.28C1795.28,-369.07 1795.28,-424.45 1795.28,-465.33"/>
<polygon fill="black" stroke="black" stroke-width="2.32" points="1791.78,-465.39 1795.28,-475.39 1798.78,-465.39 1791.78,-465.39"/>
</g>
<!-- 18&#45;&gt;39 -->
<g id="edge40" class="edge">
<title>18&#45;&gt;39</title>
<path fill="none" stroke="black" stroke-width="2.51" d="M1692.89,-280.86C1672.84,-276.84 1651.94,-272.9 1632.28,-269.62 1508.08,-248.93 1458.53,-299.58 1351.28,-233.62 1322.93,-216.19 1333.08,-194.88 1309.28,-171.62 1259.36,-122.86 1242.15,-112.31 1177.28,-86.62 1105.72,-58.29 1020.04,-43.12 954.2,-35.08"/>
<polygon fill="black" stroke="black" stroke-width="2.51" points="954.56,-31.6 944.22,-33.9 953.74,-38.55 954.56,-31.6"/>
</g>
<!-- 19&#45;&gt;19 -->
<g id="edge136" class="edge">
<title>19&#45;&gt;19</title>
<path fill="none" stroke="black" stroke-width="1.74" d="M2519.51,-218.44C2542.96,-216.33 2559.28,-211.06 2559.28,-202.62 2559.28,-195.44 2547.45,-190.55 2529.46,-187.95"/>
<polygon fill="black" stroke="black" stroke-width="1.74" points="2529.85,-184.47 2519.51,-186.8 2529.05,-191.43 2529.85,-184.47"/>
</g>
<!-- 33 -->
<g id="node33" class="node">
<title>33</title>
<ellipse fill="#a0e5de" stroke="black" cx="2966.28" cy="-111.12" rx="122.5" ry="24.5"/>
<text text-anchor="middle" x="2966.28" y="-115.43" font-family="Times,serif" font-size="15.87">striped bass</text>
<text text-anchor="middle" x="2966.28" y="-98.43" font-family="Times,serif" font-size="15.87">(4.40 gC.m²)</text>
</g>
<!-- 19&#45;&gt;33 -->
<g id="edge137" class="edge">
<title>19&#45;&gt;33</title>
<path fill="none" stroke="black" stroke-width="0.75" d="M2506.37,-182.97C2611.34,-166.8 2761.69,-143.64 2861.56,-128.25"/>
<polygon fill="black" stroke="black" stroke-width="0.75" points="2862.32,-131.68 2871.67,-126.7 2861.25,-124.76 2862.32,-131.68"/>
</g>
<!-- 19&#45;&gt;36 -->
<g id="edge138" class="edge">
<title>19&#45;&gt;36</title>
<path fill="none" stroke="black" stroke-width="2.14" d="M2468.64,-229C2486.91,-238.8 2503.87,-252.02 2514.28,-269.62 2529.88,-296.02 2531.15,-313.01 2514.28,-338.62 2483.01,-386.09 2333.84,-423.68 2279.28,-439.62 2196.7,-463.76 2103.73,-481.09 2021.49,-493.2"/>
<polygon fill="black" stroke="black" stroke-width="2.14" points="2020.91,-489.74 2011.52,-494.65 2021.92,-496.67 2020.91,-489.74"/>
</g>
<!-- 19&#45;&gt;38 -->
<g id="edge8" class="edge">
<title>19&#45;&gt;38</title>
<path fill="none" stroke="black" stroke-width="2.12" d="M2406.8,-171.69C2428.18,-144.49 2463.6,-105.78 2504.28,-86.62 2583.4,-49.36 2832.12,-34.39 2961.43,-29"/>
<polygon fill="black" stroke="black" stroke-width="2.12" points="2961.82,-32.48 2971.66,-28.58 2961.53,-25.49 2961.82,-32.48"/>
</g>
<!-- 19&#45;&gt;39 -->
<g id="edge41" class="edge">
<title>19&#45;&gt;39</title>
<path fill="none" stroke="black" stroke-width="2.38" d="M2310.45,-175.39C2228.74,-148.02 2093.45,-106.37 1973.28,-86.62 1782.01,-55.19 1212.24,-36.25 965.42,-29.32"/>
<polygon fill="black" stroke="black" stroke-width="2.38" points="965.44,-25.82 955.34,-29.04 965.24,-32.82 965.44,-25.82"/>
</g>
<!-- 20&#45;&gt;36 -->
<g id="edge139" class="edge">
<title>20&#45;&gt;36</title>
<path fill="none" stroke="black" stroke-width="0.84" d="M1796.88,-605.88C1796.7,-596.04 1796.47,-583.86 1796.25,-571.78"/>
<polygon fill="black" stroke="black" stroke-width="0.84" points="1799.75,-571.65 1796.06,-561.72 1792.75,-571.79 1799.75,-571.65"/>
</g>
<!-- 20&#45;&gt;38 -->
<g id="edge9" class="edge">
<title>20&#45;&gt;38</title>
<path fill="none" stroke="black" stroke-width="0.65" d="M1886.02,-615.24C2130.48,-581.03 2806.92,-475.89 2979.28,-338.62 3067.44,-268.41 3095.68,-242.56 3131.28,-135.62 3138.16,-114.96 3141.53,-105.84 3131.28,-86.62 3123.28,-71.64 3109.74,-59.73 3095.55,-50.58"/>
<polygon fill="black" stroke="black" stroke-width="0.65" points="3097.05,-47.4 3086.67,-45.24 3093.44,-53.4 3097.05,-47.4"/>
</g>
<!-- 20&#45;&gt;39 -->
<g id="edge42" class="edge">
<title>20&#45;&gt;39</title>
<path fill="none" stroke="black" stroke-width="0.61" d="M1693.69,-621.22C1574.49,-613.15 1373.3,-595.64 1203.28,-561.62 1116.88,-544.34 495.1,-409.15 442.28,-338.62 408.7,-293.8 405.7,-129.02 442.28,-86.62 478.72,-44.38 622.23,-31.23 728.58,-27.4"/>
<polygon fill="black" stroke="black" stroke-width="0.61" points="728.87,-30.9 738.75,-27.06 728.64,-23.9 728.87,-30.9"/>
</g>
<!-- 21&#45;&gt;33 -->
<g id="edge140" class="edge">
<title>21&#45;&gt;33</title>
<path fill="none" stroke="black" stroke-width="0.54" d="M3068.41,-605.19C3077.42,-593.09 3087.57,-577.35 3093.28,-561.62 3122.98,-479.77 3181.33,-242.88 3131.28,-171.62 3117.28,-151.69 3095.92,-138.41 3073.17,-129.56"/>
<polygon fill="black" stroke="black" stroke-width="0.54" points="3074.3,-126.25 3063.7,-126.15 3071.92,-132.83 3074.3,-126.25"/>
</g>
<!-- 21&#45;&gt;36 -->
<g id="edge141" class="edge">
<title>21&#45;&gt;36</title>
<path fill="none" stroke="black" stroke-width="1.11" d="M2972.26,-611.14C2945.71,-606.18 2915.79,-601.1 2888.28,-597.62 2589.82,-559.91 2243.04,-539.03 2021.51,-528.57"/>
<polygon fill="black" stroke="black" stroke-width="1.11" points="2021.54,-525.07 2011.38,-528.1 2021.21,-532.06 2021.54,-525.07"/>
</g>
<!-- 21&#45;&gt;38 -->
<g id="edge10" class="edge">
<title>21&#45;&gt;38</title>
<path fill="none" stroke="black" stroke-width="0.86" d="M3077.19,-605.65C3170.16,-528.98 3464.39,-263.84 3321.28,-86.62 3296.03,-55.35 3191.03,-39.53 3117.06,-32.11"/>
<polygon fill="black" stroke="black" stroke-width="0.86" points="3117.13,-28.6 3106.84,-31.12 3116.45,-35.57 3117.13,-28.6"/>
</g>
<!-- 21&#45;&gt;39 -->
<g id="edge43" class="edge">
<title>21&#45;&gt;39</title>
<path fill="none" stroke="black" stroke-width="1.01" d="M3053.76,-605.1C3063.9,-532.58 3085.72,-298.6 2969.28,-171.62 2927.6,-126.17 2891.72,-160.46 2835.28,-135.62 2798.15,-119.28 2797.04,-98.58 2758.28,-86.62 2588.53,-34.27 1365.38,-27.3 971.29,-26.42"/>
<polygon fill="black" stroke="black" stroke-width="1.01" points="971.01,-22.92 961,-26.4 970.99,-29.92 971.01,-22.92"/>
</g>
<!-- 22&#45;&gt;27 -->
<g id="edge142" class="edge">
<title>22&#45;&gt;27</title>
<path fill="none" stroke="black" stroke-width="1.12" d="M2480.05,-703.71C2501.35,-693.42 2521.87,-678.9 2534.28,-658.62 2599.1,-552.68 2704.3,-498.07 2456.28,-269.62 2417.26,-233.68 2272.51,-242.9 2220.28,-233.62 2205.56,-231.01 2190.06,-228.07 2174.85,-225.09"/>
<polygon fill="black" stroke="black" stroke-width="1.12" points="2175.4,-221.63 2164.91,-223.12 2174.04,-228.49 2175.4,-221.63"/>
</g>
<!-- 22&#45;&gt;28 -->
<g id="edge143" class="edge">
<title>22&#45;&gt;28</title>
<path fill="none" stroke="black" stroke-width="1.13" d="M2334.5,-702.1C2311.21,-691.13 2285.95,-676.61 2266.28,-658.62 2228.58,-624.16 2062.85,-299.31 2021.28,-269.62 2013.63,-264.16 1918.13,-242.29 1840.75,-225.21"/>
<polygon fill="black" stroke="black" stroke-width="1.13" points="1841.45,-221.78 1830.93,-223.04 1839.95,-228.61 1841.45,-221.78"/>
</g>
<!-- 30 -->
<g id="node30" class="node">
<title>30</title>
<ellipse fill="#a0e5de" stroke="black" cx="2631.28" cy="-111.12" rx="118" ry="23.5"/>
<text text-anchor="middle" x="2631.28" y="-115.88" font-family="Times,serif" font-size="15.31">bluefish</text>
<text text-anchor="middle" x="2631.28" y="-98.88" font-family="Times,serif" font-size="15.31">(2.25 gC.m²)</text>
</g>
<!-- 22&#45;&gt;30 -->
<g id="edge144" class="edge">
<title>22&#45;&gt;30</title>
<path fill="none" stroke="black" stroke-width="0.8" d="M2501.02,-707.15C2536.36,-696.76 2574.79,-681.3 2605.28,-658.62 2631.89,-638.82 2626.15,-622.33 2648.28,-597.62 2706.26,-532.89 2905.57,-417.85 2941.28,-338.62 2971.78,-270.96 2988.56,-228.84 2941.28,-171.62 2934.42,-163.32 2819.1,-142.78 2731.11,-128.16"/>
<polygon fill="black" stroke="black" stroke-width="0.8" points="2731.5,-124.68 2721.06,-126.5 2730.36,-131.59 2731.5,-124.68"/>
</g>
<!-- 31 -->
<g id="node31" class="node">
<title>31</title>
<ellipse fill="#a0e5de" stroke="black" cx="2400.28" cy="-628.12" rx="125" ry="25"/>
<text text-anchor="middle" x="2400.28" y="-633.16" font-family="Times,serif" font-size="16.20">weakfish</text>
<text text-anchor="middle" x="2400.28" y="-615.16" font-family="Times,serif" font-size="16.20">(6.30 gC.m²)</text>
</g>
<!-- 22&#45;&gt;31 -->
<g id="edge145" class="edge">
<title>22&#45;&gt;31</title>
<path fill="none" stroke="black" stroke-width="1.53" d="M2400.28,-699.04C2400.28,-687.95 2400.28,-675.11 2400.28,-663.48"/>
<polygon fill="black" stroke="black" stroke-width="1.53" points="2403.78,-663.22 2400.28,-653.22 2396.78,-663.22 2403.78,-663.22"/>
</g>
<!-- 22&#45;&gt;32 -->
<g id="edge146" class="edge">
<title>22&#45;&gt;32</title>
<path fill="none" stroke="black" stroke-width="1.09" d="M2482.76,-704.27C2511.78,-693.56 2543.35,-678.65 2568.28,-658.62 2585.12,-645.09 2782.85,-359.25 2789.28,-338.62 2799.72,-305.14 2793.6,-264.91 2786.67,-237.12"/>
<polygon fill="black" stroke="black" stroke-width="1.09" points="2789.96,-235.89 2784,-227.12 2783.2,-237.69 2789.96,-235.89"/>
</g>
<!-- 22&#45;&gt;33 -->
<g id="edge147" class="edge">
<title>22&#45;&gt;33</title>
<path fill="none" stroke="black" stroke-width="1.16" d="M2489.9,-705.32C2509.68,-701.18 2530.61,-697.3 2550.28,-694.62 2619.09,-685.24 3126.6,-709.12 3174.28,-658.62 3322.98,-501.09 3288.42,-341.72 3154.28,-171.62 3136.55,-149.14 3110.33,-135 3083.07,-126.14"/>
<polygon fill="black" stroke="black" stroke-width="1.16" points="3083.98,-122.76 3073.4,-123.23 3081.96,-129.47 3083.98,-122.76"/>
</g>
<!-- 22&#45;&gt;36 -->
<g id="edge148" class="edge">
<title>22&#45;&gt;36</title>
<path fill="none" stroke="black" stroke-width="2.1" d="M2329.39,-702.81C2230.94,-669.04 2050.98,-607.32 1927.37,-564.93"/>
<polygon fill="black" stroke="black" stroke-width="2.1" points="1928.42,-561.59 1917.83,-561.65 1926.15,-568.21 1928.42,-561.59"/>
</g>
<!-- 22&#45;&gt;38 -->
<g id="edge11" class="edge">
<title>22&#45;&gt;38</title>
<path fill="none" stroke="black" stroke-width="1.53" d="M2543.56,-723.49C2842.72,-715.25 3509.04,-693.09 3544.28,-658.62 3600.62,-603.51 3573.28,-383.94 3573.28,-305.12 3573.28,-305.12 3573.28,-305.12 3573.28,-201.62 3573.28,-147.79 3576.91,-120.74 3535.28,-86.62 3474.26,-36.61 3248.92,-27.26 3124.74,-26.01"/>
<polygon fill="black" stroke="black" stroke-width="1.53" points="3124.54,-22.51 3114.51,-25.92 3124.48,-29.51 3124.54,-22.51"/>
</g>
<!-- 22&#45;&gt;39 -->
<g id="edge44" class="edge">
<title>22&#45;&gt;39</title>
<path fill="none" stroke="black" stroke-width="1.99" d="M2258.56,-721.99C1867.43,-705.32 783.04,-641.57 499.28,-439.62 368.21,-346.35 308.82,-203.58 419.28,-86.62 460.38,-43.1 616,-30.37 728.22,-26.97"/>
<polygon fill="black" stroke="black" stroke-width="1.99" points="728.36,-30.47 738.26,-26.69 728.16,-23.47 728.36,-30.47"/>
</g>
<!-- 23&#45;&gt;30 -->
<g id="edge149" class="edge">
<title>23&#45;&gt;30</title>
<path fill="none" stroke="black" stroke-width="0.79" d="M3377.14,-600.86C3305.69,-507.99 3065.98,-199.13 3017.28,-171.62 2993.47,-158.17 2846.43,-138.05 2740.89,-125"/>
<polygon fill="black" stroke="black" stroke-width="0.79" points="2741.17,-121.51 2730.82,-123.76 2740.31,-128.46 2741.17,-121.51"/>
</g>
<!-- 23&#45;&gt;32 -->
<g id="edge150" class="edge">
<title>23&#45;&gt;32</title>
<path fill="none" stroke="black" stroke-width="1" d="M3356.01,-601.71C3336.82,-589.74 3313.75,-575.15 3293.28,-561.62 3113,-442.52 2902.47,-293.61 2816.21,-232.16"/>
<polygon fill="black" stroke="black" stroke-width="1" points="2818.19,-229.27 2808.01,-226.32 2814.12,-234.97 2818.19,-229.27"/>
</g>
<!-- 23&#45;&gt;33 -->
<g id="edge151" class="edge">
<title>23&#45;&gt;33</title>
<path fill="none" stroke="black" stroke-width="1.06" d="M3386.75,-600.63C3371.56,-559.93 3345.28,-479.24 3345.28,-408.12 3345.28,-408.12 3345.28,-408.12 3345.28,-303.12 3345.28,-238.51 3334.41,-211.13 3283.28,-171.62 3252.64,-147.95 3162.6,-132.49 3086.27,-123.28"/>
<polygon fill="black" stroke="black" stroke-width="1.06" points="3086.42,-119.77 3076.08,-122.07 3085.6,-126.72 3086.42,-119.77"/>
</g>
<!-- 23&#45;&gt;36 -->
<g id="edge152" class="edge">
<title>23&#45;&gt;36</title>
<path fill="none" stroke="black" stroke-width="1.61" d="M3288.58,-611.08C3252.29,-606.17 3211.6,-601.14 3174.28,-597.62 2769.11,-559.42 2295.08,-537.59 2021.56,-527.21"/>
<polygon fill="black" stroke="black" stroke-width="1.61" points="2021.64,-523.71 2011.52,-526.83 2021.38,-530.71 2021.64,-523.71"/>
</g>
<!-- 23&#45;&gt;38 -->
<g id="edge12" class="edge">
<title>23&#45;&gt;38</title>
<path fill="none" stroke="black" stroke-width="0.99" d="M3415.07,-600.63C3422.19,-589.05 3429.96,-575.07 3435.28,-561.62 3474.6,-462.22 3581.89,-166.88 3511.28,-86.62 3485.78,-57.65 3245.09,-38.74 3118.41,-30.71"/>
<polygon fill="black" stroke="black" stroke-width="0.99" points="3118.57,-27.22 3108.38,-30.09 3118.14,-34.2 3118.57,-27.22"/>
</g>
<!-- 23&#45;&gt;39 -->
<g id="edge45" class="edge">
<title>23&#45;&gt;39</title>
<path fill="none" stroke="black" stroke-width="1.72" d="M3402.34,-600.42C3415.5,-522.18 3441.98,-291.42 3323.28,-171.62 3248.04,-95.69 3203.17,-107.23 3098.28,-86.62 2889.43,-45.59 1405.78,-30.71 969.59,-27.19"/>
<polygon fill="black" stroke="black" stroke-width="1.72" points="969.51,-23.69 959.48,-27.11 969.46,-30.69 969.51,-23.69"/>
</g>
<!-- 24&#45;&gt;36 -->
<g id="edge153" class="edge">
<title>24&#45;&gt;36</title>
<path fill="none" stroke="black" stroke-width="0.8" d="M2677.76,-615.28C2634.38,-609.71 2581.66,-603.11 2534.28,-597.62 2362.49,-577.73 2167.99,-557.28 2021.66,-542.32"/>
<polygon fill="black" stroke="black" stroke-width="0.8" points="2021.96,-538.83 2011.65,-541.3 2021.25,-545.79 2021.96,-538.83"/>
</g>
<!-- 24&#45;&gt;38 -->
<g id="edge13" class="edge">
<title>24&#45;&gt;38</title>
<path fill="none" stroke="black" stroke-width="0.65" d="M2811.22,-607.72C2908.82,-560.63 3143.8,-429.58 3207.28,-233.62 3227.41,-171.47 3244.77,-140.13 3207.28,-86.62 3186.46,-56.91 3149.42,-41.78 3115.61,-34.1"/>
<polygon fill="black" stroke="black" stroke-width="0.65" points="3116.21,-30.65 3105.71,-32.04 3114.78,-37.5 3116.21,-30.65"/>
</g>
<!-- 24&#45;&gt;39 -->
<g id="edge46" class="edge">
<title>24&#45;&gt;39</title>
<path fill="none" stroke="black" stroke-width="0.72" d="M2766.11,-605.99C2757.34,-532.21 2717.4,-284.42 2568.28,-171.62 2521.93,-136.57 2366.46,-145.95 2309.28,-135.62 2210.7,-117.82 2188.55,-99.99 2089.28,-86.62 1683.79,-32.01 1197.83,-25.23 973.7,-25.37"/>
<polygon fill="black" stroke="black" stroke-width="0.72" points="973.55,-21.87 963.56,-25.38 973.56,-28.87 973.55,-21.87"/>
</g>
<!-- 25&#45;&gt;36 -->
<g id="edge154" class="edge">
<title>25&#45;&gt;36</title>
<path fill="none" stroke="black" stroke-width="0.87" d="M1538.03,-221.22C1556.72,-225.81 1577.21,-230.37 1596.28,-233.62 1676.18,-247.26 1904.86,-209.54 1959.28,-269.62 2016.3,-332.58 1932.25,-417.07 1864.93,-469.4"/>
<polygon fill="black" stroke="black" stroke-width="0.87" points="1862.62,-466.76 1856.81,-475.62 1866.88,-472.32 1862.62,-466.76"/>
</g>
<!-- 25&#45;&gt;38 -->
<g id="edge14" class="edge">
<title>25&#45;&gt;38</title>
<path fill="none" stroke="black" stroke-width="0.69" d="M1540.45,-184.4C1558.52,-179.99 1578.1,-175.43 1596.28,-171.62 1810.04,-126.83 1863.4,-112.39 2080.28,-86.62 2405.47,-47.98 2795.71,-33.16 2961.01,-28.33"/>
<polygon fill="black" stroke="black" stroke-width="0.69" points="2961.2,-31.83 2971.1,-28.04 2961,-24.83 2961.2,-31.83"/>
</g>
<!-- 25&#45;&gt;39 -->
<g id="edge47" class="edge">
<title>25&#45;&gt;39</title>
<path fill="none" stroke="black" stroke-width="0.79" d="M1456.47,-179.94C1434.24,-153 1392.33,-108 1345.28,-86.62 1278.73,-56.39 1084.88,-39.83 960.15,-32.04"/>
<polygon fill="black" stroke="black" stroke-width="0.79" points="960,-28.52 949.8,-31.4 959.57,-35.51 960,-28.52"/>
</g>
<!-- 26&#45;&gt;36 -->
<g id="edge155" class="edge">
<title>26&#45;&gt;36</title>
<path fill="none" stroke="black" stroke-width="1.35" d="M861.21,-228.08C888.61,-283.15 956.83,-414.06 998.28,-439.62 1022.51,-454.57 1342.08,-482.32 1569.09,-500.38"/>
<polygon fill="black" stroke="black" stroke-width="1.35" points="1568.91,-503.87 1579.15,-501.18 1569.46,-496.9 1568.91,-503.87"/>
</g>
<!-- 26&#45;&gt;38 -->
<g id="edge15" class="edge">
<title>26&#45;&gt;38</title>
<path fill="none" stroke="black" stroke-width="1.08" d="M927.64,-182.42C1041.48,-155.49 1259.61,-107.44 1448.28,-86.62 1745.99,-53.77 2679.08,-33.36 2960.28,-27.83"/>
<polygon fill="black" stroke="black" stroke-width="1.08" points="2960.47,-31.33 2970.4,-27.63 2960.34,-24.33 2960.47,-31.33"/>
</g>
<!-- 26&#45;&gt;39 -->
<g id="edge48" class="edge">
<title>26&#45;&gt;39</title>
<path fill="none" stroke="black" stroke-width="1.25" d="M849.28,-176.88C849.28,-146.51 849.28,-94.86 849.28,-60.66"/>
<polygon fill="black" stroke="black" stroke-width="1.25" points="852.78,-60.65 849.28,-50.65 845.78,-60.65 852.78,-60.65"/>
</g>
<!-- 27&#45;&gt;30 -->
<g id="edge156" class="edge">
<title>27&#45;&gt;30</title>
<path fill="none" stroke="black" stroke-width="1.01" d="M2164.5,-182.1C2182.94,-178.43 2202.2,-174.76 2220.28,-171.62 2323.18,-153.76 2441.23,-137.06 2524.33,-125.93"/>
<polygon fill="black" stroke="black" stroke-width="1.01" points="2524.84,-129.39 2534.29,-124.6 2523.91,-122.45 2524.84,-129.39"/>
</g>
<!-- 27&#45;&gt;36 -->
<g id="edge157" class="edge">
<title>27&#45;&gt;36</title>
<path fill="none" stroke="black" stroke-width="1.71" d="M2165.34,-222.99C2183.54,-226.64 2202.49,-230.33 2220.28,-233.62 2267.91,-242.44 2403.98,-232.65 2435.28,-269.62 2455.09,-293.03 2453.55,-313.99 2435.28,-338.62 2408.53,-374.69 2177.62,-433.09 2000.77,-473.32"/>
<polygon fill="black" stroke="black" stroke-width="1.71" points="1999.77,-469.96 1990.79,-475.58 2001.32,-476.78 1999.77,-469.96"/>
</g>
<!-- 27&#45;&gt;38 -->
<g id="edge16" class="edge">
<title>27&#45;&gt;38</title>
<path fill="none" stroke="black" stroke-width="1.41" d="M2166.72,-182.36C2257.06,-163.84 2380.33,-138.27 2385.28,-135.62 2412.71,-120.94 2407.09,-99.8 2435.28,-86.62 2526.47,-43.99 2817.32,-31.41 2960.32,-27.76"/>
<polygon fill="black" stroke="black" stroke-width="1.41" points="2960.45,-31.26 2970.36,-27.52 2960.28,-24.27 2960.45,-31.26"/>
</g>
<!-- 27&#45;&gt;39 -->
<g id="edge49" class="edge">
<title>27&#45;&gt;39</title>
<path fill="none" stroke="black" stroke-width="1.6" d="M2047.54,-175.5C2019.45,-147.78 1970.77,-105.45 1919.28,-86.62 1831.65,-54.59 1224.52,-35.73 965.72,-29.06"/>
<polygon fill="black" stroke="black" stroke-width="1.6" points="965.62,-25.56 955.54,-28.8 965.44,-32.56 965.62,-25.56"/>
</g>
<!-- 28&#45;&gt;36 -->
<g id="edge158" class="edge">
<title>28&#45;&gt;36</title>
<path fill="none" stroke="black" stroke-width="1.45" d="M1834.2,-222.44C1901.1,-236.93 1981.26,-256.62 1991.28,-269.62 2037.38,-329.48 2033.69,-377.1 1991.28,-439.62 1983.42,-451.21 1973.54,-461.07 1962.41,-469.47"/>
<polygon fill="black" stroke="black" stroke-width="1.45" points="1960.26,-466.71 1954.1,-475.33 1964.29,-472.43 1960.26,-466.71"/>
</g>
<!-- 28&#45;&gt;38 -->
<g id="edge17" class="edge">
<title>28&#45;&gt;38</title>
<path fill="none" stroke="black" stroke-width="1.18" d="M1833.14,-182.68C1957.73,-157.57 2187.46,-113.33 2385.28,-86.62 2593.91,-58.46 2841.68,-39.61 2964.43,-31.25"/>
<polygon fill="black" stroke="black" stroke-width="1.18" points="2964.75,-34.74 2974.49,-30.57 2964.27,-27.75 2964.75,-34.74"/>
</g>
<!-- 28&#45;&gt;39 -->
<g id="edge50" class="edge">
<title>28&#45;&gt;39</title>
<path fill="none" stroke="black" stroke-width="1.34" d="M1682.9,-178.16C1614.6,-151.69 1497.56,-109.37 1393.28,-86.62 1245.52,-54.39 1071.22,-38.92 960.49,-31.84"/>
<polygon fill="black" stroke="black" stroke-width="1.34" points="960.51,-28.33 950.31,-31.2 960.07,-35.32 960.51,-28.33"/>
</g>
<!-- 29&#45;&gt;36 -->
<g id="edge159" class="edge">
<title>29&#45;&gt;36</title>
<path fill="none" stroke="black" stroke-width="1.53" d="M1031.32,-221.01C1004.49,-230.74 978.42,-245.93 962.28,-269.62 945.01,-294.96 945.08,-313.23 962.28,-338.62 1029.59,-437.97 1346.21,-483.29 1569.06,-503.16"/>
<polygon fill="black" stroke="black" stroke-width="1.53" points="1569,-506.67 1579.27,-504.06 1569.62,-499.69 1569,-506.67"/>
</g>
<!-- 29&#45;&gt;38 -->
<g id="edge18" class="edge">
<title>29&#45;&gt;38</title>
<path fill="none" stroke="black" stroke-width="1.26" d="M1217.84,-182.04C1340.14,-155.57 1569.36,-109.07 1767.28,-86.62 2214.61,-35.88 2754.99,-27.69 2958.46,-26.48"/>
<polygon fill="black" stroke="black" stroke-width="1.26" points="2958.49,-29.98 2968.47,-26.42 2958.45,-22.98 2958.49,-29.98"/>
</g>
<!-- 29&#45;&gt;39 -->
<g id="edge51" class="edge">
<title>29&#45;&gt;39</title>
<path fill="none" stroke="black" stroke-width="1.42" d="M1090.31,-176.69C1039.36,-144.9 951.36,-90 896.96,-56.06"/>
<polygon fill="black" stroke="black" stroke-width="1.42" points="898.53,-52.92 888.2,-50.59 894.83,-58.86 898.53,-52.92"/>
</g>
<!-- 30&#45;&gt;36 -->
<g id="edge160" class="edge">
<title>30&#45;&gt;36</title>
<path fill="none" stroke="black" stroke-width="0.96" d="M2626.16,-134.6C2615.37,-178 2586.86,-274.69 2534.28,-338.62 2521.63,-354 2404.87,-432.52 2386.28,-439.62 2320.85,-464.63 2159.37,-485 2021.72,-498.64"/>
<polygon fill="black" stroke="black" stroke-width="0.96" points="2021.04,-495.19 2011.43,-499.65 2021.73,-502.16 2021.04,-495.19"/>
</g>
<!-- 30&#45;&gt;38 -->
<g id="edge19" class="edge">
<title>30&#45;&gt;38</title>
<path fill="none" stroke="black" stroke-width="0.77" d="M2711.3,-93.76C2788.42,-78 2903.7,-54.43 2975.6,-39.74"/>
<polygon fill="black" stroke="black" stroke-width="0.77" points="2976.35,-43.16 2985.44,-37.72 2974.95,-36.3 2976.35,-43.16"/>
</g>
<!-- 30&#45;&gt;39 -->
<g id="edge52" class="edge">
<title>30&#45;&gt;39</title>
<path fill="none" stroke="black" stroke-width="0.9" d="M2541.04,-95.94C2515.33,-92.36 2487.25,-88.9 2461.28,-86.62 1905.91,-37.97 1239.54,-28.51 970.6,-26.71"/>
<polygon fill="black" stroke="black" stroke-width="0.9" points="970.45,-23.21 960.43,-26.65 970.4,-30.21 970.45,-23.21"/>
</g>
<!-- 31&#45;&gt;32 -->
<g id="edge161" class="edge">
<title>31&#45;&gt;32</title>
<path fill="none" stroke="black" stroke-width="0.88" d="M2435.42,-603.83C2452.74,-591.86 2473.65,-576.65 2491.28,-561.62 2597.72,-470.91 2633.17,-453.26 2713.28,-338.62 2735.67,-306.57 2753.59,-265.3 2764.5,-236.87"/>
<polygon fill="black" stroke="black" stroke-width="0.88" points="2767.83,-237.98 2768.07,-227.39 2761.27,-235.51 2767.83,-237.98"/>
</g>
<!-- 31&#45;&gt;36 -->
<g id="edge162" class="edge">
<title>31&#45;&gt;36</title>
<path fill="none" stroke="black" stroke-width="1.39" d="M2309.05,-610.91C2232.93,-597.39 2121.18,-577.53 2021.32,-559.79"/>
<polygon fill="black" stroke="black" stroke-width="1.39" points="2021.85,-556.33 2011.39,-558.02 2020.62,-563.22 2021.85,-556.33"/>
</g>
<!-- 31&#45;&gt;38 -->
<g id="edge20" class="edge">
<title>31&#45;&gt;38</title>
<path fill="none" stroke="black" stroke-width="1" d="M2498.31,-612.6C2612.87,-595.41 2788.65,-568.27 2802.28,-561.62 2852.87,-536.94 2852.41,-512.11 2895.28,-475.62 2957.14,-422.97 3136.65,-308.02 3169.28,-233.62 3195.51,-173.79 3204.27,-141.79 3169.28,-86.62 3155.16,-64.37 3130.41,-50.18 3106.4,-41.2"/>
<polygon fill="black" stroke="black" stroke-width="1" points="3107.5,-37.88 3096.91,-37.89 3105.2,-44.49 3107.5,-37.88"/>
</g>
<!-- 31&#45;&gt;39 -->
<g id="edge53" class="edge">
<title>31&#45;&gt;39</title>
<path fill="none" stroke="black" stroke-width="1.28" d="M2280.38,-620.85C2118.73,-611.66 1822.1,-592.23 1570.28,-561.62 1528.86,-556.59 869.93,-449.02 829.28,-439.62 731.18,-416.95 709.2,-401.86 612.28,-374.62 551.67,-357.59 513.72,-388.48 475.28,-338.62 395.92,-235.72 557.29,-125.59 616.28,-86.62 655.41,-60.77 705.03,-45.99 748.41,-37.55"/>
<polygon fill="black" stroke="black" stroke-width="1.28" points="749.23,-40.96 758.42,-35.69 747.95,-34.07 749.23,-40.96"/>
</g>
<!-- 32&#45;&gt;36 -->
<g id="edge163" class="edge">
<title>32&#45;&gt;36</title>
<path fill="none" stroke="black" stroke-width="1.1" d="M2756.99,-226.83C2746.76,-239.35 2734.1,-255.15 2723.28,-269.62 2700.9,-299.54 2703.05,-313.64 2675.28,-338.62 2605.92,-401.01 2580.21,-411.45 2491.28,-439.62 2406.32,-466.54 2190.48,-488.2 2021.48,-501.81"/>
<polygon fill="black" stroke="black" stroke-width="1.1" points="2021.12,-498.32 2011.44,-502.61 2021.68,-505.3 2021.12,-498.32"/>
</g>
<!-- 32&#45;&gt;38 -->
<g id="edge21" class="edge">
<title>32&#45;&gt;38</title>
<path fill="none" stroke="black" stroke-width="0.87" d="M2782.38,-177.78C2790.28,-151.66 2806.57,-110.36 2835.28,-86.62 2872.24,-56.07 2924.09,-40.99 2966.53,-33.55"/>
<polygon fill="black" stroke="black" stroke-width="0.87" points="2967.24,-36.98 2976.54,-31.91 2966.1,-30.08 2967.24,-36.98"/>
</g>
<!-- 32&#45;&gt;39 -->
<g id="edge54" class="edge">
<title>32&#45;&gt;39</title>
<path fill="none" stroke="black" stroke-width="1.01" d="M2697.43,-183.76C2678.42,-179.62 2658.15,-175.34 2639.28,-171.62 2548.08,-153.68 2522.74,-160.83 2433.28,-135.62 2376.24,-119.55 2367.25,-98.91 2309.28,-86.62 2055.53,-32.85 1275.59,-26.5 972,-26.12"/>
<polygon fill="black" stroke="black" stroke-width="1.01" points="971.84,-22.62 961.84,-26.11 971.84,-29.62 971.84,-22.62"/>
</g>
<!-- 33&#45;&gt;36 -->
<g id="edge164" class="edge">
<title>33&#45;&gt;36</title>
<path fill="none" stroke="black" stroke-width="1.14" d="M2959.42,-135.91C2950.89,-162.24 2934.2,-204.76 2908.28,-233.62 2850.01,-298.5 2656.88,-411.68 2574.28,-439.62 2475.33,-473.1 2214.38,-494.49 2021.64,-506.25"/>
<polygon fill="black" stroke="black" stroke-width="1.14" points="2021.42,-502.75 2011.65,-506.85 2021.84,-509.74 2021.42,-502.75"/>
</g>
<!-- 33&#45;&gt;38 -->
<g id="edge22" class="edge">
<title>33&#45;&gt;38</title>
<path fill="none" stroke="black" stroke-width="0.89" d="M2987.17,-86.78C2995.02,-78 3004.1,-67.86 3012.55,-58.42"/>
<polygon fill="black" stroke="black" stroke-width="0.89" points="3015.39,-60.49 3019.45,-50.7 3010.17,-55.82 3015.39,-60.49"/>
</g>
<!-- 33&#45;&gt;39 -->
<g id="edge55" class="edge">
<title>33&#45;&gt;39</title>
<path fill="none" stroke="black" stroke-width="1.04" d="M2880.66,-93.55C2863.69,-90.8 2845.96,-88.3 2829.28,-86.62 2465.26,-50.04 1338.71,-32.61 968.52,-27.76"/>
<polygon fill="black" stroke="black" stroke-width="1.04" points="968.36,-24.26 958.32,-27.63 968.27,-31.26 968.36,-24.26"/>
</g>
<!-- 34&#45;&gt;5 -->
<g id="edge165" class="edge">
<title>34&#45;&gt;5</title>
<path fill="none" stroke="black" stroke-width="3.22" d="M613.33,-1558.4C611.58,-1550.08 609.72,-1541.24 607.94,-1532.8"/>
<polygon fill="black" stroke="black" stroke-width="3.22" points="611.32,-1531.83 605.83,-1522.76 604.47,-1533.27 611.32,-1531.83"/>
</g>
<!-- 35&#45;&gt;2 -->
<g id="edge166" class="edge">
<title>35&#45;&gt;2</title>
<path fill="none" stroke="black" stroke-width="2.84" d="M1047.3,-891.52C1075.81,-879.86 1107.56,-867.1 1135.56,-856.08"/>
<polygon fill="black" stroke="black" stroke-width="2.84" points="1136.87,-859.32 1144.89,-852.41 1134.31,-852.81 1136.87,-859.32"/>
</g>
<!-- 35&#45;&gt;7 -->
<g id="edge167" class="edge">
<title>35&#45;&gt;7</title>
<path fill="none" stroke="black" stroke-width="2.75" d="M917.81,-965.92C905.6,-976.24 893.35,-988.33 884.28,-1001.62 823.01,-1091.36 861.97,-1139.05 810.28,-1234.62 804.87,-1244.63 797.82,-1254.58 790.39,-1263.58"/>
<polygon fill="black" stroke="black" stroke-width="2.75" points="787.68,-1261.36 783.79,-1271.22 792.98,-1265.94 787.68,-1261.36"/>
</g>
<!-- 35&#45;&gt;8 -->
<g id="edge168" class="edge">
<title>35&#45;&gt;8</title>
<path fill="none" stroke="black" stroke-width="2.9" d="M1027.35,-965.79C1040.77,-976.26 1053.96,-988.46 1064.28,-1001.62 1105.25,-1053.91 1072.19,-1099.06 1126.28,-1137.62 1167.56,-1167.05 1455.98,-1186.31 1641.94,-1195.9"/>
<polygon fill="black" stroke="black" stroke-width="2.9" points="1641.94,-1199.41 1652.1,-1196.42 1642.29,-1192.42 1641.94,-1199.41"/>
</g>
<!-- 35&#45;&gt;9 -->
<g id="edge169" class="edge">
<title>35&#45;&gt;9</title>
<path fill="none" stroke="black" stroke-width="2.33" d="M1053.26,-965.78C1075.64,-976.55 1099.24,-988.9 1120.28,-1001.62 1158.86,-1024.96 1200.01,-1055.66 1227.59,-1078.44"/>
<polygon fill="black" stroke="black" stroke-width="2.33" points="1225.43,-1081.2 1235.34,-1084.94 1229.93,-1075.83 1225.43,-1081.2"/>
</g>
<!-- 35&#45;&gt;11 -->
<g id="edge170" class="edge">
<title>35&#45;&gt;11</title>
<path fill="none" stroke="black" stroke-width="2.27" d="M983.48,-891.37C1000.11,-862.82 1026.47,-823.62 1058.28,-797.62 1076.9,-782.4 1099.45,-769.81 1121.39,-759.77"/>
<polygon fill="black" stroke="black" stroke-width="2.27" points="1123.02,-762.88 1130.74,-755.62 1120.18,-756.48 1123.02,-762.88"/>
</g>
<!-- 35&#45;&gt;12 -->
<g id="edge171" class="edge">
<title>35&#45;&gt;12</title>
<path fill="none" stroke="black" stroke-width="2.14" d="M779.7,-904.79C690.16,-883.37 590.3,-841.91 535.28,-761.62 518.44,-737.06 517.28,-718.35 535.28,-694.62 549.8,-675.48 597.72,-660.41 646.45,-649.57"/>
<polygon fill="black" stroke="black" stroke-width="2.14" points="647.49,-652.92 656.52,-647.39 646,-646.08 647.49,-652.92"/>
</g>
<!-- 35&#45;&gt;13 -->
<g id="edge172" class="edge">
<title>35&#45;&gt;13</title>
<path fill="none" stroke="black" stroke-width="2.29" d="M918.35,-891.45C873.62,-856.21 805.9,-802.87 760.43,-767.05"/>
<polygon fill="black" stroke="black" stroke-width="2.29" points="762.51,-764.23 752.49,-760.8 758.18,-769.73 762.51,-764.23"/>
</g>
<!-- 35&#45;&gt;22 -->
<g id="edge173" class="edge">
<title>35&#45;&gt;22</title>
<path fill="none" stroke="black" stroke-width="1.79" d="M1149.07,-902.08C1445.27,-861.13 2018.84,-781.85 2273.34,-746.67"/>
<polygon fill="black" stroke="black" stroke-width="1.79" points="2273.94,-750.12 2283.37,-745.28 2272.98,-743.19 2273.94,-750.12"/>
</g>
<!-- 35&#45;&gt;23 -->
<g id="edge174" class="edge">
<title>35&#45;&gt;23</title>
<path fill="none" stroke="black" stroke-width="1.56" d="M1148.98,-920.98C1480.11,-906.83 2195.75,-866 2790.28,-761.62 2905.69,-741.36 2930.86,-719.91 3045.28,-694.62 3133.47,-675.13 3156.5,-675.23 3245.28,-658.62 3260.12,-655.85 3275.78,-652.87 3291.17,-649.91"/>
<polygon fill="black" stroke="black" stroke-width="1.56" points="3292.07,-653.3 3301.23,-647.97 3290.75,-646.42 3292.07,-653.3"/>
</g>
<!-- 35&#45;&gt;36 -->
<g id="edge175" class="edge">
<title>35&#45;&gt;36</title>
<path fill="none" stroke="black" stroke-width="3.33" d="M966.54,-891.24C971.64,-840.38 988.24,-748.27 1042.28,-694.62 1115.89,-621.55 1375.1,-572.92 1568.96,-545.86"/>
<polygon fill="black" stroke="black" stroke-width="3.33" points="1569.59,-549.31 1579.02,-544.47 1568.63,-542.37 1569.59,-549.31"/>
</g>
<!-- 36&#45;&gt;3 -->
<g id="edge176" class="edge">
<title>36&#45;&gt;3</title>
<path fill="none" stroke="black" stroke-width="3.5" d="M1674.71,-475.6C1642.37,-463.79 1608.2,-451.14 1578.62,-440.03"/>
<polygon fill="black" stroke="black" stroke-width="3.5" points="1579.78,-436.73 1569.19,-436.48 1577.31,-443.28 1579.78,-436.73"/>
</g>
<!-- 36&#45;&gt;19 -->
<g id="edge177" class="edge">
<title>36&#45;&gt;19</title>
<path fill="none" stroke="black" stroke-width="2.13" d="M2011.34,-492.19C2090.81,-480.14 2180.96,-463.1 2261.28,-439.62 2315.84,-423.68 2465.01,-386.09 2496.28,-338.62 2513.15,-313.01 2511.88,-296.02 2496.28,-269.62 2488.19,-255.94 2476.14,-244.9 2462.91,-236.06"/>
<polygon fill="black" stroke="black" stroke-width="2.13" points="2464.42,-232.88 2454.08,-230.56 2460.72,-238.82 2464.42,-232.88"/>
</g>
<!-- 37 -->
<g id="node37" class="node">
<title>37</title>
<polygon fill="white" stroke="black" points="847.62,-1803.93 817.45,-1829.06 757.11,-1829.06 726.94,-1803.93 757.11,-1778.81 817.45,-1778.81 847.62,-1803.93"/>
<text text-anchor="middle" x="787.28" y="-1798.63" font-family="Times,serif" font-size="21.00">Input</text>
</g>
<!-- 37&#45;&gt;1 -->
<g id="edge1" class="edge">
<title>37&#45;&gt;1</title>
<path fill="none" stroke="black" stroke-width="3.46" d="M828.5,-1788.02C862.6,-1775.68 912.34,-1757.68 955.98,-1741.88"/>
<polygon fill="black" stroke="black" stroke-width="3.46" points="957.27,-1745.14 965.48,-1738.45 954.88,-1738.56 957.27,-1745.14"/>
</g>
<!-- 37&#45;&gt;4 -->
<g id="edge2" class="edge">
<title>37&#45;&gt;4</title>
<path fill="none" stroke="black" stroke-width="3.03" d="M734.5,-1797.41C582.12,-1780.01 152.28,-1720.11 152.28,-1598.12 152.28,-1598.12 152.28,-1598.12 152.28,-825.62 152.28,-732.67 254.84,-681.06 339.22,-654.33"/>
<polygon fill="black" stroke="black" stroke-width="3.03" points="340.36,-657.64 348.89,-651.35 338.3,-650.95 340.36,-657.64"/>
</g>
<!-- 37&#45;&gt;34 -->
<g id="edge3" class="edge">
<title>37&#45;&gt;34</title>
<path fill="none" stroke="black" stroke-width="3.1" d="M767.58,-1778.64C740.72,-1745.49 692.06,-1685.45 658.27,-1643.77"/>
<polygon fill="black" stroke="black" stroke-width="3.1" points="660.95,-1641.51 651.93,-1635.95 655.51,-1645.92 660.95,-1641.51"/>
</g>
<!-- 37&#45;&gt;35 -->
<g id="edge4" class="edge">
<title>37&#45;&gt;35</title>
<path fill="none" stroke="black" stroke-width="3.23" d="M802.61,-1778.73C845.78,-1708.15 965.28,-1495.34 965.28,-1301.62 965.28,-1301.62 965.28,-1301.62 965.28,-1110.12 965.28,-1064.63 964.96,-1012.69 964.68,-976.24"/>
<polygon fill="black" stroke="black" stroke-width="3.23" points="968.17,-975.9 964.6,-965.92 961.17,-975.95 968.17,-975.9"/>
</g>
</g>
</svg>
