<?xml version="1.0" encoding="UTF-8" standalone="no"?>
<!DOCTYPE svg PUBLIC "-//W3C//DTD SVG 1.1//EN"
 "http://www.w3.org/Graphics/SVG/1.1/DTD/svg11.dtd">
<!-- Generated by graphviz version 2.43.0 (0)
 -->
<!-- Title: chesapeake Pages: 1 -->
<svg width="3438pt" height="1964pt"
 viewBox="0.00 0.00 3437.79 1963.82" xmlns="http://www.w3.org/2000/svg" xmlns:xlink="http://www.w3.org/1999/xlink">
<g id="graph0" class="graph" transform="scale(1 1) rotate(0) translate(4 1959.82)">
<title>chesapeake</title>
<polygon fill="white" stroke="transparent" points="-4,4 -4,-1959.82 3433.79,-1959.82 3433.79,4 -4,4"/>
<!-- 1 -->
<g id="node1" class="node">
<title>1</title>
<ellipse fill="#3accbc" stroke="black" cx="986.79" cy="-1828.19" rx="147.57" ry="41.02"/>
<text text-anchor="middle" x="986.79" y="-1834.75" font-family="Times,serif" font-size="23.04">phytoplankton</text>
<text text-anchor="middle" x="986.79" y="-1809.75" font-family="Times,serif" font-size="23.04">(3480.00 gC.m²)</text>
</g>
<!-- 7 -->
<g id="node7" class="node">
<title>7</title>
<ellipse fill="#3accbc" stroke="black" cx="702.79" cy="-1398.16" rx="118.17" ry="36.54"/>
<text text-anchor="middle" x="702.79" y="-1404.51" font-family="Times,serif" font-size="19.55">ciliates</text>
<text text-anchor="middle" x="702.79" y="-1382.51" font-family="Times,serif" font-size="19.55">(148.75 gC.m²)</text>
</g>
<!-- 1&#45;&gt;7 -->
<g id="edge56" class="edge">
<title>1&#45;&gt;7</title>
<path fill="none" stroke="black" stroke-width="2.84" d="M973.25,-1787.21C948.1,-1717.22 888.8,-1570.49 802.79,-1470.93 791.97,-1458.4 778.55,-1446.89 765.09,-1436.92"/>
<polygon fill="black" stroke="black" stroke-width="2.84" points="766.89,-1433.91 756.72,-1430.92 762.81,-1439.6 766.89,-1433.91"/>
</g>
<!-- 8 -->
<g id="node8" class="node">
<title>8</title>
<ellipse fill="#3accbc" stroke="black" cx="1648.79" cy="-1288.62" rx="118.17" ry="36.54"/>
<text text-anchor="middle" x="1648.79" y="-1294.72" font-family="Times,serif" font-size="19.87">zooplankton</text>
<text text-anchor="middle" x="1648.79" y="-1272.72" font-family="Times,serif" font-size="19.87">(197.50 gC.m²)</text>
</g>
<!-- 1&#45;&gt;8 -->
<g id="edge57" class="edge">
<title>1&#45;&gt;8</title>
<path fill="none" stroke="black" stroke-width="2.88" d="M1132.05,-1820.58C1266.95,-1811.94 1455.86,-1792.69 1516.79,-1751.18 1574.75,-1711.68 1594.79,-1684.13 1594.79,-1613.99 1594.79,-1613.99 1594.79,-1613.99 1594.79,-1503.87 1594.79,-1444.08 1614.8,-1377.68 1630.46,-1334.87"/>
<polygon fill="black" stroke="black" stroke-width="2.88" points="1633.81,-1335.91 1634.03,-1325.32 1627.25,-1333.46 1633.81,-1335.91"/>
</g>
<!-- 11 -->
<g id="node11" class="node">
<title>11</title>
<ellipse fill="#3accbc" stroke="black" cx="1171.79" cy="-777.09" rx="197.07" ry="38.37"/>
<text text-anchor="middle" x="1171.79" y="-783.66" font-family="Times,serif" font-size="20.54">other suspension feeders</text>
<text text-anchor="middle" x="1171.79" y="-760.66" font-family="Times,serif" font-size="20.54">(363.75 gC.m²)</text>
</g>
<!-- 1&#45;&gt;11 -->
<g id="edge58" class="edge">
<title>1&#45;&gt;11</title>
<path fill="none" stroke="black" stroke-width="2.39" d="M1104.2,-1803.24C1256.46,-1768.75 1502.79,-1699.71 1502.79,-1613.99 1502.79,-1613.99 1502.79,-1613.99 1502.79,-1084.1 1502.79,-965.02 1458.61,-929.68 1367.79,-852.69 1347.59,-835.57 1323.06,-822.15 1298.28,-811.72"/>
<polygon fill="black" stroke="black" stroke-width="2.39" points="1299.36,-808.39 1288.78,-807.87 1296.73,-814.87 1299.36,-808.39"/>
</g>
<!-- 12 -->
<g id="node12" class="node">
<title>12</title>
<ellipse fill="#3accbc" stroke="black" cx="719.79" cy="-664.72" rx="113.69" ry="35.21"/>
<text text-anchor="middle" x="719.79" y="-670.34" font-family="Times,serif" font-size="19.22">mya arenaria</text>
<text text-anchor="middle" x="719.79" y="-649.34" font-family="Times,serif" font-size="19.22">(110.00 gC.m²)</text>
</g>
<!-- 1&#45;&gt;12 -->
<g id="edge59" class="edge">
<title>1&#45;&gt;12</title>
<path fill="none" stroke="black" stroke-width="2.25" d="M843.28,-1818.08C614.29,-1799.56 191.79,-1747.33 191.79,-1613.99 191.79,-1613.99 191.79,-1613.99 191.79,-1503.87 191.79,-1357.88 267.79,-1330.3 267.79,-1184.32 267.79,-1184.32 267.79,-1184.32 267.79,-887.04 267.79,-773.9 372.2,-787.3 473.79,-737.49 475.65,-736.57 559.2,-712.26 628.41,-692.19"/>
<polygon fill="black" stroke="black" stroke-width="2.25" points="629.44,-695.53 638.07,-689.38 627.49,-688.81 629.44,-695.53"/>
</g>
<!-- 13 -->
<g id="node13" class="node">
<title>13</title>
<ellipse fill="#3accbc" stroke="black" cx="667.79" cy="-777.09" rx="137.36" ry="39.7"/>
<text text-anchor="middle" x="667.79" y="-783.68" font-family="Times,serif" font-size="21.76">oysters</text>
<text text-anchor="middle" x="667.79" y="-759.68" font-family="Times,serif" font-size="21.76">(1100.00 gC.m²)</text>
</g>
<!-- 1&#45;&gt;13 -->
<g id="edge60" class="edge">
<title>1&#45;&gt;13</title>
<path fill="none" stroke="black" stroke-width="2.4" d="M956.28,-1787.79C947.52,-1776.15 938.1,-1763.27 929.79,-1751.18 919.37,-1736.02 768.91,-1481.38 753.79,-1470.93 687.39,-1425.03 637.61,-1486.81 575.79,-1434.93 522.65,-1390.33 518.79,-1358.99 518.79,-1289.62 518.79,-1289.62 518.79,-1289.62 518.79,-1084.1 518.79,-983.28 584.96,-880.93 629.11,-823.87"/>
<polygon fill="black" stroke="black" stroke-width="2.4" points="632.04,-825.81 635.46,-815.78 626.53,-821.49 632.04,-825.81"/>
</g>
<!-- 22 -->
<g id="node22" class="node">
<title>22</title>
<ellipse fill="#3accbc" stroke="black" cx="2332.79" cy="-777.09" rx="105.22" ry="35.21"/>
<text text-anchor="middle" x="2332.79" y="-783.07" font-family="Times,serif" font-size="18.77">bay anchovy</text>
<text text-anchor="middle" x="2332.79" y="-762.07" font-family="Times,serif" font-size="18.77">(72.75 gC.m²)</text>
</g>
<!-- 1&#45;&gt;22 -->
<g id="edge61" class="edge">
<title>1&#45;&gt;22</title>
<path fill="none" stroke="black" stroke-width="1.78" d="M1134.69,-1826.02C1580.68,-1820.55 2881.79,-1789.56 2881.79,-1613.99 2881.79,-1613.99 2881.79,-1613.99 2881.79,-1287.62 2881.79,-1033.83 2562.71,-870.86 2411.06,-807.74"/>
<polygon fill="black" stroke="black" stroke-width="1.78" points="2412.34,-804.48 2401.76,-803.91 2409.67,-810.95 2412.34,-804.48"/>
</g>
<!-- 23 -->
<g id="node23" class="node">
<title>23</title>
<ellipse fill="#3accbc" stroke="black" cx="3215.79" cy="-664.72" rx="100.32" ry="33.88"/>
<text text-anchor="middle" x="3215.79" y="-670.43" font-family="Times,serif" font-size="17.86">menhaden</text>
<text text-anchor="middle" x="3215.79" y="-650.43" font-family="Times,serif" font-size="17.86">(31.52 gC.m²)</text>
</g>
<!-- 1&#45;&gt;23 -->
<g id="edge62" class="edge">
<title>1&#45;&gt;23</title>
<path fill="none" stroke="black" stroke-width="1.21" d="M1134.63,-1828.1C1427.59,-1828.22 2102.06,-1820.15 2663.79,-1751.18 2969.8,-1713.6 3343.79,-1922.3 3343.79,-1613.99 3343.79,-1613.99 3343.79,-1613.99 3343.79,-887.04 3343.79,-815.17 3292.58,-745.67 3254.94,-704.3"/>
<polygon fill="black" stroke="black" stroke-width="1.21" points="3257.45,-701.86 3248.09,-696.91 3252.32,-706.62 3257.45,-701.86"/>
</g>
<!-- 34 -->
<g id="node34" class="node">
<title>34</title>
<polygon fill="#3accbc" stroke="black" points="768.79,-1751.18 432.79,-1751.18 432.79,-1687.18 768.79,-1687.18 768.79,-1751.18"/>
<text text-anchor="middle" x="600.79" y="-1727.11" font-family="Times,serif" font-size="25.08">dissolved organic carbon</text>
<text text-anchor="middle" x="600.79" y="-1699.11" font-family="Times,serif" font-size="25.08">(21857.50 gC.m²)</text>
</g>
<!-- 1&#45;&gt;34 -->
<g id="edge63" class="edge">
<title>1&#45;&gt;34</title>
<path fill="none" stroke="black" stroke-width="3.04" d="M883.85,-1798.65C834.34,-1784.92 774.63,-1768.37 722.83,-1754.01"/>
<polygon fill="black" stroke="black" stroke-width="3.04" points="723.5,-1750.56 712.92,-1751.26 721.62,-1757.31 723.5,-1750.56"/>
</g>
<!-- 35 -->
<g id="node35" class="node">
<title>35</title>
<polygon fill="#3accbc" stroke="black" points="1077.79,-1019.4 743.79,-1019.4 743.79,-959.4 1077.79,-959.4 1077.79,-1019.4"/>
<text text-anchor="middle" x="910.79" y="-996.27" font-family="Times,serif" font-size="23.91">suspended particulate org</text>
<text text-anchor="middle" x="910.79" y="-970.27" font-family="Times,serif" font-size="23.91">(7631.00 gC.m²)</text>
</g>
<!-- 1&#45;&gt;35 -->
<g id="edge64" class="edge">
<title>1&#45;&gt;35</title>
<path fill="none" stroke="black" stroke-width="3.13" d="M986.79,-1787.11C986.79,-1744.26 986.79,-1674.32 986.79,-1613.99 986.79,-1613.99 986.79,-1613.99 986.79,-1182.32 986.79,-1125.59 957.72,-1065.63 935.54,-1028.13"/>
<polygon fill="black" stroke="black" stroke-width="3.13" points="938.53,-1026.3 930.36,-1019.55 932.54,-1029.92 938.53,-1026.3"/>
</g>
<!-- 39 -->
<g id="node39" class="node">
<title>39</title>
<polygon fill="white" stroke="black" points="1166.91,-25.31 1109.85,-50.44 995.73,-50.44 938.67,-25.31 995.73,-0.19 1109.85,-0.19 1166.91,-25.31"/>
<text text-anchor="middle" x="1052.79" y="-20.01" font-family="Times,serif" font-size="21.00">Respiration</text>
</g>
<!-- 1&#45;&gt;39 -->
<g id="edge23" class="edge">
<title>1&#45;&gt;39</title>
<path fill="none" stroke="black" stroke-width="3.28" d="M1134.48,-1826.32C1537.51,-1823.22 2650.24,-1809.46 3011.79,-1751.18 3200.66,-1720.73 3419.79,-1805.3 3419.79,-1613.99 3419.79,-1613.99 3419.79,-1613.99 3419.79,-776.09 3419.79,-420.7 3356.19,-185.34 3014.79,-86.62 2838.91,-35.77 1575.75,-27.79 1174.67,-26.54"/>
<polygon fill="black" stroke="black" stroke-width="3.28" points="1174.51,-23.04 1164.5,-26.51 1174.49,-30.04 1174.51,-23.04"/>
</g>
<!-- 2 -->
<g id="node2" class="node">
<title>2</title>
<ellipse fill="#3accbc" stroke="black" cx="1169.79" cy="-888.04" rx="188.6" ry="35.21"/>
<text text-anchor="middle" x="1169.79" y="-893.95" font-family="Times,serif" font-size="18.86">bacteria in suspended poc</text>
<text text-anchor="middle" x="1169.79" y="-872.95" font-family="Times,serif" font-size="18.86">(79.00 gC.m²)</text>
</g>
<!-- 2&#45;&gt;7 -->
<g id="edge65" class="edge">
<title>2&#45;&gt;7</title>
<path fill="none" stroke="black" stroke-width="2.14" d="M1234.11,-921.32C1289.23,-954.05 1359.79,-1010.35 1359.79,-1084.1 1359.79,-1184.32 1359.79,-1184.32 1359.79,-1184.32 1359.79,-1295.93 1012.33,-1357.77 822.77,-1383.2"/>
<polygon fill="black" stroke="black" stroke-width="2.14" points="822.21,-1379.74 812.75,-1384.53 823.13,-1386.68 822.21,-1379.74"/>
</g>
<!-- 2&#45;&gt;8 -->
<g id="edge66" class="edge">
<title>2&#45;&gt;8</title>
<path fill="none" stroke="black" stroke-width="2.08" d="M1283.75,-916.29C1314.59,-926.79 1346.86,-940.87 1373.79,-959.4 1486.98,-1037.3 1580.09,-1173.82 1623.1,-1243.7"/>
<polygon fill="black" stroke="black" stroke-width="2.08" points="1620.14,-1245.57 1628.34,-1252.29 1626.12,-1241.93 1620.14,-1245.57"/>
</g>
<!-- 9 -->
<g id="node9" class="node">
<title>9</title>
<ellipse fill="#3accbc" stroke="black" cx="1168.79" cy="-1183.32" rx="97.66" ry="32.55"/>
<text text-anchor="middle" x="1168.79" y="-1188.45" font-family="Times,serif" font-size="17.33">ctenophores</text>
<text text-anchor="middle" x="1168.79" y="-1169.45" font-family="Times,serif" font-size="17.33">(19.25 gC.m²)</text>
</g>
<!-- 2&#45;&gt;9 -->
<g id="edge67" class="edge">
<title>2&#45;&gt;9</title>
<path fill="none" stroke="black" stroke-width="1.59" d="M1167.11,-923.47C1164.03,-967.75 1159.78,-1047.02 1162.79,-1114.79 1163.16,-1123.15 1163.78,-1132.08 1164.5,-1140.61"/>
<polygon fill="black" stroke="black" stroke-width="1.59" points="1161.03,-1141.1 1165.4,-1150.75 1168,-1140.48 1161.03,-1141.1"/>
</g>
<!-- 2&#45;&gt;11 -->
<g id="edge68" class="edge">
<title>2&#45;&gt;11</title>
<path fill="none" stroke="black" stroke-width="1.64" d="M1170.42,-852.57C1170.58,-843.96 1170.75,-834.58 1170.92,-825.47"/>
<polygon fill="black" stroke="black" stroke-width="1.64" points="1174.42,-825.42 1171.1,-815.35 1167.42,-825.29 1174.42,-825.42"/>
</g>
<!-- 2&#45;&gt;12 -->
<g id="edge69" class="edge">
<title>2&#45;&gt;12</title>
<path fill="none" stroke="black" stroke-width="1.46" d="M1060.42,-859.18C1028.58,-848.51 994.64,-834.5 965.79,-816.69 922.95,-790.24 926.56,-765.59 884.79,-737.49 860.09,-720.88 830.93,-706.69 804.04,-695.42"/>
<polygon fill="black" stroke="black" stroke-width="1.46" points="805.22,-692.12 794.64,-691.56 802.56,-698.6 805.22,-692.12"/>
</g>
<!-- 2&#45;&gt;13 -->
<g id="edge70" class="edge">
<title>2&#45;&gt;13</title>
<path fill="none" stroke="black" stroke-width="1.56" d="M1048.91,-860.81C969.2,-843.51 865.29,-820.95 786.1,-803.77"/>
<polygon fill="black" stroke="black" stroke-width="1.56" points="786.6,-800.29 776.08,-801.59 785.11,-807.13 786.6,-800.29"/>
</g>
<!-- 2&#45;&gt;22 -->
<g id="edge71" class="edge">
<title>2&#45;&gt;22</title>
<path fill="none" stroke="black" stroke-width="1.1" d="M1330.24,-869.35C1381.8,-863.82 1439.19,-857.82 1491.79,-852.69 1752.66,-827.2 2059.44,-800.92 2220.7,-787.39"/>
<polygon fill="black" stroke="black" stroke-width="1.1" points="2221.44,-790.84 2231.11,-786.52 2220.85,-783.87 2221.44,-790.84"/>
</g>
<!-- 2&#45;&gt;23 -->
<g id="edge72" class="edge">
<title>2&#45;&gt;23</title>
<path fill="none" stroke="black" stroke-width="0.91" d="M1358.3,-885.41C1608.16,-881.25 2062.3,-866.75 2446.79,-816.69 2619.15,-794.24 2658.4,-766.51 2829.79,-737.49 2950.02,-717.13 2982.72,-727.84 3101.79,-701.49 3113.26,-698.95 3125.23,-695.78 3136.93,-692.39"/>
<polygon fill="black" stroke="black" stroke-width="0.91" points="3138.08,-695.7 3146.67,-689.5 3136.09,-688.99 3138.08,-695.7"/>
</g>
<!-- 2&#45;&gt;35 -->
<g id="edge73" class="edge">
<title>2&#45;&gt;35</title>
<path fill="none" stroke="black" stroke-width="2.37" d="M1094.07,-920.51C1065.32,-931.75 1032.29,-944.43 1002.24,-955.76"/>
<polygon fill="black" stroke="black" stroke-width="2.37" points="1000.72,-952.59 992.6,-959.39 1003.19,-959.15 1000.72,-952.59"/>
</g>
<!-- 36 -->
<g id="node36" class="node">
<title>36</title>
<polygon fill="#3accbc" stroke="black" points="1840.79,-591.95 1456.79,-591.95 1456.79,-521.95 1840.79,-521.95 1840.79,-591.95"/>
<text text-anchor="middle" x="1648.79" y="-565.55" font-family="Times,serif" font-size="28.00">sediment particulate orga</text>
<text text-anchor="middle" x="1648.79" y="-534.55" font-family="Times,serif" font-size="28.00">(305000.00 gC.m²)</text>
</g>
<!-- 2&#45;&gt;36 -->
<g id="edge74" class="edge">
<title>2&#45;&gt;36</title>
<path fill="none" stroke="black" stroke-width="2.57" d="M1294.09,-861.38C1323.74,-851.04 1353.73,-836.65 1377.79,-816.69 1451.82,-755.25 1412.1,-692.12 1483.79,-627.95 1497.48,-615.69 1513.64,-605.36 1530.39,-596.73"/>
<polygon fill="black" stroke="black" stroke-width="2.57" points="1532.34,-599.67 1539.75,-592.1 1529.24,-593.4 1532.34,-599.67"/>
</g>
<!-- 2&#45;&gt;39 -->
<g id="edge24" class="edge">
<title>2&#45;&gt;39</title>
<path fill="none" stroke="black" stroke-width="2.67" d="M1003.17,-871.39C961.11,-860.95 918.4,-844.02 884.79,-816.69 854.5,-792.06 879.17,-759.3 846.79,-737.49 740.05,-665.59 368.54,-782.8 268.79,-701.49 217.54,-659.72 229.79,-624.06 229.79,-557.95 229.79,-557.95 229.79,-557.95 229.79,-217.79 229.79,-157.57 217.6,-125.27 263.79,-86.62 313.93,-44.66 725.86,-31.76 933.73,-27.9"/>
<polygon fill="black" stroke="black" stroke-width="2.67" points="933.84,-31.4 943.78,-27.71 933.72,-24.4 933.84,-31.4"/>
</g>
<!-- 3 -->
<g id="node3" class="node">
<title>3</title>
<ellipse fill="#3accbc" stroke="black" cx="1345.79" cy="-447.77" rx="199.31" ry="38.37"/>
<text text-anchor="middle" x="1345.79" y="-453.89" font-family="Times,serif" font-size="21.09">bacteria in sediment poc</text>
<text text-anchor="middle" x="1345.79" y="-430.89" font-family="Times,serif" font-size="21.09">(600.00 gC.m²)</text>
</g>
<!-- 14 -->
<g id="node14" class="node">
<title>14</title>
<ellipse fill="#3accbc" stroke="black" cx="1051.79" cy="-332.57" rx="152.06" ry="39.7"/>
<text text-anchor="middle" x="1051.79" y="-339.09" font-family="Times,serif" font-size="21.85">other polychaetes</text>
<text text-anchor="middle" x="1051.79" y="-315.09" font-family="Times,serif" font-size="21.85">(1186.50 gC.m²)</text>
</g>
<!-- 3&#45;&gt;14 -->
<g id="edge75" class="edge">
<title>3&#45;&gt;14</title>
<path fill="none" stroke="black" stroke-width="3.16" d="M1258.77,-413.26C1222.94,-399.47 1181.38,-383.47 1144.94,-369.44"/>
<polygon fill="black" stroke="black" stroke-width="3.16" points="1145.89,-366.05 1135.3,-365.72 1143.37,-372.58 1145.89,-366.05"/>
</g>
<!-- 15 -->
<g id="node15" class="node">
<title>15</title>
<ellipse fill="#3accbc" stroke="black" cx="1335.79" cy="-332.57" rx="113.69" ry="35.21"/>
<text text-anchor="middle" x="1335.79" y="-338.17" font-family="Times,serif" font-size="19.25">nereis</text>
<text text-anchor="middle" x="1335.79" y="-317.17" font-family="Times,serif" font-size="19.25">(113.25 gC.m²)</text>
</g>
<!-- 3&#45;&gt;15 -->
<g id="edge76" class="edge">
<title>3&#45;&gt;15</title>
<path fill="none" stroke="black" stroke-width="2.74" d="M1342.48,-409.39C1341.61,-399.44 1340.65,-388.59 1339.74,-378.29"/>
<polygon fill="black" stroke="black" stroke-width="2.74" points="1343.21,-377.88 1338.85,-368.23 1336.24,-378.5 1343.21,-377.88"/>
</g>
<!-- 16 -->
<g id="node16" class="node">
<title>16</title>
<ellipse fill="#3accbc" stroke="black" cx="2139.79" cy="-332.57" rx="142.26" ry="41.02"/>
<text text-anchor="middle" x="2139.79" y="-339.68" font-family="Times,serif" font-size="22.36">macoma spp.</text>
<text text-anchor="middle" x="2139.79" y="-314.68" font-family="Times,serif" font-size="22.36">(1890.25 gC.m²)</text>
</g>
<!-- 3&#45;&gt;16 -->
<g id="edge77" class="edge">
<title>3&#45;&gt;16</title>
<path fill="none" stroke="black" stroke-width="2.92" d="M1506.46,-425.06C1611.35,-410.77 1751.25,-391.45 1874.79,-373.58 1917.31,-367.43 1963.64,-360.51 2005.49,-354.18"/>
<polygon fill="black" stroke="black" stroke-width="2.92" points="2006.11,-357.63 2015.47,-352.67 2005.06,-350.7 2006.11,-357.63"/>
</g>
<!-- 17 -->
<g id="node17" class="node">
<title>17</title>
<ellipse fill="#3accbc" stroke="black" cx="607.79" cy="-332.57" rx="122.16" ry="38.37"/>
<text text-anchor="middle" x="607.79" y="-339.21" font-family="Times,serif" font-size="20.46">meiofauna</text>
<text text-anchor="middle" x="607.79" y="-316.21" font-family="Times,serif" font-size="20.46">(337.50 gC.m²)</text>
</g>
<!-- 3&#45;&gt;17 -->
<g id="edge78" class="edge">
<title>3&#45;&gt;17</title>
<path fill="none" stroke="black" stroke-width="2.82" d="M1163.08,-432.46C1043.08,-421.13 883.11,-402.34 743.79,-373.58 729.88,-370.71 715.34,-367.1 701.15,-363.24"/>
<polygon fill="black" stroke="black" stroke-width="2.82" points="701.97,-359.83 691.39,-360.52 700.09,-366.58 701.97,-359.83"/>
</g>
<!-- 18 -->
<g id="node18" class="node">
<title>18</title>
<ellipse fill="#3accbc" stroke="black" cx="1666.79" cy="-332.57" rx="199.31" ry="36.54"/>
<text text-anchor="middle" x="1666.79" y="-338.55" font-family="Times,serif" font-size="20.02">crustacean deposit feeder</text>
<text text-anchor="middle" x="1666.79" y="-316.55" font-family="Times,serif" font-size="20.02">(228.00 gC.m²)</text>
</g>
<!-- 3&#45;&gt;18 -->
<g id="edge79" class="edge">
<title>3&#45;&gt;18</title>
<path fill="none" stroke="black" stroke-width="2.61" d="M1439.06,-413.87C1479.25,-399.7 1526.3,-383.11 1567.16,-368.7"/>
<polygon fill="black" stroke="black" stroke-width="2.61" points="1568.33,-372 1576.59,-365.38 1566,-365.4 1568.33,-372"/>
</g>
<!-- 3&#45;&gt;36 -->
<g id="edge80" class="edge">
<title>3&#45;&gt;36</title>
<path fill="none" stroke="black" stroke-width="3.09" d="M1443.43,-481.1C1477.31,-492.88 1515.32,-506.3 1549.35,-518.49"/>
<polygon fill="black" stroke="black" stroke-width="3.09" points="1548.24,-521.81 1558.83,-521.89 1550.6,-515.22 1548.24,-521.81"/>
</g>
<!-- 3&#45;&gt;39 -->
<g id="edge25" class="edge">
<title>3&#45;&gt;39</title>
<path fill="none" stroke="black" stroke-width="3.32" d="M1150.28,-439.97C1042.9,-431.67 924.74,-413.44 890.79,-373.58 831.43,-303.92 922.63,-143.85 966.79,-86.62 975.57,-75.24 987.1,-65.14 998.86,-56.62"/>
<polygon fill="black" stroke="black" stroke-width="3.32" points="1001.19,-59.27 1007.42,-50.71 997.21,-53.51 1001.19,-59.27"/>
</g>
<!-- 4 -->
<g id="node4" class="node">
<title>4</title>
<ellipse fill="#3accbc" stroke="black" cx="459.79" cy="-664.72" rx="126.64" ry="36.54"/>
<text text-anchor="middle" x="459.79" y="-670.92" font-family="Times,serif" font-size="19.75">benthic diatoms</text>
<text text-anchor="middle" x="459.79" y="-648.92" font-family="Times,serif" font-size="19.75">(177.25 gC.m²)</text>
</g>
<!-- 4&#45;&gt;17 -->
<g id="edge81" class="edge">
<title>4&#45;&gt;17</title>
<path fill="none" stroke="black" stroke-width="2.7" d="M475.77,-628.07C502.69,-568 557.1,-446.65 586.97,-380"/>
<polygon fill="black" stroke="black" stroke-width="2.7" points="590.3,-381.14 591.2,-370.58 583.91,-378.27 590.3,-381.14"/>
</g>
<!-- 4&#45;&gt;36 -->
<g id="edge82" class="edge">
<title>4&#45;&gt;36</title>
<path fill="none" stroke="black" stroke-width="2.83" d="M547.7,-638.15C563.91,-634.19 580.77,-630.55 596.79,-627.95 889.8,-580.39 1233.76,-565 1446.52,-560.1"/>
<polygon fill="black" stroke="black" stroke-width="2.83" points="1446.63,-563.6 1456.55,-559.88 1446.47,-556.6 1446.63,-563.6"/>
</g>
<!-- 4&#45;&gt;39 -->
<g id="edge26" class="edge">
<title>4&#45;&gt;39</title>
<path fill="none" stroke="black" stroke-width="2.8" d="M415.24,-630.26C369.76,-591.91 305.79,-524.51 305.79,-448.77 305.79,-448.77 305.79,-448.77 305.79,-217.79 305.79,-157.99 290.63,-125.83 335.79,-86.62 379.98,-48.26 743.68,-33.74 935.43,-28.72"/>
<polygon fill="black" stroke="black" stroke-width="2.8" points="935.65,-32.21 945.56,-28.46 935.47,-25.22 935.65,-32.21"/>
</g>
<!-- 5 -->
<g id="node5" class="node">
<title>5</title>
<ellipse fill="#3accbc" stroke="black" cx="586.79" cy="-1612.99" rx="122.16" ry="38.37"/>
<text text-anchor="middle" x="586.79" y="-1619.5" font-family="Times,serif" font-size="20.62">free bacteria</text>
<text text-anchor="middle" x="586.79" y="-1596.5" font-family="Times,serif" font-size="20.62">(390.50 gC.m²)</text>
</g>
<!-- 6 -->
<g id="node6" class="node">
<title>6</title>
<ellipse fill="#3accbc" stroke="black" cx="564.79" cy="-1504.87" rx="180.12" ry="33.88"/>
<text text-anchor="middle" x="564.79" y="-1510.39" font-family="Times,serif" font-size="18.09">heterotrophic microflagel</text>
<text text-anchor="middle" x="564.79" y="-1490.39" font-family="Times,serif" font-size="18.09">(39.00 gC.m²)</text>
</g>
<!-- 5&#45;&gt;6 -->
<g id="edge83" class="edge">
<title>5&#45;&gt;6</title>
<path fill="none" stroke="black" stroke-width="3.07" d="M579.09,-1574.87C577.35,-1566.45 575.48,-1557.44 573.69,-1548.8"/>
<polygon fill="black" stroke="black" stroke-width="3.07" points="577.09,-1547.97 571.63,-1538.89 570.23,-1549.39 577.09,-1547.97"/>
</g>
<!-- 5&#45;&gt;35 -->
<g id="edge84" class="edge">
<title>5&#45;&gt;35</title>
<path fill="none" stroke="black" stroke-width="2.49" d="M671.02,-1585.13C699.14,-1573.65 729.47,-1558.32 753.79,-1538.81 798.41,-1503.01 807.34,-1487.55 829.79,-1434.93 896.99,-1277.37 863.86,-1223.49 896.79,-1055.4 898.44,-1046.93 900.33,-1037.86 902.16,-1029.27"/>
<polygon fill="black" stroke="black" stroke-width="2.49" points="905.59,-1029.98 904.28,-1019.47 898.75,-1028.51 905.59,-1029.98"/>
</g>
<!-- 5&#45;&gt;39 -->
<g id="edge27" class="edge">
<title>5&#45;&gt;39</title>
<path fill="none" stroke="black" stroke-width="3.05" d="M483.56,-1592.31C446.52,-1581.32 406.39,-1564.47 375.79,-1538.81 87.08,-1296.76 1.79,-1154.84 1.79,-778.09 1.79,-778.09 1.79,-778.09 1.79,-217.79 1.79,-157.57 -10.73,-124.87 35.79,-86.62 103.32,-31.09 673.27,-25.36 929.21,-25.63"/>
<polygon fill="black" stroke="black" stroke-width="3.05" points="929.29,-29.13 939.3,-25.65 929.3,-22.13 929.29,-29.13"/>
</g>
<!-- 6&#45;&gt;7 -->
<g id="edge85" class="edge">
<title>6&#45;&gt;7</title>
<path fill="none" stroke="black" stroke-width="2.84" d="M607.32,-1471.6C620.95,-1461.25 636.22,-1449.67 650.47,-1438.85"/>
<polygon fill="black" stroke="black" stroke-width="2.84" points="652.88,-1441.42 658.73,-1432.59 648.64,-1435.84 652.88,-1441.42"/>
</g>
<!-- 6&#45;&gt;35 -->
<g id="edge86" class="edge">
<title>6&#45;&gt;35</title>
<path fill="none" stroke="black" stroke-width="2.63" d="M562.53,-1470.89C561.62,-1441.35 563.03,-1397.27 575.79,-1361.39 631.19,-1205.49 664.01,-1165.17 787.79,-1055.4 801.2,-1043.5 817.18,-1033.03 833.11,-1024.17"/>
<polygon fill="black" stroke="black" stroke-width="2.63" points="834.8,-1027.24 841.94,-1019.41 831.48,-1021.08 834.8,-1027.24"/>
</g>
<!-- 6&#45;&gt;39 -->
<g id="edge28" class="edge">
<title>6&#45;&gt;39</title>
<path fill="none" stroke="black" stroke-width="2.91" d="M523.84,-1471.76C435.82,-1400.42 227.94,-1219.18 121.79,-1019.4 68.64,-919.37 39.79,-891.36 39.79,-778.09 39.79,-778.09 39.79,-778.09 39.79,-217.79 39.79,-157.68 26.54,-125.02 72.79,-86.62 137.26,-33.09 680.95,-26.21 929.58,-25.9"/>
<polygon fill="black" stroke="black" stroke-width="2.91" points="929.75,-29.4 939.75,-25.89 929.75,-22.4 929.75,-29.4"/>
</g>
<!-- 7&#45;&gt;8 -->
<g id="edge87" class="edge">
<title>7&#45;&gt;8</title>
<path fill="none" stroke="black" stroke-width="2.52" d="M814.48,-1386C947.72,-1372.5 1177.17,-1348.69 1373.79,-1325.39 1425.56,-1319.25 1482.74,-1311.91 1531.49,-1305.47"/>
<polygon fill="black" stroke="black" stroke-width="2.52" points="1531.98,-1308.94 1541.44,-1304.16 1531.07,-1302 1531.98,-1308.94"/>
</g>
<!-- 7&#45;&gt;9 -->
<g id="edge88" class="edge">
<title>7&#45;&gt;9</title>
<path fill="none" stroke="black" stroke-width="2.34" d="M768.07,-1367.34C856.86,-1326.79 1014.76,-1254.67 1103.53,-1214.12"/>
<polygon fill="black" stroke="black" stroke-width="2.34" points="1105.05,-1217.28 1112.69,-1209.94 1102.14,-1210.91 1105.05,-1217.28"/>
</g>
<!-- 7&#45;&gt;11 -->
<g id="edge89" class="edge">
<title>7&#45;&gt;11</title>
<path fill="none" stroke="black" stroke-width="1.78" d="M694.14,-1361.38C676.94,-1281.16 647.22,-1084.13 734.79,-959.4 796.56,-871.41 909.39,-826 1004.93,-802.63"/>
<polygon fill="black" stroke="black" stroke-width="1.78" points="1005.79,-806.02 1014.71,-800.3 1004.17,-799.21 1005.79,-806.02"/>
</g>
<!-- 7&#45;&gt;12 -->
<g id="edge90" class="edge">
<title>7&#45;&gt;12</title>
<path fill="none" stroke="black" stroke-width="1.65" d="M667.59,-1362.88C657.54,-1351.67 647.29,-1338.66 639.79,-1325.39 607.4,-1268.1 594.79,-1250.13 594.79,-1184.32 594.79,-1184.32 594.79,-1184.32 594.79,-1084.1 594.79,-924.83 410.6,-866.65 503.79,-737.49 507.84,-731.87 572.4,-710.83 629.89,-692.97"/>
<polygon fill="black" stroke="black" stroke-width="1.65" points="631.26,-696.21 639.78,-689.91 629.19,-689.53 631.26,-696.21"/>
</g>
<!-- 7&#45;&gt;13 -->
<g id="edge91" class="edge">
<title>7&#45;&gt;13</title>
<path fill="none" stroke="black" stroke-width="1.79" d="M683.47,-1361.79C662.75,-1320.48 632.79,-1249.47 632.79,-1184.32 632.79,-1184.32 632.79,-1184.32 632.79,-988.4 632.79,-932.37 645.02,-869.07 655.02,-826.69"/>
<polygon fill="black" stroke="black" stroke-width="1.79" points="658.44,-827.46 657.38,-816.91 651.63,-825.82 658.44,-827.46"/>
</g>
<!-- 7&#45;&gt;35 -->
<g id="edge92" class="edge">
<title>7&#45;&gt;35</title>
<path fill="none" stroke="black" stroke-width="2.88" d="M724.08,-1361.61C731.82,-1350.56 739.97,-1337.95 745.79,-1325.39 797.66,-1213.28 742.8,-1157.87 811.79,-1055.4 819.41,-1044.07 829.7,-1034.04 840.79,-1025.45"/>
<polygon fill="black" stroke="black" stroke-width="2.88" points="842.98,-1028.19 848.98,-1019.46 838.85,-1022.54 842.98,-1028.19"/>
</g>
<!-- 7&#45;&gt;39 -->
<g id="edge29" class="edge">
<title>7&#45;&gt;39</title>
<path fill="none" stroke="black" stroke-width="2.87" d="M633.21,-1368.27C470.3,-1295.47 77.79,-1087.93 77.79,-778.09 77.79,-778.09 77.79,-778.09 77.79,-217.79 77.79,-157.78 63.8,-125.17 109.79,-86.62 171.25,-35.09 689.13,-27.1 930.22,-26.19"/>
<polygon fill="black" stroke="black" stroke-width="2.87" points="930.44,-29.69 940.43,-26.16 930.42,-22.69 930.44,-29.69"/>
</g>
<!-- 8&#45;&gt;9 -->
<g id="edge93" class="edge">
<title>8&#45;&gt;9</title>
<path fill="none" stroke="black" stroke-width="2.5" d="M1549.05,-1268.77C1477.75,-1254.98 1379.63,-1235.34 1293.79,-1215.85 1281,-1212.94 1267.53,-1209.72 1254.34,-1206.47"/>
<polygon fill="black" stroke="black" stroke-width="2.5" points="1254.88,-1203 1244.33,-1203.99 1253.2,-1209.79 1254.88,-1203"/>
</g>
<!-- 10 -->
<g id="node10" class="node">
<title>10</title>
<ellipse fill="#3accbc" stroke="black" cx="1251.79" cy="-1085.1" rx="79.81" ry="29.9"/>
<text text-anchor="middle" x="1251.79" y="-1090" font-family="Times,serif" font-size="15.12">sea nettle</text>
<text text-anchor="middle" x="1251.79" y="-1073" font-family="Times,serif" font-size="15.12">(1.75 gC.m²)</text>
</g>
<!-- 8&#45;&gt;10 -->
<g id="edge94" class="edge">
<title>8&#45;&gt;10</title>
<path fill="none" stroke="black" stroke-width="2.1" d="M1588.06,-1256.79C1511.51,-1217.93 1381.01,-1151.69 1307.11,-1114.18"/>
<polygon fill="black" stroke="black" stroke-width="2.1" points="1308.45,-1110.93 1297.95,-1109.53 1305.28,-1117.17 1308.45,-1110.93"/>
</g>
<!-- 20 -->
<g id="node20" class="node">
<title>20</title>
<ellipse fill="#3accbc" stroke="black" cx="1648.79" cy="-664.72" rx="75.82" ry="28.07"/>
<text text-anchor="middle" x="1648.79" y="-669.44" font-family="Times,serif" font-size="14.11">fish larvae</text>
<text text-anchor="middle" x="1648.79" y="-653.44" font-family="Times,serif" font-size="14.11">(0.10 gC.m²)</text>
</g>
<!-- 8&#45;&gt;20 -->
<g id="edge95" class="edge">
<title>8&#45;&gt;20</title>
<path fill="none" stroke="black" stroke-width="0.91" d="M1648.79,-1251.58C1648.79,-1211.26 1648.79,-1144 1648.79,-1086.1 1648.79,-1086.1 1648.79,-1086.1 1648.79,-887.04 1648.79,-822.61 1648.79,-747.64 1648.79,-703.57"/>
<polygon fill="black" stroke="black" stroke-width="0.91" points="1652.29,-703.32 1648.79,-693.32 1645.29,-703.32 1652.29,-703.32"/>
</g>
<!-- 21 -->
<g id="node21" class="node">
<title>21</title>
<ellipse fill="#3accbc" stroke="black" cx="2889.79" cy="-664.72" rx="132.46" ry="28.07"/>
<text text-anchor="middle" x="2889.79" y="-668.84" font-family="Times,serif" font-size="14.85">alewife &amp; blue herring</text>
<text text-anchor="middle" x="2889.79" y="-652.84" font-family="Times,serif" font-size="14.85">(1.15 gC.m²)</text>
</g>
<!-- 8&#45;&gt;21 -->
<g id="edge96" class="edge">
<title>8&#45;&gt;21</title>
<path fill="none" stroke="black" stroke-width="1.25" d="M1766.73,-1286.55C2033.12,-1283.19 2664.42,-1269.59 2743.79,-1215.85 2796.71,-1180.01 2805.79,-1150.01 2805.79,-1086.1 2805.79,-1086.1 2805.79,-1086.1 2805.79,-887.04 2805.79,-817.93 2842.03,-744.12 2866.9,-701.6"/>
<polygon fill="black" stroke="black" stroke-width="1.25" points="2870.06,-703.14 2872.18,-692.76 2864.05,-699.55 2870.06,-703.14"/>
</g>
<!-- 8&#45;&gt;22 -->
<g id="edge97" class="edge">
<title>8&#45;&gt;22</title>
<path fill="none" stroke="black" stroke-width="2.16" d="M1758.3,-1274.63C1867.4,-1254.87 2018.79,-1205.87 2018.79,-1086.1 2018.79,-1086.1 2018.79,-1086.1 2018.79,-988.4 2018.79,-882.57 2143.43,-826.61 2235.66,-799.69"/>
<polygon fill="black" stroke="black" stroke-width="2.16" points="2236.66,-803.04 2245.32,-796.94 2234.74,-796.31 2236.66,-803.04"/>
</g>
<!-- 8&#45;&gt;23 -->
<g id="edge98" class="edge">
<title>8&#45;&gt;23</title>
<path fill="none" stroke="black" stroke-width="1.75" d="M1766.55,-1285.61C2039.02,-1280.18 2696.4,-1262.39 2784.79,-1215.85 3005.45,-1099.66 3149.62,-815.4 3197.88,-707.86"/>
<polygon fill="black" stroke="black" stroke-width="1.75" points="3201.12,-709.18 3201.98,-698.62 3194.72,-706.34 3201.12,-709.18"/>
</g>
<!-- 24 -->
<g id="node24" class="node">
<title>24</title>
<ellipse fill="#3accbc" stroke="black" cx="2625.79" cy="-664.72" rx="75.82" ry="28.07"/>
<text text-anchor="middle" x="2625.79" y="-669.19" font-family="Times,serif" font-size="14.41">shad</text>
<text text-anchor="middle" x="2625.79" y="-653.19" font-family="Times,serif" font-size="14.41">(0.45 gC.m²)</text>
</g>
<!-- 8&#45;&gt;24 -->
<g id="edge99" class="edge">
<title>8&#45;&gt;24</title>
<path fill="none" stroke="black" stroke-width="0.92" d="M1766.51,-1285.59C2009.87,-1278.2 2545.79,-1244.01 2545.79,-1086.1 2545.79,-1086.1 2545.79,-1086.1 2545.79,-887.04 2545.79,-818.15 2580.5,-743.99 2604.19,-701.39"/>
<polygon fill="black" stroke="black" stroke-width="0.92" points="2607.32,-702.96 2609.21,-692.54 2601.23,-699.51 2607.32,-702.96"/>
</g>
<!-- 8&#45;&gt;35 -->
<g id="edge100" class="edge">
<title>8&#45;&gt;35</title>
<path fill="none" stroke="black" stroke-width="2.76" d="M1530.64,-1287.35C1378.26,-1284.78 1124.41,-1271.96 1052.79,-1215.85 992.73,-1168.8 1038.22,-1115.93 991.79,-1055.4 983.29,-1044.32 972.4,-1034.31 961.35,-1025.65"/>
<polygon fill="black" stroke="black" stroke-width="2.76" points="963.4,-1022.81 953.31,-1019.58 959.19,-1028.4 963.4,-1022.81"/>
</g>
<!-- 38 -->
<g id="node38" class="node">
<title>38</title>
<polygon fill="white" stroke="black" points="2946.89,-25.31 2909.84,-50.44 2835.73,-50.44 2798.68,-25.31 2835.73,-0.19 2909.84,-0.19 2946.89,-25.31"/>
<text text-anchor="middle" x="2872.79" y="-20.01" font-family="Times,serif" font-size="21.00">Output</text>
</g>
<!-- 8&#45;&gt;38 -->
<g id="edge5" class="edge">
<title>8&#45;&gt;38</title>
<path fill="none" stroke="black" stroke-width="2.71" d="M1766.36,-1284.85C2048.63,-1277.6 2748.53,-1255.79 2846.79,-1215.85 3243.48,-1054.58 3429.79,-876.98 3429.79,-448.77 3429.79,-448.77 3429.79,-448.77 3429.79,-217.79 3429.79,-155.56 3429.73,-125.06 3380.79,-86.62 3316.69,-36.29 3083.4,-27.13 2956.46,-25.97"/>
<polygon fill="black" stroke="black" stroke-width="2.71" points="2956.41,-22.47 2946.38,-25.9 2956.36,-29.47 2956.41,-22.47"/>
</g>
<!-- 8&#45;&gt;39 -->
<g id="edge30" class="edge">
<title>8&#45;&gt;39</title>
<path fill="none" stroke="black" stroke-width="2.89" d="M1765.4,-1282.31C1956.77,-1272.74 2328.88,-1250.35 2455.79,-1215.85 2585.81,-1180.49 2729.79,-1220.84 2729.79,-1086.1 2729.79,-1086.1 2729.79,-1086.1 2729.79,-776.09 2729.79,-644.05 2807.02,-281.13 2719.79,-182.02 2682.99,-140.22 2524.93,-162.67 2471.79,-146.02 2415.38,-128.35 2409.99,-101.51 2352.79,-86.62 2133.02,-29.42 1456.85,-24.86 1176.52,-25.55"/>
<polygon fill="black" stroke="black" stroke-width="2.89" points="1176.3,-22.05 1166.31,-25.57 1176.32,-29.05 1176.3,-22.05"/>
</g>
<!-- 9&#45;&gt;10 -->
<g id="edge101" class="edge">
<title>9&#45;&gt;10</title>
<path fill="none" stroke="black" stroke-width="1.93" d="M1195.05,-1151.87C1203.37,-1142.23 1212.64,-1131.48 1221.23,-1121.52"/>
<polygon fill="black" stroke="black" stroke-width="1.93" points="1224.06,-1123.59 1227.95,-1113.73 1218.76,-1119.02 1224.06,-1123.59"/>
</g>
<!-- 9&#45;&gt;35 -->
<g id="edge102" class="edge">
<title>9&#45;&gt;35</title>
<path fill="none" stroke="black" stroke-width="2.47" d="M1141.04,-1152.04C1118.46,-1123.99 1084.86,-1082.62 1047.79,-1055.4 1031.16,-1043.19 1011.88,-1032.59 993.11,-1023.7"/>
<polygon fill="black" stroke="black" stroke-width="2.47" points="994.49,-1020.48 983.95,-1019.47 991.56,-1026.84 994.49,-1020.48"/>
</g>
<!-- 9&#45;&gt;36 -->
<g id="edge103" class="edge">
<title>9&#45;&gt;36</title>
<path fill="none" stroke="black" stroke-width="1.94" d="M1249.1,-1164.72C1280.75,-1154.49 1315.5,-1138.71 1340.79,-1114.79 1427.23,-1033.01 1491.23,-722.27 1563.79,-627.95 1571.87,-617.45 1581.8,-607.5 1592,-598.57"/>
<polygon fill="black" stroke="black" stroke-width="1.94" points="1594.45,-601.09 1599.82,-591.96 1589.93,-595.74 1594.45,-601.09"/>
</g>
<!-- 9&#45;&gt;39 -->
<g id="edge31" class="edge">
<title>9&#45;&gt;39</title>
<path fill="none" stroke="black" stroke-width="2.48" d="M1082.17,-1168.31C830.28,-1125.16 115.79,-984.56 115.79,-778.09 115.79,-778.09 115.79,-778.09 115.79,-217.79 115.79,-157.99 100.29,-125.43 145.79,-86.62 204.13,-36.86 696.69,-27.9 930.51,-26.46"/>
<polygon fill="black" stroke="black" stroke-width="2.48" points="930.78,-29.96 940.76,-26.4 930.74,-22.96 930.78,-29.96"/>
</g>
<!-- 10&#45;&gt;35 -->
<g id="edge104" class="edge">
<title>10&#45;&gt;35</title>
<path fill="none" stroke="black" stroke-width="1.88" d="M1188.84,-1066.8C1143.37,-1054.3 1080.64,-1037.07 1026.27,-1022.13"/>
<polygon fill="black" stroke="black" stroke-width="1.88" points="1027.14,-1018.74 1016.57,-1019.46 1025.28,-1025.49 1027.14,-1018.74"/>
</g>
<!-- 10&#45;&gt;36 -->
<g id="edge105" class="edge">
<title>10&#45;&gt;36</title>
<path fill="none" stroke="black" stroke-width="1.69" d="M1273.41,-1056.38C1297.56,-1024.92 1337.28,-971.69 1367.79,-923.4 1407.77,-860.09 1477.64,-681.69 1529.79,-627.95 1540.91,-616.48 1554.31,-606.24 1568.05,-597.36"/>
<polygon fill="black" stroke="black" stroke-width="1.69" points="1570,-600.28 1576.63,-592.01 1566.29,-594.34 1570,-600.28"/>
</g>
<!-- 10&#45;&gt;39 -->
<g id="edge32" class="edge">
<title>10&#45;&gt;39</title>
<path fill="none" stroke="black" stroke-width="2.08" d="M1222.88,-1057.28C1191.49,-1029.41 1138.83,-986.18 1086.79,-959.4 1039.17,-934.89 1018.66,-949.31 971.79,-923.4 907.86,-888.06 889.79,-875.73 846.79,-816.69 824.34,-785.86 844.85,-759.6 813.79,-737.49 707.13,-661.58 325.94,-785.79 225.79,-701.49 175.63,-659.27 191.79,-623.51 191.79,-557.95 191.79,-557.95 191.79,-557.95 191.79,-217.79 191.79,-157.57 179.53,-125.19 225.79,-86.62 278.81,-42.41 716.73,-30.59 932.94,-27.45"/>
<polygon fill="black" stroke="black" stroke-width="2.08" points="933.12,-30.94 943.07,-27.3 933.02,-23.95 933.12,-30.94"/>
</g>
<!-- 19 -->
<g id="node19" class="node">
<title>19</title>
<ellipse fill="#3accbc" stroke="black" cx="2254.79" cy="-218.79" rx="122.16" ry="36.54"/>
<text text-anchor="middle" x="2254.79" y="-224.6" font-family="Times,serif" font-size="20.23">blue crab</text>
<text text-anchor="middle" x="2254.79" y="-202.6" font-family="Times,serif" font-size="20.23">(275.00 gC.m²)</text>
</g>
<!-- 11&#45;&gt;19 -->
<g id="edge106" class="edge">
<title>11&#45;&gt;19</title>
<path fill="none" stroke="black" stroke-width="1.92" d="M1254.46,-742.21C1350.6,-703.28 1503.77,-642.85 1563.79,-627.95 1688.13,-597.09 1723.87,-615.6 1849.79,-591.95 2039.84,-556.25 2102.21,-578.9 2271.79,-485.95 2360.62,-437.26 2443.09,-378.31 2390.79,-291.56 2380.46,-274.43 2364.52,-261.17 2347.14,-251"/>
<polygon fill="black" stroke="black" stroke-width="1.92" points="2348.4,-247.7 2337.95,-245.95 2345.03,-253.83 2348.4,-247.7"/>
</g>
<!-- 11&#45;&gt;36 -->
<g id="edge107" class="edge">
<title>11&#45;&gt;36</title>
<path fill="none" stroke="black" stroke-width="2.34" d="M1216.37,-739.62C1259.06,-706.32 1326.47,-657.85 1391.79,-627.95 1420.05,-615.01 1451.2,-604.04 1481.76,-594.9"/>
<polygon fill="black" stroke="black" stroke-width="2.34" points="1483.04,-598.17 1491.65,-591.99 1481.07,-591.45 1483.04,-598.17"/>
</g>
<!-- 11&#45;&gt;39 -->
<g id="edge33" class="edge">
<title>11&#45;&gt;39</title>
<path fill="none" stroke="black" stroke-width="2.33" d="M1017.11,-753.28C974.32,-747.51 927.81,-741.76 884.79,-737.49 822.63,-731.32 374.2,-738.36 323.79,-701.49 268.51,-661.07 267.79,-626.43 267.79,-557.95 267.79,-557.95 267.79,-557.95 267.79,-217.79 267.79,-157.68 254.89,-125.45 300.79,-86.62 347.99,-46.69 734.75,-32.85 934.43,-28.34"/>
<polygon fill="black" stroke="black" stroke-width="2.33" points="934.75,-31.83 944.67,-28.11 934.59,-24.84 934.75,-31.83"/>
</g>
<!-- 12&#45;&gt;19 -->
<g id="edge108" class="edge">
<title>12&#45;&gt;19</title>
<path fill="none" stroke="black" stroke-width="1.72" d="M797.84,-638.82C811.42,-634.9 825.46,-631.11 838.79,-627.95 841.28,-627.36 2289.14,-375.54 2290.79,-373.58 2316.42,-343.07 2301.35,-297.63 2283.52,-264.05"/>
<polygon fill="black" stroke="black" stroke-width="1.72" points="2286.37,-261.96 2278.45,-254.92 2280.25,-265.36 2286.37,-261.96"/>
</g>
<!-- 26 -->
<g id="node26" class="node">
<title>26</title>
<ellipse fill="#3accbc" stroke="black" cx="1052.79" cy="-218.79" rx="86.03" ry="31.23"/>
<text text-anchor="middle" x="1052.79" y="-223.55" font-family="Times,serif" font-size="16.55">hogchoker</text>
<text text-anchor="middle" x="1052.79" y="-205.55" font-family="Times,serif" font-size="16.55">(9.00 gC.m²)</text>
</g>
<!-- 12&#45;&gt;26 -->
<g id="edge109" class="edge">
<title>12&#45;&gt;26</title>
<path fill="none" stroke="black" stroke-width="1.03" d="M720.85,-629.25C724.97,-556.66 744.72,-386.96 838.79,-291.56 871.13,-258.75 918.91,-240.94 961.12,-231.27"/>
<polygon fill="black" stroke="black" stroke-width="1.03" points="962.12,-234.64 971.15,-229.1 960.64,-227.79 962.12,-234.64"/>
</g>
<!-- 12&#45;&gt;36 -->
<g id="edge110" class="edge">
<title>12&#45;&gt;36</title>
<path fill="none" stroke="black" stroke-width="2.13" d="M799.36,-639.38C815.9,-635.01 833.31,-630.91 849.79,-627.95 1050.97,-591.77 1284.16,-574.06 1446.49,-565.54"/>
<polygon fill="black" stroke="black" stroke-width="2.13" points="1446.79,-569.03 1456.6,-565.02 1446.43,-562.04 1446.79,-569.03"/>
</g>
<!-- 12&#45;&gt;38 -->
<g id="edge6" class="edge">
<title>12&#45;&gt;38</title>
<path fill="none" stroke="black" stroke-width="1.91" d="M832.75,-659.98C1036.48,-652.48 1478.77,-632.69 1849.79,-591.95 1854.52,-591.43 2522.48,-487.97 2526.79,-485.95 2573.38,-464.14 2572.7,-440.55 2613.79,-409.58 2637.41,-391.77 2646.5,-391.84 2669.79,-373.58 2785.45,-282.87 2851.73,-281.06 2909.79,-146.02 2920.21,-121.77 2916.96,-112.03 2909.79,-86.62 2907.11,-77.15 2902.48,-67.69 2897.39,-59.17"/>
<polygon fill="black" stroke="black" stroke-width="1.91" points="2900.3,-57.23 2891.97,-50.68 2894.4,-60.99 2900.3,-57.23"/>
</g>
<!-- 12&#45;&gt;39 -->
<g id="edge34" class="edge">
<title>12&#45;&gt;39</title>
<path fill="none" stroke="black" stroke-width="2.2" d="M645.05,-637.87C535.4,-597.63 343.79,-517.47 343.79,-448.77 343.79,-448.77 343.79,-448.77 343.79,-217.79 343.79,-158.53 323.97,-126.53 367.79,-86.62 408.81,-49.25 751.67,-34.35 936.21,-28.99"/>
<polygon fill="black" stroke="black" stroke-width="2.2" points="936.34,-32.49 946.24,-28.71 936.14,-25.49 936.34,-32.49"/>
</g>
<!-- 13&#45;&gt;36 -->
<g id="edge111" class="edge">
<title>13&#45;&gt;36</title>
<path fill="none" stroke="black" stroke-width="2.16" d="M760.31,-747.7C788.62,-736.23 818.63,-720.99 842.79,-701.49 873.93,-676.35 860.13,-647.98 894.79,-627.95 941.58,-600.91 1239.34,-579.73 1446.36,-568.03"/>
<polygon fill="black" stroke="black" stroke-width="2.16" points="1446.66,-571.52 1456.45,-567.47 1446.27,-564.53 1446.66,-571.52"/>
</g>
<!-- 13&#45;&gt;38 -->
<g id="edge7" class="edge">
<title>13&#45;&gt;38</title>
<path fill="none" stroke="black" stroke-width="2.31" d="M787.1,-757.54C841.47,-749.89 906.73,-741.82 965.79,-737.49 1023,-733.3 2983.07,-733.34 3030.79,-701.49 3131.82,-634.07 3222.58,-301.51 3200.79,-182.02 3192.65,-137.44 3199.25,-116.05 3164.79,-86.62 3132.58,-59.12 3022.22,-42.13 2946.79,-33.46"/>
<polygon fill="black" stroke="black" stroke-width="2.31" points="2947.18,-29.98 2936.85,-32.34 2946.4,-36.93 2947.18,-29.98"/>
</g>
<!-- 13&#45;&gt;39 -->
<g id="edge35" class="edge">
<title>13&#45;&gt;39</title>
<path fill="none" stroke="black" stroke-width="2.32" d="M531.34,-772.77C404.01,-766.68 226.55,-749.55 177.79,-701.49 131.72,-656.09 153.79,-622.63 153.79,-557.95 153.79,-557.95 153.79,-557.95 153.79,-217.79 153.79,-158.53 133.6,-126.11 177.79,-86.62 232.65,-37.59 703.44,-28.22 930.83,-26.57"/>
<polygon fill="black" stroke="black" stroke-width="2.32" points="931.17,-30.07 941.14,-26.5 931.12,-23.07 931.17,-30.07"/>
</g>
<!-- 25 -->
<g id="node25" class="node">
<title>25</title>
<ellipse fill="#3accbc" stroke="black" cx="1541.79" cy="-218.79" rx="79.39" ry="28.07"/>
<text text-anchor="middle" x="1541.79" y="-223" font-family="Times,serif" font-size="14.74">croaker</text>
<text text-anchor="middle" x="1541.79" y="-207" font-family="Times,serif" font-size="14.74">(0.95 gC.m²)</text>
</g>
<!-- 14&#45;&gt;25 -->
<g id="edge112" class="edge">
<title>14&#45;&gt;25</title>
<path fill="none" stroke="black" stroke-width="0.94" d="M1159.07,-304.45C1176.99,-300.05 1195.4,-295.62 1212.79,-291.56 1298.75,-271.5 1397.77,-250.14 1464.53,-235.99"/>
<polygon fill="black" stroke="black" stroke-width="0.94" points="1465.49,-239.36 1474.55,-233.86 1464.04,-232.51 1465.49,-239.36"/>
</g>
<!-- 14&#45;&gt;26 -->
<g id="edge113" class="edge">
<title>14&#45;&gt;26</title>
<path fill="none" stroke="black" stroke-width="1.38" d="M1052.13,-292.79C1052.23,-282.29 1052.33,-270.9 1052.42,-260.31"/>
<polygon fill="black" stroke="black" stroke-width="1.38" points="1055.93,-260.08 1052.52,-250.04 1048.93,-260.01 1055.93,-260.08"/>
</g>
<!-- 27 -->
<g id="node27" class="node">
<title>27</title>
<ellipse fill="#3accbc" stroke="black" cx="2013.79" cy="-218.79" rx="100.32" ry="33.88"/>
<text text-anchor="middle" x="2013.79" y="-224.41" font-family="Times,serif" font-size="17.97">spot</text>
<text text-anchor="middle" x="2013.79" y="-204.41" font-family="Times,serif" font-size="17.97">(35.00 gC.m²)</text>
</g>
<!-- 14&#45;&gt;27 -->
<g id="edge114" class="edge">
<title>14&#45;&gt;27</title>
<path fill="none" stroke="black" stroke-width="1.75" d="M1153.84,-303.17C1173.28,-298.62 1193.56,-294.47 1212.79,-291.56 1492.28,-249.29 1567.66,-293.45 1847.79,-255.56 1872.69,-252.19 1899.42,-247.1 1923.99,-241.8"/>
<polygon fill="black" stroke="black" stroke-width="1.75" points="1925,-245.17 1934.02,-239.61 1923.5,-238.33 1925,-245.17"/>
</g>
<!-- 28 -->
<g id="node28" class="node">
<title>28</title>
<ellipse fill="#3accbc" stroke="black" cx="1740.79" cy="-218.79" rx="97.66" ry="32.55"/>
<text text-anchor="middle" x="1740.79" y="-223.68" font-family="Times,serif" font-size="17.63">white perch</text>
<text text-anchor="middle" x="1740.79" y="-204.68" font-family="Times,serif" font-size="17.63">(25.48 gC.m²)</text>
</g>
<!-- 14&#45;&gt;28 -->
<g id="edge115" class="edge">
<title>14&#45;&gt;28</title>
<path fill="none" stroke="black" stroke-width="1.44" d="M1154.78,-303.42C1173.95,-298.91 1193.89,-294.7 1212.79,-291.56 1396.29,-261.03 1447.43,-292.32 1629.79,-255.56 1641.84,-253.13 1654.43,-249.84 1666.62,-246.23"/>
<polygon fill="black" stroke="black" stroke-width="1.44" points="1667.74,-249.54 1676.29,-243.28 1665.7,-242.85 1667.74,-249.54"/>
</g>
<!-- 29 -->
<g id="node29" class="node">
<title>29</title>
<ellipse fill="#3accbc" stroke="black" cx="1254.79" cy="-218.79" rx="97.66" ry="32.55"/>
<text text-anchor="middle" x="1254.79" y="-223.79" font-family="Times,serif" font-size="17.49">catfish</text>
<text text-anchor="middle" x="1254.79" y="-204.79" font-family="Times,serif" font-size="17.49">(22.38 gC.m²)</text>
</g>
<!-- 14&#45;&gt;29 -->
<g id="edge116" class="edge">
<title>14&#45;&gt;29</title>
<path fill="none" stroke="black" stroke-width="1.59" d="M1115.46,-296.51C1141.46,-282.19 1171.33,-265.74 1196.73,-251.76"/>
<polygon fill="black" stroke="black" stroke-width="1.59" points="1198.44,-254.81 1205.51,-246.92 1195.06,-248.68 1198.44,-254.81"/>
</g>
<!-- 14&#45;&gt;36 -->
<g id="edge117" class="edge">
<title>14&#45;&gt;36</title>
<path fill="none" stroke="black" stroke-width="3.12" d="M1062.72,-372.29C1074.92,-407.92 1098.33,-459.16 1137.79,-485.95 1187.64,-519.8 1326.32,-537.41 1446.64,-546.49"/>
<polygon fill="black" stroke="black" stroke-width="3.12" points="1446.51,-549.99 1456.74,-547.24 1447.03,-543.01 1446.51,-549.99"/>
</g>
<!-- 14&#45;&gt;39 -->
<g id="edge36" class="edge">
<title>14&#45;&gt;39</title>
<path fill="none" stroke="black" stroke-width="2.73" d="M991.3,-295.89C977.81,-284.8 965.29,-271.28 957.79,-255.56 943.71,-226.06 948.95,-213.49 957.79,-182.02 970.98,-135.06 1002.68,-88.25 1025.85,-58.4"/>
<polygon fill="black" stroke="black" stroke-width="2.73" points="1028.68,-60.46 1032.14,-50.44 1023.19,-56.12 1028.68,-60.46"/>
</g>
<!-- 15&#45;&gt;19 -->
<g id="edge118" class="edge">
<title>15&#45;&gt;19</title>
<path fill="none" stroke="black" stroke-width="1.78" d="M1407.17,-304.89C1423.89,-299.61 1441.79,-294.73 1458.79,-291.56 1749.32,-237.39 1830.99,-302.47 2122.79,-255.56 2135.09,-253.58 2147.89,-250.91 2160.47,-247.92"/>
<polygon fill="black" stroke="black" stroke-width="1.78" points="2161.63,-251.24 2170.51,-245.45 2159.96,-244.44 2161.63,-251.24"/>
</g>
<!-- 15&#45;&gt;25 -->
<g id="edge119" class="edge">
<title>15&#45;&gt;25</title>
<path fill="none" stroke="black" stroke-width="0.73" d="M1390.99,-301.62C1421.88,-284.85 1460.14,-264.09 1490.39,-247.68"/>
<polygon fill="black" stroke="black" stroke-width="0.73" points="1492.38,-250.58 1499.5,-242.73 1489.05,-244.43 1492.38,-250.58"/>
</g>
<!-- 15&#45;&gt;26 -->
<g id="edge120" class="edge">
<title>15&#45;&gt;26</title>
<path fill="none" stroke="black" stroke-width="1.07" d="M1266.92,-304.37C1221.95,-286.61 1163.56,-263.54 1119.11,-245.99"/>
<polygon fill="black" stroke="black" stroke-width="1.07" points="1120.15,-242.64 1109.57,-242.22 1117.58,-249.15 1120.15,-242.64"/>
</g>
<!-- 15&#45;&gt;27 -->
<g id="edge121" class="edge">
<title>15&#45;&gt;27</title>
<path fill="none" stroke="black" stroke-width="1.49" d="M1407.91,-305.16C1424.44,-299.93 1442.07,-295.01 1458.79,-291.56 1628.83,-256.49 1676.17,-281.89 1847.79,-255.56 1872.37,-251.79 1898.79,-246.61 1923.15,-241.38"/>
<polygon fill="black" stroke="black" stroke-width="1.49" points="1924.07,-244.76 1933.09,-239.21 1922.58,-237.92 1924.07,-244.76"/>
</g>
<!-- 15&#45;&gt;28 -->
<g id="edge122" class="edge">
<title>15&#45;&gt;28</title>
<path fill="none" stroke="black" stroke-width="1.38" d="M1410.53,-305.84C1426.37,-300.79 1443.06,-295.76 1458.79,-291.56 1533.82,-271.52 1554.72,-275.5 1629.79,-255.56 1641.02,-252.57 1652.8,-249.13 1664.32,-245.58"/>
<polygon fill="black" stroke="black" stroke-width="1.38" points="1665.41,-248.91 1673.91,-242.58 1663.32,-242.22 1665.41,-248.91"/>
</g>
<!-- 15&#45;&gt;29 -->
<g id="edge123" class="edge">
<title>15&#45;&gt;29</title>
<path fill="none" stroke="black" stroke-width="1.17" d="M1311.26,-297.73C1302.33,-285.39 1292.15,-271.35 1282.92,-258.62"/>
<polygon fill="black" stroke="black" stroke-width="1.17" points="1285.72,-256.52 1277.02,-250.47 1280.05,-260.62 1285.72,-256.52"/>
</g>
<!-- 15&#45;&gt;36 -->
<g id="edge124" class="edge">
<title>15&#45;&gt;36</title>
<path fill="none" stroke="black" stroke-width="2.72" d="M1412.12,-358.89C1472.56,-379.14 1547.81,-404.9 1553.79,-409.58 1588.28,-436.65 1614.13,-479.88 1630.09,-512.36"/>
<polygon fill="black" stroke="black" stroke-width="2.72" points="1627.06,-514.13 1634.53,-521.64 1633.37,-511.11 1627.06,-514.13"/>
</g>
<!-- 15&#45;&gt;39 -->
<g id="edge37" class="edge">
<title>15&#45;&gt;39</title>
<path fill="none" stroke="black" stroke-width="2.13" d="M1354.18,-297.58C1368.79,-265.52 1383.48,-217.25 1361.79,-182.02 1313.85,-104.19 1213.73,-63.87 1140.39,-43.97"/>
<polygon fill="black" stroke="black" stroke-width="2.13" points="1141.24,-40.57 1130.68,-41.41 1139.46,-47.34 1141.24,-40.57"/>
</g>
<!-- 16&#45;&gt;19 -->
<g id="edge125" class="edge">
<title>16&#45;&gt;19</title>
<path fill="none" stroke="black" stroke-width="2.35" d="M2179.36,-293.1C2189.92,-282.84 2201.37,-271.71 2212.09,-261.29"/>
<polygon fill="black" stroke="black" stroke-width="2.35" points="2214.64,-263.69 2219.37,-254.21 2209.76,-258.67 2214.64,-263.69"/>
</g>
<!-- 16&#45;&gt;27 -->
<g id="edge126" class="edge">
<title>16&#45;&gt;27</title>
<path fill="none" stroke="black" stroke-width="1.37" d="M2096.78,-293.41C2083.67,-281.78 2069.27,-269.01 2056.2,-257.41"/>
<polygon fill="black" stroke="black" stroke-width="1.37" points="2058.48,-254.76 2048.67,-250.74 2053.83,-259.99 2058.48,-254.76"/>
</g>
<!-- 16&#45;&gt;36 -->
<g id="edge127" class="edge">
<title>16&#45;&gt;36</title>
<path fill="none" stroke="black" stroke-width="2.72" d="M2101.31,-372.23C2064.48,-407.05 2005.79,-457.06 1945.79,-485.95 1916.14,-500.22 1883.39,-511.69 1850.79,-520.88"/>
<polygon fill="black" stroke="black" stroke-width="2.72" points="1849.86,-517.5 1841.14,-523.53 1851.72,-524.25 1849.86,-517.5"/>
</g>
<!-- 16&#45;&gt;39 -->
<g id="edge38" class="edge">
<title>16&#45;&gt;39</title>
<path fill="none" stroke="black" stroke-width="2.77" d="M2036.01,-304.5C1983.72,-289.59 1926.81,-271.02 1904.79,-255.56 1870.94,-231.8 1881.46,-206.03 1847.79,-182.02 1740.39,-105.46 1695.44,-115.67 1566.79,-86.62 1429.38,-55.6 1267.5,-39.96 1162.65,-32.49"/>
<polygon fill="black" stroke="black" stroke-width="2.77" points="1162.59,-28.98 1152.37,-31.77 1162.1,-35.96 1162.59,-28.98"/>
</g>
<!-- 17&#45;&gt;36 -->
<g id="edge128" class="edge">
<title>17&#45;&gt;36</title>
<path fill="none" stroke="black" stroke-width="2.79" d="M690.44,-360.93C718.36,-372.87 748.35,-388.95 771.79,-409.58 801.88,-436.07 785.55,-465.1 819.79,-485.95 833.09,-494.05 1205.23,-523.05 1446.33,-541.08"/>
<polygon fill="black" stroke="black" stroke-width="2.79" points="1446.4,-544.59 1456.63,-541.85 1446.92,-537.61 1446.4,-544.59"/>
</g>
<!-- 17&#45;&gt;39 -->
<g id="edge39" class="edge">
<title>17&#45;&gt;39</title>
<path fill="none" stroke="black" stroke-width="2.74" d="M617.63,-294.14C634.07,-239.39 672.56,-138.37 743.79,-86.62 776.48,-62.87 874.49,-46.44 951.46,-36.79"/>
<polygon fill="black" stroke="black" stroke-width="2.74" points="952.19,-40.23 961.69,-35.53 951.34,-33.28 952.19,-40.23"/>
</g>
<!-- 18&#45;&gt;19 -->
<g id="edge129" class="edge">
<title>18&#45;&gt;19</title>
<path fill="none" stroke="black" stroke-width="2" d="M1822.38,-309.56C1910.87,-296.06 2023.5,-277.23 2122.79,-255.56 2134.2,-253.07 2146.11,-250.21 2157.9,-247.22"/>
<polygon fill="black" stroke="black" stroke-width="2" points="2158.94,-250.57 2167.75,-244.69 2157.2,-243.79 2158.94,-250.57"/>
</g>
<!-- 18&#45;&gt;25 -->
<g id="edge130" class="edge">
<title>18&#45;&gt;25</title>
<path fill="none" stroke="black" stroke-width="0.55" d="M1627.58,-296.51C1611.85,-282.44 1593.82,-266.32 1578.36,-252.5"/>
<polygon fill="black" stroke="black" stroke-width="0.55" points="1580.33,-249.56 1570.54,-245.5 1575.66,-254.78 1580.33,-249.56"/>
</g>
<!-- 18&#45;&gt;26 -->
<g id="edge131" class="edge">
<title>18&#45;&gt;26</title>
<path fill="none" stroke="black" stroke-width="1.07" d="M1535.84,-304.84C1510.34,-300.07 1483.77,-295.4 1458.79,-291.56 1321.26,-270.4 1283.02,-288.32 1147.79,-255.56 1137.66,-253.11 1127.15,-249.88 1116.96,-246.37"/>
<polygon fill="black" stroke="black" stroke-width="1.07" points="1117.92,-242.99 1107.33,-242.93 1115.57,-249.58 1117.92,-242.99"/>
</g>
<!-- 18&#45;&gt;27 -->
<g id="edge132" class="edge">
<title>18&#45;&gt;27</title>
<path fill="none" stroke="black" stroke-width="0.72" d="M1763.91,-300.28C1817.21,-283.11 1882.53,-262.07 1933.02,-245.81"/>
<polygon fill="black" stroke="black" stroke-width="0.72" points="1934.15,-249.12 1942.59,-242.72 1932,-242.46 1934.15,-249.12"/>
</g>
<!-- 18&#45;&gt;29 -->
<g id="edge133" class="edge">
<title>18&#45;&gt;29</title>
<path fill="none" stroke="black" stroke-width="1.31" d="M1557.19,-301.84C1488.74,-283.26 1401.95,-259.72 1338.93,-242.62"/>
<polygon fill="black" stroke="black" stroke-width="1.31" points="1339.59,-239.17 1329.02,-239.93 1337.76,-245.93 1339.59,-239.17"/>
</g>
<!-- 32 -->
<g id="node32" class="node">
<title>32</title>
<ellipse fill="#3accbc" stroke="black" cx="2599.79" cy="-218.79" rx="111.03" ry="29.9"/>
<text text-anchor="middle" x="2599.79" y="-223.09" font-family="Times,serif" font-size="15.87">summer flounder</text>
<text text-anchor="middle" x="2599.79" y="-206.09" font-family="Times,serif" font-size="15.87">(4.43 gC.m²)</text>
</g>
<!-- 18&#45;&gt;32 -->
<g id="edge134" class="edge">
<title>18&#45;&gt;32</title>
<path fill="none" stroke="black" stroke-width="0.63" d="M1826.75,-310.51C1878.42,-304.02 1935.99,-297.13 1988.79,-291.56 2172.9,-272.14 2220.3,-280.21 2403.79,-255.56 2436.27,-251.2 2471.55,-245.16 2503.12,-239.29"/>
<polygon fill="black" stroke="black" stroke-width="0.63" points="2504.04,-242.68 2513.23,-237.4 2502.75,-235.8 2504.04,-242.68"/>
</g>
<!-- 18&#45;&gt;36 -->
<g id="edge135" class="edge">
<title>18&#45;&gt;36</title>
<path fill="none" stroke="black" stroke-width="2.32" d="M1663.89,-369.34C1660.76,-408.03 1655.76,-469.76 1652.38,-511.53"/>
<polygon fill="black" stroke="black" stroke-width="2.32" points="1648.88,-511.44 1651.56,-521.69 1655.85,-512.01 1648.88,-511.44"/>
</g>
<!-- 18&#45;&gt;39 -->
<g id="edge40" class="edge">
<title>18&#45;&gt;39</title>
<path fill="none" stroke="black" stroke-width="2.51" d="M1551.63,-302.45C1518.36,-290.95 1483.14,-275.59 1453.79,-255.56 1371.57,-199.46 1391.95,-138.13 1306.79,-86.62 1261.43,-59.19 1204.51,-44.24 1156.06,-36.09"/>
<polygon fill="black" stroke="black" stroke-width="2.51" points="1156.6,-32.63 1146.17,-34.5 1155.48,-39.54 1156.6,-32.63"/>
</g>
<!-- 19&#45;&gt;19 -->
<g id="edge136" class="edge">
<title>19&#45;&gt;19</title>
<path fill="none" stroke="black" stroke-width="1.74" d="M2361.26,-236.93C2381.12,-234.7 2395.12,-228.65 2395.12,-218.79 2395.12,-210.7 2385.7,-205.18 2371.35,-202.22"/>
<polygon fill="black" stroke="black" stroke-width="1.74" points="2371.68,-198.73 2361.26,-200.65 2370.6,-205.64 2371.68,-198.73"/>
</g>
<!-- 33 -->
<g id="node33" class="node">
<title>33</title>
<ellipse fill="#3accbc" stroke="black" cx="2817.79" cy="-116.32" rx="82.96" ry="29.9"/>
<text text-anchor="middle" x="2817.79" y="-120.63" font-family="Times,serif" font-size="15.87">striped bass</text>
<text text-anchor="middle" x="2817.79" y="-103.63" font-family="Times,serif" font-size="15.87">(4.40 gC.m²)</text>
</g>
<!-- 19&#45;&gt;33 -->
<g id="edge137" class="edge">
<title>19&#45;&gt;33</title>
<path fill="none" stroke="black" stroke-width="0.75" d="M2358.71,-199.24C2466.98,-179.92 2634.51,-150.03 2734.44,-132.19"/>
<polygon fill="black" stroke="black" stroke-width="0.75" points="2735.26,-135.6 2744.49,-130.4 2734.04,-128.71 2735.26,-135.6"/>
</g>
<!-- 19&#45;&gt;36 -->
<g id="edge138" class="edge">
<title>19&#45;&gt;36</title>
<path fill="none" stroke="black" stroke-width="2.14" d="M2327.49,-248.42C2344.92,-259.34 2361.21,-273.6 2370.79,-291.56 2387.94,-323.72 2389.13,-342.08 2370.79,-373.58 2319.87,-461.02 2268.65,-453.58 2172.79,-485.95 2069.99,-520.66 1950.14,-538.21 1851,-547.06"/>
<polygon fill="black" stroke="black" stroke-width="2.14" points="1850.52,-543.59 1840.86,-547.94 1851.13,-550.56 1850.52,-543.59"/>
</g>
<!-- 19&#45;&gt;38 -->
<g id="edge8" class="edge">
<title>19&#45;&gt;38</title>
<path fill="none" stroke="black" stroke-width="2.12" d="M2317.48,-187.16C2340.91,-175.07 2367.48,-160.61 2390.79,-146.02 2428.63,-122.34 2430.51,-103.64 2471.79,-86.62 2576.29,-43.54 2707.44,-30.78 2790.7,-27.25"/>
<polygon fill="black" stroke="black" stroke-width="2.12" points="2791.01,-30.74 2800.87,-26.85 2790.74,-23.74 2791.01,-30.74"/>
</g>
<!-- 19&#45;&gt;39 -->
<g id="edge41" class="edge">
<title>19&#45;&gt;39</title>
<path fill="none" stroke="black" stroke-width="2.38" d="M2195.16,-186.64C2132.1,-155.35 2028.79,-108.68 1933.79,-86.62 1791.52,-53.59 1373,-36.32 1168.25,-29.65"/>
<polygon fill="black" stroke="black" stroke-width="2.38" points="1168.17,-26.14 1158.07,-29.32 1167.95,-33.14 1168.17,-26.14"/>
</g>
<!-- 20&#45;&gt;36 -->
<g id="edge139" class="edge">
<title>20&#45;&gt;36</title>
<path fill="none" stroke="black" stroke-width="0.84" d="M1648.79,-636.21C1648.79,-625.9 1648.79,-613.9 1648.79,-602.44"/>
<polygon fill="black" stroke="black" stroke-width="0.84" points="1652.29,-602.14 1648.79,-592.14 1645.29,-602.14 1652.29,-602.14"/>
</g>
<!-- 20&#45;&gt;38 -->
<g id="edge9" class="edge">
<title>20&#45;&gt;38</title>
<path fill="none" stroke="black" stroke-width="0.65" d="M1720.9,-655.98C1953.3,-629.59 2676.67,-535.65 2835.79,-373.58 2914.08,-293.83 2918.42,-255.09 2942.79,-146.02 2948.54,-120.26 2953.79,-110.62 2942.79,-86.62 2937.46,-75 2928.66,-64.77 2919.08,-56.19"/>
<polygon fill="black" stroke="black" stroke-width="0.65" points="2921.19,-53.39 2911.27,-49.67 2916.7,-58.77 2921.19,-53.39"/>
</g>
<!-- 20&#45;&gt;39 -->
<g id="edge42" class="edge">
<title>20&#45;&gt;39</title>
<path fill="none" stroke="black" stroke-width="0.61" d="M1574.84,-658.3C1333.28,-638.86 575.35,-563.35 443.79,-373.58 407.45,-321.18 400.97,-133.88 443.79,-86.62 476.2,-50.84 769.67,-35.46 937.09,-29.56"/>
<polygon fill="black" stroke="black" stroke-width="0.61" points="937.32,-33.05 947.19,-29.21 937.08,-26.05 937.32,-33.05"/>
</g>
<!-- 21&#45;&gt;33 -->
<g id="edge140" class="edge">
<title>21&#45;&gt;33</title>
<path fill="none" stroke="black" stroke-width="0.54" d="M2919.81,-637.04C2931.54,-624.64 2943.64,-608.9 2949.79,-591.95 2980.87,-506.31 2992.6,-258.3 2942.79,-182.02 2930.45,-163.12 2910.74,-149.44 2890.59,-139.67"/>
<polygon fill="black" stroke="black" stroke-width="0.54" points="2891.88,-136.41 2881.33,-135.45 2888.98,-142.78 2891.88,-136.41"/>
</g>
<!-- 21&#45;&gt;36 -->
<g id="edge141" class="edge">
<title>21&#45;&gt;36</title>
<path fill="none" stroke="black" stroke-width="1.11" d="M2801.4,-643.66C2772.64,-637.78 2740.48,-631.88 2710.79,-627.95 2413.04,-588.56 2065.25,-570.97 1851,-563.38"/>
<polygon fill="black" stroke="black" stroke-width="1.11" points="1851.02,-559.88 1840.9,-563.02 1850.77,-566.87 1851.02,-559.88"/>
</g>
<!-- 21&#45;&gt;38 -->
<g id="edge10" class="edge">
<title>21&#45;&gt;38</title>
<path fill="none" stroke="black" stroke-width="0.86" d="M2925.39,-637.41C2940.7,-624.86 2957.98,-608.89 2970.79,-591.95 3113.01,-403.81 3279.51,-271.28 3132.79,-86.62 3109.93,-57.85 3015.59,-41.58 2947.12,-33.36"/>
<polygon fill="black" stroke="black" stroke-width="0.86" points="2947.13,-29.84 2936.79,-32.16 2946.32,-36.8 2947.13,-29.84"/>
</g>
<!-- 21&#45;&gt;39 -->
<g id="edge43" class="edge">
<title>21&#45;&gt;39</title>
<path fill="none" stroke="black" stroke-width="1.01" d="M2892.22,-636.37C2897.76,-557.06 2903.36,-323.65 2793.79,-182.02 2772.86,-154.97 2754.48,-164.62 2725.79,-146.02 2689.81,-122.7 2690.05,-101.35 2649.79,-86.62 2512.83,-36.54 1523.73,-28.04 1174.5,-26.6"/>
<polygon fill="black" stroke="black" stroke-width="1.01" points="1174.37,-23.1 1164.36,-26.56 1174.34,-30.1 1174.37,-23.1"/>
</g>
<!-- 22&#45;&gt;27 -->
<g id="edge142" class="edge">
<title>22&#45;&gt;27</title>
<path fill="none" stroke="black" stroke-width="1.12" d="M2386.35,-746.56C2402.37,-734.8 2418,-719.69 2426.79,-701.49 2490.01,-570.6 2455.67,-415.9 2312.79,-291.56 2248.28,-235.42 2206.61,-276.82 2123.79,-255.56 2113.51,-252.92 2102.79,-249.85 2092.25,-246.63"/>
<polygon fill="black" stroke="black" stroke-width="1.12" points="2093.22,-243.27 2082.64,-243.65 2091.15,-249.96 2093.22,-243.27"/>
</g>
<!-- 22&#45;&gt;28 -->
<g id="edge143" class="edge">
<title>22&#45;&gt;28</title>
<path fill="none" stroke="black" stroke-width="1.13" d="M2288.77,-744.78C2272.32,-732.17 2253.96,-716.96 2238.79,-701.49 2110.47,-570.65 2092.17,-524.9 1988.79,-373.58 1964.7,-338.33 1971.83,-318.59 1938.79,-291.56 1936.18,-289.43 1870.93,-265.96 1816.04,-246.43"/>
<polygon fill="black" stroke="black" stroke-width="1.13" points="1816.88,-243.01 1806.28,-242.96 1814.53,-249.61 1816.88,-243.01"/>
</g>
<!-- 30 -->
<g id="node30" class="node">
<title>30</title>
<ellipse fill="#3accbc" stroke="black" cx="2560.79" cy="-116.32" rx="79.81" ry="29.9"/>
<text text-anchor="middle" x="2560.79" y="-121.08" font-family="Times,serif" font-size="15.31">bluefish</text>
<text text-anchor="middle" x="2560.79" y="-104.08" font-family="Times,serif" font-size="15.31">(2.25 gC.m²)</text>
</g>
<!-- 22&#45;&gt;30 -->
<g id="edge144" class="edge">
<title>22&#45;&gt;30</title>
<path fill="none" stroke="black" stroke-width="0.8" d="M2407.85,-752.1C2437.23,-740.16 2469.8,-723.48 2494.79,-701.49 2523.73,-676.02 2516.7,-658.05 2540.79,-627.95 2641.18,-502.46 2735.9,-521.9 2797.79,-373.58 2831.46,-292.87 2816.6,-241.83 2752.79,-182.02 2735.35,-165.68 2682.36,-148.47 2636.46,-135.9"/>
<polygon fill="black" stroke="black" stroke-width="0.8" points="2637.35,-132.52 2626.79,-133.3 2635.53,-139.28 2637.35,-132.52"/>
</g>
<!-- 31 -->
<g id="node31" class="node">
<title>31</title>
<ellipse fill="#3accbc" stroke="black" cx="2332.79" cy="-664.72" rx="84.71" ry="31.23"/>
<text text-anchor="middle" x="2332.79" y="-669.76" font-family="Times,serif" font-size="16.20">weakfish</text>
<text text-anchor="middle" x="2332.79" y="-651.76" font-family="Times,serif" font-size="16.20">(6.30 gC.m²)</text>
</g>
<!-- 22&#45;&gt;31 -->
<g id="edge145" class="edge">
<title>22&#45;&gt;31</title>
<path fill="none" stroke="black" stroke-width="1.53" d="M2332.79,-741.47C2332.79,-730.34 2332.79,-717.9 2332.79,-706.38"/>
<polygon fill="black" stroke="black" stroke-width="1.53" points="2336.29,-706.11 2332.79,-696.11 2329.29,-706.11 2336.29,-706.11"/>
</g>
<!-- 22&#45;&gt;32 -->
<g id="edge146" class="edge">
<title>22&#45;&gt;32</title>
<path fill="none" stroke="black" stroke-width="1.09" d="M2394.52,-748.28C2416.9,-736.15 2441.21,-720.34 2459.79,-701.49 2474.48,-686.57 2640.44,-393.83 2645.79,-373.58 2655.09,-338.33 2656.04,-326.54 2645.79,-291.56 2642.17,-279.23 2635.72,-267.01 2628.77,-256.25"/>
<polygon fill="black" stroke="black" stroke-width="1.09" points="2631.65,-254.26 2623.14,-247.95 2625.86,-258.19 2631.65,-254.26"/>
</g>
<!-- 22&#45;&gt;33 -->
<g id="edge147" class="edge">
<title>22&#45;&gt;33</title>
<path fill="none" stroke="black" stroke-width="1.16" d="M2399.15,-749.5C2413.34,-744.75 2428.4,-740.4 2442.79,-737.49 2506.95,-724.53 2985.94,-749.17 3030.79,-701.49 3190.1,-532.13 3112.97,-364.43 2968.79,-182.02 2951.14,-159.7 2924.33,-144.95 2898.16,-135.26"/>
<polygon fill="black" stroke="black" stroke-width="1.16" points="2899.16,-131.91 2888.57,-131.92 2896.86,-138.52 2899.16,-131.91"/>
</g>
<!-- 22&#45;&gt;36 -->
<g id="edge148" class="edge">
<title>22&#45;&gt;36</title>
<path fill="none" stroke="black" stroke-width="2.1" d="M2257.63,-752.12C2138.55,-714.14 1905.64,-639.87 1764.95,-595"/>
<polygon fill="black" stroke="black" stroke-width="2.1" points="1765.99,-591.65 1755.4,-591.95 1763.86,-598.32 1765.99,-591.65"/>
</g>
<!-- 22&#45;&gt;38 -->
<g id="edge11" class="edge">
<title>22&#45;&gt;38</title>
<path fill="none" stroke="black" stroke-width="1.53" d="M2438.38,-775.31C2680.52,-772.54 3260,-759.8 3324.79,-701.49 3386.55,-645.89 3391.79,-416.68 3391.79,-333.57 3391.79,-333.57 3391.79,-333.57 3391.79,-217.79 3391.79,-156.3 3395.34,-125.61 3347.79,-86.62 3289.54,-38.87 3075.73,-28.5 2955.79,-26.52"/>
<polygon fill="black" stroke="black" stroke-width="1.53" points="2955.6,-23.02 2945.55,-26.37 2955.5,-30.02 2955.6,-23.02"/>
</g>
<!-- 22&#45;&gt;39 -->
<g id="edge44" class="edge">
<title>22&#45;&gt;39</title>
<path fill="none" stroke="black" stroke-width="1.99" d="M2231.29,-767.31C2084.05,-754.32 1802.69,-728.61 1563.79,-701.49 1319.53,-673.76 661.05,-650.9 478.79,-485.95 376.15,-393.07 406.44,-320.37 410.79,-182.02 412.12,-139.56 387.23,-117.14 416.79,-86.62 452.16,-50.11 763.1,-34.96 936.73,-29.3"/>
<polygon fill="black" stroke="black" stroke-width="1.99" points="937.06,-32.8 946.94,-28.98 936.84,-25.8 937.06,-32.8"/>
</g>
<!-- 23&#45;&gt;30 -->
<g id="edge149" class="edge">
<title>23&#45;&gt;30</title>
<path fill="none" stroke="black" stroke-width="0.79" d="M3199.45,-630.93C3153.92,-543.1 3016.51,-301.14 2828.79,-182.02 2798.18,-162.6 2709.96,-143.51 2643.03,-131.16"/>
<polygon fill="black" stroke="black" stroke-width="0.79" points="2643.37,-127.66 2632.9,-129.31 2642.11,-134.55 2643.37,-127.66"/>
</g>
<!-- 23&#45;&gt;32 -->
<g id="edge150" class="edge">
<title>23&#45;&gt;32</title>
<path fill="none" stroke="black" stroke-width="1" d="M3173.93,-633.56C3062.84,-553.5 2761.18,-336.1 2645.65,-252.84"/>
<polygon fill="black" stroke="black" stroke-width="1" points="2647.49,-249.85 2637.33,-246.85 2643.4,-255.53 2647.49,-249.85"/>
</g>
<!-- 23&#45;&gt;33 -->
<g id="edge151" class="edge">
<title>23&#45;&gt;33</title>
<path fill="none" stroke="black" stroke-width="1.06" d="M3219.1,-630.57C3225.92,-541.85 3230.86,-297.86 3094.79,-182.02 3066.38,-157.84 2975.04,-139.67 2904.93,-128.83"/>
<polygon fill="black" stroke="black" stroke-width="1.06" points="2905.16,-125.33 2894.75,-127.29 2904.11,-132.25 2905.16,-125.33"/>
</g>
<!-- 23&#45;&gt;36 -->
<g id="edge152" class="edge">
<title>23&#45;&gt;36</title>
<path fill="none" stroke="black" stroke-width="1.61" d="M3133.29,-645.2C3101.42,-638.72 3064.56,-632.05 3030.79,-627.95 2613.58,-577.31 2121.22,-563.19 1851.24,-559.33"/>
<polygon fill="black" stroke="black" stroke-width="1.61" points="1850.98,-555.82 1840.94,-559.18 1850.89,-562.82 1850.98,-555.82"/>
</g>
<!-- 23&#45;&gt;38 -->
<g id="edge12" class="edge">
<title>23&#45;&gt;38</title>
<path fill="none" stroke="black" stroke-width="0.99" d="M3235.42,-631.39C3242.05,-619.35 3248.98,-605.35 3253.79,-591.95 3292.08,-485.28 3397.42,-171.92 3322.79,-86.62 3298.62,-59 3071.39,-39.64 2949.39,-31.15"/>
<polygon fill="black" stroke="black" stroke-width="0.99" points="2949.57,-27.65 2939.36,-30.46 2949.09,-34.64 2949.57,-27.65"/>
</g>
<!-- 23&#45;&gt;39 -->
<g id="edge45" class="edge">
<title>23&#45;&gt;39</title>
<path fill="none" stroke="black" stroke-width="1.72" d="M3221.33,-630.74C3231.11,-564.1 3246.41,-409.65 3201.79,-291.56 3181.93,-239.02 3180.94,-219.13 3138.79,-182.02 3056.03,-109.17 3017.54,-109.99 2909.79,-86.62 2741.01,-50.01 1554.98,-32.45 1171.84,-27.68"/>
<polygon fill="black" stroke="black" stroke-width="1.72" points="1171.88,-24.18 1161.84,-27.56 1171.79,-31.18 1171.88,-24.18"/>
</g>
<!-- 24&#45;&gt;36 -->
<g id="edge153" class="edge">
<title>24&#45;&gt;36</title>
<path fill="none" stroke="black" stroke-width="0.8" d="M2560.14,-650.42C2521.45,-642.96 2471.49,-633.97 2426.79,-627.95 2232.14,-601.75 2008.74,-582.79 1851.41,-571.27"/>
<polygon fill="black" stroke="black" stroke-width="0.8" points="1851.38,-567.76 1841.15,-570.52 1850.87,-574.74 1851.38,-567.76"/>
</g>
<!-- 24&#45;&gt;38 -->
<g id="edge13" class="edge">
<title>24&#45;&gt;38</title>
<path fill="none" stroke="black" stroke-width="0.65" d="M2668.94,-641.4C2745.4,-599.58 2904.43,-501.92 2987.79,-373.58 3057.66,-266 3090.11,-193.25 3018.79,-86.62 3001.67,-61.03 2971.49,-46.29 2942.99,-37.8"/>
<polygon fill="black" stroke="black" stroke-width="0.65" points="2943.58,-34.33 2933.01,-35.05 2941.72,-41.08 2943.58,-34.33"/>
</g>
<!-- 24&#45;&gt;39 -->
<g id="edge46" class="edge">
<title>24&#45;&gt;39</title>
<path fill="none" stroke="black" stroke-width="0.72" d="M2621.55,-636.42C2607.32,-554.17 2553.37,-306.74 2403.79,-182.02 2395.59,-175.19 2042.32,-88.28 2031.79,-86.62 1726.01,-38.44 1360.86,-28.28 1174.83,-26.43"/>
<polygon fill="black" stroke="black" stroke-width="0.72" points="1174.78,-22.93 1164.75,-26.34 1174.71,-29.93 1174.78,-22.93"/>
</g>
<!-- 25&#45;&gt;36 -->
<g id="edge154" class="edge">
<title>25&#45;&gt;36</title>
<path fill="none" stroke="black" stroke-width="0.87" d="M1590.77,-241.16C1604.49,-246.5 1619.54,-251.78 1633.79,-255.56 1686.12,-269.46 1839.44,-250.54 1874.79,-291.56 1943.55,-371.36 1813.66,-465.17 1723.92,-516.84"/>
<polygon fill="black" stroke="black" stroke-width="0.87" points="1722.06,-513.87 1715.1,-521.86 1725.52,-519.96 1722.06,-513.87"/>
</g>
<!-- 25&#45;&gt;38 -->
<g id="edge14" class="edge">
<title>25&#45;&gt;38</title>
<path fill="none" stroke="black" stroke-width="0.69" d="M1591.92,-196.71C1605.37,-191.49 1620.01,-186.2 1633.79,-182.02 1820.68,-125.27 1869.56,-115.15 2062.79,-86.62 2328.27,-47.43 2646.67,-33.18 2792.59,-28.45"/>
<polygon fill="black" stroke="black" stroke-width="0.69" points="2792.91,-31.94 2802.8,-28.12 2792.69,-24.94 2792.91,-31.94"/>
</g>
<!-- 25&#45;&gt;39 -->
<g id="edge47" class="edge">
<title>25&#45;&gt;39</title>
<path fill="none" stroke="black" stroke-width="0.79" d="M1528.92,-190.67C1512.85,-160.02 1482.34,-111.22 1440.79,-86.62 1394.47,-59.21 1257.66,-42.67 1159.62,-34.02"/>
<polygon fill="black" stroke="black" stroke-width="0.79" points="1159.63,-30.5 1149.36,-33.13 1159.02,-37.48 1159.63,-30.5"/>
</g>
<!-- 26&#45;&gt;36 -->
<g id="edge155" class="edge">
<title>26&#45;&gt;36</title>
<path fill="none" stroke="black" stroke-width="1.35" d="M972.68,-230.51C935.14,-239.99 893.72,-257.86 870.79,-291.56 821.05,-364.63 842.63,-432.18 912.79,-485.95 933.88,-502.12 1235.88,-526.68 1446.4,-541.99"/>
<polygon fill="black" stroke="black" stroke-width="1.35" points="1446.44,-545.5 1456.66,-542.74 1446.94,-538.52 1446.44,-545.5"/>
</g>
<!-- 26&#45;&gt;38 -->
<g id="edge15" class="edge">
<title>26&#45;&gt;38</title>
<path fill="none" stroke="black" stroke-width="1.08" d="M1109.46,-195.33C1122,-190.68 1135.27,-185.99 1147.79,-182.02 1308.43,-131.06 1348.13,-111.7 1514.79,-86.62 1763.24,-49.24 2537.83,-32.32 2791.48,-27.68"/>
<polygon fill="black" stroke="black" stroke-width="1.08" points="2791.79,-31.18 2801.72,-27.5 2791.66,-24.18 2791.79,-31.18"/>
</g>
<!-- 26&#45;&gt;39 -->
<g id="edge48" class="edge">
<title>26&#45;&gt;39</title>
<path fill="none" stroke="black" stroke-width="1.25" d="M1052.79,-187.45C1052.79,-152.9 1052.79,-96.58 1052.79,-60.5"/>
<polygon fill="black" stroke="black" stroke-width="1.25" points="1056.29,-60.45 1052.79,-50.45 1049.29,-60.45 1056.29,-60.45"/>
</g>
<!-- 27&#45;&gt;30 -->
<g id="edge156" class="edge">
<title>27&#45;&gt;30</title>
<path fill="none" stroke="black" stroke-width="1.01" d="M2081.61,-193.62C2095.44,-189.29 2109.98,-185.17 2123.79,-182.02 2240.53,-155.4 2272.4,-163.99 2390.79,-146.02 2419.65,-141.64 2451.19,-136.43 2479.18,-131.66"/>
<polygon fill="black" stroke="black" stroke-width="1.01" points="2480.06,-135.06 2489.32,-129.93 2478.88,-128.16 2480.06,-135.06"/>
</g>
<!-- 27&#45;&gt;36 -->
<g id="edge157" class="edge">
<title>27&#45;&gt;36</title>
<path fill="none" stroke="black" stroke-width="1.71" d="M2083,-243.48C2096.45,-247.75 2110.5,-251.98 2123.79,-255.56 2197.1,-275.32 2243.09,-232.48 2290.79,-291.56 2313.69,-319.92 2311.13,-343.33 2290.79,-373.58 2241.13,-447.41 2020.03,-498.28 1851.04,-527.18"/>
<polygon fill="black" stroke="black" stroke-width="1.71" points="1850.28,-523.76 1841.01,-528.88 1851.45,-530.66 1850.28,-523.76"/>
</g>
<!-- 27&#45;&gt;38 -->
<g id="edge16" class="edge">
<title>27&#45;&gt;38</title>
<path fill="none" stroke="black" stroke-width="1.41" d="M2081.96,-193.77C2095.7,-189.45 2110.12,-185.3 2123.79,-182.02 2223.98,-158.01 2266.54,-202.38 2352.79,-146.02 2379.02,-128.88 2364.29,-103.35 2390.79,-86.62 2455.75,-45.62 2672.37,-32.43 2791.89,-28.23"/>
<polygon fill="black" stroke="black" stroke-width="1.41" points="2792.21,-31.73 2802.08,-27.89 2791.97,-24.73 2792.21,-31.73"/>
</g>
<!-- 27&#45;&gt;39 -->
<g id="edge49" class="edge">
<title>27&#45;&gt;39</title>
<path fill="none" stroke="black" stroke-width="1.6" d="M1992.31,-185.62C1969.32,-154.22 1929.75,-108.12 1882.79,-86.62 1819.37,-57.59 1379.44,-38.04 1167.04,-30.19"/>
<polygon fill="black" stroke="black" stroke-width="1.6" points="1166.91,-26.68 1156.79,-29.81 1166.65,-33.68 1166.91,-26.68"/>
</g>
<!-- 28&#45;&gt;36 -->
<g id="edge158" class="edge">
<title>28&#45;&gt;36</title>
<path fill="none" stroke="black" stroke-width="1.45" d="M1811.4,-241.44C1851.62,-255.35 1896.24,-274.03 1907.79,-291.56 1955.31,-363.71 1960.31,-417.35 1907.79,-485.95 1897.98,-498.76 1874.53,-509.76 1845.52,-518.99"/>
<polygon fill="black" stroke="black" stroke-width="1.45" points="1844.46,-515.66 1835.92,-521.93 1846.51,-522.35 1844.46,-515.66"/>
</g>
<!-- 28&#45;&gt;38 -->
<g id="edge17" class="edge">
<title>28&#45;&gt;38</title>
<path fill="none" stroke="black" stroke-width="1.18" d="M1821.26,-200.15C1847.85,-194.35 1877.58,-187.88 1904.79,-182.02 2103.79,-139.13 2151.9,-119.59 2352.79,-86.62 2510.37,-60.76 2696.62,-41.99 2797.93,-32.76"/>
<polygon fill="black" stroke="black" stroke-width="1.18" points="2798.42,-36.23 2808.07,-31.84 2797.79,-29.26 2798.42,-36.23"/>
</g>
<!-- 28&#45;&gt;39 -->
<g id="edge50" class="edge">
<title>28&#45;&gt;39</title>
<path fill="none" stroke="black" stroke-width="1.34" d="M1696.97,-189.54C1647.5,-159.05 1563.59,-111.53 1484.79,-86.62 1379.1,-53.22 1253.06,-38.3 1164.48,-31.64"/>
<polygon fill="black" stroke="black" stroke-width="1.34" points="1164.63,-28.15 1154.41,-30.91 1164.13,-35.13 1164.63,-28.15"/>
</g>
<!-- 29&#45;&gt;36 -->
<g id="edge159" class="edge">
<title>29&#45;&gt;36</title>
<path fill="none" stroke="black" stroke-width="1.53" d="M1190.55,-243.38C1176.59,-247.91 1161.8,-252.26 1147.79,-255.56 1091.65,-268.76 928.63,-248.04 890.79,-291.56 866.86,-319.07 872.95,-341.79 890.79,-373.58 937.67,-457.15 984.29,-454.47 1074.79,-485.95 1193.98,-527.42 1334.52,-545.04 1446.7,-552.23"/>
<polygon fill="black" stroke="black" stroke-width="1.53" points="1446.58,-555.73 1456.78,-552.86 1447.01,-548.75 1446.58,-555.73"/>
</g>
<!-- 29&#45;&gt;38 -->
<g id="edge18" class="edge">
<title>29&#45;&gt;38</title>
<path fill="none" stroke="black" stroke-width="1.26" d="M1327.78,-196.9C1446.44,-163.28 1676.32,-99.59 1759.79,-86.62 1959.08,-55.66 2571.71,-35.13 2792.45,-28.58"/>
<polygon fill="black" stroke="black" stroke-width="1.26" points="2792.77,-32.07 2802.67,-28.28 2792.57,-25.07 2792.77,-32.07"/>
</g>
<!-- 29&#45;&gt;39 -->
<g id="edge51" class="edge">
<title>29&#45;&gt;39</title>
<path fill="none" stroke="black" stroke-width="1.42" d="M1223.22,-187.87C1185.77,-152.37 1123.64,-93.47 1085.63,-57.45"/>
<polygon fill="black" stroke="black" stroke-width="1.42" points="1088.03,-54.9 1078.37,-50.56 1083.22,-59.98 1088.03,-54.9"/>
</g>
<!-- 30&#45;&gt;36 -->
<g id="edge160" class="edge">
<title>30&#45;&gt;36</title>
<path fill="none" stroke="black" stroke-width="0.96" d="M2522.09,-142.48C2507.48,-153.35 2491.57,-167.02 2479.79,-182.02 2421.79,-255.84 2445.68,-297.42 2390.79,-373.58 2348.26,-432.6 2337.77,-455.34 2271.79,-485.95 2199.08,-519.67 2003.86,-537.76 1851.14,-547.04"/>
<polygon fill="black" stroke="black" stroke-width="0.96" points="1850.92,-543.55 1841.14,-547.64 1851.33,-550.54 1850.92,-543.55"/>
</g>
<!-- 30&#45;&gt;38 -->
<g id="edge19" class="edge">
<title>30&#45;&gt;38</title>
<path fill="none" stroke="black" stroke-width="0.77" d="M2620.89,-96.71C2632.14,-93.3 2643.81,-89.82 2654.79,-86.62 2707.26,-71.36 2767.1,-54.87 2810.8,-42.99"/>
<polygon fill="black" stroke="black" stroke-width="0.77" points="2811.97,-46.3 2820.7,-40.31 2810.13,-39.55 2811.97,-46.3"/>
</g>
<!-- 30&#45;&gt;39 -->
<g id="edge52" class="edge">
<title>30&#45;&gt;39</title>
<path fill="none" stroke="black" stroke-width="0.9" d="M2495.71,-98.87C2474.5,-94.13 2450.76,-89.47 2428.79,-86.62 2186.86,-55.25 1456.46,-35.58 1169.93,-28.88"/>
<polygon fill="black" stroke="black" stroke-width="0.9" points="1169.59,-25.37 1159.51,-28.64 1169.43,-32.37 1169.59,-25.37"/>
</g>
<!-- 31&#45;&gt;32 -->
<g id="edge161" class="edge">
<title>31&#45;&gt;32</title>
<path fill="none" stroke="black" stroke-width="0.88" d="M2363.89,-635.33C2414.93,-586.87 2515.97,-482.81 2567.79,-373.58 2585.17,-336.95 2593.15,-290.98 2596.79,-258.89"/>
<polygon fill="black" stroke="black" stroke-width="0.88" points="2600.31,-258.88 2597.87,-248.57 2593.35,-258.15 2600.31,-258.88"/>
</g>
<!-- 31&#45;&gt;36 -->
<g id="edge162" class="edge">
<title>31&#45;&gt;36</title>
<path fill="none" stroke="black" stroke-width="1.39" d="M2255.32,-651.74C2157.82,-636.66 1986.68,-610.2 1851,-589.22"/>
<polygon fill="black" stroke="black" stroke-width="1.39" points="1851.3,-585.72 1840.88,-587.65 1850.23,-592.64 1851.3,-585.72"/>
</g>
<!-- 31&#45;&gt;38 -->
<g id="edge20" class="edge">
<title>31&#45;&gt;38</title>
<path fill="none" stroke="black" stroke-width="1" d="M2403.78,-647.62C2495.26,-626.84 2642.97,-593.2 2645.79,-591.95 2664.61,-583.61 2781.95,-499.11 2797.79,-485.95 2852.49,-440.47 2868.12,-429.75 2911.79,-373.58 2992.3,-270.02 3047.18,-199.75 2980.79,-86.62 2970,-68.24 2951.34,-55.04 2932.53,-45.78"/>
<polygon fill="black" stroke="black" stroke-width="1" points="2933.87,-42.54 2923.33,-41.54 2930.95,-48.9 2933.87,-42.54"/>
</g>
<!-- 31&#45;&gt;39 -->
<g id="edge53" class="edge">
<title>31&#45;&gt;39</title>
<path fill="none" stroke="black" stroke-width="1.28" d="M2249.3,-659.03C2092.09,-649.75 1741.5,-626.84 1447.79,-591.95 1145.79,-556.08 1065.7,-564.06 771.79,-485.95 763.31,-483.7 481.76,-380.8 476.79,-373.58 375.8,-227.06 627.08,-115.51 683.79,-86.62 729.2,-63.49 857.74,-46.04 950.33,-36.01"/>
<polygon fill="black" stroke="black" stroke-width="1.28" points="950.74,-39.49 960.31,-34.94 949.99,-32.53 950.74,-39.49"/>
</g>
<!-- 32&#45;&gt;36 -->
<g id="edge163" class="edge">
<title>32&#45;&gt;36</title>
<path fill="none" stroke="black" stroke-width="1.1" d="M2591.98,-248.54C2582.03,-281.35 2562.35,-335.41 2531.79,-373.58 2479.27,-439.16 2458.23,-455.88 2379.79,-485.95 2286.54,-521.69 2033.66,-539.9 1851.45,-548.66"/>
<polygon fill="black" stroke="black" stroke-width="1.1" points="1851.01,-545.17 1841.19,-549.14 1851.34,-552.16 1851.01,-545.17"/>
</g>
<!-- 32&#45;&gt;38 -->
<g id="edge21" class="edge">
<title>32&#45;&gt;38</title>
<path fill="none" stroke="black" stroke-width="0.87" d="M2620.95,-189.63C2644.03,-160.56 2683.36,-115.49 2725.79,-86.62 2752.1,-68.72 2784.56,-54.7 2812.28,-44.7"/>
<polygon fill="black" stroke="black" stroke-width="0.87" points="2813.6,-47.95 2821.87,-41.33 2811.28,-41.35 2813.6,-47.95"/>
</g>
<!-- 32&#45;&gt;39 -->
<g id="edge54" class="edge">
<title>32&#45;&gt;39</title>
<path fill="none" stroke="black" stroke-width="1.01" d="M2531.9,-195.2C2493.12,-181.83 2443.81,-164.03 2400.79,-146.02 2344.42,-122.42 2336.02,-101.62 2276.79,-86.62 2071.12,-34.55 1443.04,-27.01 1175.53,-26.22"/>
<polygon fill="black" stroke="black" stroke-width="1.01" points="1175.4,-22.72 1165.39,-26.19 1175.38,-29.72 1175.4,-22.72"/>
</g>
<!-- 33&#45;&gt;36 -->
<g id="edge164" class="edge">
<title>33&#45;&gt;36</title>
<path fill="none" stroke="black" stroke-width="1.14" d="M2801.24,-145.49C2756.46,-218.58 2624.63,-413.67 2453.79,-485.95 2399.67,-508.85 2071.56,-531.76 1851.29,-544.86"/>
<polygon fill="black" stroke="black" stroke-width="1.14" points="1850.99,-541.37 1841.21,-545.45 1851.4,-548.36 1850.99,-541.37"/>
</g>
<!-- 33&#45;&gt;38 -->
<g id="edge22" class="edge">
<title>33&#45;&gt;38</title>
<path fill="none" stroke="black" stroke-width="0.89" d="M2835.19,-87.16C2840.67,-78.28 2846.78,-68.4 2852.45,-59.22"/>
<polygon fill="black" stroke="black" stroke-width="0.89" points="2855.44,-61.04 2857.72,-50.69 2849.49,-57.36 2855.44,-61.04"/>
</g>
<!-- 33&#45;&gt;39 -->
<g id="edge55" class="edge">
<title>33&#45;&gt;39</title>
<path fill="none" stroke="black" stroke-width="1.04" d="M2759.09,-95.39C2746.58,-91.87 2733.35,-88.68 2720.79,-86.62 2422.96,-37.98 1505.65,-28.57 1174.01,-26.75"/>
<polygon fill="black" stroke="black" stroke-width="1.04" points="1173.91,-23.25 1163.89,-26.69 1173.87,-30.25 1173.91,-23.25"/>
</g>
<!-- 34&#45;&gt;5 -->
<g id="edge165" class="edge">
<title>34&#45;&gt;5</title>
<path fill="none" stroke="black" stroke-width="3.22" d="M596.59,-1686.92C595.51,-1678.9 594.33,-1670.1 593.17,-1661.47"/>
<polygon fill="black" stroke="black" stroke-width="3.22" points="596.62,-1660.92 591.82,-1651.48 589.69,-1661.85 596.62,-1660.92"/>
</g>
<!-- 35&#45;&gt;2 -->
<g id="edge166" class="edge">
<title>35&#45;&gt;2</title>
<path fill="none" stroke="black" stroke-width="2.84" d="M980.19,-959.39C1009.06,-948.08 1043.01,-935.02 1074.17,-923.25"/>
<polygon fill="black" stroke="black" stroke-width="2.84" points="1075.61,-926.44 1083.74,-919.64 1073.14,-919.89 1075.61,-926.44"/>
</g>
<!-- 35&#45;&gt;7 -->
<g id="edge167" class="edge">
<title>35&#45;&gt;7</title>
<path fill="none" stroke="black" stroke-width="2.75" d="M866.25,-1019.46C852.85,-1029.25 839.26,-1041.33 829.79,-1055.4 760.8,-1157.87 815.66,-1213.28 763.79,-1325.39 759.14,-1335.44 752.99,-1345.51 746.36,-1354.79"/>
<polygon fill="black" stroke="black" stroke-width="2.75" points="743.35,-1352.98 740.16,-1363.08 748.95,-1357.17 743.35,-1352.98"/>
</g>
<!-- 35&#45;&gt;8 -->
<g id="edge168" class="edge">
<title>35&#45;&gt;8</title>
<path fill="none" stroke="black" stroke-width="2.9" d="M970.53,-1019.58C984.97,-1029.51 999.23,-1041.63 1009.79,-1055.4 1056.22,-1115.93 1010.73,-1168.8 1070.79,-1215.85 1138.93,-1269.23 1371.99,-1283.43 1520.56,-1286.9"/>
<polygon fill="black" stroke="black" stroke-width="2.9" points="1520.59,-1290.4 1530.67,-1287.12 1520.75,-1283.4 1520.59,-1290.4"/>
</g>
<!-- 35&#45;&gt;9 -->
<g id="edge169" class="edge">
<title>35&#45;&gt;9</title>
<path fill="none" stroke="black" stroke-width="2.33" d="M1001.25,-1019.47C1023.5,-1029.17 1046.44,-1041.19 1065.79,-1055.4 1098.81,-1079.64 1129.08,-1115.12 1148.35,-1142.41"/>
<polygon fill="black" stroke="black" stroke-width="2.33" points="1145.67,-1144.69 1154.21,-1150.96 1151.44,-1140.73 1145.67,-1144.69"/>
</g>
<!-- 35&#45;&gt;11 -->
<g id="edge170" class="edge">
<title>35&#45;&gt;11</title>
<path fill="none" stroke="black" stroke-width="2.27" d="M916.85,-959.35C924.63,-928.91 940.96,-881.56 971.79,-852.69 990.79,-834.88 1014.44,-821.23 1038.74,-810.8"/>
<polygon fill="black" stroke="black" stroke-width="2.27" points="1040.16,-814 1048.07,-806.95 1037.49,-807.52 1040.16,-814"/>
</g>
<!-- 35&#45;&gt;12 -->
<g id="edge171" class="edge">
<title>35&#45;&gt;12</title>
<path fill="none" stroke="black" stroke-width="2.14" d="M744.66,-959.36C662.62,-935.68 570.9,-893.06 521.79,-816.69 502.75,-787.08 501.58,-766.31 521.79,-737.49 528.7,-727.63 580.92,-708.92 629.99,-693.07"/>
<polygon fill="black" stroke="black" stroke-width="2.14" points="631.29,-696.33 639.74,-689.94 629.15,-689.66 631.29,-696.33"/>
</g>
<!-- 35&#45;&gt;13 -->
<g id="edge172" class="edge">
<title>35&#45;&gt;13</title>
<path fill="none" stroke="black" stroke-width="2.29" d="M877.25,-959.37C836.06,-923.72 765.79,-862.91 718.11,-821.64"/>
<polygon fill="black" stroke="black" stroke-width="2.29" points="720.22,-818.84 710.37,-814.94 715.64,-824.13 720.22,-818.84"/>
</g>
<!-- 35&#45;&gt;22 -->
<g id="edge173" class="edge">
<title>35&#45;&gt;22</title>
<path fill="none" stroke="black" stroke-width="1.79" d="M1077.97,-964.95C1164.5,-952.73 1271.84,-937.44 1367.79,-923.4 1680.85,-877.56 2050.69,-821.27 2227.87,-794.17"/>
<polygon fill="black" stroke="black" stroke-width="1.79" points="2228.62,-797.6 2237.97,-792.63 2227.56,-790.68 2228.62,-797.6"/>
</g>
<!-- 35&#45;&gt;23 -->
<g id="edge174" class="edge">
<title>35&#45;&gt;23</title>
<path fill="none" stroke="black" stroke-width="1.56" d="M1077.8,-986.09C1390.61,-978.66 2084.46,-947.46 2651.79,-816.69 2751.42,-793.72 2768.77,-762.99 2867.79,-737.49 2969.69,-711.25 2999.29,-725.31 3101.79,-701.49 3113.15,-698.85 3125.03,-695.64 3136.64,-692.24"/>
<polygon fill="black" stroke="black" stroke-width="1.56" points="3137.73,-695.57 3146.31,-689.35 3135.73,-688.86 3137.73,-695.57"/>
</g>
<!-- 35&#45;&gt;36 -->
<g id="edge175" class="edge">
<title>35&#45;&gt;36</title>
<path fill="none" stroke="black" stroke-width="3.33" d="M908.01,-959.38C904.75,-907.33 906.03,-797.87 965.79,-737.49 1032.87,-669.71 1270.62,-618.01 1446.85,-587.88"/>
<polygon fill="black" stroke="black" stroke-width="3.33" points="1447.51,-591.32 1456.78,-586.19 1446.33,-584.41 1447.51,-591.32"/>
</g>
<!-- 36&#45;&gt;3 -->
<g id="edge176" class="edge">
<title>36&#45;&gt;3</title>
<path fill="none" stroke="black" stroke-width="3.5" d="M1546.16,-521.89C1512.92,-510.31 1476.18,-497.33 1443.32,-485.55"/>
<polygon fill="black" stroke="black" stroke-width="3.5" points="1444.3,-482.18 1433.71,-482.1 1441.94,-488.77 1444.3,-482.18"/>
</g>
<!-- 36&#45;&gt;19 -->
<g id="edge177" class="edge">
<title>36&#45;&gt;19</title>
<path fill="none" stroke="black" stroke-width="2.13" d="M1840.95,-546.49C1937.11,-537.47 2054.12,-519.94 2154.79,-485.95 2250.65,-453.58 2301.87,-461.02 2352.79,-373.58 2371.13,-342.08 2369.94,-323.72 2352.79,-291.56 2345.53,-277.96 2334.43,-266.48 2322.26,-256.97"/>
<polygon fill="black" stroke="black" stroke-width="2.13" points="2324.26,-254.1 2314.13,-251 2320.12,-259.74 2324.26,-254.1"/>
</g>
<!-- 37 -->
<g id="node37" class="node">
<title>37</title>
<polygon fill="white" stroke="black" points="808.13,-1930.51 777.96,-1955.64 717.62,-1955.64 687.44,-1930.51 717.62,-1905.39 777.96,-1905.39 808.13,-1930.51"/>
<text text-anchor="middle" x="747.79" y="-1925.21" font-family="Times,serif" font-size="21.00">Input</text>
</g>
<!-- 37&#45;&gt;1 -->
<g id="edge1" class="edge">
<title>37&#45;&gt;1</title>
<path fill="none" stroke="black" stroke-width="3.46" d="M787.25,-1912.94C817.08,-1900.43 859.21,-1882.74 897.07,-1866.85"/>
<polygon fill="black" stroke="black" stroke-width="3.46" points="898.73,-1869.94 906.6,-1862.85 896.02,-1863.49 898.73,-1869.94"/>
</g>
<!-- 37&#45;&gt;4 -->
<g id="edge2" class="edge">
<title>37&#45;&gt;4</title>
<path fill="none" stroke="black" stroke-width="3.03" d="M696.63,-1922.71C552.55,-1902.14 153.79,-1834.85 153.79,-1720.18 153.79,-1720.18 153.79,-1720.18 153.79,-887.04 153.79,-784.09 268.92,-724.16 357.94,-693.22"/>
<polygon fill="black" stroke="black" stroke-width="3.03" points="359.22,-696.48 367.56,-689.95 356.97,-689.85 359.22,-696.48"/>
</g>
<!-- 37&#45;&gt;34 -->
<g id="edge3" class="edge">
<title>37&#45;&gt;34</title>
<path fill="none" stroke="black" stroke-width="3.1" d="M730.64,-1905.09C705.5,-1869.29 658.39,-1802.21 628.36,-1759.44"/>
<polygon fill="black" stroke="black" stroke-width="3.1" points="631.2,-1757.4 622.59,-1751.23 625.47,-1761.42 631.2,-1757.4"/>
</g>
<!-- 37&#45;&gt;35 -->
<g id="edge4" class="edge">
<title>37&#45;&gt;35</title>
<path fill="none" stroke="black" stroke-width="3.23" d="M760.99,-1905.21C799.79,-1831.44 910.79,-1602.64 910.79,-1399.16 910.79,-1399.16 910.79,-1399.16 910.79,-1182.32 910.79,-1129.63 910.79,-1068.8 910.79,-1030"/>
<polygon fill="black" stroke="black" stroke-width="3.23" points="914.29,-1029.66 910.79,-1019.66 907.29,-1029.66 914.29,-1029.66"/>
</g>
</g>
</svg>
