<?xml version="1.0" encoding="UTF-8" standalone="no"?>
<!DOCTYPE svg PUBLIC "-//W3C//DTD SVG 1.1//EN"
 "http://www.w3.org/Graphics/SVG/1.1/DTD/svg11.dtd">
<!-- Generated by graphviz version 2.43.0 (0)
 -->
<!-- Title: chesapeake Pages: 1 -->
<svg width="3647pt" height="1808pt"
 viewBox="0.00 0.00 3647.29 1808.00" xmlns="http://www.w3.org/2000/svg" xmlns:xlink="http://www.w3.org/1999/xlink">
<g id="graph0" class="graph" transform="scale(1 1) rotate(0) translate(4 1804)">
<title>chesapeake</title>
<polygon fill="white" stroke="transparent" points="-4,4 -4,-1804 3643.29,-1804 3643.29,4 -4,4"/>
<!-- 1 -->
<g id="node1" class="node">
<title>1</title>
<ellipse fill="#3accbc" stroke="black" cx="1045.29" cy="-1692.5" rx="177.5" ry="35.5"/>
<text text-anchor="middle" x="1045.29" y="-1699.07" font-family="Times,serif" font-size="23.04">phytoplankton</text>
<text text-anchor="middle" x="1045.29" y="-1674.07" font-family="Times,serif" font-size="23.04">(3480.00 gC.m²)</text>
</g>
<!-- 7 -->
<g id="node7" class="node">
<title>7</title>
<ellipse fill="#3accbc" stroke="black" cx="744.29" cy="-1286" rx="151" ry="30"/>
<text text-anchor="middle" x="744.29" y="-1292.36" font-family="Times,serif" font-size="19.55">ciliates</text>
<text text-anchor="middle" x="744.29" y="-1270.36" font-family="Times,serif" font-size="19.55">(148.75 gC.m²)</text>
</g>
<!-- 1&#45;&gt;7 -->
<g id="edge56" class="edge">
<title>1&#45;&gt;7</title>
<path fill="none" stroke="black" stroke-width="2.84" d="M1025.95,-1656.8C998.21,-1607.91 944.58,-1516.63 891.29,-1444 859.4,-1400.55 849.37,-1391.11 812.29,-1352 802.97,-1342.18 792.56,-1331.9 782.74,-1322.5"/>
<polygon fill="black" stroke="black" stroke-width="2.84" points="785.04,-1319.85 775.38,-1315.5 780.22,-1324.92 785.04,-1319.85"/>
</g>
<!-- 8 -->
<g id="node8" class="node">
<title>8</title>
<ellipse fill="#3accbc" stroke="black" cx="1797.29" cy="-1189.5" rx="153" ry="30.5"/>
<text text-anchor="middle" x="1797.29" y="-1195.61" font-family="Times,serif" font-size="19.87">zooplankton</text>
<text text-anchor="middle" x="1797.29" y="-1173.61" font-family="Times,serif" font-size="19.87">(197.50 gC.m²)</text>
</g>
<!-- 1&#45;&gt;8 -->
<g id="edge57" class="edge">
<title>1&#45;&gt;8</title>
<path fill="none" stroke="black" stroke-width="2.88" d="M1220.5,-1686.45C1367.45,-1679.33 1563.67,-1662.19 1630.29,-1621 1695.5,-1580.68 1725.29,-1553.67 1725.29,-1477 1725.29,-1477 1725.29,-1477 1725.29,-1379 1725.29,-1324.1 1752.27,-1265.77 1773.2,-1228.79"/>
<polygon fill="black" stroke="black" stroke-width="2.88" points="1776.39,-1230.27 1778.37,-1219.86 1770.33,-1226.76 1776.39,-1230.27"/>
</g>
<!-- 11 -->
<g id="node11" class="node">
<title>11</title>
<ellipse fill="#3accbc" stroke="black" cx="1207.29" cy="-713.5" rx="158.5" ry="31.5"/>
<text text-anchor="middle" x="1207.29" y="-720.07" font-family="Times,serif" font-size="20.54">other suspension feeders</text>
<text text-anchor="middle" x="1207.29" y="-697.07" font-family="Times,serif" font-size="20.54">(363.75 gC.m²)</text>
</g>
<!-- 1&#45;&gt;11 -->
<g id="edge58" class="edge">
<title>1&#45;&gt;11</title>
<path fill="none" stroke="black" stroke-width="2.39" d="M1178.44,-1668.91C1347.17,-1636.44 1616.29,-1570.06 1616.29,-1477 1616.29,-1477 1616.29,-1477 1616.29,-1009.5 1616.29,-860.43 1435.36,-779.16 1314.18,-741.44"/>
<polygon fill="black" stroke="black" stroke-width="2.39" points="1315.06,-738.05 1304.47,-738.47 1313.01,-744.74 1315.06,-738.05"/>
</g>
<!-- 12 -->
<g id="node12" class="node">
<title>12</title>
<ellipse fill="#3accbc" stroke="black" cx="767.29" cy="-613.5" rx="148.5" ry="29.5"/>
<text text-anchor="middle" x="767.29" y="-619.12" font-family="Times,serif" font-size="19.22">mya arenaria</text>
<text text-anchor="middle" x="767.29" y="-598.12" font-family="Times,serif" font-size="19.22">(110.00 gC.m²)</text>
</g>
<!-- 1&#45;&gt;12 -->
<g id="edge59" class="edge">
<title>1&#45;&gt;12</title>
<path fill="none" stroke="black" stroke-width="2.25" d="M876.61,-1681.36C719.22,-1670.33 496.67,-1650.26 414.29,-1621 302.76,-1581.39 190.29,-1595.35 190.29,-1477 190.29,-1477 190.29,-1477 190.29,-1379 190.29,-1249.41 266.29,-1227.09 266.29,-1097.5 266.29,-1097.5 266.29,-1097.5 266.29,-811 266.29,-728.92 502.31,-666.94 650.36,-636.14"/>
<polygon fill="black" stroke="black" stroke-width="2.25" points="651.34,-639.51 660.42,-634.06 649.92,-632.66 651.34,-639.51"/>
</g>
<!-- 13 -->
<g id="node13" class="node">
<title>13</title>
<ellipse fill="#3accbc" stroke="black" cx="710.29" cy="-713.5" rx="168" ry="33.5"/>
<text text-anchor="middle" x="710.29" y="-720.09" font-family="Times,serif" font-size="21.76">oysters</text>
<text text-anchor="middle" x="710.29" y="-696.09" font-family="Times,serif" font-size="21.76">(1100.00 gC.m²)</text>
</g>
<!-- 1&#45;&gt;13 -->
<g id="edge60" class="edge">
<title>1&#45;&gt;13</title>
<path fill="none" stroke="black" stroke-width="2.4" d="M999.47,-1658.01C985.14,-1646.81 969.6,-1633.88 956.29,-1621 843.64,-1512.03 861.37,-1434.76 728.29,-1352 672.27,-1317.16 634.97,-1358.23 584.29,-1316 537.22,-1276.78 527.29,-1251.76 527.29,-1190.5 527.29,-1190.5 527.29,-1190.5 527.29,-1009.5 527.29,-904.45 612.12,-805.69 666.27,-753.36"/>
<polygon fill="black" stroke="black" stroke-width="2.4" points="668.87,-755.72 673.69,-746.29 664.04,-750.65 668.87,-755.72"/>
</g>
<!-- 22 -->
<g id="node22" class="node">
<title>22</title>
<ellipse fill="#3accbc" stroke="black" cx="2400.29" cy="-713.5" rx="145" ry="29"/>
<text text-anchor="middle" x="2400.29" y="-719.49" font-family="Times,serif" font-size="18.77">bay anchovy</text>
<text text-anchor="middle" x="2400.29" y="-698.49" font-family="Times,serif" font-size="18.77">(72.75 gC.m²)</text>
</g>
<!-- 1&#45;&gt;22 -->
<g id="edge61" class="edge">
<title>1&#45;&gt;22</title>
<path fill="none" stroke="black" stroke-width="1.78" d="M1222.69,-1691.05C1714.51,-1687.48 3059.29,-1660.89 3059.29,-1477 3059.29,-1477 3059.29,-1477 3059.29,-1188.5 3059.29,-918.52 2690.25,-787.17 2504.5,-738.15"/>
<polygon fill="black" stroke="black" stroke-width="1.78" points="2505.26,-734.74 2494.7,-735.6 2503.5,-741.51 2505.26,-734.74"/>
</g>
<!-- 23 -->
<g id="node23" class="node">
<title>23</title>
<ellipse fill="#3accbc" stroke="black" cx="3397.29" cy="-613.5" rx="138" ry="27.5"/>
<text text-anchor="middle" x="3397.29" y="-619.21" font-family="Times,serif" font-size="17.86">menhaden</text>
<text text-anchor="middle" x="3397.29" y="-599.21" font-family="Times,serif" font-size="17.86">(31.52 gC.m²)</text>
</g>
<!-- 1&#45;&gt;23 -->
<g id="edge62" class="edge">
<title>1&#45;&gt;23</title>
<path fill="none" stroke="black" stroke-width="1.21" d="M1221.66,-1688.11C1610.36,-1680.05 2530.77,-1657.67 2840.29,-1621 3165.66,-1582.45 3563.29,-1804.64 3563.29,-1477 3563.29,-1477 3563.29,-1477 3563.29,-811 3563.29,-738.81 3497.1,-679.44 3448.31,-645.48"/>
<polygon fill="black" stroke="black" stroke-width="1.21" points="3450.27,-642.58 3440.04,-639.85 3446.33,-648.37 3450.27,-642.58"/>
</g>
<!-- 34 -->
<g id="node34" class="node">
<title>34</title>
<polygon fill="#3accbc" stroke="black" points="810.79,-1621 423.79,-1621 423.79,-1544 810.79,-1544 810.79,-1621"/>
<text text-anchor="middle" x="617.29" y="-1590.44" font-family="Times,serif" font-size="25.08">dissolved organic carbon</text>
<text text-anchor="middle" x="617.29" y="-1562.44" font-family="Times,serif" font-size="25.08">(21857.50 gC.m²)</text>
</g>
<!-- 1&#45;&gt;34 -->
<g id="edge63" class="edge">
<title>1&#45;&gt;34</title>
<path fill="none" stroke="black" stroke-width="3.04" d="M937.28,-1664.25C888.44,-1651.92 829.75,-1637.11 776.04,-1623.56"/>
<polygon fill="black" stroke="black" stroke-width="3.04" points="776.62,-1620.1 766.07,-1621.04 774.91,-1626.88 776.62,-1620.1"/>
</g>
<!-- 35 -->
<g id="node35" class="node">
<title>35</title>
<polygon fill="#3accbc" stroke="black" points="1145.79,-951 776.79,-951 776.79,-877 1145.79,-877 1145.79,-951"/>
<text text-anchor="middle" x="961.29" y="-920.87" font-family="Times,serif" font-size="23.91">suspended particulate org</text>
<text text-anchor="middle" x="961.29" y="-894.87" font-family="Times,serif" font-size="23.91">(7631.00 gC.m²)</text>
</g>
<!-- 1&#45;&gt;35 -->
<g id="edge64" class="edge">
<title>1&#45;&gt;35</title>
<path fill="none" stroke="black" stroke-width="3.13" d="M1043.2,-1656.96C1040.83,-1614.59 1037.29,-1540.54 1037.29,-1477 1037.29,-1477 1037.29,-1477 1037.29,-1095.5 1037.29,-1046.29 1012.99,-995.03 991.88,-959.76"/>
<polygon fill="black" stroke="black" stroke-width="3.13" points="994.81,-957.85 986.59,-951.15 988.84,-961.51 994.81,-957.85"/>
</g>
<!-- 39 -->
<g id="node39" class="node">
<title>39</title>
<polygon fill="white" stroke="black" points="957.29,-18 903.29,-36 795.29,-36 741.29,-18 795.29,0 903.29,0 957.29,-18"/>
<text text-anchor="middle" x="849.29" y="-12.7" font-family="Times,serif" font-size="21.00">Respiration</text>
</g>
<!-- 1&#45;&gt;39 -->
<g id="edge23" class="edge">
<title>1&#45;&gt;39</title>
<path fill="none" stroke="black" stroke-width="3.28" d="M1222.83,-1691.83C1669.39,-1691.66 2830.73,-1684.91 3211.29,-1621 3409.21,-1587.76 3639.29,-1677.7 3639.29,-1477 3639.29,-1477 3639.29,-1477 3639.29,-712.5 3639.29,-368.14 3536.01,-160.76 3203.29,-72 3094.05,-42.86 1415.33,-24.5 961.59,-20.05"/>
<polygon fill="black" stroke="black" stroke-width="3.28" points="961.46,-16.55 951.43,-19.95 961.39,-23.55 961.46,-16.55"/>
</g>
<!-- 2 -->
<g id="node2" class="node">
<title>2</title>
<ellipse fill="#3accbc" stroke="black" cx="1210.29" cy="-812" rx="145.5" ry="29"/>
<text text-anchor="middle" x="1210.29" y="-817.91" font-family="Times,serif" font-size="18.86">bacteria in suspended poc</text>
<text text-anchor="middle" x="1210.29" y="-796.91" font-family="Times,serif" font-size="18.86">(79.00 gC.m²)</text>
</g>
<!-- 2&#45;&gt;7 -->
<g id="edge65" class="edge">
<title>2&#45;&gt;7</title>
<path fill="none" stroke="black" stroke-width="2.14" d="M1303.88,-834.29C1389.29,-859.91 1502.29,-912.19 1502.29,-1009.5 1502.29,-1097.5 1502.29,-1097.5 1502.29,-1097.5 1502.29,-1220.33 1122.47,-1263.22 900.55,-1277.79"/>
<polygon fill="black" stroke="black" stroke-width="2.14" points="900.19,-1274.31 890.44,-1278.44 900.64,-1281.29 900.19,-1274.31"/>
</g>
<!-- 2&#45;&gt;8 -->
<g id="edge66" class="edge">
<title>2&#45;&gt;8</title>
<path fill="none" stroke="black" stroke-width="2.08" d="M1345.6,-822.8C1401.32,-831.4 1464.76,-847.39 1516.29,-877 1635.95,-945.76 1732.42,-1083.4 1774.47,-1150.27"/>
<polygon fill="black" stroke="black" stroke-width="2.08" points="1771.55,-1152.2 1779.81,-1158.84 1777.49,-1148.5 1771.55,-1152.2"/>
</g>
<!-- 9 -->
<g id="node9" class="node">
<title>9</title>
<ellipse fill="#3accbc" stroke="black" cx="1255.29" cy="-1096.5" rx="133.5" ry="26.5"/>
<text text-anchor="middle" x="1255.29" y="-1101.63" font-family="Times,serif" font-size="17.33">ctenophores</text>
<text text-anchor="middle" x="1255.29" y="-1082.63" font-family="Times,serif" font-size="17.33">(19.25 gC.m²)</text>
</g>
<!-- 2&#45;&gt;9 -->
<g id="edge67" class="edge">
<title>2&#45;&gt;9</title>
<path fill="none" stroke="black" stroke-width="1.59" d="M1210.77,-841.29C1212.02,-883.69 1216.47,-966.03 1232.29,-1034 1234.31,-1042.7 1237.25,-1051.83 1240.35,-1060.32"/>
<polygon fill="black" stroke="black" stroke-width="1.59" points="1237.19,-1061.84 1244.03,-1069.92 1243.72,-1059.33 1237.19,-1061.84"/>
</g>
<!-- 2&#45;&gt;11 -->
<g id="edge68" class="edge">
<title>2&#45;&gt;11</title>
<path fill="none" stroke="black" stroke-width="1.64" d="M1209.41,-782.83C1209.14,-774.26 1208.85,-764.66 1208.56,-755.43"/>
<polygon fill="black" stroke="black" stroke-width="1.64" points="1212.05,-755.12 1208.24,-745.24 1205.05,-755.34 1212.05,-755.12"/>
</g>
<!-- 2&#45;&gt;12 -->
<g id="edge69" class="edge">
<title>2&#45;&gt;12</title>
<path fill="none" stroke="black" stroke-width="1.46" d="M1131.72,-787.42C1102.09,-777 1068.71,-763.37 1040.29,-747 999.5,-723.51 999.41,-702.88 958.29,-680 929.4,-663.93 895.88,-650.81 865.06,-640.65"/>
<polygon fill="black" stroke="black" stroke-width="1.46" points="865.75,-637.19 855.16,-637.46 863.6,-643.86 865.75,-637.19"/>
</g>
<!-- 2&#45;&gt;13 -->
<g id="edge70" class="edge">
<title>2&#45;&gt;13</title>
<path fill="none" stroke="black" stroke-width="1.56" d="M1108.2,-791.3C1030.17,-776.24 922.13,-755.39 838.31,-739.21"/>
<polygon fill="black" stroke="black" stroke-width="1.56" points="838.96,-735.77 828.47,-737.31 837.63,-742.64 838.96,-735.77"/>
</g>
<!-- 2&#45;&gt;22 -->
<g id="edge71" class="edge">
<title>2&#45;&gt;22</title>
<path fill="none" stroke="black" stroke-width="1.1" d="M1343.33,-800.21C1569.08,-781.9 2025.2,-744.92 2257.44,-726.08"/>
<polygon fill="black" stroke="black" stroke-width="1.1" points="2257.96,-729.55 2267.64,-725.26 2257.39,-722.58 2257.96,-729.55"/>
</g>
<!-- 2&#45;&gt;23 -->
<g id="edge72" class="edge">
<title>2&#45;&gt;23</title>
<path fill="none" stroke="black" stroke-width="0.91" d="M1355.32,-808.86C1602.1,-804.16 2119.25,-789.67 2554.29,-747 2573.6,-745.11 3226.16,-647.28 3245.29,-644 3260.64,-641.37 3276.84,-638.41 3292.71,-635.42"/>
<polygon fill="black" stroke="black" stroke-width="0.91" points="3293.37,-638.86 3302.54,-633.55 3292.06,-631.98 3293.37,-638.86"/>
</g>
<!-- 2&#45;&gt;35 -->
<g id="edge73" class="edge">
<title>2&#45;&gt;35</title>
<path fill="none" stroke="black" stroke-width="2.37" d="M1152.27,-838.7C1126.88,-849.19 1096.3,-861.56 1067.11,-873.16"/>
<polygon fill="black" stroke="black" stroke-width="2.37" points="1065.7,-869.96 1057.69,-876.9 1068.28,-876.46 1065.7,-869.96"/>
</g>
<!-- 36 -->
<g id="node36" class="node">
<title>36</title>
<polygon fill="#3accbc" stroke="black" points="2011.29,-547 1579.29,-547 1579.29,-461 2011.29,-461 2011.29,-547"/>
<text text-anchor="middle" x="1795.29" y="-512.6" font-family="Times,serif" font-size="28.00">sediment particulate orga</text>
<text text-anchor="middle" x="1795.29" y="-481.6" font-family="Times,serif" font-size="28.00">(305000.00 gC.m²)</text>
</g>
<!-- 2&#45;&gt;36 -->
<g id="edge74" class="edge">
<title>2&#45;&gt;36</title>
<path fill="none" stroke="black" stroke-width="2.57" d="M1285.46,-787.03C1314.39,-776.49 1347.2,-762.87 1375.29,-747 1479,-688.41 1483.24,-641.01 1587.29,-583 1608.7,-571.06 1632.3,-560.24 1655.68,-550.73"/>
<polygon fill="black" stroke="black" stroke-width="2.57" points="1657,-553.97 1664.98,-547 1654.39,-547.47 1657,-553.97"/>
</g>
<!-- 2&#45;&gt;39 -->
<g id="edge24" class="edge">
<title>2&#45;&gt;39</title>
<path fill="none" stroke="black" stroke-width="2.67" d="M1080.99,-798.62C1038.63,-789.5 993.45,-773.83 958.29,-747 931.07,-726.23 949.39,-698.02 920.29,-680 857.38,-641.04 311.09,-692.6 255.29,-644 207.83,-602.67 228.29,-567.93 228.29,-505 228.29,-505 228.29,-505 228.29,-187 228.29,-133.31 223.37,-105.55 265.29,-72 301.64,-42.9 584.39,-28.32 742.73,-22.37"/>
<polygon fill="black" stroke="black" stroke-width="2.67" points="743.11,-25.86 752.98,-21.99 742.85,-18.87 743.11,-25.86"/>
</g>
<!-- 3 -->
<g id="node3" class="node">
<title>3</title>
<ellipse fill="#3accbc" stroke="black" cx="1498.29" cy="-392.5" rx="162.5" ry="32.5"/>
<text text-anchor="middle" x="1498.29" y="-398.63" font-family="Times,serif" font-size="21.09">bacteria in sediment poc</text>
<text text-anchor="middle" x="1498.29" y="-375.63" font-family="Times,serif" font-size="21.09">(600.00 gC.m²)</text>
</g>
<!-- 14 -->
<g id="node14" class="node">
<title>14</title>
<ellipse fill="#3accbc" stroke="black" cx="1139.29" cy="-289.5" rx="168.5" ry="33.5"/>
<text text-anchor="middle" x="1139.29" y="-296.02" font-family="Times,serif" font-size="21.85">other polychaetes</text>
<text text-anchor="middle" x="1139.29" y="-272.02" font-family="Times,serif" font-size="21.85">(1186.50 gC.m²)</text>
</g>
<!-- 3&#45;&gt;14 -->
<g id="edge75" class="edge">
<title>3&#45;&gt;14</title>
<path fill="none" stroke="black" stroke-width="3.16" d="M1406.3,-365.62C1356.73,-351.67 1295.36,-334.41 1243.97,-319.95"/>
<polygon fill="black" stroke="black" stroke-width="3.16" points="1244.74,-316.53 1234.16,-317.19 1242.84,-323.27 1244.74,-316.53"/>
</g>
<!-- 15 -->
<g id="node15" class="node">
<title>15</title>
<ellipse fill="#3accbc" stroke="black" cx="1474.29" cy="-289.5" rx="148.5" ry="29.5"/>
<text text-anchor="middle" x="1474.29" y="-295.1" font-family="Times,serif" font-size="19.25">nereis</text>
<text text-anchor="middle" x="1474.29" y="-274.1" font-family="Times,serif" font-size="19.25">(113.25 gC.m²)</text>
</g>
<!-- 3&#45;&gt;15 -->
<g id="edge76" class="edge">
<title>3&#45;&gt;15</title>
<path fill="none" stroke="black" stroke-width="2.74" d="M1490.76,-359.82C1488.43,-350.01 1485.84,-339.1 1483.41,-328.89"/>
<polygon fill="black" stroke="black" stroke-width="2.74" points="1486.77,-327.91 1481.05,-318.99 1479.96,-329.52 1486.77,-327.91"/>
</g>
<!-- 16 -->
<g id="node16" class="node">
<title>16</title>
<ellipse fill="#3accbc" stroke="black" cx="2253.29" cy="-289.5" rx="172.5" ry="34.5"/>
<text text-anchor="middle" x="2253.29" y="-296.61" font-family="Times,serif" font-size="22.36">macoma spp.</text>
<text text-anchor="middle" x="2253.29" y="-271.61" font-family="Times,serif" font-size="22.36">(1890.25 gC.m²)</text>
</g>
<!-- 3&#45;&gt;16 -->
<g id="edge77" class="edge">
<title>3&#45;&gt;16</title>
<path fill="none" stroke="black" stroke-width="2.92" d="M1631.09,-373.73C1762.77,-356.12 1964.25,-329.17 2102.03,-310.73"/>
<polygon fill="black" stroke="black" stroke-width="2.92" points="2102.8,-314.16 2112.25,-309.37 2101.87,-307.22 2102.8,-314.16"/>
</g>
<!-- 17 -->
<g id="node17" class="node">
<title>17</title>
<ellipse fill="#3accbc" stroke="black" cx="642.29" cy="-289.5" rx="158" ry="31.5"/>
<text text-anchor="middle" x="642.29" y="-296.13" font-family="Times,serif" font-size="20.46">meiofauna</text>
<text text-anchor="middle" x="642.29" y="-273.13" font-family="Times,serif" font-size="20.46">(337.50 gC.m²)</text>
</g>
<!-- 3&#45;&gt;17 -->
<g id="edge78" class="edge">
<title>3&#45;&gt;17</title>
<path fill="none" stroke="black" stroke-width="2.82" d="M1346.67,-380.65C1207.73,-369.73 996.55,-350.68 814.29,-324 796.3,-321.37 777.33,-318.14 758.83,-314.73"/>
<polygon fill="black" stroke="black" stroke-width="2.82" points="759.38,-311.28 748.91,-312.88 758.1,-318.16 759.38,-311.28"/>
</g>
<!-- 18 -->
<g id="node18" class="node">
<title>18</title>
<ellipse fill="#3accbc" stroke="black" cx="1795.29" cy="-289.5" rx="154.5" ry="31"/>
<text text-anchor="middle" x="1795.29" y="-295.48" font-family="Times,serif" font-size="20.02">crustacean deposit feeder</text>
<text text-anchor="middle" x="1795.29" y="-273.48" font-family="Times,serif" font-size="20.02">(228.00 gC.m²)</text>
</g>
<!-- 3&#45;&gt;18 -->
<g id="edge79" class="edge">
<title>3&#45;&gt;18</title>
<path fill="none" stroke="black" stroke-width="2.61" d="M1578.66,-364.17C1619.14,-350.4 1668.25,-333.7 1709.46,-319.69"/>
<polygon fill="black" stroke="black" stroke-width="2.61" points="1710.6,-323 1718.94,-316.46 1708.35,-316.37 1710.6,-323"/>
</g>
<!-- 3&#45;&gt;36 -->
<g id="edge80" class="edge">
<title>3&#45;&gt;36</title>
<path fill="none" stroke="black" stroke-width="3.09" d="M1578.46,-420.87C1609.24,-431.95 1645,-445.05 1678.51,-457.49"/>
<polygon fill="black" stroke="black" stroke-width="3.09" points="1677.3,-460.77 1687.89,-460.98 1679.74,-454.21 1677.3,-460.77"/>
</g>
<!-- 3&#45;&gt;39 -->
<g id="edge25" class="edge">
<title>3&#45;&gt;39</title>
<path fill="none" stroke="black" stroke-width="3.32" d="M1341.33,-384.08C1233.16,-375.99 1086.98,-359.11 962.29,-324 890.48,-303.78 879.01,-281.52 809.29,-255 759.23,-235.96 726,-262.16 694.29,-219 655,-165.53 675.6,-121.04 720.29,-72 735.14,-55.7 755.75,-44.29 776.14,-36.35"/>
<polygon fill="black" stroke="black" stroke-width="3.32" points="777.59,-39.55 785.79,-32.84 775.2,-32.97 777.59,-39.55"/>
</g>
<!-- 4 -->
<g id="node4" class="node">
<title>4</title>
<ellipse fill="#3accbc" stroke="black" cx="447.29" cy="-613.5" rx="152.5" ry="30.5"/>
<text text-anchor="middle" x="447.29" y="-619.7" font-family="Times,serif" font-size="19.75">benthic diatoms</text>
<text text-anchor="middle" x="447.29" y="-597.7" font-family="Times,serif" font-size="19.75">(177.25 gC.m²)</text>
</g>
<!-- 4&#45;&gt;17 -->
<g id="edge81" class="edge">
<title>4&#45;&gt;17</title>
<path fill="none" stroke="black" stroke-width="2.7" d="M465.11,-583.07C500.31,-524.95 578.77,-395.39 618.4,-329.95"/>
<polygon fill="black" stroke="black" stroke-width="2.7" points="621.54,-331.52 623.72,-321.15 615.55,-327.89 621.54,-331.52"/>
</g>
<!-- 4&#45;&gt;36 -->
<g id="edge82" class="edge">
<title>4&#45;&gt;36</title>
<path fill="none" stroke="black" stroke-width="2.83" d="M552.9,-591.47C571.62,-588.25 590.99,-585.26 609.29,-583 941.9,-541.91 1329.85,-521.57 1569.04,-512.18"/>
<polygon fill="black" stroke="black" stroke-width="2.83" points="1569.4,-515.67 1579.25,-511.78 1569.12,-508.67 1569.4,-515.67"/>
</g>
<!-- 4&#45;&gt;39 -->
<g id="edge26" class="edge">
<title>4&#45;&gt;39</title>
<path fill="none" stroke="black" stroke-width="2.8" d="M412.3,-583.47C369.97,-544.87 304.29,-472.28 304.29,-393.5 304.29,-393.5 304.29,-393.5 304.29,-187 304.29,-133.95 295.75,-106.23 336.29,-72 366.86,-46.18 604.92,-30.58 745.75,-23.51"/>
<polygon fill="black" stroke="black" stroke-width="2.8" points="746.32,-26.99 756.14,-23 745.98,-20 746.32,-26.99"/>
</g>
<!-- 5 -->
<g id="node5" class="node">
<title>5</title>
<ellipse fill="#3accbc" stroke="black" cx="595.29" cy="-1476" rx="159" ry="32"/>
<text text-anchor="middle" x="595.29" y="-1482.51" font-family="Times,serif" font-size="20.62">free bacteria</text>
<text text-anchor="middle" x="595.29" y="-1459.51" font-family="Times,serif" font-size="20.62">(390.50 gC.m²)</text>
</g>
<!-- 6 -->
<g id="node6" class="node">
<title>6</title>
<ellipse fill="#3accbc" stroke="black" cx="580.29" cy="-1380" rx="139.5" ry="28"/>
<text text-anchor="middle" x="580.29" y="-1385.53" font-family="Times,serif" font-size="18.09">heterotrophic microflagel</text>
<text text-anchor="middle" x="580.29" y="-1365.53" font-family="Times,serif" font-size="18.09">(39.00 gC.m²)</text>
</g>
<!-- 5&#45;&gt;6 -->
<g id="edge83" class="edge">
<title>5&#45;&gt;6</title>
<path fill="none" stroke="black" stroke-width="3.07" d="M590.33,-1443.96C589.02,-1435.75 587.59,-1426.8 586.24,-1418.29"/>
<polygon fill="black" stroke="black" stroke-width="3.07" points="589.66,-1417.54 584.63,-1408.22 582.75,-1418.64 589.66,-1417.54"/>
</g>
<!-- 5&#45;&gt;35 -->
<g id="edge84" class="edge">
<title>5&#45;&gt;35</title>
<path fill="none" stroke="black" stroke-width="2.49" d="M693.88,-1450.76C764.27,-1428.06 854.89,-1386.74 904.29,-1316 946.5,-1255.55 935.47,-1059.78 947.29,-987 948.65,-978.6 950.26,-969.68 951.89,-961.08"/>
<polygon fill="black" stroke="black" stroke-width="2.49" points="955.34,-961.66 953.8,-951.18 948.46,-960.34 955.34,-961.66"/>
</g>
<!-- 5&#45;&gt;39 -->
<g id="edge27" class="edge">
<title>5&#45;&gt;39</title>
<path fill="none" stroke="black" stroke-width="3.05" d="M508.76,-1449.13C482.38,-1438.83 454.3,-1425.24 431.29,-1408 140.86,-1190.4 0.29,-1077.4 0.29,-714.5 0.29,-714.5 0.29,-714.5 0.29,-187 0.29,-133.17 -4.29,-104.94 38.29,-72 92.05,-30.4 524.48,-21.4 734.98,-19.49"/>
<polygon fill="black" stroke="black" stroke-width="3.05" points="735.17,-22.99 745.14,-19.4 735.11,-15.99 735.17,-22.99"/>
</g>
<!-- 6&#45;&gt;7 -->
<g id="edge85" class="edge">
<title>6&#45;&gt;7</title>
<path fill="none" stroke="black" stroke-width="2.84" d="M625.97,-1353.37C644.71,-1342.86 666.62,-1330.57 686.46,-1319.44"/>
<polygon fill="black" stroke="black" stroke-width="2.84" points="688.4,-1322.37 695.41,-1314.42 684.97,-1316.26 688.4,-1322.37"/>
</g>
<!-- 6&#45;&gt;35 -->
<g id="edge86" class="edge">
<title>6&#45;&gt;35</title>
<path fill="none" stroke="black" stroke-width="2.63" d="M575.79,-1351.92C572.74,-1326.18 571.3,-1286.93 584.29,-1256 642.96,-1116.28 792.53,-1010.58 884.67,-956.12"/>
<polygon fill="black" stroke="black" stroke-width="2.63" points="886.54,-959.08 893.4,-951.01 883,-953.04 886.54,-959.08"/>
</g>
<!-- 6&#45;&gt;39 -->
<g id="edge28" class="edge">
<title>6&#45;&gt;39</title>
<path fill="none" stroke="black" stroke-width="2.91" d="M539.4,-1353.15C448.74,-1293.68 229.86,-1137.84 115.29,-951 57.5,-856.76 38.29,-825.04 38.29,-714.5 38.29,-714.5 38.29,-714.5 38.29,-187 38.29,-133.31 33,-105.09 75.29,-72 126.04,-32.29 533.54,-22.33 735.98,-19.83"/>
<polygon fill="black" stroke="black" stroke-width="2.91" points="736.1,-23.33 746.05,-19.71 736.01,-16.33 736.1,-23.33"/>
</g>
<!-- 7&#45;&gt;8 -->
<g id="edge87" class="edge">
<title>7&#45;&gt;8</title>
<path fill="none" stroke="black" stroke-width="2.52" d="M883.12,-1274.18C1037.73,-1261.92 1295.01,-1240.93 1516.29,-1220 1561.46,-1215.73 1610.68,-1210.69 1655.12,-1206"/>
<polygon fill="black" stroke="black" stroke-width="2.52" points="1655.54,-1209.48 1665.11,-1204.94 1654.8,-1202.51 1655.54,-1209.48"/>
</g>
<!-- 7&#45;&gt;9 -->
<g id="edge88" class="edge">
<title>7&#45;&gt;9</title>
<path fill="none" stroke="black" stroke-width="2.34" d="M814.27,-1259.32C911.48,-1223.65 1086.44,-1159.45 1184.23,-1123.57"/>
<polygon fill="black" stroke="black" stroke-width="2.34" points="1185.55,-1126.82 1193.73,-1120.09 1183.14,-1120.24 1185.55,-1126.82"/>
</g>
<!-- 7&#45;&gt;11 -->
<g id="edge89" class="edge">
<title>7&#45;&gt;11</title>
<path fill="none" stroke="black" stroke-width="1.78" d="M736.4,-1255.89C718.73,-1183.84 683.82,-994.55 768.29,-877 833.33,-786.47 954.7,-746.3 1053.37,-728.52"/>
<polygon fill="black" stroke="black" stroke-width="1.78" points="1054.2,-731.93 1063.45,-726.76 1053,-725.03 1054.2,-731.93"/>
</g>
<!-- 7&#45;&gt;12 -->
<g id="edge90" class="edge">
<title>7&#45;&gt;12</title>
<path fill="none" stroke="black" stroke-width="1.65" d="M704.26,-1256.84C662.57,-1223.88 603.29,-1165.11 603.29,-1097.5 603.29,-1097.5 603.29,-1097.5 603.29,-1009.5 603.29,-858.04 423.69,-799.86 516.29,-680 525.43,-668.16 592.72,-650.96 655.32,-637.16"/>
<polygon fill="black" stroke="black" stroke-width="1.65" points="656.3,-640.53 665.32,-634.97 654.8,-633.69 656.3,-640.53"/>
</g>
<!-- 7&#45;&gt;13 -->
<g id="edge91" class="edge">
<title>7&#45;&gt;13</title>
<path fill="none" stroke="black" stroke-width="1.79" d="M725.56,-1256.12C704.22,-1220.38 672.29,-1156.95 672.29,-1097.5 672.29,-1097.5 672.29,-1097.5 672.29,-913 672.29,-858.33 686.36,-796.69 697.38,-756.8"/>
<polygon fill="black" stroke="black" stroke-width="1.79" points="700.75,-757.72 700.1,-747.15 694.02,-755.82 700.75,-757.72"/>
</g>
<!-- 7&#45;&gt;35 -->
<g id="edge92" class="edge">
<title>7&#45;&gt;35</title>
<path fill="none" stroke="black" stroke-width="2.88" d="M763.42,-1255.95C771.95,-1245.27 781.43,-1232.68 788.29,-1220 839.97,-1124.43 800.78,-1076.57 862.29,-987 869.6,-976.35 878.94,-966.5 888.98,-957.71"/>
<polygon fill="black" stroke="black" stroke-width="2.88" points="891.33,-960.3 896.76,-951.21 886.85,-954.93 891.33,-960.3"/>
</g>
<!-- 7&#45;&gt;39 -->
<g id="edge29" class="edge">
<title>7&#45;&gt;39</title>
<path fill="none" stroke="black" stroke-width="2.87" d="M666.35,-1260.22C490.14,-1198.79 76.29,-1021.81 76.29,-714.5 76.29,-714.5 76.29,-714.5 76.29,-187 76.29,-133.57 69.53,-105.32 111.29,-72 158.97,-33.95 542.3,-23.18 736.86,-20.16"/>
<polygon fill="black" stroke="black" stroke-width="2.87" points="737.17,-23.66 747.11,-20.01 737.06,-16.66 737.17,-23.66"/>
</g>
<!-- 8&#45;&gt;9 -->
<g id="edge93" class="edge">
<title>8&#45;&gt;9</title>
<path fill="none" stroke="black" stroke-width="2.5" d="M1682.67,-1169.26C1588.85,-1153.51 1457.02,-1131.37 1364.66,-1115.86"/>
<polygon fill="black" stroke="black" stroke-width="2.5" points="1365.16,-1112.4 1354.72,-1114.19 1364,-1119.3 1365.16,-1112.4"/>
</g>
<!-- 10 -->
<g id="node10" class="node">
<title>10</title>
<ellipse fill="#3accbc" stroke="black" cx="1357.29" cy="-1010.5" rx="116.5" ry="23.5"/>
<text text-anchor="middle" x="1357.29" y="-1015.4" font-family="Times,serif" font-size="15.12">sea nettle</text>
<text text-anchor="middle" x="1357.29" y="-998.4" font-family="Times,serif" font-size="15.12">(1.75 gC.m²)</text>
</g>
<!-- 8&#45;&gt;10 -->
<g id="edge94" class="edge">
<title>8&#45;&gt;10</title>
<path fill="none" stroke="black" stroke-width="2.1" d="M1730.94,-1161.81C1645.81,-1127.57 1499.38,-1068.66 1417.39,-1035.68"/>
<polygon fill="black" stroke="black" stroke-width="2.1" points="1418.3,-1032.27 1407.72,-1031.79 1415.69,-1038.77 1418.3,-1032.27"/>
</g>
<!-- 20 -->
<g id="node20" class="node">
<title>20</title>
<ellipse fill="#3accbc" stroke="black" cx="1796.29" cy="-613.5" rx="109" ry="22"/>
<text text-anchor="middle" x="1796.29" y="-618.22" font-family="Times,serif" font-size="14.11">fish larvae</text>
<text text-anchor="middle" x="1796.29" y="-602.22" font-family="Times,serif" font-size="14.11">(0.10 gC.m²)</text>
</g>
<!-- 8&#45;&gt;20 -->
<g id="edge95" class="edge">
<title>8&#45;&gt;20</title>
<path fill="none" stroke="black" stroke-width="0.91" d="M1797.02,-1158.75C1796.72,-1123.58 1796.29,-1063.28 1796.29,-1011.5 1796.29,-1011.5 1796.29,-1011.5 1796.29,-811 1796.29,-752.69 1796.29,-684.64 1796.29,-645.86"/>
<polygon fill="black" stroke="black" stroke-width="0.91" points="1799.79,-645.73 1796.29,-635.73 1792.79,-645.73 1799.79,-645.73"/>
</g>
<!-- 21 -->
<g id="node21" class="node">
<title>21</title>
<ellipse fill="#3accbc" stroke="black" cx="3050.29" cy="-613.5" rx="114.5" ry="23"/>
<text text-anchor="middle" x="3050.29" y="-617.62" font-family="Times,serif" font-size="14.85">alewife &amp; blue herring</text>
<text text-anchor="middle" x="3050.29" y="-601.62" font-family="Times,serif" font-size="14.85">(1.15 gC.m²)</text>
</g>
<!-- 8&#45;&gt;21 -->
<g id="edge96" class="edge">
<title>8&#45;&gt;21</title>
<path fill="none" stroke="black" stroke-width="1.25" d="M1950.12,-1187.7C2238.46,-1185.01 2841.11,-1173.35 2921.29,-1123 2969.3,-1092.84 2983.29,-1068.2 2983.29,-1011.5 2983.29,-1011.5 2983.29,-1011.5 2983.29,-811 2983.29,-749.7 3012.86,-683.11 3032.71,-645.33"/>
<polygon fill="black" stroke="black" stroke-width="1.25" points="3035.88,-646.83 3037.53,-636.36 3029.71,-643.52 3035.88,-646.83"/>
</g>
<!-- 8&#45;&gt;22 -->
<g id="edge97" class="edge">
<title>8&#45;&gt;22</title>
<path fill="none" stroke="black" stroke-width="2.16" d="M1919.18,-1170.95C2009.61,-1150.24 2117.29,-1105.78 2117.29,-1011.5 2117.29,-1011.5 2117.29,-1011.5 2117.29,-913 2117.29,-820.44 2220,-767.36 2301.67,-739.79"/>
<polygon fill="black" stroke="black" stroke-width="2.16" points="2303.11,-743 2311.52,-736.55 2300.93,-736.35 2303.11,-743"/>
</g>
<!-- 8&#45;&gt;23 -->
<g id="edge98" class="edge">
<title>8&#45;&gt;23</title>
<path fill="none" stroke="black" stroke-width="1.75" d="M1949.84,-1186.55C2244.97,-1181.81 2872.92,-1166.68 2961.29,-1123 3178.19,-1015.77 3330.53,-746.93 3379.97,-650.02"/>
<polygon fill="black" stroke="black" stroke-width="1.75" points="3383.18,-651.43 3384.56,-640.93 3376.93,-648.27 3383.18,-651.43"/>
</g>
<!-- 24 -->
<g id="node24" class="node">
<title>24</title>
<ellipse fill="#3accbc" stroke="black" cx="2768.29" cy="-613.5" rx="111" ry="22"/>
<text text-anchor="middle" x="2768.29" y="-617.97" font-family="Times,serif" font-size="14.41">shad</text>
<text text-anchor="middle" x="2768.29" y="-601.97" font-family="Times,serif" font-size="14.41">(0.45 gC.m²)</text>
</g>
<!-- 8&#45;&gt;24 -->
<g id="edge99" class="edge">
<title>8&#45;&gt;24</title>
<path fill="none" stroke="black" stroke-width="0.92" d="M1950.35,-1188.42C2200.72,-1184.11 2670.29,-1156.67 2670.29,-1011.5 2670.29,-1011.5 2670.29,-1011.5 2670.29,-811 2670.29,-745.89 2713.91,-680.18 2742.95,-643.67"/>
<polygon fill="black" stroke="black" stroke-width="0.92" points="2746.03,-645.43 2749.62,-635.46 2740.6,-641.01 2746.03,-645.43"/>
</g>
<!-- 8&#45;&gt;35 -->
<g id="edge100" class="edge">
<title>8&#45;&gt;35</title>
<path fill="none" stroke="black" stroke-width="2.76" d="M1648.33,-1182.39C1457.8,-1173.22 1147.27,-1153.64 1104.29,-1123 1050.19,-1084.44 1083.11,-1039.4 1042.29,-987 1034.15,-976.56 1024.21,-966.71 1014.1,-957.84"/>
<polygon fill="black" stroke="black" stroke-width="2.76" points="1016.25,-955.07 1006.36,-951.25 1011.71,-960.4 1016.25,-955.07"/>
</g>
<!-- 38 -->
<g id="node38" class="node">
<title>38</title>
<polygon fill="white" stroke="black" points="3149.29,-18 3095.29,-36 2987.29,-36 2933.29,-18 2987.29,0 3095.29,0 3149.29,-18"/>
<text text-anchor="middle" x="3041.29" y="-12.7" font-family="Times,serif" font-size="21.00">Output</text>
</g>
<!-- 8&#45;&gt;38 -->
<g id="edge5" class="edge">
<title>8&#45;&gt;38</title>
<path fill="none" stroke="black" stroke-width="2.71" d="M1949.01,-1185.43C2253.6,-1178.54 2918.84,-1159.49 3016.29,-1123 3415.58,-973.49 3639.29,-819.87 3639.29,-393.5 3639.29,-393.5 3639.29,-393.5 3639.29,-187 3639.29,-126.46 3617.81,-103.79 3566.29,-72 3500.04,-31.12 3290.38,-21.16 3156.91,-19.08"/>
<polygon fill="black" stroke="black" stroke-width="2.71" points="3156.69,-15.58 3146.64,-18.94 3156.59,-22.58 3156.69,-15.58"/>
</g>
<!-- 8&#45;&gt;39 -->
<g id="edge30" class="edge">
<title>8&#45;&gt;39</title>
<path fill="none" stroke="black" stroke-width="2.89" d="M1950.25,-1188.3C2113.73,-1185.26 2379.61,-1172.15 2603.29,-1123 2743.84,-1092.11 2907.29,-1155.41 2907.29,-1011.5 2907.29,-1011.5 2907.29,-1011.5 2907.29,-612.5 2907.29,-511.28 2976.61,-231.68 2908.29,-157 2847.45,-90.5 2591.84,-142.4 2504.29,-121 2448.72,-107.42 2441.2,-84.07 2385.29,-72 2247.42,-42.25 1289.52,-25.49 960.19,-20.55"/>
<polygon fill="black" stroke="black" stroke-width="2.89" points="960.21,-17.05 950.16,-20.4 960.11,-24.05 960.21,-17.05"/>
</g>
<!-- 9&#45;&gt;10 -->
<g id="edge101" class="edge">
<title>9&#45;&gt;10</title>
<path fill="none" stroke="black" stroke-width="1.93" d="M1285.61,-1070.52C1297.26,-1060.94 1310.63,-1049.92 1322.64,-1040.03"/>
<polygon fill="black" stroke="black" stroke-width="1.93" points="1325.21,-1042.45 1330.71,-1033.39 1320.76,-1037.04 1325.21,-1042.45"/>
</g>
<!-- 9&#45;&gt;35 -->
<g id="edge102" class="edge">
<title>9&#45;&gt;35</title>
<path fill="none" stroke="black" stroke-width="2.47" d="M1218.27,-1071.01C1187.03,-1047.88 1141.05,-1012.95 1098.29,-987 1080.14,-975.99 1060.07,-965.24 1041,-955.55"/>
<polygon fill="black" stroke="black" stroke-width="2.47" points="1042.54,-952.4 1032.03,-951.03 1039.39,-958.66 1042.54,-952.4"/>
</g>
<!-- 9&#45;&gt;36 -->
<g id="edge103" class="edge">
<title>9&#45;&gt;36</title>
<path fill="none" stroke="black" stroke-width="1.94" d="M1373.9,-1084.17C1412.36,-1075.46 1452.9,-1060.28 1483.29,-1034 1648.46,-891.14 1538.36,-750.66 1678.29,-583 1687.44,-572.04 1698.51,-562.01 1710.16,-553.06"/>
<polygon fill="black" stroke="black" stroke-width="1.94" points="1712.34,-555.81 1718.3,-547.05 1708.18,-550.18 1712.34,-555.81"/>
</g>
<!-- 9&#45;&gt;39 -->
<g id="edge31" class="edge">
<title>9&#45;&gt;39</title>
<path fill="none" stroke="black" stroke-width="2.48" d="M1142.5,-1082.29C854.45,-1045.44 114.29,-929.8 114.29,-714.5 114.29,-714.5 114.29,-714.5 114.29,-187 114.29,-133.95 105.28,-105.66 146.29,-72 190.88,-35.4 551.07,-23.96 737.83,-20.48"/>
<polygon fill="black" stroke="black" stroke-width="2.48" points="738.02,-23.97 747.96,-20.29 737.89,-16.97 738.02,-23.97"/>
</g>
<!-- 10&#45;&gt;35 -->
<g id="edge104" class="edge">
<title>10&#45;&gt;35</title>
<path fill="none" stroke="black" stroke-width="1.88" d="M1284.19,-992.06C1238.76,-981.22 1178.5,-966.83 1122.35,-953.43"/>
<polygon fill="black" stroke="black" stroke-width="1.88" points="1122.82,-949.95 1112.28,-951.03 1121.19,-956.76 1122.82,-949.95"/>
</g>
<!-- 10&#45;&gt;36 -->
<g id="edge105" class="edge">
<title>10&#45;&gt;36</title>
<path fill="none" stroke="black" stroke-width="1.69" d="M1367.51,-986.7C1399.39,-917.76 1503.33,-708.55 1644.29,-583 1657.09,-571.6 1671.85,-561.35 1687.04,-552.33"/>
<polygon fill="black" stroke="black" stroke-width="1.69" points="1689.1,-555.18 1696.01,-547.16 1685.6,-549.12 1689.1,-555.18"/>
</g>
<!-- 10&#45;&gt;39 -->
<g id="edge32" class="edge">
<title>10&#45;&gt;39</title>
<path fill="none" stroke="black" stroke-width="2.08" d="M1328.47,-987.49C1290.4,-959.16 1220.53,-909.7 1155.29,-877 1113.43,-856.02 1097.88,-862.49 1056.29,-841 991,-807.28 968.28,-802.63 920.29,-747 898.6,-721.87 914.99,-698.29 887.29,-680 763.41,-598.21 333.23,-740.31 220.29,-644 172.2,-602.99 190.29,-568.2 190.29,-505 190.29,-505 190.29,-505 190.29,-187 190.29,-133.17 186.04,-105.36 228.29,-72 267.56,-40.99 574.28,-27.12 741.47,-21.81"/>
<polygon fill="black" stroke="black" stroke-width="2.08" points="741.65,-25.31 751.53,-21.5 741.43,-18.31 741.65,-25.31"/>
</g>
<!-- 19 -->
<g id="node19" class="node">
<title>19</title>
<ellipse fill="#3accbc" stroke="black" cx="2385.29" cy="-188" rx="156" ry="31"/>
<text text-anchor="middle" x="2385.29" y="-193.82" font-family="Times,serif" font-size="20.23">blue crab</text>
<text text-anchor="middle" x="2385.29" y="-171.82" font-family="Times,serif" font-size="20.23">(275.00 gC.m²)</text>
</g>
<!-- 11&#45;&gt;19 -->
<g id="edge106" class="edge">
<title>11&#45;&gt;19</title>
<path fill="none" stroke="black" stroke-width="1.92" d="M1287.19,-686.22C1380.14,-656.66 1538.7,-609.35 1678.29,-583 1828.47,-554.65 1870.91,-579.36 2020.29,-547 2187.87,-510.7 2232.67,-501.17 2386.29,-425 2476.04,-380.5 2588.93,-338.96 2534.29,-255 2523.64,-238.64 2507.92,-226.31 2490.62,-217.02"/>
<polygon fill="black" stroke="black" stroke-width="1.92" points="2491.96,-213.78 2481.45,-212.43 2488.83,-220.04 2491.96,-213.78"/>
</g>
<!-- 11&#45;&gt;36 -->
<g id="edge107" class="edge">
<title>11&#45;&gt;36</title>
<path fill="none" stroke="black" stroke-width="2.34" d="M1250.1,-683.06C1294.72,-653.67 1367.58,-609.2 1436.29,-583 1478.34,-566.96 1524.49,-553.84 1569.29,-543.24"/>
<polygon fill="black" stroke="black" stroke-width="2.34" points="1570.18,-546.63 1579.12,-540.95 1568.59,-539.81 1570.18,-546.63"/>
</g>
<!-- 11&#45;&gt;39 -->
<g id="edge33" class="edge">
<title>11&#45;&gt;39</title>
<path fill="none" stroke="black" stroke-width="2.33" d="M1081.78,-694.22C1042.33,-688.98 998.55,-683.7 958.29,-680 883.72,-673.15 340.37,-694.73 285.29,-644 239.42,-601.76 266.29,-567.35 266.29,-505 266.29,-505 266.29,-505 266.29,-187 266.29,-133.44 260.71,-105.76 302.29,-72 335.8,-44.79 595.27,-29.57 744.5,-22.98"/>
<polygon fill="black" stroke="black" stroke-width="2.33" points="744.76,-26.47 754.6,-22.54 744.46,-19.48 744.76,-26.47"/>
</g>
<!-- 12&#45;&gt;19 -->
<g id="edge108" class="edge">
<title>12&#45;&gt;19</title>
<path fill="none" stroke="black" stroke-width="1.72" d="M871.65,-592.46C888.25,-589.28 905.24,-586.05 921.29,-583 1209.64,-528.28 1281.09,-511.07 1570.29,-461 1594.26,-456.85 2419.49,-342.5 2435.29,-324 2459,-296.24 2439.37,-256.2 2418.14,-226.94"/>
<polygon fill="black" stroke="black" stroke-width="1.72" points="2420.67,-224.48 2411.85,-218.61 2415.08,-228.7 2420.67,-224.48"/>
</g>
<!-- 26 -->
<g id="node26" class="node">
<title>26</title>
<ellipse fill="#3accbc" stroke="black" cx="849.29" cy="-188" rx="127.5" ry="25.5"/>
<text text-anchor="middle" x="849.29" y="-192.76" font-family="Times,serif" font-size="16.55">hogchoker</text>
<text text-anchor="middle" x="849.29" y="-174.76" font-family="Times,serif" font-size="16.55">(9.00 gC.m²)</text>
</g>
<!-- 12&#45;&gt;26 -->
<g id="edge109" class="edge">
<title>12&#45;&gt;26</title>
<path fill="none" stroke="black" stroke-width="1.03" d="M772.86,-583.72C787.45,-508.36 826.75,-305.41 842.56,-223.74"/>
<polygon fill="black" stroke="black" stroke-width="1.03" points="846.08,-223.98 844.54,-213.5 839.21,-222.65 846.08,-223.98"/>
</g>
<!-- 12&#45;&gt;36 -->
<g id="edge110" class="edge">
<title>12&#45;&gt;36</title>
<path fill="none" stroke="black" stroke-width="2.13" d="M870.98,-592.3C890.62,-588.88 911.05,-585.6 930.29,-583 1146.3,-553.77 1394.2,-532.68 1569.08,-519.86"/>
<polygon fill="black" stroke="black" stroke-width="2.13" points="1569.46,-523.34 1579.18,-519.12 1568.95,-516.36 1569.46,-523.34"/>
</g>
<!-- 12&#45;&gt;38 -->
<g id="edge6" class="edge">
<title>12&#45;&gt;38</title>
<path fill="none" stroke="black" stroke-width="1.91" d="M916.05,-612.5C1151.46,-610.76 1623.84,-600.16 2020.29,-547 2198.36,-523.12 2238.58,-493.51 2415.29,-461 2520.93,-441.56 2553.37,-461.81 2654.29,-425 2706.2,-406.06 2711.97,-386.83 2760.29,-360 2791.56,-342.63 2801.93,-342.94 2832.29,-324 2958.46,-245.29 3032.34,-254.29 3098.29,-121 3107.94,-101.48 3106.98,-91.97 3098.29,-72 3093.35,-60.68 3084.68,-50.68 3075.56,-42.51"/>
<polygon fill="black" stroke="black" stroke-width="1.91" points="3077.78,-39.81 3067.87,-36.09 3073.3,-45.19 3077.78,-39.81"/>
</g>
<!-- 12&#45;&gt;39 -->
<g id="edge34" class="edge">
<title>12&#45;&gt;39</title>
<path fill="none" stroke="black" stroke-width="2.2" d="M686.35,-588.71C563.04,-550.02 342.29,-470.07 342.29,-393.5 342.29,-393.5 342.29,-393.5 342.29,-187 342.29,-134.79 327.63,-107.1 366.29,-72 393.87,-46.96 613.36,-31.24 746.78,-23.9"/>
<polygon fill="black" stroke="black" stroke-width="2.2" points="747.24,-27.38 757.03,-23.35 746.86,-20.39 747.24,-27.38"/>
</g>
<!-- 13&#45;&gt;36 -->
<g id="edge111" class="edge">
<title>13&#45;&gt;36</title>
<path fill="none" stroke="black" stroke-width="2.16" d="M828.66,-689.66C862.03,-679.42 896.93,-664.79 925.29,-644 952.04,-624.39 939.59,-599.64 968.29,-583 994.13,-568.01 1333.17,-539.74 1569.02,-521.66"/>
<polygon fill="black" stroke="black" stroke-width="2.16" points="1569.42,-525.14 1579.12,-520.89 1568.88,-518.16 1569.42,-525.14"/>
</g>
<!-- 13&#45;&gt;38 -->
<g id="edge7" class="edge">
<title>13&#45;&gt;38</title>
<path fill="none" stroke="black" stroke-width="2.31" d="M853.44,-695.84C911.37,-689.77 978.93,-683.53 1040.29,-680 1099.47,-676.59 3123.66,-674.85 3174.29,-644 3287.75,-574.87 3447,-160.93 3348.29,-72 3318.34,-45.02 3219.18,-31.49 3141.57,-24.89"/>
<polygon fill="black" stroke="black" stroke-width="2.31" points="3141.51,-21.38 3131.25,-24.05 3140.93,-28.35 3141.51,-21.38"/>
</g>
<!-- 13&#45;&gt;39 -->
<g id="edge35" class="edge">
<title>13&#45;&gt;39</title>
<path fill="none" stroke="black" stroke-width="2.32" d="M542.23,-712.07C405.64,-708.02 227.51,-693.05 176.29,-644 131,-600.64 152.29,-567.69 152.29,-505 152.29,-505 152.29,-505 152.29,-187 152.29,-134.79 137.1,-106.5 176.29,-72 217.43,-35.78 557.88,-24.19 738.18,-20.58"/>
<polygon fill="black" stroke="black" stroke-width="2.32" points="738.31,-24.08 748.24,-20.38 738.17,-17.08 738.31,-24.08"/>
</g>
<!-- 25 -->
<g id="node25" class="node">
<title>25</title>
<ellipse fill="#3accbc" stroke="black" cx="1473.29" cy="-188" rx="113.5" ry="22.5"/>
<text text-anchor="middle" x="1473.29" y="-192.21" font-family="Times,serif" font-size="14.74">croaker</text>
<text text-anchor="middle" x="1473.29" y="-176.21" font-family="Times,serif" font-size="14.74">(0.95 gC.m²)</text>
</g>
<!-- 14&#45;&gt;25 -->
<g id="edge112" class="edge">
<title>14&#45;&gt;25</title>
<path fill="none" stroke="black" stroke-width="0.94" d="M1230.55,-261.31C1284.88,-245.13 1352.76,-224.9 1402.92,-209.96"/>
<polygon fill="black" stroke="black" stroke-width="0.94" points="1404.12,-213.26 1412.7,-207.05 1402.12,-206.55 1404.12,-213.26"/>
</g>
<!-- 14&#45;&gt;26 -->
<g id="edge113" class="edge">
<title>14&#45;&gt;26</title>
<path fill="none" stroke="black" stroke-width="1.38" d="M1056.96,-260.25C1014.17,-245.57 962.37,-227.8 921.21,-213.68"/>
<polygon fill="black" stroke="black" stroke-width="1.38" points="922.12,-210.29 911.52,-210.35 919.84,-216.91 922.12,-210.29"/>
</g>
<!-- 27 -->
<g id="node27" class="node">
<title>27</title>
<ellipse fill="#3accbc" stroke="black" cx="2072.29" cy="-188" rx="138.5" ry="27.5"/>
<text text-anchor="middle" x="2072.29" y="-193.62" font-family="Times,serif" font-size="17.97">spot</text>
<text text-anchor="middle" x="2072.29" y="-173.62" font-family="Times,serif" font-size="17.97">(35.00 gC.m²)</text>
</g>
<!-- 14&#45;&gt;27 -->
<g id="edge114" class="edge">
<title>14&#45;&gt;27</title>
<path fill="none" stroke="black" stroke-width="1.75" d="M1253.86,-264.79C1274.89,-261.06 1296.69,-257.58 1317.29,-255 1568.72,-223.51 1634.47,-247.21 1886.29,-219 1910.71,-216.26 1936.83,-212.55 1961.53,-208.67"/>
<polygon fill="black" stroke="black" stroke-width="1.75" points="1962.33,-212.08 1971.65,-207.05 1961.23,-205.17 1962.33,-212.08"/>
</g>
<!-- 28 -->
<g id="node28" class="node">
<title>28</title>
<ellipse fill="#3accbc" stroke="black" cx="1741.29" cy="-188" rx="136" ry="27"/>
<text text-anchor="middle" x="1741.29" y="-192.89" font-family="Times,serif" font-size="17.63">white perch</text>
<text text-anchor="middle" x="1741.29" y="-173.89" font-family="Times,serif" font-size="17.63">(25.48 gC.m²)</text>
</g>
<!-- 14&#45;&gt;28 -->
<g id="edge115" class="edge">
<title>14&#45;&gt;28</title>
<path fill="none" stroke="black" stroke-width="1.44" d="M1256.89,-265.38C1277,-261.7 1297.72,-258.1 1317.29,-255 1440.77,-235.43 1472.98,-239.68 1596.29,-219 1611.26,-216.49 1627.04,-213.54 1642.46,-210.49"/>
<polygon fill="black" stroke="black" stroke-width="1.44" points="1643.42,-213.87 1652.53,-208.47 1642.04,-207 1643.42,-213.87"/>
</g>
<!-- 29 -->
<g id="node29" class="node">
<title>29</title>
<ellipse fill="#3accbc" stroke="black" cx="1130.29" cy="-188" rx="135" ry="27"/>
<text text-anchor="middle" x="1130.29" y="-193" font-family="Times,serif" font-size="17.49">catfish</text>
<text text-anchor="middle" x="1130.29" y="-174" font-family="Times,serif" font-size="17.49">(22.38 gC.m²)</text>
</g>
<!-- 14&#45;&gt;29 -->
<g id="edge116" class="edge">
<title>14&#45;&gt;29</title>
<path fill="none" stroke="black" stroke-width="1.59" d="M1136.34,-255.92C1135.45,-246.08 1134.47,-235.21 1133.56,-225.15"/>
<polygon fill="black" stroke="black" stroke-width="1.59" points="1137.03,-224.68 1132.64,-215.03 1130.06,-225.31 1137.03,-224.68"/>
</g>
<!-- 14&#45;&gt;36 -->
<g id="edge117" class="edge">
<title>14&#45;&gt;36</title>
<path fill="none" stroke="black" stroke-width="3.12" d="M1173.41,-322.39C1209,-353.72 1267.79,-400.33 1327.29,-425 1402.9,-456.35 1490.33,-475.12 1569.01,-486.34"/>
<polygon fill="black" stroke="black" stroke-width="3.12" points="1568.67,-489.83 1579.05,-487.74 1569.63,-482.9 1568.67,-489.83"/>
</g>
<!-- 14&#45;&gt;39 -->
<g id="edge36" class="edge">
<title>14&#45;&gt;39</title>
<path fill="none" stroke="black" stroke-width="2.73" d="M990.54,-273.75C874.71,-260.73 730.58,-240.51 712.29,-219 661.43,-159.2 757.41,-80.37 813.25,-41.98"/>
<polygon fill="black" stroke="black" stroke-width="2.73" points="815.52,-44.68 821.84,-36.18 811.6,-38.88 815.52,-44.68"/>
</g>
<!-- 15&#45;&gt;19 -->
<g id="edge118" class="edge">
<title>15&#45;&gt;19</title>
<path fill="none" stroke="black" stroke-width="1.78" d="M1567.04,-266.45C1588.37,-262.04 1611.03,-257.89 1632.29,-255 1891.73,-219.75 1960.36,-250.47 2220.29,-219 2235.72,-217.13 2251.9,-214.74 2267.84,-212.11"/>
<polygon fill="black" stroke="black" stroke-width="1.78" points="2268.44,-215.56 2277.73,-210.46 2267.29,-208.66 2268.44,-215.56"/>
</g>
<!-- 15&#45;&gt;25 -->
<g id="edge119" class="edge">
<title>15&#45;&gt;25</title>
<path fill="none" stroke="black" stroke-width="0.73" d="M1474,-259.99C1473.88,-247.69 1473.73,-233.27 1473.6,-220.65"/>
<polygon fill="black" stroke="black" stroke-width="0.73" points="1477.1,-220.52 1473.5,-210.56 1470.1,-220.59 1477.1,-220.52"/>
</g>
<!-- 15&#45;&gt;26 -->
<g id="edge120" class="edge">
<title>15&#45;&gt;26</title>
<path fill="none" stroke="black" stroke-width="1.07" d="M1379.52,-266.65C1359.06,-262.39 1337.51,-258.25 1317.29,-255 1171.18,-231.53 1132.33,-242.86 986.29,-219 971.01,-216.5 954.87,-213.4 939.24,-210.14"/>
<polygon fill="black" stroke="black" stroke-width="1.07" points="939.57,-206.63 929.06,-207.98 938.11,-213.48 939.57,-206.63"/>
</g>
<!-- 15&#45;&gt;27 -->
<g id="edge121" class="edge">
<title>15&#45;&gt;27</title>
<path fill="none" stroke="black" stroke-width="1.49" d="M1570.59,-266.99C1590.91,-262.76 1612.27,-258.54 1632.29,-255 1744.56,-235.16 1773.56,-236.08 1886.29,-219 1909.49,-215.48 1934.3,-211.58 1957.99,-207.79"/>
<polygon fill="black" stroke="black" stroke-width="1.49" points="1958.75,-211.21 1968.06,-206.17 1957.64,-204.3 1958.75,-211.21"/>
</g>
<!-- 15&#45;&gt;28 -->
<g id="edge122" class="edge">
<title>15&#45;&gt;28</title>
<path fill="none" stroke="black" stroke-width="1.38" d="M1542.35,-263.13C1581.32,-248.61 1630.17,-230.41 1669.71,-215.68"/>
<polygon fill="black" stroke="black" stroke-width="1.38" points="1671.14,-218.88 1679.28,-212.11 1668.69,-212.32 1671.14,-218.88"/>
</g>
<!-- 15&#45;&gt;29 -->
<g id="edge123" class="edge">
<title>15&#45;&gt;29</title>
<path fill="none" stroke="black" stroke-width="1.17" d="M1392.33,-264.79C1338.73,-249.29 1268.88,-229.09 1214.78,-213.44"/>
<polygon fill="black" stroke="black" stroke-width="1.17" points="1215.45,-209.99 1204.87,-210.57 1213.5,-216.71 1215.45,-209.99"/>
</g>
<!-- 15&#45;&gt;36 -->
<g id="edge124" class="edge">
<title>15&#45;&gt;36</title>
<path fill="none" stroke="black" stroke-width="2.72" d="M1566.67,-312.6C1601.05,-323.48 1639.22,-338.9 1670.29,-360 1706.44,-384.55 1738.66,-422.01 1761.34,-452.43"/>
<polygon fill="black" stroke="black" stroke-width="2.72" points="1758.74,-454.81 1767.47,-460.81 1764.39,-450.68 1758.74,-454.81"/>
</g>
<!-- 15&#45;&gt;39 -->
<g id="edge37" class="edge">
<title>15&#45;&gt;39</title>
<path fill="none" stroke="black" stroke-width="2.13" d="M1397.24,-264.17C1370.12,-253.19 1340.61,-238.27 1317.29,-219 1291.44,-197.64 1301.2,-177 1274.29,-157 1172.42,-81.28 1027.16,-45.98 935.58,-30.36"/>
<polygon fill="black" stroke="black" stroke-width="2.13" points="935.95,-26.88 925.51,-28.69 934.81,-33.78 935.95,-26.88"/>
</g>
<!-- 16&#45;&gt;19 -->
<g id="edge125" class="edge">
<title>16&#45;&gt;19</title>
<path fill="none" stroke="black" stroke-width="2.35" d="M2296.51,-255.92C2309.83,-245.88 2324.57,-234.77 2338.14,-224.53"/>
<polygon fill="black" stroke="black" stroke-width="2.35" points="2340.54,-227.11 2346.42,-218.29 2336.33,-221.52 2340.54,-227.11"/>
</g>
<!-- 16&#45;&gt;27 -->
<g id="edge126" class="edge">
<title>16&#45;&gt;27</title>
<path fill="none" stroke="black" stroke-width="1.37" d="M2195.52,-256.74C2173.42,-244.6 2148.32,-230.8 2126.56,-218.84"/>
<polygon fill="black" stroke="black" stroke-width="1.37" points="2128.22,-215.76 2117.77,-214.01 2124.85,-221.89 2128.22,-215.76"/>
</g>
<!-- 16&#45;&gt;36 -->
<g id="edge127" class="edge">
<title>16&#45;&gt;36</title>
<path fill="none" stroke="black" stroke-width="2.72" d="M2206.45,-322.78C2162.24,-352.22 2093.36,-395.52 2029.29,-425 2003.45,-436.89 1975.27,-447.86 1947.69,-457.59"/>
<polygon fill="black" stroke="black" stroke-width="2.72" points="1946.26,-454.38 1937.97,-460.98 1948.57,-460.99 1946.26,-454.38"/>
</g>
<!-- 16&#45;&gt;39 -->
<g id="edge38" class="edge">
<title>16&#45;&gt;39</title>
<path fill="none" stroke="black" stroke-width="2.77" d="M2131.67,-265.03C2042,-247.35 1934.1,-225.15 1925.29,-219 1898.59,-200.38 1912.95,-175.68 1886.29,-157 1738.44,-53.41 1194.88,-27.49 959.34,-21.08"/>
<polygon fill="black" stroke="black" stroke-width="2.77" points="959.13,-17.57 949.04,-20.8 958.94,-24.57 959.13,-17.57"/>
</g>
<!-- 17&#45;&gt;36 -->
<g id="edge128" class="edge">
<title>17&#45;&gt;36</title>
<path fill="none" stroke="black" stroke-width="2.79" d="M741.92,-314.05C774.52,-324.73 809.68,-339.64 838.29,-360 868.43,-381.45 857.66,-407.56 890.29,-425 905.19,-432.97 1305.92,-465.24 1569.08,-485.69"/>
<polygon fill="black" stroke="black" stroke-width="2.79" points="1568.92,-489.19 1579.16,-486.48 1569.47,-482.21 1568.92,-489.19"/>
</g>
<!-- 17&#45;&gt;39 -->
<g id="edge39" class="edge">
<title>17&#45;&gt;39</title>
<path fill="none" stroke="black" stroke-width="2.74" d="M631.45,-257.85C617.42,-212.18 599.42,-125.87 641.29,-72 656.59,-52.31 712.73,-38.72 762.84,-30.24"/>
<polygon fill="black" stroke="black" stroke-width="2.74" points="763.46,-33.68 772.77,-28.61 762.33,-26.78 763.46,-33.68"/>
</g>
<!-- 18&#45;&gt;19 -->
<g id="edge129" class="edge">
<title>18&#45;&gt;19</title>
<path fill="none" stroke="black" stroke-width="2" d="M1914.46,-269.59C1999.71,-255.92 2117.14,-236.81 2220.29,-219 2234.16,-216.61 2248.67,-214.04 2263.1,-211.47"/>
<polygon fill="black" stroke="black" stroke-width="2" points="2263.83,-214.89 2273.06,-209.68 2262.6,-208 2263.83,-214.89"/>
</g>
<!-- 18&#45;&gt;25 -->
<g id="edge130" class="edge">
<title>18&#45;&gt;25</title>
<path fill="none" stroke="black" stroke-width="0.55" d="M1713.2,-263.13C1660.27,-246.78 1592.22,-225.75 1542.13,-210.27"/>
<polygon fill="black" stroke="black" stroke-width="0.55" points="1542.94,-206.86 1532.36,-207.25 1540.88,-213.55 1542.94,-206.86"/>
</g>
<!-- 18&#45;&gt;26 -->
<g id="edge131" class="edge">
<title>18&#45;&gt;26</title>
<path fill="none" stroke="black" stroke-width="1.07" d="M1696.12,-265.7C1675.14,-261.56 1653.06,-257.7 1632.29,-255 1347.13,-217.96 1271.2,-257.88 986.29,-219 970.3,-216.82 953.42,-213.76 937.17,-210.42"/>
<polygon fill="black" stroke="black" stroke-width="1.07" points="937.65,-206.94 927.14,-208.31 936.21,-213.79 937.65,-206.94"/>
</g>
<!-- 18&#45;&gt;27 -->
<g id="edge132" class="edge">
<title>18&#45;&gt;27</title>
<path fill="none" stroke="black" stroke-width="0.72" d="M1868.79,-262.1C1908.7,-247.76 1957.93,-230.08 1997.97,-215.69"/>
<polygon fill="black" stroke="black" stroke-width="0.72" points="1999.19,-218.98 2007.42,-212.3 1996.82,-212.39 1999.19,-218.98"/>
</g>
<!-- 18&#45;&gt;29 -->
<g id="edge133" class="edge">
<title>18&#45;&gt;29</title>
<path fill="none" stroke="black" stroke-width="1.31" d="M1693.37,-266.1C1673.19,-262.08 1652.11,-258.16 1632.29,-255 1493.14,-232.79 1456.89,-238.17 1317.29,-219 1292.55,-215.6 1266.04,-211.58 1240.99,-207.61"/>
<polygon fill="black" stroke="black" stroke-width="1.31" points="1241.52,-204.15 1231.09,-206.03 1240.42,-211.06 1241.52,-204.15"/>
</g>
<!-- 32 -->
<g id="node32" class="node">
<title>32</title>
<ellipse fill="#3accbc" stroke="black" cx="2776.29" cy="-188" rx="122.5" ry="24.5"/>
<text text-anchor="middle" x="2776.29" y="-192.3" font-family="Times,serif" font-size="15.87">summer flounder</text>
<text text-anchor="middle" x="2776.29" y="-175.3" font-family="Times,serif" font-size="15.87">(4.43 gC.m²)</text>
</g>
<!-- 18&#45;&gt;32 -->
<g id="edge134" class="edge">
<title>18&#45;&gt;32</title>
<path fill="none" stroke="black" stroke-width="0.63" d="M1922.36,-271.84C1969.41,-266.01 2023.23,-259.74 2072.29,-255 2292.28,-233.73 2348.55,-242.79 2568.29,-219 2602.39,-215.31 2639.5,-210.28 2672.81,-205.4"/>
<polygon fill="black" stroke="black" stroke-width="0.63" points="2673.64,-208.81 2683.02,-203.89 2672.61,-201.89 2673.64,-208.81"/>
</g>
<!-- 18&#45;&gt;36 -->
<g id="edge135" class="edge">
<title>18&#45;&gt;36</title>
<path fill="none" stroke="black" stroke-width="2.32" d="M1795.29,-320.66C1795.29,-354.44 1795.29,-409.83 1795.29,-450.7"/>
<polygon fill="black" stroke="black" stroke-width="2.32" points="1791.79,-450.76 1795.29,-460.76 1798.79,-450.76 1791.79,-450.76"/>
</g>
<!-- 18&#45;&gt;39 -->
<g id="edge40" class="edge">
<title>18&#45;&gt;39</title>
<path fill="none" stroke="black" stroke-width="2.51" d="M1692.9,-266.23C1672.85,-262.22 1651.95,-258.28 1632.29,-255 1508.09,-234.31 1458.53,-284.96 1351.29,-219 1322.94,-201.56 1333.25,-180.1 1309.29,-157 1257.97,-107.53 1239.99,-97.13 1173.29,-72 1101.14,-44.81 1014.78,-31.56 949.37,-25.11"/>
<polygon fill="black" stroke="black" stroke-width="2.51" points="949.34,-21.59 939.06,-24.13 948.68,-28.56 949.34,-21.59"/>
</g>
<!-- 19&#45;&gt;19 -->
<g id="edge136" class="edge">
<title>19&#45;&gt;19</title>
<path fill="none" stroke="black" stroke-width="1.74" d="M2519.52,-203.82C2542.97,-201.71 2559.29,-196.44 2559.29,-188 2559.29,-180.81 2547.46,-175.92 2529.46,-173.33"/>
<polygon fill="black" stroke="black" stroke-width="1.74" points="2529.86,-169.85 2519.52,-172.18 2529.06,-176.8 2529.86,-169.85"/>
</g>
<!-- 33 -->
<g id="node33" class="node">
<title>33</title>
<ellipse fill="#3accbc" stroke="black" cx="2966.29" cy="-96.5" rx="122.5" ry="24.5"/>
<text text-anchor="middle" x="2966.29" y="-100.8" font-family="Times,serif" font-size="15.87">striped bass</text>
<text text-anchor="middle" x="2966.29" y="-83.8" font-family="Times,serif" font-size="15.87">(4.40 gC.m²)</text>
</g>
<!-- 19&#45;&gt;33 -->
<g id="edge137" class="edge">
<title>19&#45;&gt;33</title>
<path fill="none" stroke="black" stroke-width="0.75" d="M2506.38,-168.35C2611.35,-152.18 2761.7,-129.02 2861.57,-113.63"/>
<polygon fill="black" stroke="black" stroke-width="0.75" points="2862.33,-117.06 2871.68,-112.07 2861.26,-110.14 2862.33,-117.06"/>
</g>
<!-- 19&#45;&gt;36 -->
<g id="edge138" class="edge">
<title>19&#45;&gt;36</title>
<path fill="none" stroke="black" stroke-width="2.14" d="M2468.65,-214.37C2486.92,-224.17 2503.88,-237.4 2514.29,-255 2529.89,-281.4 2531.15,-298.39 2514.29,-324 2483.02,-371.47 2333.84,-409.05 2279.29,-425 2196.71,-449.13 2103.74,-466.47 2021.5,-478.57"/>
<polygon fill="black" stroke="black" stroke-width="2.14" points="2020.92,-475.12 2011.53,-480.02 2021.93,-482.05 2020.92,-475.12"/>
</g>
<!-- 19&#45;&gt;38 -->
<g id="edge8" class="edge">
<title>19&#45;&gt;38</title>
<path fill="none" stroke="black" stroke-width="2.12" d="M2406.54,-157.2C2427.87,-129.9 2463.35,-90.94 2504.29,-72 2577.88,-37.95 2797.5,-25.72 2932.01,-21.36"/>
<polygon fill="black" stroke="black" stroke-width="2.12" points="2932.45,-24.85 2942.34,-21.04 2932.23,-17.85 2932.45,-24.85"/>
</g>
<!-- 19&#45;&gt;39 -->
<g id="edge41" class="edge">
<title>19&#45;&gt;39</title>
<path fill="none" stroke="black" stroke-width="2.38" d="M2310.86,-160.75C2229.21,-133.24 2093.71,-91.39 1973.29,-72 1780.41,-40.94 1202.86,-26.06 959.41,-21.04"/>
<polygon fill="black" stroke="black" stroke-width="2.38" points="959.2,-17.54 949.13,-20.83 959.06,-24.53 959.2,-17.54"/>
</g>
<!-- 20&#45;&gt;36 -->
<g id="edge139" class="edge">
<title>20&#45;&gt;36</title>
<path fill="none" stroke="black" stroke-width="0.84" d="M1796.09,-591.26C1796,-581.41 1795.88,-569.23 1795.77,-557.16"/>
<polygon fill="black" stroke="black" stroke-width="0.84" points="1799.27,-557.07 1795.68,-547.1 1792.27,-557.13 1799.27,-557.07"/>
</g>
<!-- 20&#45;&gt;38 -->
<g id="edge9" class="edge">
<title>20&#45;&gt;38</title>
<path fill="none" stroke="black" stroke-width="0.65" d="M1885.11,-600.63C2129.78,-566.45 2806.79,-461.38 2979.29,-324 3067.45,-253.78 3095.69,-227.94 3131.29,-121 3138.16,-100.34 3142.09,-90.91 3131.29,-72 3123.83,-58.95 3111.77,-48.8 3098.86,-41.03"/>
<polygon fill="black" stroke="black" stroke-width="0.65" points="3100.29,-37.82 3089.84,-36.03 3096.89,-43.94 3100.29,-37.82"/>
</g>
<!-- 20&#45;&gt;39 -->
<g id="edge42" class="edge">
<title>20&#45;&gt;39</title>
<path fill="none" stroke="black" stroke-width="0.61" d="M1691.61,-607.24C1400.51,-590.15 592.87,-525.11 442.29,-324 408.72,-279.17 405.33,-114.08 442.29,-72 462.34,-49.16 636.42,-33.23 750.32,-25.14"/>
<polygon fill="black" stroke="black" stroke-width="0.61" points="750.74,-28.62 760.47,-24.42 750.25,-21.63 750.74,-28.62"/>
</g>
<!-- 21&#45;&gt;33 -->
<g id="edge140" class="edge">
<title>21&#45;&gt;33</title>
<path fill="none" stroke="black" stroke-width="0.54" d="M3068.42,-590.57C3077.43,-578.46 3087.58,-562.73 3093.29,-547 3122.99,-465.15 3181.34,-228.26 3131.29,-157 3117.29,-137.07 3095.93,-123.79 3073.18,-114.94"/>
<polygon fill="black" stroke="black" stroke-width="0.54" points="3074.31,-111.63 3063.71,-111.53 3071.93,-118.21 3074.31,-111.63"/>
</g>
<!-- 21&#45;&gt;36 -->
<g id="edge141" class="edge">
<title>21&#45;&gt;36</title>
<path fill="none" stroke="black" stroke-width="1.11" d="M2972.27,-596.52C2945.72,-591.55 2915.8,-586.48 2888.29,-583 2589.83,-545.29 2243.05,-524.41 2021.52,-513.95"/>
<polygon fill="black" stroke="black" stroke-width="1.11" points="2021.54,-510.45 2011.39,-513.47 2021.22,-517.44 2021.54,-510.45"/>
</g>
<!-- 21&#45;&gt;38 -->
<g id="edge10" class="edge">
<title>21&#45;&gt;38</title>
<path fill="none" stroke="black" stroke-width="0.86" d="M3077.36,-590.9C3170.84,-513.81 3466.61,-247.41 3321.29,-72 3298.57,-44.58 3212.9,-31.24 3142.24,-24.82"/>
<polygon fill="black" stroke="black" stroke-width="0.86" points="3142.2,-21.3 3131.93,-23.92 3141.59,-28.27 3142.2,-21.3"/>
</g>
<!-- 21&#45;&gt;39 -->
<g id="edge43" class="edge">
<title>21&#45;&gt;39</title>
<path fill="none" stroke="black" stroke-width="1.01" d="M3053.77,-590.48C3063.91,-517.96 3085.73,-283.98 2969.29,-157 2927.61,-111.55 2891.73,-145.84 2835.29,-121 2798.16,-104.66 2797.07,-83.88 2758.29,-72 2587.62,-19.72 1353.32,-17.89 965.54,-18.63"/>
<polygon fill="black" stroke="black" stroke-width="1.01" points="965.42,-15.13 955.43,-18.65 965.43,-22.13 965.42,-15.13"/>
</g>
<!-- 22&#45;&gt;27 -->
<g id="edge142" class="edge">
<title>22&#45;&gt;27</title>
<path fill="none" stroke="black" stroke-width="1.12" d="M2480.06,-689.09C2501.36,-678.8 2521.88,-664.28 2534.29,-644 2599.11,-538.06 2704.31,-483.45 2456.29,-255 2417.27,-219.06 2272.52,-228.27 2220.29,-219 2205.57,-216.39 2190.07,-213.45 2174.86,-210.46"/>
<polygon fill="black" stroke="black" stroke-width="1.12" points="2175.41,-207 2164.92,-208.5 2174.05,-213.87 2175.41,-207"/>
</g>
<!-- 22&#45;&gt;28 -->
<g id="edge143" class="edge">
<title>22&#45;&gt;28</title>
<path fill="none" stroke="black" stroke-width="1.13" d="M2334.51,-687.48C2311.22,-676.51 2285.95,-661.98 2266.29,-644 2228.59,-609.53 2062.86,-284.68 2021.29,-255 2013.64,-249.54 1918.13,-227.67 1840.76,-210.59"/>
<polygon fill="black" stroke="black" stroke-width="1.13" points="1841.46,-207.16 1830.94,-208.42 1839.96,-213.99 1841.46,-207.16"/>
</g>
<!-- 30 -->
<g id="node30" class="node">
<title>30</title>
<ellipse fill="#3accbc" stroke="black" cx="2631.29" cy="-96.5" rx="118" ry="23.5"/>
<text text-anchor="middle" x="2631.29" y="-101.25" font-family="Times,serif" font-size="15.31">bluefish</text>
<text text-anchor="middle" x="2631.29" y="-84.25" font-family="Times,serif" font-size="15.31">(2.25 gC.m²)</text>
</g>
<!-- 22&#45;&gt;30 -->
<g id="edge144" class="edge">
<title>22&#45;&gt;30</title>
<path fill="none" stroke="black" stroke-width="0.8" d="M2501.03,-692.53C2536.37,-682.13 2574.8,-666.68 2605.29,-644 2631.9,-624.2 2626.15,-607.71 2648.29,-583 2706.27,-518.27 2905.58,-403.23 2941.29,-324 2971.78,-256.33 2988.56,-214.22 2941.29,-157 2934.43,-148.7 2819.11,-128.16 2731.12,-113.54"/>
<polygon fill="black" stroke="black" stroke-width="0.8" points="2731.51,-110.06 2721.07,-111.88 2730.37,-116.96 2731.51,-110.06"/>
</g>
<!-- 31 -->
<g id="node31" class="node">
<title>31</title>
<ellipse fill="#3accbc" stroke="black" cx="2400.29" cy="-613.5" rx="125" ry="25"/>
<text text-anchor="middle" x="2400.29" y="-618.54" font-family="Times,serif" font-size="16.20">weakfish</text>
<text text-anchor="middle" x="2400.29" y="-600.54" font-family="Times,serif" font-size="16.20">(6.30 gC.m²)</text>
</g>
<!-- 22&#45;&gt;31 -->
<g id="edge145" class="edge">
<title>22&#45;&gt;31</title>
<path fill="none" stroke="black" stroke-width="1.53" d="M2400.29,-684.42C2400.29,-673.33 2400.29,-660.49 2400.29,-648.86"/>
<polygon fill="black" stroke="black" stroke-width="1.53" points="2403.79,-648.6 2400.29,-638.6 2396.79,-648.6 2403.79,-648.6"/>
</g>
<!-- 22&#45;&gt;32 -->
<g id="edge146" class="edge">
<title>22&#45;&gt;32</title>
<path fill="none" stroke="black" stroke-width="1.09" d="M2482.76,-689.64C2511.79,-678.94 2543.36,-664.02 2568.29,-644 2585.13,-630.47 2782.86,-344.63 2789.29,-324 2799.73,-290.51 2793.61,-250.29 2786.68,-222.5"/>
<polygon fill="black" stroke="black" stroke-width="1.09" points="2789.97,-221.26 2784.01,-212.5 2783.21,-223.07 2789.97,-221.26"/>
</g>
<!-- 22&#45;&gt;33 -->
<g id="edge147" class="edge">
<title>22&#45;&gt;33</title>
<path fill="none" stroke="black" stroke-width="1.16" d="M2489.91,-690.7C2509.69,-686.55 2530.62,-682.68 2550.29,-680 2619.1,-670.62 3126.61,-694.5 3174.29,-644 3322.99,-486.47 3288.43,-327.09 3154.29,-157 3136.55,-134.52 3110.34,-120.37 3083.08,-111.52"/>
<polygon fill="black" stroke="black" stroke-width="1.16" points="3083.99,-108.14 3073.41,-108.61 3081.97,-114.84 3083.99,-108.14"/>
</g>
<!-- 22&#45;&gt;36 -->
<g id="edge148" class="edge">
<title>22&#45;&gt;36</title>
<path fill="none" stroke="black" stroke-width="2.1" d="M2329.4,-688.19C2230.95,-654.42 2050.99,-592.7 1927.38,-550.3"/>
<polygon fill="black" stroke="black" stroke-width="2.1" points="1928.43,-546.97 1917.84,-547.03 1926.16,-553.59 1928.43,-546.97"/>
</g>
<!-- 22&#45;&gt;38 -->
<g id="edge11" class="edge">
<title>22&#45;&gt;38</title>
<path fill="none" stroke="black" stroke-width="1.53" d="M2543.57,-708.87C2842.73,-700.62 3509.05,-678.47 3544.29,-644 3600.63,-588.88 3573.29,-369.32 3573.29,-290.5 3573.29,-290.5 3573.29,-290.5 3573.29,-187 3573.29,-133.17 3577.17,-105.82 3535.29,-72 3505.46,-47.91 3278.77,-31.72 3143.06,-24.07"/>
<polygon fill="black" stroke="black" stroke-width="1.53" points="3143.23,-20.58 3133.05,-23.51 3142.84,-27.57 3143.23,-20.58"/>
</g>
<!-- 22&#45;&gt;39 -->
<g id="edge44" class="edge">
<title>22&#45;&gt;39</title>
<path fill="none" stroke="black" stroke-width="1.99" d="M2270.82,-700.37C2126.32,-686.8 1885.54,-664.08 1678.29,-644 1569.26,-633.44 801.85,-579.62 697.29,-547 590.55,-513.7 557.79,-502.58 477.29,-425 362.8,-314.67 309.16,-186.68 419.29,-72 441.75,-48.61 629.12,-32.68 749,-24.77"/>
<polygon fill="black" stroke="black" stroke-width="1.99" points="749.56,-28.25 759.31,-24.1 749.1,-21.26 749.56,-28.25"/>
</g>
<!-- 23&#45;&gt;30 -->
<g id="edge149" class="edge">
<title>23&#45;&gt;30</title>
<path fill="none" stroke="black" stroke-width="0.79" d="M3377.15,-586.24C3305.7,-493.37 3065.99,-184.51 3017.29,-157 2993.48,-143.55 2846.44,-123.43 2740.9,-110.38"/>
<polygon fill="black" stroke="black" stroke-width="0.79" points="2741.18,-106.89 2730.82,-109.14 2740.32,-113.84 2741.18,-106.89"/>
</g>
<!-- 23&#45;&gt;32 -->
<g id="edge150" class="edge">
<title>23&#45;&gt;32</title>
<path fill="none" stroke="black" stroke-width="1" d="M3356.02,-587.09C3336.83,-575.12 3313.76,-560.53 3293.29,-547 3113.01,-427.89 2902.48,-278.98 2816.22,-217.54"/>
<polygon fill="black" stroke="black" stroke-width="1" points="2818.2,-214.65 2808.02,-211.69 2814.13,-220.35 2818.2,-214.65"/>
</g>
<!-- 23&#45;&gt;33 -->
<g id="edge151" class="edge">
<title>23&#45;&gt;33</title>
<path fill="none" stroke="black" stroke-width="1.06" d="M3386.76,-586.01C3371.57,-545.31 3345.29,-464.62 3345.29,-393.5 3345.29,-393.5 3345.29,-393.5 3345.29,-288.5 3345.29,-223.89 3334.41,-196.51 3283.29,-157 3252.65,-133.33 3162.61,-117.87 3086.28,-108.65"/>
<polygon fill="black" stroke="black" stroke-width="1.06" points="3086.43,-105.15 3076.09,-107.45 3085.61,-112.1 3086.43,-105.15"/>
</g>
<!-- 23&#45;&gt;36 -->
<g id="edge152" class="edge">
<title>23&#45;&gt;36</title>
<path fill="none" stroke="black" stroke-width="1.61" d="M3288.58,-596.46C3252.3,-591.55 3211.61,-586.52 3174.29,-583 2769.12,-544.8 2295.09,-522.97 2021.57,-512.59"/>
<polygon fill="black" stroke="black" stroke-width="1.61" points="2021.65,-509.09 2011.53,-512.21 2021.39,-516.09 2021.65,-509.09"/>
</g>
<!-- 23&#45;&gt;38 -->
<g id="edge12" class="edge">
<title>23&#45;&gt;38</title>
<path fill="none" stroke="black" stroke-width="0.99" d="M3415.08,-586.01C3422.2,-574.43 3429.97,-560.45 3435.29,-547 3474.61,-447.6 3582.51,-151.71 3511.29,-72 3487.29,-45.15 3275.47,-30.21 3144.52,-23.46"/>
<polygon fill="black" stroke="black" stroke-width="0.99" points="3144.62,-19.97 3134.45,-22.95 3144.26,-26.96 3144.62,-19.97"/>
</g>
<!-- 23&#45;&gt;39 -->
<g id="edge45" class="edge">
<title>23&#45;&gt;39</title>
<path fill="none" stroke="black" stroke-width="1.72" d="M3402.35,-585.8C3415.51,-507.56 3441.99,-276.8 3323.29,-157 3248.04,-81.07 3203.21,-92.44 3098.29,-72 2888.43,-31.12 1392.13,-21.4 963.66,-19.44"/>
<polygon fill="black" stroke="black" stroke-width="1.72" points="963.45,-15.94 953.43,-19.39 963.42,-22.94 963.45,-15.94"/>
</g>
<!-- 24&#45;&gt;36 -->
<g id="edge153" class="edge">
<title>24&#45;&gt;36</title>
<path fill="none" stroke="black" stroke-width="0.8" d="M2677.77,-600.66C2634.39,-595.09 2581.67,-588.49 2534.29,-583 2362.5,-563.11 2168,-542.66 2021.67,-527.7"/>
<polygon fill="black" stroke="black" stroke-width="0.8" points="2021.97,-524.21 2011.66,-526.67 2021.26,-531.17 2021.97,-524.21"/>
</g>
<!-- 24&#45;&gt;38 -->
<g id="edge13" class="edge">
<title>24&#45;&gt;38</title>
<path fill="none" stroke="black" stroke-width="0.65" d="M2811.23,-593.09C2908.83,-546 3143.81,-414.96 3207.29,-219 3227.42,-156.85 3245.82,-124.76 3207.29,-72 3190.52,-49.05 3163.7,-35.8 3136.46,-28.23"/>
<polygon fill="black" stroke="black" stroke-width="0.65" points="3136.98,-24.75 3126.43,-25.69 3135.26,-31.54 3136.98,-24.75"/>
</g>
<!-- 24&#45;&gt;39 -->
<g id="edge46" class="edge">
<title>24&#45;&gt;39</title>
<path fill="none" stroke="black" stroke-width="0.72" d="M2766.12,-591.37C2757.35,-517.59 2717.41,-269.8 2568.29,-157 2521.94,-121.95 2366.47,-131.32 2309.29,-121 2210.71,-103.2 2188.6,-85.08 2089.29,-72 1872.41,-43.44 1219.55,-26.84 958.7,-21.2"/>
<polygon fill="black" stroke="black" stroke-width="0.72" points="958.53,-17.7 948.46,-20.98 958.38,-24.69 958.53,-17.7"/>
</g>
<!-- 25&#45;&gt;36 -->
<g id="edge154" class="edge">
<title>25&#45;&gt;36</title>
<path fill="none" stroke="black" stroke-width="0.87" d="M1538.04,-206.6C1556.73,-211.18 1577.22,-215.75 1596.29,-219 1676.19,-232.64 1904.87,-194.92 1959.29,-255 2016.31,-317.96 1932.26,-402.45 1864.93,-454.78"/>
<polygon fill="black" stroke="black" stroke-width="0.87" points="1862.63,-452.14 1856.82,-461 1866.88,-457.69 1862.63,-452.14"/>
</g>
<!-- 25&#45;&gt;38 -->
<g id="edge14" class="edge">
<title>25&#45;&gt;38</title>
<path fill="none" stroke="black" stroke-width="0.69" d="M1540.45,-169.78C1558.53,-165.37 1578.11,-160.81 1596.29,-157 1810.05,-112.21 1863.31,-96.95 2080.29,-72 2387.03,-36.73 2751.66,-24.76 2930.78,-20.83"/>
<polygon fill="black" stroke="black" stroke-width="0.69" points="2931.08,-24.33 2941,-20.61 2930.93,-17.33 2931.08,-24.33"/>
</g>
<!-- 25&#45;&gt;39 -->
<g id="edge47" class="edge">
<title>25&#45;&gt;39</title>
<path fill="none" stroke="black" stroke-width="0.79" d="M1456.91,-165.67C1434.84,-138.68 1392.77,-93.16 1345.29,-72 1277.72,-41.89 1079.48,-28.37 955.04,-22.7"/>
<polygon fill="black" stroke="black" stroke-width="0.79" points="954.87,-19.19 944.72,-22.24 954.56,-26.18 954.87,-19.19"/>
</g>
<!-- 26&#45;&gt;36 -->
<g id="edge155" class="edge">
<title>26&#45;&gt;36</title>
<path fill="none" stroke="black" stroke-width="1.35" d="M861.22,-213.46C888.62,-268.53 956.84,-399.44 998.29,-425 1022.52,-439.94 1342.09,-467.7 1569.1,-485.75"/>
<polygon fill="black" stroke="black" stroke-width="1.35" points="1568.92,-489.25 1579.16,-486.55 1569.47,-482.27 1568.92,-489.25"/>
</g>
<!-- 26&#45;&gt;38 -->
<g id="edge15" class="edge">
<title>26&#45;&gt;38</title>
<path fill="none" stroke="black" stroke-width="1.08" d="M927.16,-167.8C1040.85,-140.74 1259.31,-92.41 1448.29,-72 1736.04,-40.92 2617.19,-25.24 2929.83,-20.55"/>
<polygon fill="black" stroke="black" stroke-width="1.08" points="2930.31,-24.04 2940.26,-20.39 2930.21,-17.04 2930.31,-24.04"/>
</g>
<!-- 26&#45;&gt;39 -->
<g id="edge48" class="edge">
<title>26&#45;&gt;39</title>
<path fill="none" stroke="black" stroke-width="1.25" d="M849.29,-162.21C849.29,-131.21 849.29,-78.33 849.29,-46.23"/>
<polygon fill="black" stroke="black" stroke-width="1.25" points="852.79,-46.2 849.29,-36.2 845.79,-46.2 852.79,-46.2"/>
</g>
<!-- 27&#45;&gt;30 -->
<g id="edge156" class="edge">
<title>27&#45;&gt;30</title>
<path fill="none" stroke="black" stroke-width="1.01" d="M2164.51,-167.47C2182.95,-163.8 2202.2,-160.14 2220.29,-157 2323.19,-139.14 2441.24,-122.44 2524.34,-111.31"/>
<polygon fill="black" stroke="black" stroke-width="1.01" points="2524.85,-114.77 2534.3,-109.98 2523.92,-107.83 2524.85,-114.77"/>
</g>
<!-- 27&#45;&gt;36 -->
<g id="edge157" class="edge">
<title>27&#45;&gt;36</title>
<path fill="none" stroke="black" stroke-width="1.71" d="M2165.35,-208.37C2183.55,-212.01 2202.5,-215.71 2220.29,-219 2267.92,-227.81 2403.99,-218.03 2435.29,-255 2455.1,-278.41 2453.55,-299.37 2435.29,-324 2408.54,-360.07 2177.63,-418.47 2000.77,-458.7"/>
<polygon fill="black" stroke="black" stroke-width="1.71" points="1999.78,-455.33 1990.8,-460.96 2001.33,-462.16 1999.78,-455.33"/>
</g>
<!-- 27&#45;&gt;38 -->
<g id="edge16" class="edge">
<title>27&#45;&gt;38</title>
<path fill="none" stroke="black" stroke-width="1.41" d="M2166.73,-167.74C2257.07,-149.22 2380.34,-123.65 2385.29,-121 2412.72,-106.31 2407.02,-85.01 2435.29,-72 2520.16,-32.94 2777.19,-22.56 2927.87,-19.87"/>
<polygon fill="black" stroke="black" stroke-width="1.41" points="2928.14,-23.36 2938.08,-19.69 2928.02,-16.36 2928.14,-23.36"/>
</g>
<!-- 27&#45;&gt;39 -->
<g id="edge49" class="edge">
<title>27&#45;&gt;39</title>
<path fill="none" stroke="black" stroke-width="1.6" d="M2047.58,-160.81C2019.5,-133.03 1970.85,-90.65 1919.29,-72 1830.88,-40.03 1214.76,-25.5 959.58,-20.8"/>
<polygon fill="black" stroke="black" stroke-width="1.6" points="959.61,-17.3 949.55,-20.62 959.48,-24.3 959.61,-17.3"/>
</g>
<!-- 28&#45;&gt;36 -->
<g id="edge158" class="edge">
<title>28&#45;&gt;36</title>
<path fill="none" stroke="black" stroke-width="1.45" d="M1834.21,-207.82C1901.11,-222.31 1981.27,-242 1991.29,-255 2037.39,-314.86 2033.7,-362.47 1991.29,-425 1983.43,-436.58 1973.55,-446.45 1962.42,-454.85"/>
<polygon fill="black" stroke="black" stroke-width="1.45" points="1960.27,-452.08 1954.11,-460.71 1964.3,-457.8 1960.27,-452.08"/>
</g>
<!-- 28&#45;&gt;38 -->
<g id="edge17" class="edge">
<title>28&#45;&gt;38</title>
<path fill="none" stroke="black" stroke-width="1.18" d="M1832.31,-167.9C1956.67,-142.45 2186.91,-97.67 2385.29,-72 2580.7,-46.72 2810.53,-31.45 2939.73,-24.17"/>
<polygon fill="black" stroke="black" stroke-width="1.18" points="2940.21,-27.65 2950,-23.6 2939.82,-20.66 2940.21,-27.65"/>
</g>
<!-- 28&#45;&gt;39 -->
<g id="edge50" class="edge">
<title>28&#45;&gt;39</title>
<path fill="none" stroke="black" stroke-width="1.34" d="M1683.57,-163.53C1615.41,-136.84 1498.03,-94.12 1393.29,-72 1243.38,-40.34 1066.17,-27.53 955.73,-22.39"/>
<polygon fill="black" stroke="black" stroke-width="1.34" points="955.73,-18.89 945.58,-21.93 955.42,-25.88 955.73,-18.89"/>
</g>
<!-- 29&#45;&gt;36 -->
<g id="edge159" class="edge">
<title>29&#45;&gt;36</title>
<path fill="none" stroke="black" stroke-width="1.53" d="M1031.33,-206.38C1004.5,-216.12 978.43,-231.31 962.29,-255 945.02,-280.34 945.08,-298.61 962.29,-324 1029.6,-423.35 1346.22,-468.67 1569.07,-488.54"/>
<polygon fill="black" stroke="black" stroke-width="1.53" points="1569.01,-492.04 1579.28,-489.44 1569.63,-485.07 1569.01,-492.04"/>
</g>
<!-- 29&#45;&gt;38 -->
<g id="edge18" class="edge">
<title>29&#45;&gt;38</title>
<path fill="none" stroke="black" stroke-width="1.26" d="M1217.57,-167.32C1339.78,-140.66 1569.16,-93.9 1767.29,-72 2191.75,-25.08 2699.93,-18.78 2924.63,-18.52"/>
<polygon fill="black" stroke="black" stroke-width="1.26" points="2924.79,-22.02 2934.79,-18.51 2924.79,-15.02 2924.79,-22.02"/>
</g>
<!-- 29&#45;&gt;39 -->
<g id="edge51" class="edge">
<title>29&#45;&gt;39</title>
<path fill="none" stroke="black" stroke-width="1.42" d="M1088.82,-162.21C1034.27,-129.6 939.19,-72.75 886.72,-41.38"/>
<polygon fill="black" stroke="black" stroke-width="1.42" points="888.44,-38.33 878.06,-36.2 884.85,-44.34 888.44,-38.33"/>
</g>
<!-- 30&#45;&gt;36 -->
<g id="edge160" class="edge">
<title>30&#45;&gt;36</title>
<path fill="none" stroke="black" stroke-width="0.96" d="M2626.17,-119.98C2615.38,-163.38 2586.87,-260.07 2534.29,-324 2521.64,-339.38 2404.88,-417.89 2386.29,-425 2320.86,-450 2159.38,-470.37 2021.73,-484.02"/>
<polygon fill="black" stroke="black" stroke-width="0.96" points="2021.05,-480.57 2011.44,-485.03 2021.74,-487.54 2021.05,-480.57"/>
</g>
<!-- 30&#45;&gt;38 -->
<g id="edge19" class="edge">
<title>30&#45;&gt;38</title>
<path fill="none" stroke="black" stroke-width="0.77" d="M2715.24,-79.83C2788.04,-66.25 2892.56,-46.75 2963.49,-33.52"/>
<polygon fill="black" stroke="black" stroke-width="0.77" points="2964.51,-36.89 2973.7,-31.61 2963.23,-30 2964.51,-36.89"/>
</g>
<!-- 30&#45;&gt;39 -->
<g id="edge52" class="edge">
<title>30&#45;&gt;39</title>
<path fill="none" stroke="black" stroke-width="0.9" d="M2541.05,-81.24C2515.34,-77.66 2487.26,-74.22 2461.29,-72 1902.45,-24.32 1231.27,-18.81 965.65,-18.66"/>
<polygon fill="black" stroke="black" stroke-width="0.9" points="965.61,-15.16 955.61,-18.66 965.61,-22.16 965.61,-15.16"/>
</g>
<!-- 31&#45;&gt;32 -->
<g id="edge161" class="edge">
<title>31&#45;&gt;32</title>
<path fill="none" stroke="black" stroke-width="0.88" d="M2435.43,-589.21C2452.75,-577.23 2473.66,-562.02 2491.29,-547 2597.73,-456.29 2633.18,-438.64 2713.29,-324 2735.68,-291.95 2753.6,-250.67 2764.51,-222.25"/>
<polygon fill="black" stroke="black" stroke-width="0.88" points="2767.83,-223.36 2768.08,-212.76 2761.28,-220.89 2767.83,-223.36"/>
</g>
<!-- 31&#45;&gt;36 -->
<g id="edge162" class="edge">
<title>31&#45;&gt;36</title>
<path fill="none" stroke="black" stroke-width="1.39" d="M2309.06,-596.29C2232.94,-582.77 2121.19,-562.91 2021.33,-545.17"/>
<polygon fill="black" stroke="black" stroke-width="1.39" points="2021.86,-541.7 2011.4,-543.4 2020.63,-548.6 2021.86,-541.7"/>
</g>
<!-- 31&#45;&gt;38 -->
<g id="edge20" class="edge">
<title>31&#45;&gt;38</title>
<path fill="none" stroke="black" stroke-width="1" d="M2497.81,-597.84C2611.22,-580.58 2784.75,-553.44 2798.29,-547 2850.31,-522.24 2851.02,-497.88 2895.29,-461 2957.7,-409 3136.66,-293.4 3169.29,-219 3195.52,-159.17 3205.59,-126.32 3169.29,-72 3157.57,-54.47 3138.87,-42.73 3119.35,-34.87"/>
<polygon fill="black" stroke="black" stroke-width="1" points="3120.31,-31.5 3109.72,-31.32 3117.89,-38.07 3120.31,-31.5"/>
</g>
<!-- 31&#45;&gt;39 -->
<g id="edge53" class="edge">
<title>31&#45;&gt;39</title>
<path fill="none" stroke="black" stroke-width="1.28" d="M2280.38,-606.3C2118.72,-597.19 1822.08,-577.86 1570.29,-547 1242.91,-506.88 1160.28,-496.42 838.29,-425 797.41,-415.93 500.61,-357.34 475.29,-324 396.53,-220.34 559.32,-108.43 616.29,-72 656.33,-46.39 707.2,-33.09 751.19,-26.21"/>
<polygon fill="black" stroke="black" stroke-width="1.28" points="751.95,-29.63 761.33,-24.71 750.93,-22.71 751.95,-29.63"/>
</g>
<!-- 32&#45;&gt;36 -->
<g id="edge163" class="edge">
<title>32&#45;&gt;36</title>
<path fill="none" stroke="black" stroke-width="1.1" d="M2757,-212.21C2746.77,-224.72 2734.11,-240.53 2723.29,-255 2700.91,-284.91 2703.06,-299.02 2675.29,-324 2605.93,-386.38 2580.22,-396.83 2491.29,-425 2406.33,-451.91 2190.48,-473.58 2021.49,-487.18"/>
<polygon fill="black" stroke="black" stroke-width="1.1" points="2021.13,-483.7 2011.44,-487.99 2021.69,-490.68 2021.13,-483.7"/>
</g>
<!-- 32&#45;&gt;38 -->
<g id="edge21" class="edge">
<title>32&#45;&gt;38</title>
<path fill="none" stroke="black" stroke-width="0.87" d="M2782.11,-163.45C2789.82,-137.21 2806.01,-95.4 2835.29,-72 2866.14,-47.34 2907.16,-34.04 2944.47,-26.9"/>
<polygon fill="black" stroke="black" stroke-width="0.87" points="2945.15,-30.34 2954.38,-25.13 2943.92,-23.45 2945.15,-30.34"/>
</g>
<!-- 32&#45;&gt;39 -->
<g id="edge54" class="edge">
<title>32&#45;&gt;39</title>
<path fill="none" stroke="black" stroke-width="1.01" d="M2697.44,-169.13C2678.43,-164.99 2658.16,-160.71 2639.29,-157 2548.09,-139.06 2522.75,-146.21 2433.29,-121 2376.25,-104.93 2367.29,-84.14 2309.29,-72 2178.74,-44.68 1277.07,-26.47 959.59,-20.85"/>
<polygon fill="black" stroke="black" stroke-width="1.01" points="959.52,-17.35 949.46,-20.67 959.39,-24.35 959.52,-17.35"/>
</g>
<!-- 33&#45;&gt;36 -->
<g id="edge164" class="edge">
<title>33&#45;&gt;36</title>
<path fill="none" stroke="black" stroke-width="1.14" d="M2959.43,-121.29C2950.9,-147.62 2934.21,-190.13 2908.29,-219 2850.02,-283.88 2656.89,-397.05 2574.29,-425 2475.34,-458.47 2214.39,-479.87 2021.65,-491.62"/>
<polygon fill="black" stroke="black" stroke-width="1.14" points="2021.42,-488.13 2011.65,-492.23 2021.85,-495.12 2021.42,-488.13"/>
</g>
<!-- 33&#45;&gt;38 -->
<g id="edge22" class="edge">
<title>33&#45;&gt;38</title>
<path fill="none" stroke="black" stroke-width="0.89" d="M2989.2,-72.13C2998.08,-63.07 3008.26,-52.69 3017.25,-43.52"/>
<polygon fill="black" stroke="black" stroke-width="0.89" points="3019.96,-45.75 3024.47,-36.16 3014.97,-40.85 3019.96,-45.75"/>
</g>
<!-- 33&#45;&gt;39 -->
<g id="edge55" class="edge">
<title>33&#45;&gt;39</title>
<path fill="none" stroke="black" stroke-width="1.04" d="M2880.67,-78.88C2863.7,-76.13 2845.98,-73.65 2829.29,-72 2463.13,-35.88 1325.57,-23.11 962.13,-19.9"/>
<polygon fill="black" stroke="black" stroke-width="1.04" points="962.16,-16.4 952.13,-19.81 962.1,-23.4 962.16,-16.4"/>
</g>
<!-- 34&#45;&gt;5 -->
<g id="edge165" class="edge">
<title>34&#45;&gt;5</title>
<path fill="none" stroke="black" stroke-width="3.22" d="M609.34,-1543.77C607.59,-1535.46 605.73,-1526.62 603.95,-1518.17"/>
<polygon fill="black" stroke="black" stroke-width="3.22" points="607.33,-1517.21 601.84,-1508.14 600.48,-1518.65 607.33,-1517.21"/>
</g>
<!-- 35&#45;&gt;2 -->
<g id="edge166" class="edge">
<title>35&#45;&gt;2</title>
<path fill="none" stroke="black" stroke-width="2.84" d="M1044.67,-876.9C1073.3,-865.24 1105.18,-852.48 1133.28,-841.45"/>
<polygon fill="black" stroke="black" stroke-width="2.84" points="1134.62,-844.69 1142.66,-837.78 1132.07,-838.17 1134.62,-844.69"/>
</g>
<!-- 35&#45;&gt;7 -->
<g id="edge167" class="edge">
<title>35&#45;&gt;7</title>
<path fill="none" stroke="black" stroke-width="2.75" d="M914.19,-951.21C901.84,-961.53 889.46,-973.64 880.29,-987 818.78,-1076.57 857.97,-1124.43 806.29,-1220 800.87,-1230 793.83,-1239.96 786.4,-1248.96"/>
<polygon fill="black" stroke="black" stroke-width="2.75" points="783.69,-1246.74 779.8,-1256.6 788.99,-1251.32 783.69,-1246.74"/>
</g>
<!-- 35&#45;&gt;8 -->
<g id="edge168" class="edge">
<title>35&#45;&gt;8</title>
<path fill="none" stroke="black" stroke-width="2.9" d="M1023.75,-951.25C1037.03,-961.72 1050.08,-973.9 1060.29,-987 1101.11,-1039.4 1068.19,-1084.44 1122.29,-1123 1163.63,-1152.47 1452.48,-1171.71 1638.71,-1181.29"/>
<polygon fill="black" stroke="black" stroke-width="2.9" points="1638.72,-1184.8 1648.89,-1181.81 1639.08,-1177.81 1638.72,-1184.8"/>
</g>
<!-- 35&#45;&gt;9 -->
<g id="edge169" class="edge">
<title>35&#45;&gt;9</title>
<path fill="none" stroke="black" stroke-width="2.33" d="M1049.32,-951.03C1071.67,-961.84 1095.27,-974.25 1116.29,-987 1154.84,-1010.39 1196,-1041.08 1223.58,-1063.85"/>
<polygon fill="black" stroke="black" stroke-width="2.33" points="1221.42,-1066.61 1231.33,-1070.35 1225.91,-1061.24 1221.42,-1066.61"/>
</g>
<!-- 35&#45;&gt;11 -->
<g id="edge170" class="edge">
<title>35&#45;&gt;11</title>
<path fill="none" stroke="black" stroke-width="2.27" d="M980.78,-876.76C997.63,-848.21 1024.3,-809.02 1056.29,-783 1074.95,-767.82 1097.52,-755.25 1119.45,-745.21"/>
<polygon fill="black" stroke="black" stroke-width="2.27" points="1121.08,-748.32 1128.8,-741.06 1118.24,-741.92 1121.08,-748.32"/>
</g>
<!-- 35&#45;&gt;12 -->
<g id="edge171" class="edge">
<title>35&#45;&gt;12</title>
<path fill="none" stroke="black" stroke-width="2.14" d="M776.58,-889.91C687.39,-868.43 588.05,-826.98 533.29,-747 516.46,-722.43 515.29,-703.72 533.29,-680 541.63,-669 602.64,-652.12 660.27,-638.25"/>
<polygon fill="black" stroke="black" stroke-width="2.14" points="661.31,-641.6 670.23,-635.87 659.69,-634.79 661.31,-641.6"/>
</g>
<!-- 35&#45;&gt;13 -->
<g id="edge172" class="edge">
<title>35&#45;&gt;13</title>
<path fill="none" stroke="black" stroke-width="2.29" d="M915.54,-876.82C870.99,-841.59 803.54,-788.25 758.25,-752.43"/>
<polygon fill="black" stroke="black" stroke-width="2.29" points="760.35,-749.63 750.34,-746.17 756.01,-755.12 760.35,-749.63"/>
</g>
<!-- 35&#45;&gt;22 -->
<g id="edge173" class="edge">
<title>35&#45;&gt;22</title>
<path fill="none" stroke="black" stroke-width="1.79" d="M1146.1,-887.51C1442.78,-846.58 2017.83,-767.26 2273.01,-732.06"/>
<polygon fill="black" stroke="black" stroke-width="1.79" points="2273.64,-735.5 2283.06,-730.67 2272.68,-728.57 2273.64,-735.5"/>
</g>
<!-- 35&#45;&gt;23 -->
<g id="edge174" class="edge">
<title>35&#45;&gt;23</title>
<path fill="none" stroke="black" stroke-width="1.56" d="M1145.96,-906.4C1477.5,-892.3 2194.59,-851.54 2790.29,-747 2905.7,-726.75 2930.87,-705.29 3045.29,-680 3133.48,-660.51 3156.51,-660.6 3245.29,-644 3260.13,-641.22 3275.79,-638.24 3291.18,-635.29"/>
<polygon fill="black" stroke="black" stroke-width="1.56" points="3292.08,-638.67 3301.24,-633.35 3290.76,-631.8 3292.08,-638.67"/>
</g>
<!-- 35&#45;&gt;36 -->
<g id="edge175" class="edge">
<title>35&#45;&gt;36</title>
<path fill="none" stroke="black" stroke-width="3.33" d="M963.63,-876.99C968.86,-826.16 985.76,-733.6 1040.29,-680 1114.5,-607.04 1374.68,-558.36 1569,-531.25"/>
<polygon fill="black" stroke="black" stroke-width="3.33" points="1569.65,-534.7 1579.07,-529.86 1568.69,-527.76 1569.65,-534.7"/>
</g>
<!-- 36&#45;&gt;3 -->
<g id="edge176" class="edge">
<title>36&#45;&gt;3</title>
<path fill="none" stroke="black" stroke-width="3.5" d="M1674.72,-460.98C1642.38,-449.17 1608.21,-436.52 1578.63,-425.41"/>
<polygon fill="black" stroke="black" stroke-width="3.5" points="1579.79,-422.1 1569.2,-421.85 1577.32,-428.65 1579.79,-422.1"/>
</g>
<!-- 36&#45;&gt;19 -->
<g id="edge177" class="edge">
<title>36&#45;&gt;19</title>
<path fill="none" stroke="black" stroke-width="2.13" d="M2011.35,-477.57C2090.82,-465.52 2180.97,-448.47 2261.29,-425 2315.84,-409.05 2465.02,-371.47 2496.29,-324 2513.15,-298.39 2511.89,-281.4 2496.29,-255 2488.2,-241.32 2476.15,-230.28 2462.92,-221.44"/>
<polygon fill="black" stroke="black" stroke-width="2.13" points="2464.43,-218.25 2454.09,-215.94 2460.73,-224.2 2464.43,-218.25"/>
</g>
<!-- 37 -->
<g id="node37" class="node">
<title>37</title>
<polygon fill="white" stroke="black" points="891.29,-1782 837.29,-1800 729.29,-1800 675.29,-1782 729.29,-1764 837.29,-1764 891.29,-1782"/>
<text text-anchor="middle" x="783.29" y="-1776.7" font-family="Times,serif" font-size="21.00">Input</text>
</g>
<!-- 37&#45;&gt;1 -->
<g id="edge1" class="edge">
<title>37&#45;&gt;1</title>
<path fill="none" stroke="black" stroke-width="3.46" d="M834.42,-1763.92C866.27,-1753.28 908.31,-1739.25 946.46,-1726.5"/>
<polygon fill="black" stroke="black" stroke-width="3.46" points="947.69,-1729.78 956.07,-1723.3 945.48,-1723.14 947.69,-1729.78"/>
</g>
<!-- 37&#45;&gt;4 -->
<g id="edge2" class="edge">
<title>37&#45;&gt;4</title>
<path fill="none" stroke="black" stroke-width="3.03" d="M702.41,-1772.86C532.14,-1753.49 152.29,-1697.5 152.29,-1583.5 152.29,-1583.5 152.29,-1583.5 152.29,-811 152.29,-718.27 254.5,-666.62 338.6,-639.82"/>
<polygon fill="black" stroke="black" stroke-width="3.03" points="339.72,-643.14 348.23,-636.83 337.65,-636.45 339.72,-643.14"/>
</g>
<!-- 37&#45;&gt;34 -->
<g id="edge3" class="edge">
<title>37&#45;&gt;34</title>
<path fill="none" stroke="black" stroke-width="3.1" d="M768.84,-1763.82C743.82,-1734.04 691.62,-1671.94 655.52,-1629"/>
<polygon fill="black" stroke="black" stroke-width="3.1" points="658.1,-1626.62 648.98,-1621.21 652.74,-1631.12 658.1,-1626.62"/>
</g>
<!-- 37&#45;&gt;35 -->
<g id="edge4" class="edge">
<title>37&#45;&gt;35</title>
<path fill="none" stroke="black" stroke-width="3.23" d="M794.42,-1763.87C833.39,-1702.22 961.29,-1484.82 961.29,-1287 961.29,-1287 961.29,-1287 961.29,-1095.5 961.29,-1050.01 961.29,-998.07 961.29,-961.62"/>
<polygon fill="black" stroke="black" stroke-width="3.23" points="964.79,-961.3 961.29,-951.3 957.79,-961.3 964.79,-961.3"/>
</g>
</g>
</svg>
