<?xml version="1.0" encoding="UTF-8" standalone="no"?>
<!DOCTYPE svg PUBLIC "-//W3C//DTD SVG 1.1//EN"
 "http://www.w3.org/Graphics/SVG/1.1/DTD/svg11.dtd">
<!-- Generated by graphviz version 2.43.0 (0)
 -->
<!-- Title: chesapeake Pages: 1 -->
<svg width="2860pt" height="1665pt"
 viewBox="0.00 0.00 2860.37 1664.79" xmlns="http://www.w3.org/2000/svg" xmlns:xlink="http://www.w3.org/1999/xlink">
<g id="graph0" class="graph" transform="scale(1 1) rotate(0) translate(4 1660.79)">
<title>chesapeake</title>
<polygon fill="white" stroke="transparent" points="-4,4 -4,-1660.79 2856.37,-1660.79 2856.37,4 -4,4"/>
<!-- 1 -->
<g id="node1" class="node">
<title>1</title>
<ellipse fill="none" stroke="black" cx="819.37" cy="-1527.49" rx="84.29" ry="26.74"/>
<text text-anchor="middle" x="819.37" y="-1531.29" font-family="Times,serif" font-size="14.00">phytoplankton</text>
<text text-anchor="middle" x="819.37" y="-1516.29" font-family="Times,serif" font-size="14.00">(3480.0)</text>
</g>
<!-- 7 -->
<g id="node7" class="node">
<title>7</title>
<ellipse fill="none" stroke="black" cx="585.37" cy="-1184.27" rx="54.39" ry="26.74"/>
<text text-anchor="middle" x="585.37" y="-1188.07" font-family="Times,serif" font-size="14.00">ciliates</text>
<text text-anchor="middle" x="585.37" y="-1173.07" font-family="Times,serif" font-size="14.00">(148.75)</text>
</g>
<!-- 1&#45;&gt;7 -->
<g id="edge56" class="edge">
<title>1&#45;&gt;7</title>
<path fill="none" stroke="black" d="M805.36,-1500.76C777.37,-1450.2 711.35,-1335.15 643.37,-1247.14 635.2,-1236.57 625.54,-1225.72 616.47,-1216.11"/>
<polygon fill="black" stroke="black" points="618.81,-1213.5 609.36,-1208.71 613.76,-1218.34 618.81,-1213.5"/>
</g>
<!-- 8 -->
<g id="node8" class="node">
<title>8</title>
<ellipse fill="none" stroke="black" cx="1346.37" cy="-1094.53" rx="72.66" ry="26.74"/>
<text text-anchor="middle" x="1346.37" y="-1098.33" font-family="Times,serif" font-size="14.00">zooplankton</text>
<text text-anchor="middle" x="1346.37" y="-1083.33" font-family="Times,serif" font-size="14.00">(197.5)</text>
</g>
<!-- 1&#45;&gt;8 -->
<g id="edge57" class="edge">
<title>1&#45;&gt;8</title>
<path fill="none" stroke="black" d="M902.61,-1523.17C1011.4,-1517.38 1194.57,-1502.22 1249.37,-1464.62 1291.33,-1435.83 1305.37,-1415.64 1305.37,-1364.75 1305.37,-1364.75 1305.37,-1364.75 1305.37,-1273.01 1305.37,-1222.79 1321.15,-1166.57 1333.13,-1131.13"/>
<polygon fill="black" stroke="black" points="1336.58,-1131.86 1336.55,-1121.26 1329.97,-1129.57 1336.58,-1131.86"/>
</g>
<!-- 11 -->
<g id="node11" class="node">
<title>11</title>
<ellipse fill="none" stroke="black" cx="926.37" cy="-661.57" rx="139.1" ry="26.74"/>
<text text-anchor="middle" x="926.37" y="-665.37" font-family="Times,serif" font-size="14.00">other suspension feeders</text>
<text text-anchor="middle" x="926.37" y="-650.37" font-family="Times,serif" font-size="14.00">(363.75)</text>
</g>
<!-- 1&#45;&gt;11 -->
<g id="edge58" class="edge">
<title>1&#45;&gt;11</title>
<path fill="none" stroke="black" d="M891.83,-1513.74C1011.02,-1490.67 1235.37,-1437.59 1235.37,-1364.75 1235.37,-1364.75 1235.37,-1364.75 1235.37,-914.05 1235.37,-795.98 1097.97,-723.55 1006.41,-688.39"/>
<polygon fill="black" stroke="black" points="1007.47,-685.05 996.87,-684.8 1005,-691.6 1007.47,-685.05"/>
</g>
<!-- 12 -->
<g id="node12" class="node">
<title>12</title>
<ellipse fill="none" stroke="black" cx="577.37" cy="-571.83" rx="78.48" ry="26.74"/>
<text text-anchor="middle" x="577.37" y="-575.63" font-family="Times,serif" font-size="14.00">mya arenaria</text>
<text text-anchor="middle" x="577.37" y="-560.63" font-family="Times,serif" font-size="14.00">(110.0)</text>
</g>
<!-- 1&#45;&gt;12 -->
<g id="edge59" class="edge">
<title>1&#45;&gt;12</title>
<path fill="none" stroke="black" d="M736.49,-1522.5C565.69,-1512 190.37,-1476.24 190.37,-1364.75 190.37,-1364.75 190.37,-1364.75 190.37,-1273.01 190.37,-1149.54 266.37,-1129.27 266.37,-1005.79 266.37,-1005.79 266.37,-1005.79 266.37,-750.31 266.37,-670.98 333.61,-674.27 402.37,-634.7 421.38,-623.76 469.63,-606.97 510.66,-593.64"/>
<polygon fill="black" stroke="black" points="511.93,-596.91 520.38,-590.5 509.78,-590.24 511.93,-596.91"/>
</g>
<!-- 13 -->
<g id="node13" class="node">
<title>13</title>
<ellipse fill="none" stroke="black" cx="503.37" cy="-661.57" rx="54.39" ry="26.74"/>
<text text-anchor="middle" x="503.37" y="-665.37" font-family="Times,serif" font-size="14.00">oysters</text>
<text text-anchor="middle" x="503.37" y="-650.37" font-family="Times,serif" font-size="14.00">(1100.0)</text>
</g>
<!-- 1&#45;&gt;13 -->
<g id="edge60" class="edge">
<title>1&#45;&gt;13</title>
<path fill="none" stroke="black" d="M793.37,-1501.62C782.25,-1490.6 769.32,-1477.29 758.37,-1464.62 731.39,-1433.43 726.16,-1424.32 702.37,-1390.62 674.84,-1351.63 668.97,-1341.17 643.37,-1300.88 628.34,-1277.23 631.73,-1265.29 610.37,-1247.14 578.17,-1219.78 555.18,-1237.78 522.37,-1211.14 436.82,-1141.67 383.37,-1116 383.37,-1005.79 383.37,-1005.79 383.37,-1005.79 383.37,-914.05 383.37,-828.21 441.03,-740.54 476.41,-694.82"/>
<polygon fill="black" stroke="black" points="479.31,-696.8 482.74,-686.78 473.81,-692.47 479.31,-696.8"/>
</g>
<!-- 22 -->
<g id="node22" class="node">
<title>22</title>
<ellipse fill="none" stroke="black" cx="1803.37" cy="-661.57" rx="74.49" ry="26.74"/>
<text text-anchor="middle" x="1803.37" y="-665.37" font-family="Times,serif" font-size="14.00">bay anchovy</text>
<text text-anchor="middle" x="1803.37" y="-650.37" font-family="Times,serif" font-size="14.00">(72.75)</text>
</g>
<!-- 1&#45;&gt;22 -->
<g id="edge61" class="edge">
<title>1&#45;&gt;22</title>
<path fill="none" stroke="black" d="M903.6,-1526.3C1219.58,-1524.51 2316.37,-1507.95 2316.37,-1364.75 2316.37,-1364.75 2316.37,-1364.75 2316.37,-1093.53 2316.37,-862.09 2006.46,-730.07 1868.4,-682.74"/>
<polygon fill="black" stroke="black" points="1869.35,-679.37 1858.76,-679.48 1867.11,-686 1869.35,-679.37"/>
</g>
<!-- 23 -->
<g id="node23" class="node">
<title>23</title>
<ellipse fill="none" stroke="black" cx="2602.37" cy="-571.83" rx="64.19" ry="26.74"/>
<text text-anchor="middle" x="2602.37" y="-575.63" font-family="Times,serif" font-size="14.00">menhaden</text>
<text text-anchor="middle" x="2602.37" y="-560.63" font-family="Times,serif" font-size="14.00">(31.525)</text>
</g>
<!-- 1&#45;&gt;23 -->
<g id="edge62" class="edge">
<title>1&#45;&gt;23</title>
<path fill="none" stroke="black" d="M903.54,-1526.17C1114.54,-1524.58 1682.86,-1515.5 2153.37,-1464.62 2415.6,-1436.26 2738.37,-1628.51 2738.37,-1364.75 2738.37,-1364.75 2738.37,-1364.75 2738.37,-750.31 2738.37,-687.12 2683.38,-632.53 2643.33,-601.15"/>
<polygon fill="black" stroke="black" points="2645.36,-598.3 2635.29,-595 2641.11,-603.86 2645.36,-598.3"/>
</g>
<!-- 34 -->
<g id="node34" class="node">
<title>34</title>
<polygon fill="none" stroke="black" points="601.37,-1464.62 407.37,-1464.62 407.37,-1426.62 601.37,-1426.62 601.37,-1464.62"/>
<text text-anchor="middle" x="504.37" y="-1449.42" font-family="Times,serif" font-size="14.00">dissolved organic carbon</text>
<text text-anchor="middle" x="504.37" y="-1434.42" font-family="Times,serif" font-size="14.00">(21857.5)</text>
</g>
<!-- 1&#45;&gt;34 -->
<g id="edge63" class="edge">
<title>1&#45;&gt;34</title>
<path fill="none" stroke="black" d="M754.87,-1510.14C705.83,-1497.7 638.05,-1480.52 585.36,-1467.16"/>
<polygon fill="black" stroke="black" points="585.93,-1463.69 575.37,-1464.62 584.21,-1470.47 585.93,-1463.69"/>
</g>
<!-- 35 -->
<g id="node35" class="node">
<title>35</title>
<polygon fill="none" stroke="black" points="853.37,-852.18 649.37,-852.18 649.37,-814.18 853.37,-814.18 853.37,-852.18"/>
<text text-anchor="middle" x="751.37" y="-836.98" font-family="Times,serif" font-size="14.00">suspended particulate org</text>
<text text-anchor="middle" x="751.37" y="-821.98" font-family="Times,serif" font-size="14.00">(7631.0)</text>
</g>
<!-- 1&#45;&gt;35 -->
<g id="edge64" class="edge">
<title>1&#45;&gt;35</title>
<path fill="none" stroke="black" d="M819.37,-1500.44C819.37,-1468.48 819.37,-1412.63 819.37,-1364.75 819.37,-1364.75 819.37,-1364.75 819.37,-1183.27 819.37,-1061.82 779.23,-920.92 760.63,-862.15"/>
<polygon fill="black" stroke="black" points="763.91,-860.93 757.53,-852.48 757.25,-863.07 763.91,-860.93"/>
</g>
<!-- 39 -->
<g id="node39" class="node">
<title>39</title>
<polygon fill="none" stroke="black" points="964.93,-25.92 964.93,-50.08 920.67,-67.16 858.08,-67.16 813.82,-50.08 813.82,-25.92 858.08,-8.84 920.67,-8.84 964.93,-25.92"/>
<polygon fill="none" stroke="black" points="968.91,-23.17 968.91,-52.83 921.41,-71.17 857.34,-71.17 809.83,-52.83 809.83,-23.17 857.34,-4.83 921.41,-4.83 968.91,-23.17"/>
<text text-anchor="middle" x="889.37" y="-41.8" font-family="Times,serif" font-size="14.00">Respiration</text>
<text text-anchor="middle" x="889.37" y="-26.8" font-family="Times,serif" font-size="14.00">(0.0)</text>
</g>
<!-- 1&#45;&gt;39 -->
<g id="edge23" class="edge">
<title>1&#45;&gt;39</title>
<path fill="none" stroke="black" d="M903.39,-1525.6C1193.26,-1522.17 2150.28,-1507.79 2454.37,-1464.62 2618.77,-1441.29 2814.37,-1530.79 2814.37,-1364.75 2814.37,-1364.75 2814.37,-1364.75 2814.37,-570.83 2814.37,-300.59 2674.62,-188.32 2415.37,-112 2277.95,-71.54 1285.63,-47.38 979.24,-40.82"/>
<polygon fill="black" stroke="black" points="979.14,-37.32 969.06,-40.61 978.99,-44.32 979.14,-37.32"/>
</g>
<!-- 2 -->
<g id="node2" class="node">
<title>2</title>
<ellipse fill="none" stroke="black" cx="931.37" cy="-751.31" rx="143.59" ry="26.74"/>
<text text-anchor="middle" x="931.37" y="-755.11" font-family="Times,serif" font-size="14.00">bacteria in suspended poc</text>
<text text-anchor="middle" x="931.37" y="-740.11" font-family="Times,serif" font-size="14.00">(79.0)</text>
</g>
<!-- 2&#45;&gt;7 -->
<g id="edge65" class="edge">
<title>2&#45;&gt;7</title>
<path fill="none" stroke="black" d="M994.37,-775.54C1049.68,-800.47 1121.37,-845.93 1121.37,-914.05 1121.37,-1005.79 1121.37,-1005.79 1121.37,-1005.79 1121.37,-1104.41 790.24,-1157.65 648.51,-1175.92"/>
<polygon fill="black" stroke="black" points="647.71,-1172.49 638.23,-1177.22 648.59,-1179.43 647.71,-1172.49"/>
</g>
<!-- 2&#45;&gt;8 -->
<g id="edge66" class="edge">
<title>2&#45;&gt;8</title>
<path fill="none" stroke="black" d="M1034.32,-770.14C1068.57,-779.43 1105.55,-793.37 1135.37,-814.18 1229.29,-879.71 1299.26,-1000.11 1329.66,-1059.11"/>
<polygon fill="black" stroke="black" points="1326.54,-1060.7 1334.19,-1068.03 1332.78,-1057.53 1326.54,-1060.7"/>
</g>
<!-- 9 -->
<g id="node9" class="node">
<title>9</title>
<ellipse fill="none" stroke="black" cx="939.37" cy="-1004.79" rx="73.58" ry="26.74"/>
<text text-anchor="middle" x="939.37" y="-1008.59" font-family="Times,serif" font-size="14.00">ctenophores</text>
<text text-anchor="middle" x="939.37" y="-993.59" font-family="Times,serif" font-size="14.00">(19.25)</text>
</g>
<!-- 2&#45;&gt;9 -->
<g id="edge67" class="edge">
<title>2&#45;&gt;9</title>
<path fill="none" stroke="black" d="M932.2,-778.51C933.64,-823.67 936.59,-916.23 938.22,-967.54"/>
<polygon fill="black" stroke="black" points="934.73,-967.94 938.55,-977.83 941.73,-967.72 934.73,-967.94"/>
</g>
<!-- 2&#45;&gt;11 -->
<g id="edge68" class="edge">
<title>2&#45;&gt;11</title>
<path fill="none" stroke="black" d="M929.87,-723.99C929.42,-716.02 928.91,-707.13 928.43,-698.64"/>
<polygon fill="black" stroke="black" points="931.92,-698.36 927.85,-688.57 924.93,-698.76 931.92,-698.36"/>
</g>
<!-- 2&#45;&gt;12 -->
<g id="edge69" class="edge">
<title>2&#45;&gt;12</title>
<path fill="none" stroke="black" d="M868.36,-727.09C840.41,-716.21 807.35,-702.55 778.37,-688.44 723.19,-661.57 662.44,-625.7 622.33,-601.08"/>
<polygon fill="black" stroke="black" points="623.94,-597.96 613.59,-595.69 620.27,-603.92 623.94,-597.96"/>
</g>
<!-- 2&#45;&gt;13 -->
<g id="edge70" class="edge">
<title>2&#45;&gt;13</title>
<path fill="none" stroke="black" d="M830.31,-732.22C766.74,-720.51 683.07,-704.5 609.37,-688.44 593.66,-685.02 576.71,-681.02 561.07,-677.2"/>
<polygon fill="black" stroke="black" points="561.56,-673.72 551.01,-674.73 559.88,-680.51 561.56,-673.72"/>
</g>
<!-- 2&#45;&gt;22 -->
<g id="edge71" class="edge">
<title>2&#45;&gt;22</title>
<path fill="none" stroke="black" d="M1055.84,-737.79C1237.2,-719.54 1569.08,-686.15 1722.12,-670.75"/>
<polygon fill="black" stroke="black" points="1722.78,-674.2 1732.38,-669.71 1722.08,-667.23 1722.78,-674.2"/>
</g>
<!-- 2&#45;&gt;23 -->
<g id="edge72" class="edge">
<title>2&#45;&gt;23</title>
<path fill="none" stroke="black" d="M1070.43,-744.64C1256.59,-736.29 1596.95,-718.35 1886.37,-688.44 2055.16,-671 2096.33,-658.28 2264.37,-634.7 2379.9,-618.49 2410.76,-625.17 2524.37,-598.7 2531.09,-597.13 2538.06,-595.24 2544.94,-593.19"/>
<polygon fill="black" stroke="black" points="2546.4,-596.4 2554.92,-590.1 2544.33,-589.71 2546.4,-596.4"/>
</g>
<!-- 2&#45;&gt;35 -->
<g id="edge73" class="edge">
<title>2&#45;&gt;35</title>
<path fill="none" stroke="black" d="M882.63,-776.72C859.38,-787.34 831.48,-799.7 807.36,-810.05"/>
<polygon fill="black" stroke="black" points="805.8,-806.91 797.98,-814.06 808.55,-813.35 805.8,-806.91"/>
</g>
<!-- 36 -->
<g id="node36" class="node">
<title>36</title>
<polygon fill="none" stroke="black" points="1374.37,-508.96 1172.37,-508.96 1172.37,-470.96 1374.37,-470.96 1374.37,-508.96"/>
<text text-anchor="middle" x="1273.37" y="-493.76" font-family="Times,serif" font-size="14.00">sediment particulate orga</text>
<text text-anchor="middle" x="1273.37" y="-478.76" font-family="Times,serif" font-size="14.00">(305000.0)</text>
</g>
<!-- 2&#45;&gt;36 -->
<g id="edge74" class="edge">
<title>2&#45;&gt;36</title>
<path fill="none" stroke="black" d="M1001.05,-727.66C1025.56,-717.81 1052.45,-704.74 1074.37,-688.44 1141.32,-638.67 1133.65,-601.08 1195.37,-544.96 1207.47,-533.96 1221.91,-523.38 1235.06,-514.53"/>
<polygon fill="black" stroke="black" points="1237.05,-517.41 1243.48,-508.99 1233.2,-511.57 1237.05,-517.41"/>
</g>
<!-- 2&#45;&gt;39 -->
<g id="edge24" class="edge">
<title>2&#45;&gt;39</title>
<path fill="none" stroke="black" d="M825.2,-733.15C778.85,-723.44 724.64,-709.03 678.37,-688.44 639.57,-671.18 639.24,-649.32 599.37,-634.7 528.04,-608.55 317.58,-647.53 259.37,-598.7 221.2,-566.67 228.37,-540.79 228.37,-490.96 228.37,-490.96 228.37,-490.96 228.37,-227.61 228.37,-173.79 222.96,-146.36 264.37,-112 304.75,-78.5 636.47,-54.17 799.54,-44.11"/>
<polygon fill="black" stroke="black" points="799.79,-47.6 809.56,-43.5 799.37,-40.62 799.79,-47.6"/>
</g>
<!-- 3 -->
<g id="node3" class="node">
<title>3</title>
<ellipse fill="none" stroke="black" cx="1062.37" cy="-408.09" rx="136.44" ry="26.74"/>
<text text-anchor="middle" x="1062.37" y="-411.89" font-family="Times,serif" font-size="14.00">bacteria in sediment poc</text>
<text text-anchor="middle" x="1062.37" y="-396.89" font-family="Times,serif" font-size="14.00">(600.0)</text>
</g>
<!-- 14 -->
<g id="node14" class="node">
<title>14</title>
<ellipse fill="none" stroke="black" cx="884.37" cy="-318.35" rx="101.65" ry="26.74"/>
<text text-anchor="middle" x="884.37" y="-322.15" font-family="Times,serif" font-size="14.00">other polychaetes</text>
<text text-anchor="middle" x="884.37" y="-307.15" font-family="Times,serif" font-size="14.00">(1186.5)</text>
</g>
<!-- 3&#45;&gt;14 -->
<g id="edge75" class="edge">
<title>3&#45;&gt;14</title>
<path fill="none" stroke="black" d="M1013.26,-382.88C990.55,-371.69 963.47,-358.34 940.01,-346.77"/>
<polygon fill="black" stroke="black" points="941.39,-343.55 930.87,-342.27 938.29,-349.83 941.39,-343.55"/>
</g>
<!-- 15 -->
<g id="node15" class="node">
<title>15</title>
<ellipse fill="none" stroke="black" cx="1058.37" cy="-318.35" rx="54.39" ry="26.74"/>
<text text-anchor="middle" x="1058.37" y="-322.15" font-family="Times,serif" font-size="14.00">nereis</text>
<text text-anchor="middle" x="1058.37" y="-307.15" font-family="Times,serif" font-size="14.00">(113.25)</text>
</g>
<!-- 3&#45;&gt;15 -->
<g id="edge76" class="edge">
<title>3&#45;&gt;15</title>
<path fill="none" stroke="black" d="M1061.17,-380.77C1060.81,-372.8 1060.4,-363.91 1060.02,-355.42"/>
<polygon fill="black" stroke="black" points="1063.51,-355.18 1059.56,-345.35 1056.52,-355.5 1063.51,-355.18"/>
</g>
<!-- 16 -->
<g id="node16" class="node">
<title>16</title>
<ellipse fill="none" stroke="black" cx="1626.37" cy="-318.35" rx="77.56" ry="26.74"/>
<text text-anchor="middle" x="1626.37" y="-322.15" font-family="Times,serif" font-size="14.00">macoma spp.</text>
<text text-anchor="middle" x="1626.37" y="-307.15" font-family="Times,serif" font-size="14.00">(1890.25)</text>
</g>
<!-- 3&#45;&gt;16 -->
<g id="edge77" class="edge">
<title>3&#45;&gt;16</title>
<path fill="none" stroke="black" d="M1167.13,-390.79C1276.93,-373.71 1447.01,-347.25 1546.46,-331.78"/>
<polygon fill="black" stroke="black" points="1547.1,-335.22 1556.45,-330.23 1546.03,-328.31 1547.1,-335.22"/>
</g>
<!-- 17 -->
<g id="node17" class="node">
<title>17</title>
<ellipse fill="none" stroke="black" cx="548.37" cy="-318.35" rx="64.19" ry="26.74"/>
<text text-anchor="middle" x="548.37" y="-322.15" font-family="Times,serif" font-size="14.00">meiofauna</text>
<text text-anchor="middle" x="548.37" y="-307.15" font-family="Times,serif" font-size="14.00">(337.5)</text>
</g>
<!-- 3&#45;&gt;17 -->
<g id="edge78" class="edge">
<title>3&#45;&gt;17</title>
<path fill="none" stroke="black" d="M941,-395.77C852.92,-386.13 731.32,-369.86 626.37,-345.22 619.65,-343.64 612.69,-341.74 605.81,-339.69"/>
<polygon fill="black" stroke="black" points="606.42,-336.21 595.83,-336.59 604.35,-342.9 606.42,-336.21"/>
</g>
<!-- 18 -->
<g id="node18" class="node">
<title>18</title>
<ellipse fill="none" stroke="black" cx="1273.37" cy="-318.35" rx="142.67" ry="26.74"/>
<text text-anchor="middle" x="1273.37" y="-322.15" font-family="Times,serif" font-size="14.00">crustacean deposit feeder</text>
<text text-anchor="middle" x="1273.37" y="-307.15" font-family="Times,serif" font-size="14.00">(228.0)</text>
</g>
<!-- 3&#45;&gt;18 -->
<g id="edge79" class="edge">
<title>3&#45;&gt;18</title>
<path fill="none" stroke="black" d="M1118.92,-383.58C1146,-372.31 1178.63,-358.75 1206.9,-346.99"/>
<polygon fill="black" stroke="black" points="1208.41,-350.15 1216.3,-343.08 1205.73,-343.69 1208.41,-350.15"/>
</g>
<!-- 3&#45;&gt;36 -->
<g id="edge80" class="edge">
<title>3&#45;&gt;36</title>
<path fill="none" stroke="black" d="M1128.44,-431.77C1158.58,-442.87 1193.7,-456.17 1221.86,-467.16"/>
<polygon fill="black" stroke="black" points="1220.92,-470.55 1231.51,-470.94 1223.47,-464.03 1220.92,-470.55"/>
</g>
<!-- 3&#45;&gt;39 -->
<g id="edge25" class="edge">
<title>3&#45;&gt;39</title>
<path fill="none" stroke="black" d="M939.63,-396.14C870.83,-387.18 794.66,-371.55 773.37,-345.22 735.3,-298.14 762.19,-220.98 822.37,-112 829.13,-99.76 838.35,-87.94 847.79,-77.49"/>
<polygon fill="black" stroke="black" points="850.38,-79.84 854.67,-70.15 845.28,-75.06 850.38,-79.84"/>
</g>
<!-- 4 -->
<g id="node4" class="node">
<title>4</title>
<ellipse fill="none" stroke="black" cx="388.37" cy="-571.83" rx="92.76" ry="26.74"/>
<text text-anchor="middle" x="388.37" y="-575.63" font-family="Times,serif" font-size="14.00">benthic diatoms</text>
<text text-anchor="middle" x="388.37" y="-560.63" font-family="Times,serif" font-size="14.00">(177.25)</text>
</g>
<!-- 4&#45;&gt;17 -->
<g id="edge81" class="edge">
<title>4&#45;&gt;17</title>
<path fill="none" stroke="black" d="M404.59,-545.33C433.6,-499.75 494.34,-404.27 526.81,-353.23"/>
<polygon fill="black" stroke="black" points="529.93,-354.86 532.34,-344.54 524.02,-351.1 529.93,-354.86"/>
</g>
<!-- 4&#45;&gt;36 -->
<g id="edge82" class="edge">
<title>4&#45;&gt;36</title>
<path fill="none" stroke="black" d="M453.03,-552.58C465.35,-549.63 478.19,-546.91 490.37,-544.96 727.61,-507.01 1009.5,-495.72 1161.99,-492.37"/>
<polygon fill="black" stroke="black" points="1162.37,-495.86 1172.29,-492.15 1162.22,-488.86 1162.37,-495.86"/>
</g>
<!-- 4&#45;&gt;39 -->
<g id="edge26" class="edge">
<title>4&#45;&gt;39</title>
<path fill="none" stroke="black" d="M365.64,-545.75C340.76,-515.61 304.37,-462.41 304.37,-409.09 304.37,-409.09 304.37,-409.09 304.37,-227.61 304.37,-174.3 296.15,-146.99 336.37,-112 403.73,-53.4 660.94,-41.34 799.57,-39.18"/>
<polygon fill="black" stroke="black" points="799.8,-42.68 809.75,-39.04 799.7,-35.68 799.8,-42.68"/>
</g>
<!-- 5 -->
<g id="node5" class="node">
<title>5</title>
<ellipse fill="none" stroke="black" cx="482.37" cy="-1363.75" rx="76.24" ry="26.74"/>
<text text-anchor="middle" x="482.37" y="-1367.55" font-family="Times,serif" font-size="14.00">free bacteria</text>
<text text-anchor="middle" x="482.37" y="-1352.55" font-family="Times,serif" font-size="14.00">(390.5)</text>
</g>
<!-- 6 -->
<g id="node6" class="node">
<title>6</title>
<ellipse fill="none" stroke="black" cx="461.37" cy="-1274.01" rx="140.01" ry="26.74"/>
<text text-anchor="middle" x="461.37" y="-1277.81" font-family="Times,serif" font-size="14.00">heterotrophic microflagel</text>
<text text-anchor="middle" x="461.37" y="-1262.81" font-family="Times,serif" font-size="14.00">(39.0)</text>
</g>
<!-- 5&#45;&gt;6 -->
<g id="edge83" class="edge">
<title>5&#45;&gt;6</title>
<path fill="none" stroke="black" d="M476.18,-1336.9C474.24,-1328.76 472.05,-1319.62 469.96,-1310.92"/>
<polygon fill="black" stroke="black" points="473.32,-1309.89 467.59,-1300.98 466.51,-1311.52 473.32,-1309.89"/>
</g>
<!-- 5&#45;&gt;35 -->
<g id="edge84" class="edge">
<title>5&#45;&gt;35</title>
<path fill="none" stroke="black" d="M538.07,-1345.18C562.59,-1335.26 590.31,-1320.79 610.37,-1300.88 651.04,-1260.53 667.37,-1242.56 667.37,-1185.27 667.37,-1185.27 667.37,-1185.27 667.37,-1003.79 667.37,-948.29 703.94,-892.19 728.82,-860.45"/>
<polygon fill="black" stroke="black" points="731.64,-862.52 735.18,-852.54 726.18,-858.14 731.64,-862.52"/>
</g>
<!-- 5&#45;&gt;39 -->
<g id="edge27" class="edge">
<title>5&#45;&gt;39</title>
<path fill="none" stroke="black" d="M415.66,-1350.34C381.67,-1341.27 341.49,-1326.02 312.37,-1300.88 192.86,-1197.71 0.37,-820.46 0.37,-662.57 0.37,-662.57 0.37,-662.57 0.37,-227.61 0.37,-173.79 -5.57,-145.72 36.37,-112 94.86,-64.98 591.97,-46.71 799.22,-41.1"/>
<polygon fill="black" stroke="black" points="799.57,-44.59 809.47,-40.83 799.38,-37.59 799.57,-44.59"/>
</g>
<!-- 6&#45;&gt;7 -->
<g id="edge85" class="edge">
<title>6&#45;&gt;7</title>
<path fill="none" stroke="black" d="M496.9,-1247.87C512.36,-1236.93 530.52,-1224.08 546.36,-1212.88"/>
<polygon fill="black" stroke="black" points="548.74,-1215.48 554.88,-1206.85 544.69,-1209.77 548.74,-1215.48"/>
</g>
<!-- 6&#45;&gt;35 -->
<g id="edge86" class="edge">
<title>6&#45;&gt;35</title>
<path fill="none" stroke="black" d="M465.69,-1246.84C478.22,-1178.79 520.63,-994.21 626.37,-888.18 640.02,-874.5 657.7,-864.05 675.44,-856.16"/>
<polygon fill="black" stroke="black" points="676.84,-859.37 684.7,-852.26 674.13,-852.91 676.84,-859.37"/>
</g>
<!-- 6&#45;&gt;39 -->
<g id="edge28" class="edge">
<title>6&#45;&gt;39</title>
<path fill="none" stroke="black" d="M441.47,-1247.17C400.07,-1194.1 300.47,-1070.09 204.37,-977.92 185.89,-960.19 175.75,-961.62 159.37,-941.92 107.59,-879.64 109,-853.56 79.37,-778.18 59.43,-727.44 38.37,-717.09 38.37,-662.57 38.37,-662.57 38.37,-662.57 38.37,-227.61 38.37,-173.79 32.5,-145.8 74.37,-112 129.82,-67.24 598.96,-47.8 799.29,-41.49"/>
<polygon fill="black" stroke="black" points="799.6,-44.98 809.49,-41.17 799.38,-37.98 799.6,-44.98"/>
</g>
<!-- 7&#45;&gt;8 -->
<g id="edge87" class="edge">
<title>7&#45;&gt;8</title>
<path fill="none" stroke="black" d="M638.1,-1177.52C736.08,-1166.78 952.86,-1142.85 1135.37,-1121.4 1179.21,-1116.25 1228.13,-1110.26 1267.83,-1105.35"/>
<polygon fill="black" stroke="black" points="1268.48,-1108.8 1277.97,-1104.09 1267.62,-1101.85 1268.48,-1108.8"/>
</g>
<!-- 7&#45;&gt;9 -->
<g id="edge88" class="edge">
<title>7&#45;&gt;9</title>
<path fill="none" stroke="black" d="M622.59,-1164.61C686.12,-1132.76 815.64,-1067.82 887.84,-1031.63"/>
<polygon fill="black" stroke="black" points="889.84,-1034.54 897.21,-1026.93 886.7,-1028.28 889.84,-1034.54"/>
</g>
<!-- 7&#45;&gt;11 -->
<g id="edge89" class="edge">
<title>7&#45;&gt;11</title>
<path fill="none" stroke="black" d="M578.85,-1157.42C566.87,-1104.84 545.52,-982.47 579.37,-888.18 618.85,-778.23 748.13,-716.94 837.23,-686.85"/>
<polygon fill="black" stroke="black" points="838.41,-690.15 846.81,-683.69 836.21,-683.5 838.41,-690.15"/>
</g>
<!-- 7&#45;&gt;12 -->
<g id="edge90" class="edge">
<title>7&#45;&gt;12</title>
<path fill="none" stroke="black" d="M547.62,-1164.55C529.85,-1154.04 509.68,-1139.41 496.37,-1121.4 464.3,-1078.02 459.37,-1059.74 459.37,-1005.79 459.37,-1005.79 459.37,-1005.79 459.37,-914.05 459.37,-789.13 359.02,-738.6 428.37,-634.7 438.22,-619.95 474.76,-604.66 509.19,-592.97"/>
<polygon fill="black" stroke="black" points="510.44,-596.25 518.82,-589.77 508.23,-589.6 510.44,-596.25"/>
</g>
<!-- 7&#45;&gt;13 -->
<g id="edge91" class="edge">
<title>7&#45;&gt;13</title>
<path fill="none" stroke="black" d="M555.99,-1161.52C543.49,-1150.79 529.87,-1136.83 521.37,-1121.4 496.05,-1075.44 497.37,-1058.27 497.37,-1005.79 497.37,-1005.79 497.37,-1005.79 497.37,-832.18 497.37,-786.12 499.61,-733.07 501.35,-698.74"/>
<polygon fill="black" stroke="black" points="504.85,-698.88 501.87,-688.71 497.86,-698.52 504.85,-698.88"/>
</g>
<!-- 7&#45;&gt;35 -->
<g id="edge92" class="edge">
<title>7&#45;&gt;35</title>
<path fill="none" stroke="black" d="M584.2,-1156.99C588.06,-1092.95 612.05,-930.97 644.37,-888.18 654.21,-875.15 668.16,-864.86 682.77,-856.9"/>
<polygon fill="black" stroke="black" points="684.59,-859.9 691.92,-852.25 681.42,-853.66 684.59,-859.9"/>
</g>
<!-- 7&#45;&gt;39 -->
<g id="edge29" class="edge">
<title>7&#45;&gt;39</title>
<path fill="none" stroke="black" d="M545.01,-1165.97C424.62,-1111.36 76.37,-930.26 76.37,-662.57 76.37,-662.57 76.37,-662.57 76.37,-227.61 76.37,-173.92 69.8,-145.97 111.37,-112 163.71,-69.22 606.13,-48.81 799.51,-41.86"/>
<polygon fill="black" stroke="black" points="799.78,-45.35 809.65,-41.5 799.53,-38.36 799.78,-45.35"/>
</g>
<!-- 8&#45;&gt;9 -->
<g id="edge93" class="edge">
<title>8&#45;&gt;9</title>
<path fill="none" stroke="black" d="M1283.18,-1080.95C1222.79,-1068.8 1129.22,-1049.64 1048.37,-1031.66 1035.74,-1028.85 1022.31,-1025.75 1009.35,-1022.71"/>
<polygon fill="black" stroke="black" points="1010.09,-1019.29 999.55,-1020.4 1008.48,-1026.1 1010.09,-1019.29"/>
</g>
<!-- 10 -->
<g id="node10" class="node">
<title>10</title>
<ellipse fill="none" stroke="black" cx="1026.37" cy="-915.05" rx="67.35" ry="26.74"/>
<text text-anchor="middle" x="1026.37" y="-918.85" font-family="Times,serif" font-size="14.00">sea nettle</text>
<text text-anchor="middle" x="1026.37" y="-903.85" font-family="Times,serif" font-size="14.00">(1.750007)</text>
</g>
<!-- 8&#45;&gt;10 -->
<g id="edge94" class="edge">
<title>8&#45;&gt;10</title>
<path fill="none" stroke="black" d="M1307.13,-1071.77C1248.28,-1039.13 1137.3,-977.57 1073.92,-942.42"/>
<polygon fill="black" stroke="black" points="1075.37,-939.23 1064.93,-937.44 1071.98,-945.35 1075.37,-939.23"/>
</g>
<!-- 20 -->
<g id="node20" class="node">
<title>20</title>
<ellipse fill="none" stroke="black" cx="1375.37" cy="-571.83" rx="73.58" ry="26.74"/>
<text text-anchor="middle" x="1375.37" y="-575.63" font-family="Times,serif" font-size="14.00">fish larvae</text>
<text text-anchor="middle" x="1375.37" y="-560.63" font-family="Times,serif" font-size="14.00">(0.1000075)</text>
</g>
<!-- 8&#45;&gt;20 -->
<g id="edge95" class="edge">
<title>8&#45;&gt;20</title>
<path fill="none" stroke="black" d="M1350.92,-1067.46C1356.54,-1032.94 1365.37,-970.13 1365.37,-916.05 1365.37,-916.05 1365.37,-916.05 1365.37,-750.31 1365.37,-701.3 1369.22,-644.79 1372.14,-608.95"/>
<polygon fill="black" stroke="black" points="1375.63,-609.22 1372.98,-598.97 1368.66,-608.64 1375.63,-609.22"/>
</g>
<!-- 21 -->
<g id="node21" class="node">
<title>21</title>
<ellipse fill="none" stroke="black" cx="2318.37" cy="-571.83" rx="125.73" ry="26.74"/>
<text text-anchor="middle" x="2318.37" y="-575.63" font-family="Times,serif" font-size="14.00">alewife &amp; blue herring</text>
<text text-anchor="middle" x="2318.37" y="-560.63" font-family="Times,serif" font-size="14.00">(1.15)</text>
</g>
<!-- 8&#45;&gt;21 -->
<g id="edge96" class="edge">
<title>8&#45;&gt;21</title>
<path fill="none" stroke="black" d="M1419.24,-1092.09C1610.33,-1087.75 2115.53,-1072.51 2178.37,-1031.66 2227.26,-999.89 2240.37,-974.36 2240.37,-916.05 2240.37,-916.05 2240.37,-916.05 2240.37,-750.31 2240.37,-697.02 2270.21,-641.75 2292.98,-607.34"/>
<polygon fill="black" stroke="black" points="2296.17,-608.87 2298.89,-598.63 2290.38,-604.94 2296.17,-608.87"/>
</g>
<!-- 8&#45;&gt;22 -->
<g id="edge97" class="edge">
<title>8&#45;&gt;22</title>
<path fill="none" stroke="black" d="M1407.6,-1079.88C1483.62,-1058.9 1603.37,-1010.81 1603.37,-916.05 1603.37,-916.05 1603.37,-916.05 1603.37,-832.18 1603.37,-758.61 1683.07,-710.33 1741.85,-684.74"/>
<polygon fill="black" stroke="black" points="1743.24,-687.95 1751.08,-680.82 1740.51,-681.5 1743.24,-687.95"/>
</g>
<!-- 8&#45;&gt;23 -->
<g id="edge98" class="edge">
<title>8&#45;&gt;23</title>
<path fill="none" stroke="black" d="M1418.99,-1091.61C1615.4,-1085.96 2147.11,-1067.51 2217.37,-1031.66 2407.95,-934.42 2540.88,-697.1 2585.72,-607.68"/>
<polygon fill="black" stroke="black" points="2588.96,-609.02 2590.27,-598.51 2582.69,-605.91 2588.96,-609.02"/>
</g>
<!-- 24 -->
<g id="node24" class="node">
<title>24</title>
<ellipse fill="none" stroke="black" cx="2069.37" cy="-571.83" rx="67.35" ry="26.74"/>
<text text-anchor="middle" x="2069.37" y="-575.63" font-family="Times,serif" font-size="14.00">shad</text>
<text text-anchor="middle" x="2069.37" y="-560.63" font-family="Times,serif" font-size="14.00">(0.450005)</text>
</g>
<!-- 8&#45;&gt;24 -->
<g id="edge99" class="edge">
<title>8&#45;&gt;24</title>
<path fill="none" stroke="black" d="M1417.73,-1088.91C1584.81,-1076.13 1987.37,-1033.18 1987.37,-916.05 1987.37,-916.05 1987.37,-916.05 1987.37,-750.31 1987.37,-695.87 2019.57,-639.97 2043.61,-605.82"/>
<polygon fill="black" stroke="black" points="2046.51,-607.77 2049.52,-597.61 2040.83,-603.68 2046.51,-607.77"/>
</g>
<!-- 8&#45;&gt;35 -->
<g id="edge100" class="edge">
<title>8&#45;&gt;35</title>
<path fill="none" stroke="black" d="M1273.58,-1093.12C1151.42,-1091.09 912.44,-1080.84 847.37,-1031.66 792.09,-989.88 822.17,-947.51 786.37,-888.18 780.56,-878.55 773.17,-868.79 766.54,-860.27"/>
<polygon fill="black" stroke="black" points="769.16,-857.94 760.25,-852.2 763.64,-862.24 769.16,-857.94"/>
</g>
<!-- 38 -->
<g id="node38" class="node">
<title>38</title>
<polygon fill="none" stroke="black" points="2281.37,-76 2214.37,-38 2281.37,0 2348.37,-38 2281.37,-76"/>
<polyline fill="none" stroke="black" points="2224.81,-43.92 2224.81,-32.08 "/>
<polyline fill="none" stroke="black" points="2270.93,-5.92 2291.81,-5.92 "/>
<polyline fill="none" stroke="black" points="2337.93,-32.08 2337.93,-43.92 "/>
<polyline fill="none" stroke="black" points="2291.81,-70.08 2270.93,-70.08 "/>
<text text-anchor="middle" x="2281.37" y="-41.8" font-family="Times,serif" font-size="14.00">Output</text>
<text text-anchor="middle" x="2281.37" y="-26.8" font-family="Times,serif" font-size="14.00">(0.0)</text>
</g>
<!-- 8&#45;&gt;38 -->
<g id="edge5" class="edge">
<title>8&#45;&gt;38</title>
<path fill="none" stroke="black" d="M1419.47,-1094.29C1609.95,-1095.38 2117.47,-1092.33 2272.37,-1031.66 2624.49,-893.75 2852.37,-787.26 2852.37,-409.09 2852.37,-409.09 2852.37,-409.09 2852.37,-227.61 2852.37,-170.12 2841.04,-145.57 2794.37,-112 2725.29,-62.31 2478.16,-46.2 2353.86,-41.17"/>
<polygon fill="black" stroke="black" points="2353.8,-37.66 2343.67,-40.77 2353.53,-44.66 2353.8,-37.66"/>
</g>
<!-- 8&#45;&gt;39 -->
<g id="edge30" class="edge">
<title>8&#45;&gt;39</title>
<path fill="none" stroke="black" d="M1419.32,-1093.13C1619.81,-1090.08 2164.37,-1067.82 2164.37,-916.05 2164.37,-916.05 2164.37,-916.05 2164.37,-660.57 2164.37,-558.2 2192.6,-277.15 2123.37,-201.74 2061.11,-133.91 2007.34,-192.9 1919.37,-165.74 1863.92,-148.62 1856.57,-126.47 1800.37,-112 1646.8,-72.45 1177.59,-50.15 979.32,-42.28"/>
<polygon fill="black" stroke="black" points="979.36,-38.78 969.23,-41.88 979.08,-45.78 979.36,-38.78"/>
</g>
<!-- 9&#45;&gt;10 -->
<g id="edge101" class="edge">
<title>9&#45;&gt;10</title>
<path fill="none" stroke="black" d="M963.61,-979.35C973.32,-969.56 984.63,-958.15 994.96,-947.73"/>
<polygon fill="black" stroke="black" points="997.71,-949.93 1002.27,-940.36 992.74,-945 997.71,-949.93"/>
</g>
<!-- 9&#45;&gt;35 -->
<g id="edge102" class="edge">
<title>9&#45;&gt;35</title>
<path fill="none" stroke="black" d="M918,-978.75C900.08,-953.5 873.23,-914.58 842.37,-888.18 828.21,-876.07 810.88,-865.54 795.11,-857.08"/>
<polygon fill="black" stroke="black" points="796.52,-853.87 786.03,-852.34 793.28,-860.07 796.52,-853.87"/>
</g>
<!-- 9&#45;&gt;36 -->
<g id="edge103" class="edge">
<title>9&#45;&gt;36</title>
<path fill="none" stroke="black" d="M998.32,-988.64C1094.2,-960.05 1273.37,-888.41 1273.37,-752.31 1273.37,-752.31 1273.37,-752.31 1273.37,-660.57 1273.37,-610.75 1273.37,-552.7 1273.37,-519.06"/>
<polygon fill="black" stroke="black" points="1276.87,-519.03 1273.37,-509.03 1269.87,-519.03 1276.87,-519.03"/>
</g>
<!-- 9&#45;&gt;39 -->
<g id="edge31" class="edge">
<title>9&#45;&gt;39</title>
<path fill="none" stroke="black" d="M874.98,-991.64C680.82,-953.2 114.37,-826.96 114.37,-662.57 114.37,-662.57 114.37,-662.57 114.37,-227.61 114.37,-174.3 105.57,-146.32 146.37,-112 195.47,-70.7 613.01,-49.62 799.75,-42.19"/>
<polygon fill="black" stroke="black" points="799.96,-45.68 809.82,-41.79 799.69,-38.69 799.96,-45.68"/>
</g>
<!-- 10&#45;&gt;35 -->
<g id="edge104" class="edge">
<title>10&#45;&gt;35</title>
<path fill="none" stroke="black" d="M973.02,-898.56C930.44,-886.19 870.37,-868.74 823.5,-855.13"/>
<polygon fill="black" stroke="black" points="824.29,-851.71 813.71,-852.29 822.34,-858.44 824.29,-851.71"/>
</g>
<!-- 10&#45;&gt;36 -->
<g id="edge105" class="edge">
<title>10&#45;&gt;36</title>
<path fill="none" stroke="black" d="M1041.27,-888.54C1084.98,-813.67 1212.63,-595 1257.53,-518.1"/>
<polygon fill="black" stroke="black" points="1260.8,-519.43 1262.82,-509.03 1254.76,-515.9 1260.8,-519.43"/>
</g>
<!-- 10&#45;&gt;39 -->
<g id="edge32" class="edge">
<title>10&#45;&gt;39</title>
<path fill="none" stroke="black" d="M992.63,-891.55C960.04,-870.29 908.89,-838.16 862.37,-814.18 826.27,-795.57 815.21,-795.29 778.37,-778.18 697.66,-740.69 664.95,-748.61 599.37,-688.44 578.72,-669.49 590.08,-649.65 566.37,-634.7 437.47,-553.41 343.78,-694.64 225.37,-598.7 186.25,-567.01 190.37,-541.31 190.37,-490.96 190.37,-490.96 190.37,-490.96 190.37,-227.61 190.37,-173.66 185.61,-146.15 227.37,-112 270.79,-76.49 628.71,-52.87 799.43,-43.52"/>
<polygon fill="black" stroke="black" points="799.85,-47 809.65,-42.96 799.47,-40.01 799.85,-47"/>
</g>
<!-- 19 -->
<g id="node19" class="node">
<title>19</title>
<ellipse fill="none" stroke="black" cx="1747.37" cy="-228.61" rx="58.88" ry="26.74"/>
<text text-anchor="middle" x="1747.37" y="-232.41" font-family="Times,serif" font-size="14.00">blue crab</text>
<text text-anchor="middle" x="1747.37" y="-217.41" font-family="Times,serif" font-size="14.00">(275.0)</text>
</g>
<!-- 11&#45;&gt;19 -->
<g id="edge106" class="edge">
<title>11&#45;&gt;19</title>
<path fill="none" stroke="black" d="M994.2,-638.04C1067.44,-613.98 1187.7,-575.21 1292.37,-544.96 1477.33,-491.5 1542.09,-526.68 1711.37,-434.96 1763.59,-406.67 1786.31,-399.51 1810.37,-345.22 1820.05,-323.38 1819.61,-313.51 1810.37,-291.48 1805.13,-278.98 1795.98,-267.73 1786.26,-258.36"/>
<polygon fill="black" stroke="black" points="1788.53,-255.69 1778.77,-251.57 1783.83,-260.88 1788.53,-255.69"/>
</g>
<!-- 11&#45;&gt;36 -->
<g id="edge107" class="edge">
<title>11&#45;&gt;36</title>
<path fill="none" stroke="black" d="M956.56,-635.27C988.69,-609.45 1041.9,-569.73 1093.37,-544.96 1121.77,-531.3 1154.36,-520.26 1183.93,-511.81"/>
<polygon fill="black" stroke="black" points="1185.15,-515.1 1193.84,-509.04 1183.27,-508.36 1185.15,-515.1"/>
</g>
<!-- 11&#45;&gt;39 -->
<g id="edge33" class="edge">
<title>11&#45;&gt;39</title>
<path fill="none" stroke="black" d="M801.83,-649.47C616.99,-632.86 291.08,-603.02 286.37,-598.7 250.47,-565.8 266.37,-539.66 266.37,-490.96 266.37,-490.96 266.37,-490.96 266.37,-227.61 266.37,-173.92 260.32,-146.59 301.37,-112 374.78,-50.14 653.71,-39.68 799.45,-38.55"/>
<polygon fill="black" stroke="black" points="799.73,-42.05 809.71,-38.48 799.69,-35.05 799.73,-42.05"/>
</g>
<!-- 12&#45;&gt;19 -->
<g id="edge108" class="edge">
<title>12&#45;&gt;19</title>
<path fill="none" stroke="black" d="M632.48,-552.69C641.74,-549.92 651.29,-547.23 660.37,-544.96 718.14,-530.53 1669.24,-385.2 1713.37,-345.22 1735.45,-325.22 1743.48,-291.7 1746.27,-265.89"/>
<polygon fill="black" stroke="black" points="1749.77,-265.98 1747.14,-255.72 1742.8,-265.38 1749.77,-265.98"/>
</g>
<!-- 26 -->
<g id="node26" class="node">
<title>26</title>
<ellipse fill="none" stroke="black" cx="889.37" cy="-228.61" rx="64.19" ry="26.74"/>
<text text-anchor="middle" x="889.37" y="-232.41" font-family="Times,serif" font-size="14.00">hogchoker</text>
<text text-anchor="middle" x="889.37" y="-217.41" font-family="Times,serif" font-size="14.00">(9.0)</text>
</g>
<!-- 12&#45;&gt;26 -->
<g id="edge109" class="edge">
<title>12&#45;&gt;26</title>
<path fill="none" stroke="black" d="M585.49,-545.1C603.83,-490.91 653.43,-364.05 736.37,-291.48 761.27,-269.7 794.82,-254.98 824.17,-245.38"/>
<polygon fill="black" stroke="black" points="825.44,-248.65 833.94,-242.32 823.35,-241.97 825.44,-248.65"/>
</g>
<!-- 12&#45;&gt;36 -->
<g id="edge110" class="edge">
<title>12&#45;&gt;36</title>
<path fill="none" stroke="black" d="M633.91,-553.16C645.55,-550.03 657.79,-547.09 669.37,-544.96 839.58,-513.7 1040.23,-500.32 1162.06,-494.75"/>
<polygon fill="black" stroke="black" points="1162.31,-498.24 1172.14,-494.3 1162,-491.25 1162.31,-498.24"/>
</g>
<!-- 12&#45;&gt;38 -->
<g id="edge6" class="edge">
<title>12&#45;&gt;38</title>
<path fill="none" stroke="black" d="M654.47,-566.37C798.09,-557.74 1116.27,-537.09 1383.37,-508.96 1506.45,-496 1819.47,-478.36 1935.37,-434.96 2017.54,-404.19 2304.17,-184.03 2313.37,-165.74 2327.77,-137.12 2316.56,-101.53 2303.61,-75.35"/>
<polygon fill="black" stroke="black" points="2306.54,-73.4 2298.8,-66.17 2300.33,-76.65 2306.54,-73.4"/>
</g>
<!-- 12&#45;&gt;39 -->
<g id="edge34" class="edge">
<title>12&#45;&gt;39</title>
<path fill="none" stroke="black" d="M531.22,-550.06C462.79,-517.76 342.37,-454.47 342.37,-409.09 342.37,-409.09 342.37,-409.09 342.37,-227.61 342.37,-175.13 328.06,-147.86 366.37,-112 427.4,-54.87 666.91,-42.09 799.62,-39.46"/>
<polygon fill="black" stroke="black" points="799.83,-42.96 809.77,-39.28 799.71,-35.96 799.83,-42.96"/>
</g>
<!-- 13&#45;&gt;36 -->
<g id="edge111" class="edge">
<title>13&#45;&gt;36</title>
<path fill="none" stroke="black" d="M551.74,-649.22C585.55,-639.63 630.53,-623.45 664.37,-598.7 689.06,-580.64 680.46,-559.51 707.37,-544.96 746.29,-523.93 1008.22,-505.87 1161.76,-496.94"/>
<polygon fill="black" stroke="black" points="1162.39,-500.41 1172.17,-496.34 1161.99,-493.42 1162.39,-500.41"/>
</g>
<!-- 13&#45;&gt;38 -->
<g id="edge7" class="edge">
<title>13&#45;&gt;38</title>
<path fill="none" stroke="black" d="M556,-654.48C611.29,-648.35 700.82,-639.18 778.37,-634.7 824.83,-632.02 2414.91,-624.91 2453.37,-598.7 2636.8,-473.72 2723.89,-267.37 2565.37,-112 2534.29,-81.54 2418.07,-59.21 2344.28,-47.73"/>
<polygon fill="black" stroke="black" points="2344.58,-44.24 2334.16,-46.18 2343.52,-51.16 2344.58,-44.24"/>
</g>
<!-- 13&#45;&gt;39 -->
<g id="edge35" class="edge">
<title>13&#45;&gt;39</title>
<path fill="none" stroke="black" d="M449.38,-657.42C366.78,-651.46 214.56,-635.68 176.37,-598.7 141.13,-564.57 152.37,-540.02 152.37,-490.96 152.37,-490.96 152.37,-490.96 152.37,-227.61 152.37,-175.13 137.41,-147.15 176.37,-112 221.79,-71.02 618.18,-49.92 799.52,-42.34"/>
<polygon fill="black" stroke="black" points="799.72,-45.84 809.57,-41.93 799.43,-38.84 799.72,-45.84"/>
</g>
<!-- 25 -->
<g id="node25" class="node">
<title>25</title>
<ellipse fill="none" stroke="black" cx="1270.37" cy="-228.61" rx="73.58" ry="26.74"/>
<text text-anchor="middle" x="1270.37" y="-232.41" font-family="Times,serif" font-size="14.00">croaker</text>
<text text-anchor="middle" x="1270.37" y="-217.41" font-family="Times,serif" font-size="14.00">(0.9500025)</text>
</g>
<!-- 14&#45;&gt;25 -->
<g id="edge112" class="edge">
<title>14&#45;&gt;25</title>
<path fill="none" stroke="black" d="M958.69,-299.95C970.94,-297.1 983.51,-294.2 995.37,-291.48 1064.3,-275.69 1143.04,-258.02 1198.55,-245.61"/>
<polygon fill="black" stroke="black" points="1199.64,-248.95 1208.63,-243.36 1198.11,-242.12 1199.64,-248.95"/>
</g>
<!-- 14&#45;&gt;26 -->
<g id="edge113" class="edge">
<title>14&#45;&gt;26</title>
<path fill="none" stroke="black" d="M885.87,-291.03C886.33,-283.06 886.83,-274.17 887.32,-265.68"/>
<polygon fill="black" stroke="black" points="890.81,-265.8 887.89,-255.61 883.83,-265.4 890.81,-265.8"/>
</g>
<!-- 27 -->
<g id="node27" class="node">
<title>27</title>
<ellipse fill="none" stroke="black" cx="1626.37" cy="-228.61" rx="41.94" ry="26.74"/>
<text text-anchor="middle" x="1626.37" y="-232.41" font-family="Times,serif" font-size="14.00">spot</text>
<text text-anchor="middle" x="1626.37" y="-217.41" font-family="Times,serif" font-size="14.00">(35.0)</text>
</g>
<!-- 14&#45;&gt;27 -->
<g id="edge114" class="edge">
<title>14&#45;&gt;27</title>
<path fill="none" stroke="black" d="M955.4,-299.01C968.62,-296.11 982.36,-293.43 995.37,-291.48 1227.55,-256.72 1290.45,-291.96 1522.37,-255.48 1540.96,-252.56 1561.1,-247.9 1578.66,-243.35"/>
<polygon fill="black" stroke="black" points="1579.9,-246.64 1588.66,-240.69 1578.1,-239.87 1579.9,-246.64"/>
</g>
<!-- 28 -->
<g id="node28" class="node">
<title>28</title>
<ellipse fill="none" stroke="black" cx="1442.37" cy="-228.61" rx="71.34" ry="26.74"/>
<text text-anchor="middle" x="1442.37" y="-232.41" font-family="Times,serif" font-size="14.00">white perch</text>
<text text-anchor="middle" x="1442.37" y="-217.41" font-family="Times,serif" font-size="14.00">(25.475)</text>
</g>
<!-- 14&#45;&gt;28 -->
<g id="edge115" class="edge">
<title>14&#45;&gt;28</title>
<path fill="none" stroke="black" d="M956.05,-299.22C969.08,-296.33 982.59,-293.6 995.37,-291.48 1153.12,-265.28 1196.38,-285.92 1353.37,-255.48 1361.86,-253.83 1370.72,-251.74 1379.4,-249.45"/>
<polygon fill="black" stroke="black" points="1380.38,-252.81 1389.11,-246.81 1378.54,-246.06 1380.38,-252.81"/>
</g>
<!-- 29 -->
<g id="node29" class="node">
<title>29</title>
<ellipse fill="none" stroke="black" cx="1026.37" cy="-228.61" rx="54.39" ry="26.74"/>
<text text-anchor="middle" x="1026.37" y="-232.41" font-family="Times,serif" font-size="14.00">catfish</text>
<text text-anchor="middle" x="1026.37" y="-217.41" font-family="Times,serif" font-size="14.00">(22.375)</text>
</g>
<!-- 14&#45;&gt;29 -->
<g id="edge116" class="edge">
<title>14&#45;&gt;29</title>
<path fill="none" stroke="black" d="M923.17,-293.37C942.12,-281.67 964.94,-267.57 984.3,-255.61"/>
<polygon fill="black" stroke="black" points="986.25,-258.51 992.92,-250.28 982.57,-252.56 986.25,-258.51"/>
</g>
<!-- 14&#45;&gt;36 -->
<g id="edge117" class="edge">
<title>14&#45;&gt;36</title>
<path fill="none" stroke="black" d="M884.18,-345.63C885.51,-372.26 891.99,-412.62 917.37,-434.96 952.99,-466.31 1071.56,-479.47 1162.16,-484.98"/>
<polygon fill="black" stroke="black" points="1162.04,-488.48 1172.23,-485.57 1162.45,-481.49 1162.04,-488.48"/>
</g>
<!-- 14&#45;&gt;39 -->
<g id="edge36" class="edge">
<title>14&#45;&gt;39</title>
<path fill="none" stroke="black" d="M847.3,-293.28C835.09,-283.22 822.95,-270.37 816.37,-255.48 806.71,-233.64 811.37,-225.1 816.37,-201.74 825.69,-158.2 847.57,-112.22 864.97,-80.28"/>
<polygon fill="black" stroke="black" points="868.19,-81.7 869.97,-71.25 862.06,-78.31 868.19,-81.7"/>
</g>
<!-- 15&#45;&gt;19 -->
<g id="edge118" class="edge">
<title>15&#45;&gt;19</title>
<path fill="none" stroke="black" d="M1097.05,-299.18C1104.94,-296.12 1113.31,-293.34 1121.37,-291.48 1362.64,-235.71 1435.15,-306.94 1677.37,-255.48 1683.22,-254.24 1689.23,-252.6 1695.16,-250.76"/>
<polygon fill="black" stroke="black" points="1696.62,-253.96 1705.01,-247.49 1694.42,-247.32 1696.62,-253.96"/>
</g>
<!-- 15&#45;&gt;25 -->
<g id="edge119" class="edge">
<title>15&#45;&gt;25</title>
<path fill="none" stroke="black" d="M1099.25,-300.43C1131.72,-286.99 1177.51,-268.04 1213.55,-253.13"/>
<polygon fill="black" stroke="black" points="1215.06,-256.29 1222.96,-249.23 1212.38,-249.82 1215.06,-256.29"/>
</g>
<!-- 15&#45;&gt;26 -->
<g id="edge120" class="edge">
<title>15&#45;&gt;26</title>
<path fill="none" stroke="black" d="M1021.7,-298.31C997.13,-285.55 964.5,-268.62 937.8,-254.75"/>
<polygon fill="black" stroke="black" points="939.11,-251.49 928.62,-249.99 935.88,-257.7 939.11,-251.49"/>
</g>
<!-- 15&#45;&gt;27 -->
<g id="edge121" class="edge">
<title>15&#45;&gt;27</title>
<path fill="none" stroke="black" d="M1097.08,-299.34C1104.98,-296.27 1113.33,-293.44 1121.37,-291.48 1295.2,-249.02 1345.91,-285.17 1522.37,-255.48 1540.93,-252.36 1561.06,-247.66 1578.62,-243.13"/>
<polygon fill="black" stroke="black" points="1579.85,-246.42 1588.63,-240.49 1578.07,-239.65 1579.85,-246.42"/>
</g>
<!-- 15&#45;&gt;28 -->
<g id="edge122" class="edge">
<title>15&#45;&gt;28</title>
<path fill="none" stroke="black" d="M1097.53,-299.61C1105.31,-296.56 1113.51,-293.67 1121.37,-291.48 1221.89,-263.47 1251.51,-278.09 1353.37,-255.48 1361.61,-253.65 1370.22,-251.48 1378.68,-249.2"/>
<polygon fill="black" stroke="black" points="1379.83,-252.51 1388.53,-246.47 1377.96,-245.76 1379.83,-252.51"/>
</g>
<!-- 15&#45;&gt;29 -->
<g id="edge123" class="edge">
<title>15&#45;&gt;29</title>
<path fill="none" stroke="black" d="M1048.94,-291.5C1045.88,-283.11 1042.44,-273.66 1039.17,-264.71"/>
<polygon fill="black" stroke="black" points="1042.45,-263.47 1035.73,-255.28 1035.87,-265.87 1042.45,-263.47"/>
</g>
<!-- 15&#45;&gt;36 -->
<g id="edge124" class="edge">
<title>15&#45;&gt;36</title>
<path fill="none" stroke="black" d="M1099.47,-336.24C1143.19,-354.23 1206.26,-380.27 1207.37,-381.22 1233.02,-403.15 1251.67,-437.62 1262.48,-461.64"/>
<polygon fill="black" stroke="black" points="1259.31,-463.13 1266.49,-470.92 1265.73,-460.35 1259.31,-463.13"/>
</g>
<!-- 15&#45;&gt;39 -->
<g id="edge37" class="edge">
<title>15&#45;&gt;39</title>
<path fill="none" stroke="black" d="M1074.72,-292.53C1088.36,-268.48 1103.47,-231.39 1089.37,-201.74 1060.75,-141.54 997.76,-96.32 950.06,-69.01"/>
<polygon fill="black" stroke="black" points="951.48,-65.79 941.05,-63.95 948.06,-71.9 951.48,-65.79"/>
</g>
<!-- 16&#45;&gt;19 -->
<g id="edge125" class="edge">
<title>16&#45;&gt;19</title>
<path fill="none" stroke="black" d="M1658.8,-293.84C1674.18,-282.69 1692.67,-269.28 1708.77,-257.6"/>
<polygon fill="black" stroke="black" points="1710.9,-260.38 1716.94,-251.68 1706.79,-254.72 1710.9,-260.38"/>
</g>
<!-- 16&#45;&gt;27 -->
<g id="edge126" class="edge">
<title>16&#45;&gt;27</title>
<path fill="none" stroke="black" d="M1626.37,-291.03C1626.37,-283.06 1626.37,-274.17 1626.37,-265.68"/>
<polygon fill="black" stroke="black" points="1629.87,-265.61 1626.37,-255.61 1622.87,-265.61 1629.87,-265.61"/>
</g>
<!-- 16&#45;&gt;36 -->
<g id="edge127" class="edge">
<title>16&#45;&gt;36</title>
<path fill="none" stroke="black" d="M1605.07,-344.51C1581.27,-371 1540.26,-411.99 1496.37,-434.96 1461.95,-452.98 1421.39,-465.11 1384.36,-473.21"/>
<polygon fill="black" stroke="black" points="1383.58,-469.8 1374.52,-475.29 1385.03,-476.65 1383.58,-469.8"/>
</g>
<!-- 16&#45;&gt;39 -->
<g id="edge38" class="edge">
<title>16&#45;&gt;39</title>
<path fill="none" stroke="black" d="M1606.1,-292.16C1581.65,-262.26 1541.47,-214.83 1522.37,-201.74 1354.01,-86.36 1109.72,-52.78 979.33,-43"/>
<polygon fill="black" stroke="black" points="979.22,-39.49 968.99,-42.26 978.72,-46.47 979.22,-39.49"/>
</g>
<!-- 17&#45;&gt;36 -->
<g id="edge128" class="edge">
<title>17&#45;&gt;36</title>
<path fill="none" stroke="black" d="M585.4,-340.71C603.97,-351.97 626.46,-366.49 645.37,-381.22 672.84,-402.62 670.65,-420.6 702.37,-434.96 743.12,-453.41 1007.96,-472.56 1162.25,-482.34"/>
<polygon fill="black" stroke="black" points="1162.05,-485.84 1172.25,-482.97 1162.49,-478.85 1162.05,-485.84"/>
</g>
<!-- 17&#45;&gt;39 -->
<g id="edge39" class="edge">
<title>17&#45;&gt;39</title>
<path fill="none" stroke="black" d="M550.79,-291.46C556.25,-247.94 573.53,-160.18 626.37,-112 673.44,-69.08 743.6,-51.11 799.62,-43.72"/>
<polygon fill="black" stroke="black" points="800.05,-47.19 809.55,-42.5 799.19,-40.24 800.05,-47.19"/>
</g>
<!-- 18&#45;&gt;19 -->
<g id="edge129" class="edge">
<title>18&#45;&gt;19</title>
<path fill="none" stroke="black" d="M1397.56,-304.91C1478.15,-295.23 1584.97,-279.37 1677.37,-255.48 1683.08,-254.01 1688.96,-252.24 1694.79,-250.33"/>
<polygon fill="black" stroke="black" points="1696.16,-253.56 1704.49,-247.01 1693.9,-246.93 1696.16,-253.56"/>
</g>
<!-- 18&#45;&gt;25 -->
<g id="edge130" class="edge">
<title>18&#45;&gt;25</title>
<path fill="none" stroke="black" d="M1272.47,-291.03C1272.2,-283.06 1271.89,-274.17 1271.6,-265.68"/>
<polygon fill="black" stroke="black" points="1275.1,-265.49 1271.26,-255.61 1268.1,-265.73 1275.1,-265.49"/>
</g>
<!-- 18&#45;&gt;26 -->
<g id="edge131" class="edge">
<title>18&#45;&gt;26</title>
<path fill="none" stroke="black" d="M1168.13,-300.11C1107.73,-289.28 1030.74,-273.88 963.37,-255.48 957.74,-253.94 951.91,-252.19 946.12,-250.34"/>
<polygon fill="black" stroke="black" points="947.03,-246.96 936.43,-247.16 944.84,-253.61 947.03,-246.96"/>
</g>
<!-- 18&#45;&gt;27 -->
<g id="edge132" class="edge">
<title>18&#45;&gt;27</title>
<path fill="none" stroke="black" d="M1357.23,-296.52C1405.52,-284.52 1467.36,-269.16 1522.37,-255.48 1540.48,-250.98 1560.37,-246.03 1577.86,-241.68"/>
<polygon fill="black" stroke="black" points="1578.99,-245.01 1587.85,-239.2 1577.3,-238.21 1578.99,-245.01"/>
</g>
<!-- 18&#45;&gt;29 -->
<g id="edge133" class="edge">
<title>18&#45;&gt;29</title>
<path fill="none" stroke="black" d="M1208.48,-294.3C1168.33,-280.04 1117.42,-261.95 1079.64,-248.53"/>
<polygon fill="black" stroke="black" points="1080.44,-245.1 1069.85,-245.05 1078.1,-251.7 1080.44,-245.1"/>
</g>
<!-- 32 -->
<g id="node32" class="node">
<title>32</title>
<ellipse fill="none" stroke="black" cx="2016.37" cy="-228.61" rx="98.08" ry="26.74"/>
<text text-anchor="middle" x="2016.37" y="-232.41" font-family="Times,serif" font-size="14.00">summer flounder</text>
<text text-anchor="middle" x="2016.37" y="-217.41" font-family="Times,serif" font-size="14.00">(4.425002)</text>
</g>
<!-- 18&#45;&gt;32 -->
<g id="edge134" class="edge">
<title>18&#45;&gt;32</title>
<path fill="none" stroke="black" d="M1396.95,-304.79C1510.51,-292.98 1683.43,-274.36 1833.37,-255.48 1861.87,-251.89 1892.81,-247.65 1921,-243.65"/>
<polygon fill="black" stroke="black" points="1921.85,-247.07 1931.25,-242.19 1920.86,-240.14 1921.85,-247.07"/>
</g>
<!-- 18&#45;&gt;36 -->
<g id="edge135" class="edge">
<title>18&#45;&gt;36</title>
<path fill="none" stroke="black" d="M1273.37,-345.37C1273.37,-376.55 1273.37,-428.61 1273.37,-460.74"/>
<polygon fill="black" stroke="black" points="1269.87,-460.81 1273.37,-470.81 1276.87,-460.81 1269.87,-460.81"/>
</g>
<!-- 18&#45;&gt;39 -->
<g id="edge40" class="edge">
<title>18&#45;&gt;39</title>
<path fill="none" stroke="black" d="M1235.28,-292.44C1219.86,-281.73 1202.24,-268.66 1187.37,-255.48 1122.53,-198 1125.86,-162.39 1055.37,-112 1027.06,-91.76 992.25,-75.39 961.83,-63.32"/>
<polygon fill="black" stroke="black" points="962.71,-59.91 952.12,-59.55 960.18,-66.43 962.71,-59.91"/>
</g>
<!-- 19&#45;&gt;19 -->
<g id="edge136" class="edge">
<title>19&#45;&gt;19</title>
<path fill="none" stroke="black" d="M1793.8,-245.09C1810.47,-245.45 1824.06,-239.95 1824.06,-228.61 1824.06,-219.66 1815.6,-214.35 1803.84,-212.68"/>
<polygon fill="black" stroke="black" points="1803.97,-209.19 1793.8,-212.13 1803.59,-216.17 1803.97,-209.19"/>
</g>
<!-- 33 -->
<g id="node33" class="node">
<title>33</title>
<ellipse fill="none" stroke="black" cx="2230.37" cy="-138.87" rx="73.58" ry="26.74"/>
<text text-anchor="middle" x="2230.37" y="-142.67" font-family="Times,serif" font-size="14.00">striped bass</text>
<text text-anchor="middle" x="2230.37" y="-127.67" font-family="Times,serif" font-size="14.00">(4.400002)</text>
</g>
<!-- 19&#45;&gt;33 -->
<g id="edge137" class="edge">
<title>19&#45;&gt;33</title>
<path fill="none" stroke="black" d="M1801.37,-217.8C1887.88,-202.09 2057.75,-171.23 2155.78,-153.42"/>
<polygon fill="black" stroke="black" points="2156.41,-156.86 2165.62,-151.63 2155.16,-149.98 2156.41,-156.86"/>
</g>
<!-- 19&#45;&gt;36 -->
<g id="edge138" class="edge">
<title>19&#45;&gt;36</title>
<path fill="none" stroke="black" d="M1772.43,-253.05C1791.34,-277.36 1810.78,-315.85 1793.37,-345.22 1751.01,-416.7 1708.04,-408.23 1629.37,-434.96 1550.28,-461.83 1456.45,-475.41 1384.94,-482.22"/>
<polygon fill="black" stroke="black" points="1384.19,-478.78 1374.55,-483.18 1384.83,-485.75 1384.19,-478.78"/>
</g>
<!-- 19&#45;&gt;38 -->
<g id="edge8" class="edge">
<title>19&#45;&gt;38</title>
<path fill="none" stroke="black" d="M1779.23,-205.97C1827.89,-172.94 1915.54,-113.6 1919.37,-112 2017.13,-71.2 2139.5,-52.66 2213.98,-44.64"/>
<polygon fill="black" stroke="black" points="2214.58,-48.09 2224.17,-43.57 2213.86,-41.13 2214.58,-48.09"/>
</g>
<!-- 19&#45;&gt;39 -->
<g id="edge41" class="edge">
<title>19&#45;&gt;39</title>
<path fill="none" stroke="black" d="M1724.94,-203.27C1698.04,-175.86 1650.18,-132.46 1599.37,-112 1488.89,-67.52 1144.01,-48.68 979.04,-42.05"/>
<polygon fill="black" stroke="black" points="979.05,-38.55 968.92,-41.65 978.77,-45.54 979.05,-38.55"/>
</g>
<!-- 20&#45;&gt;36 -->
<g id="edge139" class="edge">
<title>20&#45;&gt;36</title>
<path fill="none" stroke="black" d="M1345.32,-547.3C1332.5,-537.26 1317.54,-525.54 1304.59,-515.4"/>
<polygon fill="black" stroke="black" points="1306.44,-512.41 1296.41,-509 1302.13,-517.92 1306.44,-512.41"/>
</g>
<!-- 20&#45;&gt;38 -->
<g id="edge9" class="edge">
<title>20&#45;&gt;38</title>
<path fill="none" stroke="black" d="M1443.77,-561.82C1629.48,-536.09 2137.33,-456.84 2258.37,-345.22 2339.81,-270.11 2385.79,-215.54 2346.37,-112 2340.07,-95.45 2328.11,-80.27 2316.15,-68.08"/>
<polygon fill="black" stroke="black" points="2318.36,-65.35 2308.75,-60.9 2313.48,-70.37 2318.36,-65.35"/>
</g>
<!-- 20&#45;&gt;39 -->
<g id="edge42" class="edge">
<title>20&#45;&gt;39</title>
<path fill="none" stroke="black" d="M1303.58,-565.98C1100.95,-550.49 533.44,-494.27 442.37,-345.22 388.33,-256.77 375.24,-190.98 442.37,-112 487.28,-59.17 682.45,-44.48 799.54,-40.46"/>
<polygon fill="black" stroke="black" points="799.7,-43.96 809.58,-40.13 799.47,-36.96 799.7,-43.96"/>
</g>
<!-- 21&#45;&gt;33 -->
<g id="edge140" class="edge">
<title>21&#45;&gt;33</title>
<path fill="none" stroke="black" d="M2347.66,-545.68C2357.47,-535.41 2367.21,-522.71 2372.37,-508.96 2406.31,-418.46 2385.96,-387.18 2372.37,-291.48 2366.54,-250.37 2372.53,-233.99 2346.37,-201.74 2332.41,-184.52 2312.35,-171.47 2292.82,-161.89"/>
<polygon fill="black" stroke="black" points="2294.15,-158.65 2283.61,-157.6 2291.2,-164.99 2294.15,-158.65"/>
</g>
<!-- 21&#45;&gt;36 -->
<g id="edge141" class="edge">
<title>21&#45;&gt;36</title>
<path fill="none" stroke="black" d="M2220.66,-554.71C2196.14,-551.08 2169.83,-547.54 2145.37,-544.96 1872.96,-516.21 1550.94,-501.15 1384.87,-494.77"/>
<polygon fill="black" stroke="black" points="1384.77,-491.27 1374.64,-494.38 1384.5,-498.26 1384.77,-491.27"/>
</g>
<!-- 21&#45;&gt;38 -->
<g id="edge10" class="edge">
<title>21&#45;&gt;38</title>
<path fill="none" stroke="black" d="M2352.59,-545.94C2365.66,-535.44 2380.11,-522.5 2391.37,-508.96 2511.46,-364.54 2649.44,-261.98 2536.37,-112 2513.2,-81.27 2411.56,-59.54 2343.81,-48.17"/>
<polygon fill="black" stroke="black" points="2344.09,-44.67 2333.65,-46.5 2342.95,-51.57 2344.09,-44.67"/>
</g>
<!-- 21&#45;&gt;39 -->
<g id="edge43" class="edge">
<title>21&#45;&gt;39</title>
<path fill="none" stroke="black" d="M2316.38,-544.96C2310.14,-480.1 2285.84,-308.21 2198.37,-201.74 2180.76,-180.3 2170.03,-181.75 2147.37,-165.74 2113.58,-141.87 2110.39,-125.74 2071.37,-112 1870.27,-41.19 1219.23,-37.2 979.27,-38.24"/>
<polygon fill="black" stroke="black" points="979.17,-34.74 969.18,-38.28 979.2,-41.74 979.17,-34.74"/>
</g>
<!-- 22&#45;&gt;27 -->
<g id="edge142" class="edge">
<title>22&#45;&gt;27</title>
<path fill="none" stroke="black" d="M1843.1,-638.51C1857.27,-628.4 1871.63,-614.99 1879.37,-598.7 1889.63,-577.13 1885.61,-568.02 1879.37,-544.96 1845.3,-419.03 1823.43,-383.91 1731.37,-291.48 1721.2,-281.27 1692.11,-264.4 1667.12,-250.85"/>
<polygon fill="black" stroke="black" points="1668.6,-247.68 1658.14,-246.03 1665.29,-253.84 1668.6,-247.68"/>
</g>
<!-- 22&#45;&gt;28 -->
<g id="edge143" class="edge">
<title>22&#45;&gt;28</title>
<path fill="none" stroke="black" d="M1771.28,-637.11C1757.17,-626.14 1740.79,-612.47 1727.37,-598.7 1617.32,-485.79 1509.77,-331.06 1464.61,-263.49"/>
<polygon fill="black" stroke="black" points="1467.36,-261.31 1458.91,-254.93 1461.53,-265.19 1467.36,-261.31"/>
</g>
<!-- 30 -->
<g id="node30" class="node">
<title>30</title>
<ellipse fill="none" stroke="black" cx="1995.37" cy="-138.87" rx="67.35" ry="26.74"/>
<text text-anchor="middle" x="1995.37" y="-142.67" font-family="Times,serif" font-size="14.00">bluefish</text>
<text text-anchor="middle" x="1995.37" y="-127.67" font-family="Times,serif" font-size="14.00">(2.250002)</text>
</g>
<!-- 22&#45;&gt;30 -->
<g id="edge144" class="edge">
<title>22&#45;&gt;30</title>
<path fill="none" stroke="black" d="M1853.72,-641.66C1879.5,-630.88 1910.76,-616.06 1936.37,-598.7 1965.19,-579.17 1967.63,-568.41 1993.37,-544.96 2092.72,-454.47 2165.01,-467.67 2220.37,-345.22 2249.14,-281.6 2211.57,-244.5 2156.37,-201.74 2128.92,-180.48 2093.31,-165.78 2062.56,-156.07"/>
<polygon fill="black" stroke="black" points="2063.35,-152.65 2052.76,-153.09 2061.31,-159.35 2063.35,-152.65"/>
</g>
<!-- 31 -->
<g id="node31" class="node">
<title>31</title>
<ellipse fill="none" stroke="black" cx="1803.37" cy="-571.83" rx="67.35" ry="26.74"/>
<text text-anchor="middle" x="1803.37" y="-575.63" font-family="Times,serif" font-size="14.00">weakfish</text>
<text text-anchor="middle" x="1803.37" y="-560.63" font-family="Times,serif" font-size="14.00">(6.300002)</text>
</g>
<!-- 22&#45;&gt;31 -->
<g id="edge145" class="edge">
<title>22&#45;&gt;31</title>
<path fill="none" stroke="black" d="M1803.37,-634.25C1803.37,-626.28 1803.37,-617.39 1803.37,-608.9"/>
<polygon fill="black" stroke="black" points="1806.87,-608.83 1803.37,-598.83 1799.87,-608.83 1806.87,-608.83"/>
</g>
<!-- 22&#45;&gt;32 -->
<g id="edge146" class="edge">
<title>22&#45;&gt;32</title>
<path fill="none" stroke="black" d="M1843.44,-638.66C1860.86,-627.99 1880.81,-614.12 1896.37,-598.7 1993.08,-502.87 2028.39,-475.36 2068.37,-345.22 2075.39,-322.39 2076.55,-313.92 2068.37,-291.48 2064.55,-280.98 2058.07,-271.03 2050.96,-262.3"/>
<polygon fill="black" stroke="black" points="2053.51,-259.9 2044.31,-254.64 2048.23,-264.49 2053.51,-259.9"/>
</g>
<!-- 22&#45;&gt;33 -->
<g id="edge147" class="edge">
<title>22&#45;&gt;33</title>
<path fill="none" stroke="black" d="M1854.29,-641.81C1863.53,-639.01 1873.16,-636.47 1882.37,-634.7 1944.8,-622.71 2409.86,-645.04 2453.37,-598.7 2492.32,-557.22 2569.66,-439.12 2371.37,-201.74 2353.59,-180.46 2327.07,-166.26 2301.8,-156.91"/>
<polygon fill="black" stroke="black" points="2302.8,-153.55 2292.2,-153.55 2300.49,-160.15 2302.8,-153.55"/>
</g>
<!-- 22&#45;&gt;36 -->
<g id="edge148" class="edge">
<title>22&#45;&gt;36</title>
<path fill="none" stroke="black" d="M1751.27,-642.4C1683.9,-619.07 1562.8,-577.69 1458.37,-544.96 1421.9,-533.53 1381.15,-521.55 1347.19,-511.79"/>
<polygon fill="black" stroke="black" points="1347.92,-508.36 1337.34,-508.96 1345.99,-515.08 1347.92,-508.36"/>
</g>
<!-- 22&#45;&gt;38 -->
<g id="edge11" class="edge">
<title>22&#45;&gt;38</title>
<path fill="none" stroke="black" d="M1877.64,-659.48C2076.41,-655.98 2609.87,-642.55 2675.37,-598.7 2790.61,-521.55 2814.37,-458.03 2814.37,-319.35 2814.37,-319.35 2814.37,-319.35 2814.37,-227.61 2814.37,-170.32 2803.58,-145.86 2757.37,-112 2694.37,-65.83 2469.73,-48.17 2352.99,-41.99"/>
<polygon fill="black" stroke="black" points="2352.89,-38.48 2342.72,-41.47 2352.53,-45.47 2352.89,-38.48"/>
</g>
<!-- 22&#45;&gt;39 -->
<g id="edge44" class="edge">
<title>22&#45;&gt;39</title>
<path fill="none" stroke="black" d="M1730.24,-656.8C1482.33,-642.74 678.1,-586.14 476.37,-434.96 436.75,-405.27 429.89,-390.72 410.37,-345.22 369.49,-249.93 332.47,-186.71 404.37,-112 457.35,-56.95 674.38,-43.21 799.43,-39.91"/>
<polygon fill="black" stroke="black" points="799.84,-43.4 809.75,-39.66 799.67,-36.4 799.84,-43.4"/>
</g>
<!-- 23&#45;&gt;30 -->
<g id="edge149" class="edge">
<title>23&#45;&gt;30</title>
<path fill="none" stroke="black" d="M2584.81,-545.69C2536.69,-478.77 2395.38,-295.02 2232.37,-201.74 2182.15,-173 2118.36,-157.33 2069.61,-148.96"/>
<polygon fill="black" stroke="black" points="2069.88,-145.46 2059.45,-147.28 2068.74,-152.37 2069.88,-145.46"/>
</g>
<!-- 23&#45;&gt;32 -->
<g id="edge150" class="edge">
<title>23&#45;&gt;32</title>
<path fill="none" stroke="black" d="M2565.71,-549.49C2464.47,-490.53 2180.9,-325.41 2065.83,-258.41"/>
<polygon fill="black" stroke="black" points="2067.26,-255.19 2056.86,-253.18 2063.74,-261.24 2067.26,-255.19"/>
</g>
<!-- 23&#45;&gt;33 -->
<g id="edge151" class="edge">
<title>23&#45;&gt;33</title>
<path fill="none" stroke="black" d="M2604.92,-544.88C2610.2,-474.25 2613.5,-278.68 2498.37,-201.74 2443.52,-165.09 2369.82,-149.98 2313.59,-143.83"/>
<polygon fill="black" stroke="black" points="2313.61,-140.31 2303.31,-142.78 2312.9,-147.28 2313.61,-140.31"/>
</g>
<!-- 23&#45;&gt;36 -->
<g id="edge152" class="edge">
<title>23&#45;&gt;36</title>
<path fill="none" stroke="black" d="M2545.3,-559.18C2517.66,-553.99 2483.91,-548.3 2453.37,-544.96 2062.25,-502.23 1594.61,-493.22 1384.82,-491.38"/>
<polygon fill="black" stroke="black" points="1384.75,-487.88 1374.72,-491.3 1384.69,-494.88 1384.75,-487.88"/>
</g>
<!-- 23&#45;&gt;38 -->
<g id="edge12" class="edge">
<title>23&#45;&gt;38</title>
<path fill="none" stroke="black" d="M2637.33,-549.01C2651.43,-538.53 2666.64,-524.8 2676.37,-508.96 2769.5,-357.48 2841.48,-247.53 2726.37,-112 2679.7,-57.04 2469.82,-43.38 2355.75,-40.04"/>
<polygon fill="black" stroke="black" points="2355.78,-36.54 2345.69,-39.76 2355.59,-43.53 2355.78,-36.54"/>
</g>
<!-- 23&#45;&gt;39 -->
<g id="edge45" class="edge">
<title>23&#45;&gt;39</title>
<path fill="none" stroke="black" d="M2611.66,-545C2615.13,-534.04 2618.65,-521.03 2620.37,-508.96 2634.11,-412.53 2630.75,-381.42 2593.37,-291.48 2536.64,-154.98 2457.75,-143.7 2313.37,-112 2057.35,-55.79 1250.4,-42.62 979.25,-39.75"/>
<polygon fill="black" stroke="black" points="979.1,-36.25 969.06,-39.64 979.02,-43.25 979.1,-36.25"/>
</g>
<!-- 24&#45;&gt;36 -->
<g id="edge153" class="edge">
<title>24&#45;&gt;36</title>
<path fill="none" stroke="black" d="M2006.99,-561.59C1969.96,-556.3 1922.05,-549.76 1879.37,-544.96 1706.96,-525.55 1506.32,-508.82 1384.65,-499.32"/>
<polygon fill="black" stroke="black" points="1384.82,-495.82 1374.57,-498.53 1384.27,-502.8 1384.82,-495.82"/>
</g>
<!-- 24&#45;&gt;38 -->
<g id="edge13" class="edge">
<title>24&#45;&gt;38</title>
<path fill="none" stroke="black" d="M2118.98,-553.48C2195.6,-523.85 2341.13,-455.76 2410.37,-345.22 2465.47,-257.26 2476.31,-200.67 2422.37,-112 2404.01,-81.82 2368.71,-63.57 2338.02,-52.86"/>
<polygon fill="black" stroke="black" points="2338.84,-49.44 2328.25,-49.64 2336.65,-56.09 2338.84,-49.44"/>
</g>
<!-- 24&#45;&gt;39 -->
<g id="edge46" class="edge">
<title>24&#45;&gt;39</title>
<path fill="none" stroke="black" d="M2060.04,-545.09C2034.52,-478.28 1957.1,-297.86 1833.37,-201.74 1793.08,-170.44 1769.54,-189.46 1724.37,-165.74 1689.33,-147.34 1690.25,-126.37 1653.37,-112 1532.56,-64.92 1153.87,-47.23 979.23,-41.46"/>
<polygon fill="black" stroke="black" points="979.15,-37.95 969.04,-41.13 978.92,-44.95 979.15,-37.95"/>
</g>
<!-- 25&#45;&gt;36 -->
<g id="edge154" class="edge">
<title>25&#45;&gt;36</title>
<path fill="none" stroke="black" d="M1328.34,-245.36C1367.4,-257.28 1413.83,-274.45 1425.37,-291.48 1469.58,-356.72 1373.92,-429.1 1315.06,-465.43"/>
<polygon fill="black" stroke="black" points="1313.04,-462.55 1306.31,-470.73 1316.67,-468.54 1313.04,-462.55"/>
</g>
<!-- 25&#45;&gt;38 -->
<g id="edge14" class="edge">
<title>25&#45;&gt;38</title>
<path fill="none" stroke="black" d="M1318.17,-208.14C1384.42,-181.99 1508.44,-136.03 1618.37,-112 1830.53,-65.63 2087.64,-48.02 2209.99,-41.92"/>
<polygon fill="black" stroke="black" points="2210.53,-45.4 2220.35,-41.42 2210.19,-38.41 2210.53,-45.4"/>
</g>
<!-- 25&#45;&gt;39 -->
<g id="edge47" class="edge">
<title>25&#45;&gt;39</title>
<path fill="none" stroke="black" d="M1256.02,-201.92C1239.85,-175.38 1211.1,-134.72 1175.37,-112 1116.2,-74.37 1038.58,-56.11 979.13,-47.27"/>
<polygon fill="black" stroke="black" points="979.39,-43.77 969,-45.82 978.41,-50.7 979.39,-43.77"/>
</g>
<!-- 26&#45;&gt;36 -->
<g id="edge155" class="edge">
<title>26&#45;&gt;36</title>
<path fill="none" stroke="black" d="M832.85,-241.64C805.69,-250.56 775.59,-265.8 759.37,-291.48 724.48,-346.72 740.16,-394.39 791.37,-434.96 819.84,-457.51 1028.8,-474.19 1162.08,-482.67"/>
<polygon fill="black" stroke="black" points="1162.14,-486.18 1172.34,-483.32 1162.58,-479.19 1162.14,-486.18"/>
</g>
<!-- 26&#45;&gt;38 -->
<g id="edge15" class="edge">
<title>26&#45;&gt;38</title>
<path fill="none" stroke="black" d="M933.18,-208.8C997.59,-182.08 1122.27,-133.97 1233.37,-112 1421.09,-74.88 2005.17,-49.57 2209.73,-41.64"/>
<polygon fill="black" stroke="black" points="2209.9,-45.14 2219.76,-41.26 2209.63,-38.15 2209.9,-45.14"/>
</g>
<!-- 26&#45;&gt;39 -->
<g id="edge48" class="edge">
<title>26&#45;&gt;39</title>
<path fill="none" stroke="black" d="M889.37,-201.38C889.37,-170.43 889.37,-118.52 889.37,-81.73"/>
<polygon fill="black" stroke="black" points="892.87,-81.32 889.37,-71.32 885.87,-81.32 892.87,-81.32"/>
</g>
<!-- 27&#45;&gt;30 -->
<g id="edge156" class="edge">
<title>27&#45;&gt;30</title>
<path fill="none" stroke="black" d="M1657.75,-210.63C1664.73,-207.33 1672.19,-204.15 1679.37,-201.74 1723.69,-186.87 1844.97,-165.02 1923.74,-151.66"/>
<polygon fill="black" stroke="black" points="1924.8,-155.03 1934.08,-149.92 1923.63,-148.13 1924.8,-155.03"/>
</g>
<!-- 27&#45;&gt;36 -->
<g id="edge157" class="edge">
<title>27&#45;&gt;36</title>
<path fill="none" stroke="black" d="M1656.86,-247.12C1679.37,-260.77 1707.13,-279.37 1713.37,-291.48 1724.32,-312.71 1725.63,-324.72 1713.37,-345.22 1691.75,-381.38 1586.03,-420.74 1546.37,-434.96 1494.57,-453.53 1434.81,-466.27 1384.44,-474.68"/>
<polygon fill="black" stroke="black" points="1383.8,-471.24 1374.5,-476.31 1384.93,-478.15 1383.8,-471.24"/>
</g>
<!-- 27&#45;&gt;38 -->
<g id="edge16" class="edge">
<title>27&#45;&gt;38</title>
<path fill="none" stroke="black" d="M1658.22,-211.01C1665.11,-207.72 1672.41,-204.45 1679.37,-201.74 1731.65,-181.37 1754.78,-198.44 1800.37,-165.74 1824.14,-148.69 1813.58,-127.52 1838.37,-112 1899.66,-73.64 2104.76,-52.54 2213.05,-43.83"/>
<polygon fill="black" stroke="black" points="2213.53,-47.3 2223.22,-43.03 2212.98,-40.32 2213.53,-47.3"/>
</g>
<!-- 27&#45;&gt;39 -->
<g id="edge49" class="edge">
<title>27&#45;&gt;39</title>
<path fill="none" stroke="black" d="M1620.33,-201.65C1612.54,-174.47 1596.16,-132.9 1565.37,-112 1472.02,-48.62 1141.1,-39.19 979.49,-38.48"/>
<polygon fill="black" stroke="black" points="979.11,-34.98 969.1,-38.45 979.09,-41.98 979.11,-34.98"/>
</g>
<!-- 28&#45;&gt;36 -->
<g id="edge158" class="edge">
<title>28&#45;&gt;36</title>
<path fill="none" stroke="black" d="M1443.39,-255.49C1443.78,-266.57 1444.18,-279.66 1444.37,-291.48 1445.45,-358.04 1449.55,-389.02 1401.37,-434.96 1386.96,-448.7 1368.53,-459.19 1350.18,-467.11"/>
<polygon fill="black" stroke="black" points="1348.83,-463.88 1340.9,-470.9 1351.48,-470.35 1348.83,-463.88"/>
</g>
<!-- 28&#45;&gt;38 -->
<g id="edge17" class="edge">
<title>28&#45;&gt;38</title>
<path fill="none" stroke="black" d="M1491.46,-208.95C1559.79,-183.64 1687.85,-138.52 1800.37,-112 1946.77,-77.49 2122.23,-55.67 2215.49,-45.58"/>
<polygon fill="black" stroke="black" points="2216.06,-49.04 2225.63,-44.5 2215.31,-42.08 2216.06,-49.04"/>
</g>
<!-- 28&#45;&gt;39 -->
<g id="edge50" class="edge">
<title>28&#45;&gt;39</title>
<path fill="none" stroke="black" d="M1406.08,-205.39C1362.48,-179.56 1286.43,-137.28 1216.37,-112 1138.3,-83.84 1045.68,-64.39 978.98,-52.69"/>
<polygon fill="black" stroke="black" points="979.37,-49.21 968.92,-50.95 978.18,-56.11 979.37,-49.21"/>
</g>
<!-- 29&#45;&gt;36 -->
<g id="edge159" class="edge">
<title>29&#45;&gt;36</title>
<path fill="none" stroke="black" d="M986.51,-247.12C978.61,-250.19 970.3,-253.15 962.37,-255.48 880.34,-279.62 827.89,-225.6 773.37,-291.48 758.14,-309.88 763.08,-323.67 773.37,-345.22 800.71,-402.47 826.16,-409.74 884.37,-434.96 932.86,-455.97 1065.26,-471.34 1162.17,-480.19"/>
<polygon fill="black" stroke="black" points="1162.04,-483.69 1172.32,-481.11 1162.67,-476.72 1162.04,-483.69"/>
</g>
<!-- 29&#45;&gt;38 -->
<g id="edge18" class="edge">
<title>29&#45;&gt;38</title>
<path fill="none" stroke="black" d="M1071.76,-213.46C1161.95,-185.53 1361.07,-124.93 1431.37,-112 1715.35,-59.78 2059.74,-44.76 2207.85,-40.56"/>
<polygon fill="black" stroke="black" points="2208.27,-44.05 2218.17,-40.28 2208.08,-37.06 2208.27,-44.05"/>
</g>
<!-- 29&#45;&gt;39 -->
<g id="edge51" class="edge">
<title>29&#45;&gt;39</title>
<path fill="none" stroke="black" d="M1008.46,-202.95C985.67,-171.58 946,-116.96 918.75,-79.44"/>
<polygon fill="black" stroke="black" points="921.5,-77.28 912.79,-71.24 915.84,-81.39 921.5,-77.28"/>
</g>
<!-- 30&#45;&gt;36 -->
<g id="edge160" class="edge">
<title>30&#45;&gt;36</title>
<path fill="none" stroke="black" d="M1959.32,-161.76C1943.04,-172.62 1924.18,-186.64 1909.37,-201.74 1814.18,-298.83 1834.99,-378.34 1711.37,-434.96 1655.05,-460.76 1495.13,-475.51 1384.95,-482.88"/>
<polygon fill="black" stroke="black" points="1384.53,-479.4 1374.78,-483.55 1384.99,-486.38 1384.53,-479.4"/>
</g>
<!-- 30&#45;&gt;38 -->
<g id="edge19" class="edge">
<title>30&#45;&gt;38</title>
<path fill="none" stroke="black" d="M2045.19,-120.65C2097.21,-102.66 2178.37,-74.61 2230.71,-56.51"/>
<polygon fill="black" stroke="black" points="2232.14,-59.72 2240.45,-53.15 2229.86,-53.11 2232.14,-59.72"/>
</g>
<!-- 30&#45;&gt;39 -->
<g id="edge52" class="edge">
<title>30&#45;&gt;39</title>
<path fill="none" stroke="black" d="M1939.37,-124C1919.58,-119.55 1897.09,-115 1876.37,-112 1547.93,-64.39 1153.23,-47.07 979.24,-41.43"/>
<polygon fill="black" stroke="black" points="979.21,-37.93 969.1,-41.11 978.99,-44.92 979.21,-37.93"/>
</g>
<!-- 31&#45;&gt;32 -->
<g id="edge161" class="edge">
<title>31&#45;&gt;32</title>
<path fill="none" stroke="black" d="M1828.82,-546.6C1868.15,-507.76 1943.52,-427.54 1985.37,-345.22 1998.17,-320.05 2006.12,-289.02 2010.75,-265.45"/>
<polygon fill="black" stroke="black" points="2014.21,-265.99 2012.6,-255.52 2007.33,-264.71 2014.21,-265.99"/>
</g>
<!-- 31&#45;&gt;36 -->
<g id="edge162" class="edge">
<title>31&#45;&gt;36</title>
<path fill="none" stroke="black" d="M1741.28,-561.47C1653.8,-548.29 1492.89,-524.04 1384.51,-507.71"/>
<polygon fill="black" stroke="black" points="1384.92,-504.23 1374.51,-506.2 1383.88,-511.15 1384.92,-504.23"/>
</g>
<!-- 31&#45;&gt;38 -->
<g id="edge20" class="edge">
<title>31&#45;&gt;38</title>
<path fill="none" stroke="black" d="M1862.23,-558.69C1928.23,-544.8 2030.92,-522.26 2068.37,-508.96 2199.19,-462.51 2244.29,-450.85 2334.37,-345.22 2403.16,-264.56 2433.05,-206.17 2384.37,-112 2372.44,-88.92 2349.47,-71.56 2328.24,-59.57"/>
<polygon fill="black" stroke="black" points="2329.75,-56.41 2319.29,-54.76 2326.44,-62.58 2329.75,-56.41"/>
</g>
<!-- 31&#45;&gt;39 -->
<g id="edge53" class="edge">
<title>31&#45;&gt;39</title>
<path fill="none" stroke="black" d="M1737.85,-565.49C1621.86,-555.81 1372.85,-534.04 1163.37,-508.96 932.46,-481.32 866.57,-506.75 645.37,-434.96 640.29,-433.31 478.13,-349.79 475.37,-345.22 421.79,-256.34 532.73,-149.65 584.37,-112 647.01,-66.33 734.32,-48.88 799.48,-42.39"/>
<polygon fill="black" stroke="black" points="800.11,-45.84 809.74,-41.44 799.46,-38.87 800.11,-45.84"/>
</g>
<!-- 32&#45;&gt;36 -->
<g id="edge163" class="edge">
<title>32&#45;&gt;36</title>
<path fill="none" stroke="black" d="M2007.21,-255.57C1997.29,-280.82 1979.45,-319.09 1954.37,-345.22 1900.05,-401.82 1876.9,-410.47 1802.37,-434.96 1727.37,-459.61 1516.44,-475.43 1384.7,-483.21"/>
<polygon fill="black" stroke="black" points="1384.35,-479.73 1374.57,-483.8 1384.76,-486.71 1384.35,-479.73"/>
</g>
<!-- 32&#45;&gt;38 -->
<g id="edge21" class="edge">
<title>32&#45;&gt;38</title>
<path fill="none" stroke="black" d="M2041.53,-202.31C2066.9,-177.56 2107.87,-139.67 2147.37,-112 2175.52,-92.29 2209.54,-73.81 2236.26,-60.38"/>
<polygon fill="black" stroke="black" points="2237.99,-63.43 2245.39,-55.84 2234.87,-57.16 2237.99,-63.43"/>
</g>
<!-- 32&#45;&gt;39 -->
<g id="edge54" class="edge">
<title>32&#45;&gt;39</title>
<path fill="none" stroke="black" d="M1957.75,-206.93C1925.34,-195.27 1884.44,-180.18 1848.37,-165.74 1792.61,-143.41 1782.6,-126.75 1724.37,-112 1585.25,-76.76 1164.81,-52.49 979.15,-43.2"/>
<polygon fill="black" stroke="black" points="979.3,-39.71 969.14,-42.7 978.95,-46.7 979.3,-39.71"/>
</g>
<!-- 33&#45;&gt;36 -->
<g id="edge164" class="edge">
<title>33&#45;&gt;36</title>
<path fill="none" stroke="black" d="M2210.77,-164.82C2161.62,-225.1 2026.04,-377.94 1872.37,-434.96 1785.77,-467.1 1532.74,-480.61 1384.71,-485.89"/>
<polygon fill="black" stroke="black" points="1384.54,-482.39 1374.67,-486.24 1384.79,-489.38 1384.54,-482.39"/>
</g>
<!-- 33&#45;&gt;38 -->
<g id="edge22" class="edge">
<title>33&#45;&gt;38</title>
<path fill="none" stroke="black" d="M2243.51,-112.41C2249.05,-101.66 2255.62,-88.92 2261.72,-77.1"/>
<polygon fill="black" stroke="black" points="2265.01,-78.36 2266.48,-67.87 2258.78,-75.15 2265.01,-78.36"/>
</g>
<!-- 33&#45;&gt;39 -->
<g id="edge55" class="edge">
<title>33&#45;&gt;39</title>
<path fill="none" stroke="black" d="M2177.31,-120.16C2165.9,-116.95 2153.82,-113.99 2142.37,-112 1918.44,-73.09 1227.44,-49.12 979.27,-41.58"/>
<polygon fill="black" stroke="black" points="979.31,-38.08 969.21,-41.27 979.1,-45.07 979.31,-38.08"/>
</g>
<!-- 34&#45;&gt;5 -->
<g id="edge165" class="edge">
<title>34&#45;&gt;5</title>
<path fill="none" stroke="black" d="M499.38,-1426.5C497.26,-1418.81 494.71,-1409.56 492.24,-1400.59"/>
<polygon fill="black" stroke="black" points="495.54,-1399.39 489.51,-1390.68 488.79,-1401.25 495.54,-1399.39"/>
</g>
<!-- 35&#45;&gt;2 -->
<g id="edge166" class="edge">
<title>35&#45;&gt;2</title>
<path fill="none" stroke="black" d="M786.46,-814.06C808.16,-803.97 836.69,-791.21 862.71,-779.91"/>
<polygon fill="black" stroke="black" points="864.38,-783.01 872.17,-775.82 861.6,-776.58 864.38,-783.01"/>
</g>
<!-- 35&#45;&gt;7 -->
<g id="edge167" class="edge">
<title>35&#45;&gt;7</title>
<path fill="none" stroke="black" d="M708.55,-852.38C691.94,-860.82 674.2,-872.52 662.37,-888.18 631.56,-928.98 608.31,-1078.15 594.97,-1147.44"/>
<polygon fill="black" stroke="black" points="591.5,-1146.97 593,-1157.46 598.37,-1148.32 591.5,-1146.97"/>
</g>
<!-- 35&#45;&gt;8 -->
<g id="edge168" class="edge">
<title>35&#45;&gt;8</title>
<path fill="none" stroke="black" d="M776.2,-852.2C786.06,-862.27 796.63,-875.34 804.37,-888.18 840.17,-947.51 810.09,-989.88 865.37,-1031.66 926.69,-1078 1142.43,-1089.78 1263.14,-1092.68"/>
<polygon fill="black" stroke="black" points="1263.38,-1096.18 1273.45,-1092.91 1263.53,-1089.19 1263.38,-1096.18"/>
</g>
<!-- 35&#45;&gt;9 -->
<g id="edge169" class="edge">
<title>35&#45;&gt;9</title>
<path fill="none" stroke="black" d="M802.23,-852.22C821.77,-861.36 843.35,-873.62 860.37,-888.18 887.51,-911.4 911.56,-944.31 926.1,-969.08"/>
<polygon fill="black" stroke="black" points="923.06,-970.81 931.01,-977.8 929.15,-967.37 923.06,-970.81"/>
</g>
<!-- 35&#45;&gt;11 -->
<g id="edge170" class="edge">
<title>35&#45;&gt;11</title>
<path fill="none" stroke="black" d="M751.17,-813.93C751.88,-790.51 756.5,-749.88 778.37,-724.44 792.48,-708.03 811.66,-695.89 831.52,-686.93"/>
<polygon fill="black" stroke="black" points="833.16,-690.03 841,-682.9 830.43,-683.59 833.16,-690.03"/>
</g>
<!-- 35&#45;&gt;12 -->
<g id="edge171" class="edge">
<title>35&#45;&gt;12</title>
<path fill="none" stroke="black" d="M649.31,-818.17C574.43,-801.61 479.28,-765.74 440.37,-688.44 429.63,-667.11 427.42,-654.77 440.37,-634.7 449.13,-621.14 481.41,-606.24 512.44,-594.46"/>
<polygon fill="black" stroke="black" points="513.84,-597.67 522,-590.91 511.41,-591.11 513.84,-597.67"/>
</g>
<!-- 35&#45;&gt;13 -->
<g id="edge172" class="edge">
<title>35&#45;&gt;13</title>
<path fill="none" stroke="black" d="M703.45,-814.09C681.31,-804.78 655.17,-792.4 633.37,-778.18 595.61,-753.55 557.69,-718.34 532.63,-693.26"/>
<polygon fill="black" stroke="black" points="535.12,-690.8 525.6,-686.15 530.14,-695.72 535.12,-690.8"/>
</g>
<!-- 35&#45;&gt;22 -->
<g id="edge173" class="edge">
<title>35&#45;&gt;22</title>
<path fill="none" stroke="black" d="M853.68,-815.69C1063.83,-781.8 1540.01,-705.03 1726.46,-674.97"/>
<polygon fill="black" stroke="black" points="1727.14,-678.41 1736.45,-673.36 1726.02,-671.5 1727.14,-678.41"/>
</g>
<!-- 35&#45;&gt;23 -->
<g id="edge174" class="edge">
<title>35&#45;&gt;23</title>
<path fill="none" stroke="black" d="M853.75,-821.38C956.54,-810.53 1119.44,-793.28 1260.37,-778.18 1628.86,-738.69 1724.6,-753.87 2089.37,-688.44 2185.47,-671.2 2206.76,-654.48 2302.37,-634.7 2400.26,-614.46 2427.29,-622.51 2524.37,-598.7 2530.98,-597.08 2537.84,-595.16 2544.62,-593.12"/>
<polygon fill="black" stroke="black" points="2545.95,-596.37 2554.46,-590.05 2543.87,-589.69 2545.95,-596.37"/>
</g>
<!-- 35&#45;&gt;36 -->
<g id="edge175" class="edge">
<title>35&#45;&gt;36</title>
<path fill="none" stroke="black" d="M747.77,-814.14C741.25,-775.72 732.08,-685.22 778.37,-634.7 829.97,-578.4 1032.79,-533.28 1162.26,-509.45"/>
<polygon fill="black" stroke="black" points="1163.02,-512.87 1172.23,-507.64 1161.76,-505.99 1163.02,-512.87"/>
</g>
<!-- 36&#45;&gt;3 -->
<g id="edge176" class="edge">
<title>36&#45;&gt;3</title>
<path fill="none" stroke="black" d="M1220.01,-470.94C1191.98,-460.72 1157.46,-447.74 1127.85,-436.31"/>
<polygon fill="black" stroke="black" points="1129.01,-433.01 1118.42,-432.66 1126.48,-439.53 1129.01,-433.01"/>
</g>
<!-- 36&#45;&gt;19 -->
<g id="edge177" class="edge">
<title>36&#45;&gt;19</title>
<path fill="none" stroke="black" d="M1374.65,-481.73C1442.91,-474.76 1534.16,-461.19 1611.37,-434.96 1690.04,-408.23 1733.01,-416.7 1775.37,-345.22 1790.43,-319.82 1777.92,-287.6 1764.99,-263.62"/>
<polygon fill="black" stroke="black" points="1768.02,-261.87 1760.07,-254.87 1761.92,-265.3 1768.02,-261.87"/>
</g>
<!-- 37 -->
<g id="node37" class="node">
<title>37</title>
<polygon fill="none" stroke="black" points="645.52,-1633.9 597.37,-1657 549.23,-1633.9 567.62,-1596.53 627.13,-1596.53 645.52,-1633.9"/>
<text text-anchor="middle" x="597.37" y="-1627.37" font-family="Times,serif" font-size="14.00">Input</text>
<text text-anchor="middle" x="597.37" y="-1612.37" font-family="Times,serif" font-size="14.00">(0.0)</text>
</g>
<!-- 37&#45;&gt;1 -->
<g id="edge1" class="edge">
<title>37&#45;&gt;1</title>
<path fill="none" stroke="black" d="M633.04,-1607.46C667.49,-1592.86 720.28,-1570.49 760.89,-1553.28"/>
<polygon fill="black" stroke="black" points="762.3,-1556.48 770.14,-1549.36 759.57,-1550.04 762.3,-1556.48"/>
</g>
<!-- 37&#45;&gt;4 -->
<g id="edge2" class="edge">
<title>37&#45;&gt;4</title>
<path fill="none" stroke="black" d="M557.88,-1615.74C448.97,-1595.78 152.37,-1533.44 152.37,-1446.62 152.37,-1446.62 152.37,-1446.62 152.37,-750.31 152.37,-668.3 244.53,-619.48 313.67,-594.39"/>
<polygon fill="black" stroke="black" points="314.99,-597.64 323.26,-591.01 312.66,-591.04 314.99,-597.64"/>
</g>
<!-- 37&#45;&gt;34 -->
<g id="edge3" class="edge">
<title>37&#45;&gt;34</title>
<path fill="none" stroke="black" d="M583.45,-1596.23C566.11,-1563.42 536.62,-1507.63 518.97,-1474.24"/>
<polygon fill="black" stroke="black" points="521.88,-1472.26 514.11,-1465.05 515.69,-1475.53 521.88,-1472.26"/>
</g>
<!-- 37&#45;&gt;35 -->
<g id="edge4" class="edge">
<title>37&#45;&gt;35</title>
<path fill="none" stroke="black" d="M612.72,-1596.47C650.2,-1530.18 743.37,-1348.95 743.37,-1185.27 743.37,-1185.27 743.37,-1185.27 743.37,-1003.79 743.37,-953.92 746.87,-895.88 749.24,-862.26"/>
<polygon fill="black" stroke="black" points="752.73,-862.47 749.96,-852.24 745.75,-861.96 752.73,-862.47"/>
</g>
</g>
</svg>
