<?xml version="1.0" encoding="UTF-8" standalone="no"?>
<!DOCTYPE svg PUBLIC "-//W3C//DTD SVG 1.1//EN"
 "http://www.w3.org/Graphics/SVG/1.1/DTD/svg11.dtd">
<!-- Generated by graphviz version 2.43.0 (0)
 -->
<!-- Title: chesapeake Pages: 1 -->
<svg width="2807pt" height="1196pt"
 viewBox="0.00 0.00 2807.01 1196.00" xmlns="http://www.w3.org/2000/svg" xmlns:xlink="http://www.w3.org/1999/xlink">
<g id="graph0" class="graph" transform="scale(1 1) rotate(0) translate(4 1192)">
<title>chesapeake</title>
<polygon fill="white" stroke="transparent" points="-4,4 -4,-1192 2803.01,-1192 2803.01,4 -4,4"/>
<!-- Input -->
<g id="node1" class="node">
<title>Input</title>
<ellipse fill="none" stroke="black" cx="2117.01" cy="-1170" rx="36" ry="18"/>
<text text-anchor="middle" x="2117.01" y="-1166.3" font-family="Times,serif" font-size="14.00">Input</text>
</g>
<!-- phytoplankton -->
<g id="node2" class="node">
<title>phytoplankton</title>
<ellipse fill="none" stroke="black" cx="1379.01" cy="-1098" rx="77.19" ry="18"/>
<text text-anchor="middle" x="1379.01" y="-1094.3" font-family="Times,serif" font-size="14.00">phytoplankton</text>
</g>
<!-- Input&#45;&gt;phytoplankton -->
<g id="edge1" class="edge">
<title>Input&#45;&gt;phytoplankton</title>
<path fill="none" stroke="black" d="M2081.91,-1165.67C1969.86,-1155.04 1618.76,-1121.74 1459.27,-1106.61"/>
<polygon fill="black" stroke="black" points="1459.33,-1103.1 1449.04,-1105.64 1458.67,-1110.07 1459.33,-1103.1"/>
</g>
<!-- benthic diatoms -->
<g id="node3" class="node">
<title>benthic diatoms</title>
<ellipse fill="none" stroke="black" cx="2458.01" cy="-450" rx="85.29" ry="18"/>
<text text-anchor="middle" x="2458.01" y="-446.3" font-family="Times,serif" font-size="14.00">benthic diatoms</text>
</g>
<!-- Input&#45;&gt;benthic diatoms -->
<g id="edge2" class="edge">
<title>Input&#45;&gt;benthic diatoms</title>
<path fill="none" stroke="black" d="M2153.02,-1168.82C2288.64,-1167.19 2761.01,-1152.51 2761.01,-1027 2761.01,-1027 2761.01,-1027 2761.01,-593 2761.01,-498.74 2639.31,-466.92 2550.16,-456.26"/>
<polygon fill="black" stroke="black" points="2550.34,-452.76 2540.01,-455.12 2549.56,-459.71 2550.34,-452.76"/>
</g>
<!-- dissolved organic carbon -->
<g id="node4" class="node">
<title>dissolved organic carbon</title>
<ellipse fill="none" stroke="black" cx="2194.01" cy="-1026" rx="126.18" ry="18"/>
<text text-anchor="middle" x="2194.01" y="-1022.3" font-family="Times,serif" font-size="14.00">dissolved organic carbon</text>
</g>
<!-- Input&#45;&gt;dissolved organic carbon -->
<g id="edge3" class="edge">
<title>Input&#45;&gt;dissolved organic carbon</title>
<path fill="none" stroke="black" d="M2126,-1152.43C2139.18,-1128.11 2163.92,-1082.5 2179.65,-1053.49"/>
<polygon fill="black" stroke="black" points="2182.92,-1054.81 2184.61,-1044.35 2176.76,-1051.47 2182.92,-1054.81"/>
</g>
<!-- suspended particulate org -->
<g id="node5" class="node">
<title>suspended particulate org</title>
<ellipse fill="none" stroke="black" cx="1918.01" cy="-810" rx="132.68" ry="18"/>
<text text-anchor="middle" x="1918.01" y="-806.3" font-family="Times,serif" font-size="14.00">suspended particulate org</text>
</g>
<!-- Input&#45;&gt;suspended particulate org -->
<g id="edge4" class="edge">
<title>Input&#45;&gt;suspended particulate org</title>
<path fill="none" stroke="black" d="M2101.8,-1153.46C2079.36,-1128.83 2040.01,-1078.32 2040.01,-1027 2040.01,-1027 2040.01,-1027 2040.01,-953 2040.01,-900.57 1991.56,-857.82 1955.73,-833.38"/>
<polygon fill="black" stroke="black" points="1957.2,-830.16 1946.93,-827.57 1953.34,-836 1957.2,-830.16"/>
</g>
<!-- phytoplankton&#45;&gt;dissolved organic carbon -->
<g id="edge63" class="edge">
<title>phytoplankton&#45;&gt;dissolved organic carbon</title>
<path fill="none" stroke="black" d="M1451.16,-1091.29C1569.27,-1081.87 1811.25,-1062.3 2016.01,-1044 2037.73,-1042.06 2060.93,-1039.9 2083.17,-1037.8"/>
<polygon fill="black" stroke="black" points="2083.68,-1041.26 2093.31,-1036.83 2083.02,-1034.3 2083.68,-1041.26"/>
</g>
<!-- phytoplankton&#45;&gt;suspended particulate org -->
<g id="edge64" class="edge">
<title>phytoplankton&#45;&gt;suspended particulate org</title>
<path fill="none" stroke="black" d="M1408.76,-1081.22C1499.7,-1032.96 1774.12,-887.35 1877.78,-832.35"/>
<polygon fill="black" stroke="black" points="1879.49,-835.4 1886.69,-827.62 1876.21,-829.22 1879.49,-835.4"/>
</g>
<!-- zooplankton -->
<g id="node6" class="node">
<title>zooplankton</title>
<ellipse fill="none" stroke="black" cx="1449.01" cy="-594" rx="66.89" ry="18"/>
<text text-anchor="middle" x="1449.01" y="-590.3" font-family="Times,serif" font-size="14.00">zooplankton</text>
</g>
<!-- phytoplankton&#45;&gt;zooplankton -->
<g id="edge57" class="edge">
<title>phytoplankton&#45;&gt;zooplankton</title>
<path fill="none" stroke="black" d="M1328.21,-1084.27C1305.62,-1076.19 1280.46,-1063.48 1264.01,-1044 1237.58,-1012.7 1240.01,-995.97 1240.01,-955 1240.01,-955 1240.01,-955 1240.01,-737 1240.01,-696.03 1235.27,-677.19 1264.01,-648 1292.63,-618.93 1336.03,-605.54 1373.6,-599.47"/>
<polygon fill="black" stroke="black" points="1374.13,-602.93 1383.52,-598.02 1373.12,-596.01 1374.13,-602.93"/>
</g>
<!-- mya arenaria -->
<g id="node8" class="node">
<title>mya arenaria</title>
<ellipse fill="none" stroke="black" cx="2075.01" cy="-450" rx="72.29" ry="18"/>
<text text-anchor="middle" x="2075.01" y="-446.3" font-family="Times,serif" font-size="14.00">mya arenaria</text>
</g>
<!-- phytoplankton&#45;&gt;mya arenaria -->
<g id="edge59" class="edge">
<title>phytoplankton&#45;&gt;mya arenaria</title>
<path fill="none" stroke="black" d="M1456.32,-1096.76C1736.87,-1094.89 2685.01,-1079.37 2685.01,-955 2685.01,-955 2685.01,-955 2685.01,-809 2685.01,-563.19 2312.01,-482.9 2149.36,-459.58"/>
<polygon fill="black" stroke="black" points="2149.82,-456.11 2139.43,-458.19 2148.85,-463.04 2149.82,-456.11"/>
</g>
<!-- oysters -->
<g id="node9" class="node">
<title>oysters</title>
<ellipse fill="none" stroke="black" cx="1853.01" cy="-594" rx="44.69" ry="18"/>
<text text-anchor="middle" x="1853.01" y="-590.3" font-family="Times,serif" font-size="14.00">oysters</text>
</g>
<!-- phytoplankton&#45;&gt;oysters -->
<g id="edge60" class="edge">
<title>phytoplankton&#45;&gt;oysters</title>
<path fill="none" stroke="black" d="M1379.01,-1079.95C1379.01,-1053.29 1379.01,-1000.11 1379.01,-955 1379.01,-955 1379.01,-955 1379.01,-809 1379.01,-761.95 1693.21,-649.66 1809.99,-609.55"/>
<polygon fill="black" stroke="black" points="1811.36,-612.78 1819.68,-606.23 1809.09,-606.16 1811.36,-612.78"/>
</g>
<!-- bay anchovy -->
<g id="node13" class="node">
<title>bay anchovy</title>
<ellipse fill="none" stroke="black" cx="1046.01" cy="-522" rx="68.49" ry="18"/>
<text text-anchor="middle" x="1046.01" y="-518.3" font-family="Times,serif" font-size="14.00">bay anchovy</text>
</g>
<!-- phytoplankton&#45;&gt;bay anchovy -->
<g id="edge61" class="edge">
<title>phytoplankton&#45;&gt;bay anchovy</title>
<path fill="none" stroke="black" d="M1302.04,-1096.15C1183.88,-1093.58 964.46,-1083.48 898.01,-1044 856.57,-1019.38 836.01,-1003.21 836.01,-955 836.01,-955 836.01,-955 836.01,-665 836.01,-592.52 922.92,-554.53 984.92,-536.65"/>
<polygon fill="black" stroke="black" points="985.94,-539.99 994.64,-533.95 984.07,-533.25 985.94,-539.99"/>
</g>
<!-- menhaden -->
<g id="node14" class="node">
<title>menhaden</title>
<ellipse fill="none" stroke="black" cx="225.01" cy="-450" rx="59.29" ry="18"/>
<text text-anchor="middle" x="225.01" y="-446.3" font-family="Times,serif" font-size="14.00">menhaden</text>
</g>
<!-- phytoplankton&#45;&gt;menhaden -->
<g id="edge62" class="edge">
<title>phytoplankton&#45;&gt;menhaden</title>
<path fill="none" stroke="black" d="M1304.89,-1092.61C1095.39,-1079.21 514.01,-1034.85 514.01,-955 514.01,-955 514.01,-955 514.01,-593 514.01,-494.96 378.39,-464.61 292.96,-455.21"/>
<polygon fill="black" stroke="black" points="293.11,-451.71 282.8,-454.16 292.39,-458.67 293.11,-451.71"/>
</g>
<!-- Respiration -->
<g id="node25" class="node">
<title>Respiration</title>
<ellipse fill="none" stroke="black" cx="1965.01" cy="-18" rx="64.19" ry="18"/>
<text text-anchor="middle" x="1965.01" y="-14.3" font-family="Times,serif" font-size="14.00">Respiration</text>
</g>
<!-- phytoplankton&#45;&gt;Respiration -->
<g id="edge23" class="edge">
<title>phytoplankton&#45;&gt;Respiration</title>
<path fill="none" stroke="black" d="M1308.85,-1090.37C1178.48,-1076.11 912.01,-1036.93 912.01,-955 912.01,-955 912.01,-955 912.01,-593 912.01,-467.18 724.5,-574.82 658.01,-468 605.87,-384.22 773.38,-121.05 859.01,-72 947.98,-21.04 1656.69,-18.21 1890.49,-18.68"/>
<polygon fill="black" stroke="black" points="1890.59,-22.18 1900.59,-18.7 1890.6,-15.18 1890.59,-22.18"/>
</g>
<!-- ciliates -->
<g id="node30" class="node">
<title>ciliates</title>
<ellipse fill="none" stroke="black" cx="2046.01" cy="-666" rx="44.39" ry="18"/>
<text text-anchor="middle" x="2046.01" y="-662.3" font-family="Times,serif" font-size="14.00">ciliates</text>
</g>
<!-- phytoplankton&#45;&gt;ciliates -->
<g id="edge56" class="edge">
<title>phytoplankton&#45;&gt;ciliates</title>
<path fill="none" stroke="black" d="M1453.82,-1093.4C1600.09,-1081.84 1921.71,-1033.14 2060.01,-828 2087.42,-787.35 2070.89,-727.17 2057.63,-693.07"/>
<polygon fill="black" stroke="black" points="2060.86,-691.72 2053.85,-683.78 2054.38,-694.36 2060.86,-691.72"/>
</g>
<!-- other suspension feeders -->
<g id="node33" class="node">
<title>other suspension feeders</title>
<ellipse fill="none" stroke="black" cx="1662.01" cy="-594" rx="128.08" ry="18"/>
<text text-anchor="middle" x="1662.01" y="-590.3" font-family="Times,serif" font-size="14.00">other suspension feeders</text>
</g>
<!-- phytoplankton&#45;&gt;other suspension feeders -->
<g id="edge58" class="edge">
<title>phytoplankton&#45;&gt;other suspension feeders</title>
<path fill="none" stroke="black" d="M1356.6,-1080.48C1326.84,-1056.47 1278.01,-1008.85 1278.01,-955 1278.01,-955 1278.01,-955 1278.01,-737 1278.01,-674.73 1457.89,-631.18 1571.42,-609.9"/>
<polygon fill="black" stroke="black" points="1572.32,-613.29 1581.51,-608.03 1571.04,-606.41 1572.32,-613.29"/>
</g>
<!-- benthic diatoms&#45;&gt;Respiration -->
<g id="edge26" class="edge">
<title>benthic diatoms&#45;&gt;Respiration</title>
<path fill="none" stroke="black" d="M2473.92,-432.15C2495.93,-407 2533.01,-357.18 2533.01,-307 2533.01,-307 2533.01,-307 2533.01,-161 2533.01,-118.16 2530.42,-97.52 2496.01,-72 2460.01,-45.3 2174.97,-28.68 2038,-22.16"/>
<polygon fill="black" stroke="black" points="2038.16,-18.66 2028.01,-21.69 2037.83,-25.65 2038.16,-18.66"/>
</g>
<!-- meiofauna -->
<g id="node37" class="node">
<title>meiofauna</title>
<ellipse fill="none" stroke="black" cx="2180.01" cy="-234" rx="59.29" ry="18"/>
<text text-anchor="middle" x="2180.01" y="-230.3" font-family="Times,serif" font-size="14.00">meiofauna</text>
</g>
<!-- benthic diatoms&#45;&gt;meiofauna -->
<g id="edge81" class="edge">
<title>benthic diatoms&#45;&gt;meiofauna</title>
<path fill="none" stroke="black" d="M2436.66,-432.56C2387.2,-394.49 2264.73,-300.21 2208.76,-257.13"/>
<polygon fill="black" stroke="black" points="2210.74,-254.24 2200.68,-250.91 2206.47,-259.78 2210.74,-254.24"/>
</g>
<!-- sediment particulate orga -->
<g id="node39" class="node">
<title>sediment particulate orga</title>
<ellipse fill="none" stroke="black" cx="1488.01" cy="-378" rx="131.08" ry="18"/>
<text text-anchor="middle" x="1488.01" y="-374.3" font-family="Times,serif" font-size="14.00">sediment particulate orga</text>
</g>
<!-- benthic diatoms&#45;&gt;sediment particulate orga -->
<g id="edge82" class="edge">
<title>benthic diatoms&#45;&gt;sediment particulate orga</title>
<path fill="none" stroke="black" d="M2398.25,-437.1C2386.92,-435.15 2375.13,-433.34 2364.01,-432 2104.46,-400.79 1799.31,-387.61 1626.29,-382.31"/>
<polygon fill="black" stroke="black" points="1626.21,-378.8 1616.11,-382 1626,-385.8 1626.21,-378.8"/>
</g>
<!-- free bacteria -->
<g id="node28" class="node">
<title>free bacteria</title>
<ellipse fill="none" stroke="black" cx="2233.01" cy="-954" rx="70.39" ry="18"/>
<text text-anchor="middle" x="2233.01" y="-950.3" font-family="Times,serif" font-size="14.00">free bacteria</text>
</g>
<!-- dissolved organic carbon&#45;&gt;free bacteria -->
<g id="edge165" class="edge">
<title>dissolved organic carbon&#45;&gt;free bacteria</title>
<path fill="none" stroke="black" d="M2203.65,-1007.7C2208.14,-999.64 2213.57,-989.89 2218.54,-980.98"/>
<polygon fill="black" stroke="black" points="2221.67,-982.54 2223.48,-972.1 2215.56,-979.14 2221.67,-982.54"/>
</g>
<!-- suspended particulate org&#45;&gt;zooplankton -->
<g id="edge168" class="edge">
<title>suspended particulate org&#45;&gt;zooplankton</title>
<path fill="none" stroke="black" d="M1821.59,-797.57C1774.92,-789.61 1719.02,-776.62 1672.01,-756 1590.49,-720.24 1507.89,-654.21 1469.97,-618.84"/>
<polygon fill="black" stroke="black" points="1472.23,-616.15 1462.58,-611.78 1467.39,-621.22 1472.23,-616.15"/>
</g>
<!-- suspended particulate org&#45;&gt;mya arenaria -->
<g id="edge171" class="edge">
<title>suspended particulate org&#45;&gt;mya arenaria</title>
<path fill="none" stroke="black" d="M2037.93,-802.22C2127.32,-789.91 2234.01,-756.47 2234.01,-667 2234.01,-667 2234.01,-667 2234.01,-593 2234.01,-552.55 2241.37,-534.68 2215.01,-504 2197.15,-483.2 2170.22,-470.54 2144.74,-462.84"/>
<polygon fill="black" stroke="black" points="2145.65,-459.46 2135.07,-460.13 2143.76,-466.2 2145.65,-459.46"/>
</g>
<!-- suspended particulate org&#45;&gt;oysters -->
<g id="edge172" class="edge">
<title>suspended particulate org&#45;&gt;oysters</title>
<path fill="none" stroke="black" d="M1831.9,-796.24C1785.88,-787.47 1735.89,-774.12 1722.01,-756 1681.82,-703.5 1766.54,-643.55 1817.76,-613.8"/>
<polygon fill="black" stroke="black" points="1819.63,-616.76 1826.59,-608.78 1816.17,-610.68 1819.63,-616.76"/>
</g>
<!-- suspended particulate org&#45;&gt;bay anchovy -->
<g id="edge173" class="edge">
<title>suspended particulate org&#45;&gt;bay anchovy</title>
<path fill="none" stroke="black" d="M1821.3,-797.59C1760.96,-789.14 1682.09,-775.64 1614.01,-756 1408.53,-696.7 1176.22,-587.22 1085.37,-542.65"/>
<polygon fill="black" stroke="black" points="1086.78,-539.44 1076.27,-538.17 1083.69,-545.72 1086.78,-539.44"/>
</g>
<!-- suspended particulate org&#45;&gt;menhaden -->
<g id="edge174" class="edge">
<title>suspended particulate org&#45;&gt;menhaden</title>
<path fill="none" stroke="black" d="M1813.75,-798.81C1729.74,-789.84 1608.78,-775.22 1504.01,-756 1369.14,-731.26 1336.94,-717.64 1204.01,-684 902.6,-607.71 832.24,-568.13 528.01,-504 426.77,-482.66 399.58,-487.75 298.01,-468 292.12,-466.85 285.98,-465.57 279.88,-464.23"/>
<polygon fill="black" stroke="black" points="280.21,-460.72 269.68,-461.95 278.68,-467.55 280.21,-460.72"/>
</g>
<!-- bacteria in suspended poc -->
<g id="node26" class="node">
<title>bacteria in suspended poc</title>
<ellipse fill="none" stroke="black" cx="1863.01" cy="-738" rx="131.88" ry="18"/>
<text text-anchor="middle" x="1863.01" y="-734.3" font-family="Times,serif" font-size="14.00">bacteria in suspended poc</text>
</g>
<!-- suspended particulate org&#45;&gt;bacteria in suspended poc -->
<g id="edge166" class="edge">
<title>suspended particulate org&#45;&gt;bacteria in suspended poc</title>
<path fill="none" stroke="black" d="M1898.82,-792.05C1891.49,-783.84 1883.38,-773.79 1876.64,-764.66"/>
<polygon fill="black" stroke="black" points="1879.32,-762.39 1870.67,-756.28 1873.62,-766.45 1879.32,-762.39"/>
</g>
<!-- suspended particulate org&#45;&gt;ciliates -->
<g id="edge167" class="edge">
<title>suspended particulate org&#45;&gt;ciliates</title>
<path fill="none" stroke="black" d="M1946.71,-792.39C1962.52,-783.47 1981.45,-771.16 1995.01,-756 2011.31,-737.78 2022.51,-712.13 2030.79,-693.04"/>
<polygon fill="black" stroke="black" points="2034.06,-694.3 2034.86,-683.74 2027.65,-691.49 2034.06,-694.3"/>
</g>
<!-- ctenophores -->
<g id="node31" class="node">
<title>ctenophores</title>
<ellipse fill="none" stroke="black" cx="2138.01" cy="-522" rx="67.69" ry="18"/>
<text text-anchor="middle" x="2138.01" y="-518.3" font-family="Times,serif" font-size="14.00">ctenophores</text>
</g>
<!-- suspended particulate org&#45;&gt;ctenophores -->
<g id="edge169" class="edge">
<title>suspended particulate org&#45;&gt;ctenophores</title>
<path fill="none" stroke="black" d="M2006.77,-796.62C2055,-788.14 2107.79,-774.95 2123.01,-756 2170.97,-696.32 2151.32,-597.6 2141.43,-550.13"/>
<polygon fill="black" stroke="black" points="2144.85,-549.36 2139.39,-540.28 2137.99,-550.78 2144.85,-549.36"/>
</g>
<!-- suspended particulate org&#45;&gt;other suspension feeders -->
<g id="edge170" class="edge">
<title>suspended particulate org&#45;&gt;other suspension feeders</title>
<path fill="none" stroke="black" d="M1832.16,-796.21C1782.37,-787.13 1726.03,-773.47 1708.01,-756 1671.41,-720.52 1663.37,-658.1 1661.94,-622.3"/>
<polygon fill="black" stroke="black" points="1665.43,-622.01 1661.68,-612.1 1658.43,-622.19 1665.43,-622.01"/>
</g>
<!-- suspended particulate org&#45;&gt;sediment particulate orga -->
<g id="edge175" class="edge">
<title>suspended particulate org&#45;&gt;sediment particulate orga</title>
<path fill="none" stroke="black" d="M1964.4,-793.08C2029.06,-768.07 2134.59,-715.41 2099.01,-648 2019.61,-497.55 1940.44,-496.47 1783.01,-432 1748.46,-417.85 1659.95,-402.91 1588.83,-392.51"/>
<polygon fill="black" stroke="black" points="1589.32,-389.05 1578.92,-391.08 1588.32,-395.97 1589.32,-389.05"/>
</g>
<!-- zooplankton&#45;&gt;suspended particulate org -->
<g id="edge100" class="edge">
<title>zooplankton&#45;&gt;suspended particulate org</title>
<path fill="none" stroke="black" d="M1471.73,-611.03C1512.77,-643.53 1602.01,-717.4 1690.01,-756 1731.39,-774.15 1779.65,-786.39 1821.13,-794.49"/>
<polygon fill="black" stroke="black" points="1820.49,-797.93 1830.96,-796.36 1821.79,-791.05 1820.49,-797.93"/>
</g>
<!-- Output -->
<g id="node7" class="node">
<title>Output</title>
<ellipse fill="none" stroke="black" cx="439.01" cy="-18" rx="43.59" ry="18"/>
<text text-anchor="middle" x="439.01" y="-14.3" font-family="Times,serif" font-size="14.00">Output</text>
</g>
<!-- zooplankton&#45;&gt;Output -->
<g id="edge5" class="edge">
<title>zooplankton&#45;&gt;Output</title>
<path fill="none" stroke="black" d="M1381.83,-592.7C1106.91,-591.18 79.6,-582.65 26.01,-540 -6.04,-514.48 2.01,-491.97 2.01,-451 2.01,-451 2.01,-451 2.01,-161 2.01,-120.03 -4.85,-98.94 26.01,-72 78.49,-26.21 285.93,-19.32 385.34,-18.72"/>
<polygon fill="black" stroke="black" points="385.5,-22.22 395.48,-18.68 385.47,-15.22 385.5,-22.22"/>
</g>
<!-- fish larvae -->
<g id="node11" class="node">
<title>fish larvae</title>
<ellipse fill="none" stroke="black" cx="1481.01" cy="-450" rx="59.29" ry="18"/>
<text text-anchor="middle" x="1481.01" y="-446.3" font-family="Times,serif" font-size="14.00">fish larvae</text>
</g>
<!-- zooplankton&#45;&gt;fish larvae -->
<g id="edge95" class="edge">
<title>zooplankton&#45;&gt;fish larvae</title>
<path fill="none" stroke="black" d="M1452.87,-575.87C1458.35,-551.56 1468.43,-506.82 1474.93,-478.01"/>
<polygon fill="black" stroke="black" points="1478.36,-478.71 1477.14,-468.19 1471.53,-477.18 1478.36,-478.71"/>
</g>
<!-- alewife &amp; blue herring -->
<g id="node12" class="node">
<title>alewife &amp; blue herring</title>
<ellipse fill="none" stroke="black" cx="1288.01" cy="-450" rx="115.88" ry="18"/>
<text text-anchor="middle" x="1288.01" y="-446.3" font-family="Times,serif" font-size="14.00">alewife &amp; blue herring</text>
</g>
<!-- zooplankton&#45;&gt;alewife &amp; blue herring -->
<g id="edge96" class="edge">
<title>zooplankton&#45;&gt;alewife &amp; blue herring</title>
<path fill="none" stroke="black" d="M1430.23,-576.43C1401.78,-551.34 1347.64,-503.59 1314.99,-474.79"/>
<polygon fill="black" stroke="black" points="1316.99,-471.89 1307.18,-467.9 1312.36,-477.14 1316.99,-471.89"/>
</g>
<!-- zooplankton&#45;&gt;bay anchovy -->
<g id="edge97" class="edge">
<title>zooplankton&#45;&gt;bay anchovy</title>
<path fill="none" stroke="black" d="M1398.53,-582.05C1388.44,-579.96 1377.9,-577.85 1368.01,-576 1280.53,-559.63 1179.16,-543.39 1113.89,-533.29"/>
<polygon fill="black" stroke="black" points="1114.15,-529.79 1103.73,-531.72 1113.08,-536.71 1114.15,-529.79"/>
</g>
<!-- zooplankton&#45;&gt;menhaden -->
<g id="edge98" class="edge">
<title>zooplankton&#45;&gt;menhaden</title>
<path fill="none" stroke="black" d="M1382.21,-592.08C1288.37,-589.33 1112.87,-578.9 969.01,-540 930.98,-529.72 926.28,-513.35 888.01,-504 632.81,-441.66 557.97,-505.93 298.01,-468 291.68,-467.08 285.08,-465.88 278.55,-464.55"/>
<polygon fill="black" stroke="black" points="278.92,-461.05 268.4,-462.36 277.45,-467.89 278.92,-461.05"/>
</g>
<!-- shad -->
<g id="node15" class="node">
<title>shad</title>
<ellipse fill="none" stroke="black" cx="1591.01" cy="-450" rx="32.49" ry="18"/>
<text text-anchor="middle" x="1591.01" y="-446.3" font-family="Times,serif" font-size="14.00">shad</text>
</g>
<!-- zooplankton&#45;&gt;shad -->
<g id="edge99" class="edge">
<title>zooplankton&#45;&gt;shad</title>
<path fill="none" stroke="black" d="M1465.58,-576.43C1491.1,-550.91 1540.07,-501.94 1568.69,-473.32"/>
<polygon fill="black" stroke="black" points="1571.25,-475.72 1575.84,-466.17 1566.3,-470.77 1571.25,-475.72"/>
</g>
<!-- zooplankton&#45;&gt;Respiration -->
<g id="edge30" class="edge">
<title>zooplankton&#45;&gt;Respiration</title>
<path fill="none" stroke="black" d="M1482.18,-578.2C1529.78,-557.7 1620.7,-521.22 1702.01,-504 1801.02,-483.03 2065.06,-512.38 2156.01,-468 2175.52,-458.48 2170.94,-444.03 2189.01,-432 2228.34,-405.83 2248.26,-419.88 2289.01,-396 2331.15,-371.31 2341.65,-362.25 2372.01,-324 2399.83,-288.97 2419.01,-279.73 2419.01,-235 2419.01,-235 2419.01,-235 2419.01,-161 2419.01,-118.16 2416.07,-97.98 2382.01,-72 2329.79,-32.17 2144.84,-22.15 2039.63,-19.71"/>
<polygon fill="black" stroke="black" points="2039.47,-16.2 2029.39,-19.49 2039.32,-23.2 2039.47,-16.2"/>
</g>
<!-- zooplankton&#45;&gt;ctenophores -->
<g id="edge93" class="edge">
<title>zooplankton&#45;&gt;ctenophores</title>
<path fill="none" stroke="black" d="M1496.67,-581.32C1506.02,-579.31 1515.79,-577.42 1525.01,-576 1716.9,-546.38 1945.33,-532.1 2061.67,-526.31"/>
<polygon fill="black" stroke="black" points="2062.08,-529.8 2071.9,-525.81 2061.74,-522.81 2062.08,-529.8"/>
</g>
<!-- sea nettle -->
<g id="node32" class="node">
<title>sea nettle</title>
<ellipse fill="none" stroke="black" cx="2298.01" cy="-450" rx="56.59" ry="18"/>
<text text-anchor="middle" x="2298.01" y="-446.3" font-family="Times,serif" font-size="14.00">sea nettle</text>
</g>
<!-- zooplankton&#45;&gt;sea nettle -->
<g id="edge94" class="edge">
<title>zooplankton&#45;&gt;sea nettle</title>
<path fill="none" stroke="black" d="M1498.42,-581.67C1507.27,-579.72 1516.4,-577.76 1525.01,-576 1697.28,-540.8 1740.34,-531.42 1914.01,-504 2035.77,-484.78 2067,-485.5 2189.01,-468 2205.03,-465.7 2222.35,-463.07 2238.37,-460.57"/>
<polygon fill="black" stroke="black" points="2239.34,-463.96 2248.67,-458.96 2238.25,-457.05 2239.34,-463.96"/>
</g>
<!-- mya arenaria&#45;&gt;Output -->
<g id="edge6" class="edge">
<title>mya arenaria&#45;&gt;Output</title>
<path fill="none" stroke="black" d="M2004.35,-445.97C1783.56,-435.8 1109.16,-399.21 905.01,-324 760.18,-270.64 749.78,-205.03 608.01,-144 552.55,-120.12 522.5,-147.71 477.01,-108 458.78,-92.08 449.03,-65.88 443.99,-46.02"/>
<polygon fill="black" stroke="black" points="447.35,-45 441.71,-36.02 440.52,-46.55 447.35,-45"/>
</g>
<!-- blue crab -->
<g id="node10" class="node">
<title>blue crab</title>
<ellipse fill="none" stroke="black" cx="1006.01" cy="-162" rx="53.89" ry="18"/>
<text text-anchor="middle" x="1006.01" y="-158.3" font-family="Times,serif" font-size="14.00">blue crab</text>
</g>
<!-- mya arenaria&#45;&gt;blue crab -->
<g id="edge108" class="edge">
<title>mya arenaria&#45;&gt;blue crab</title>
<path fill="none" stroke="black" d="M2020.28,-438.11C1816.58,-397.56 1113.51,-257.35 1103.01,-252 1072.09,-236.25 1043.73,-207.87 1025.76,-187.39"/>
<polygon fill="black" stroke="black" points="1028.34,-185.01 1019.18,-179.69 1023.02,-189.57 1028.34,-185.01"/>
</g>
<!-- hogchoker -->
<g id="node17" class="node">
<title>hogchoker</title>
<ellipse fill="none" stroke="black" cx="1628.01" cy="-162" rx="59.29" ry="18"/>
<text text-anchor="middle" x="1628.01" y="-158.3" font-family="Times,serif" font-size="14.00">hogchoker</text>
</g>
<!-- mya arenaria&#45;&gt;hogchoker -->
<g id="edge109" class="edge">
<title>mya arenaria&#45;&gt;hogchoker</title>
<path fill="none" stroke="black" d="M2072.07,-431.8C2063.56,-387.84 2034.64,-271 1960.01,-216 1878.14,-155.66 1834.45,-196.05 1734.01,-180 1719.43,-177.67 1703.73,-175.15 1688.99,-172.79"/>
<polygon fill="black" stroke="black" points="1689.39,-169.31 1678.96,-171.18 1688.28,-176.22 1689.39,-169.31"/>
</g>
<!-- mya arenaria&#45;&gt;Respiration -->
<g id="edge34" class="edge">
<title>mya arenaria&#45;&gt;Respiration</title>
<path fill="none" stroke="black" d="M2127.97,-437.61C2215.55,-415.31 2381.01,-357.04 2381.01,-235 2381.01,-235 2381.01,-235 2381.01,-161 2381.01,-120.03 2387.79,-99.04 2357.01,-72 2311.13,-31.68 2139.73,-21.8 2039.41,-19.53"/>
<polygon fill="black" stroke="black" points="2039.4,-16.03 2029.33,-19.32 2039.26,-23.03 2039.4,-16.03"/>
</g>
<!-- mya arenaria&#45;&gt;sediment particulate orga -->
<g id="edge110" class="edge">
<title>mya arenaria&#45;&gt;sediment particulate orga</title>
<path fill="none" stroke="black" d="M2021.93,-437.69C2011.08,-435.61 1999.7,-433.59 1989.01,-432 1831.72,-408.55 1791.1,-413.26 1633.01,-396 1620.26,-394.61 1606.89,-393.1 1593.63,-391.58"/>
<polygon fill="black" stroke="black" points="1593.87,-388.09 1583.53,-390.42 1593.07,-395.04 1593.87,-388.09"/>
</g>
<!-- oysters&#45;&gt;Output -->
<g id="edge7" class="edge">
<title>oysters&#45;&gt;Output</title>
<path fill="none" stroke="black" d="M1820.8,-581.35C1813.71,-579.21 1806.18,-577.26 1799.01,-576 1435.36,-512.02 1337.52,-563.16 969.01,-540 762.03,-526.99 40.01,-658.39 40.01,-451 40.01,-451 40.01,-451 40.01,-161 40.01,-117.45 46.16,-98.11 81.01,-72 128.11,-36.71 297.98,-24.69 385.72,-20.78"/>
<polygon fill="black" stroke="black" points="385.91,-24.27 395.75,-20.35 385.61,-17.28 385.91,-24.27"/>
</g>
<!-- oysters&#45;&gt;Respiration -->
<g id="edge35" class="edge">
<title>oysters&#45;&gt;Respiration</title>
<path fill="none" stroke="black" d="M1878.32,-578.89C1916.56,-558.34 1991.94,-520.81 2061.01,-504 2114.16,-491.06 2510.77,-503.94 2552.01,-468 2582.51,-441.43 2571.01,-419.45 2571.01,-379 2571.01,-379 2571.01,-379 2571.01,-161 2571.01,-116.47 2561.91,-96.92 2525.01,-72 2485.56,-45.35 2181.31,-28.55 2038.54,-22.06"/>
<polygon fill="black" stroke="black" points="2038.28,-18.54 2028.13,-21.59 2037.96,-25.53 2038.28,-18.54"/>
</g>
<!-- oysters&#45;&gt;sediment particulate orga -->
<g id="edge111" class="edge">
<title>oysters&#45;&gt;sediment particulate orga</title>
<path fill="none" stroke="black" d="M1840.83,-576.5C1815.8,-543.8 1755.14,-470.57 1687.01,-432 1655.44,-414.12 1617.63,-402.09 1583.48,-394.08"/>
<polygon fill="black" stroke="black" points="1584.01,-390.61 1573.49,-391.82 1582.47,-397.44 1584.01,-390.61"/>
</g>
<!-- blue crab&#45;&gt;Output -->
<g id="edge8" class="edge">
<title>blue crab&#45;&gt;Output</title>
<path fill="none" stroke="black" d="M976.53,-146.87C934.22,-127.17 853.37,-91.65 781.01,-72 680.36,-44.66 558.96,-30.03 491.23,-23.44"/>
<polygon fill="black" stroke="black" points="491.52,-19.95 481.23,-22.49 490.85,-26.92 491.52,-19.95"/>
</g>
<!-- blue crab&#45;&gt;blue crab -->
<g id="edge136" class="edge">
<title>blue crab&#45;&gt;blue crab</title>
<path fill="none" stroke="black" d="M1043.03,-175.1C1061.49,-176.91 1077.96,-172.55 1077.96,-162 1077.96,-153.43 1067.09,-148.94 1053.11,-148.53"/>
<polygon fill="black" stroke="black" points="1052.9,-145.04 1043.03,-148.9 1053.15,-152.03 1052.9,-145.04"/>
</g>
<!-- striped bass -->
<g id="node24" class="node">
<title>striped bass</title>
<ellipse fill="none" stroke="black" cx="704.01" cy="-90" rx="67.69" ry="18"/>
<text text-anchor="middle" x="704.01" y="-86.3" font-family="Times,serif" font-size="14.00">striped bass</text>
</g>
<!-- blue crab&#45;&gt;striped bass -->
<g id="edge137" class="edge">
<title>blue crab&#45;&gt;striped bass</title>
<path fill="none" stroke="black" d="M963.84,-150.66C954.67,-148.44 945.02,-146.12 936.01,-144 877.57,-130.23 810.71,-115.01 763.83,-104.43"/>
<polygon fill="black" stroke="black" points="764.37,-100.96 753.84,-102.18 762.83,-107.79 764.37,-100.96"/>
</g>
<!-- blue crab&#45;&gt;Respiration -->
<g id="edge41" class="edge">
<title>blue crab&#45;&gt;Respiration</title>
<path fill="none" stroke="black" d="M1032.82,-146.36C1072.13,-125.69 1148.32,-88.62 1218.01,-72 1344.31,-41.87 1728.27,-26.49 1890.94,-21.19"/>
<polygon fill="black" stroke="black" points="1891.44,-24.67 1901.33,-20.85 1891.22,-17.68 1891.44,-24.67"/>
</g>
<!-- blue crab&#45;&gt;sediment particulate orga -->
<g id="edge138" class="edge">
<title>blue crab&#45;&gt;sediment particulate orga</title>
<path fill="none" stroke="black" d="M1004.02,-180.16C998.33,-199.2 989.17,-230.13 1003.01,-252 1042.99,-315.17 1083.56,-302.05 1155.01,-324 1225.07,-345.52 1306.01,-358.57 1370.58,-366.33"/>
<polygon fill="black" stroke="black" points="1370.46,-369.84 1380.8,-367.53 1371.27,-362.88 1370.46,-369.84"/>
</g>
<!-- fish larvae&#45;&gt;Output -->
<g id="edge9" class="edge">
<title>fish larvae&#45;&gt;Output</title>
<path fill="none" stroke="black" d="M1439.18,-437.25C1430.59,-435.21 1421.55,-433.31 1413.01,-432 1149.85,-391.54 1072.8,-462.64 815.01,-396 761.12,-382.07 392.7,-227.09 363.01,-180 333.71,-133.52 381.74,-73.97 413.84,-41.9"/>
<polygon fill="black" stroke="black" points="416.47,-44.22 421.2,-34.74 411.59,-39.21 416.47,-44.22"/>
</g>
<!-- fish larvae&#45;&gt;Respiration -->
<g id="edge42" class="edge">
<title>fish larvae&#45;&gt;Respiration</title>
<path fill="none" stroke="black" d="M1523.09,-437.31C1531.93,-435.23 1541.23,-433.31 1550.01,-432 1622.1,-421.23 2143.65,-435.33 2205.01,-396 2267.27,-356.09 2328.79,-128.45 2281.01,-72 2250.66,-36.13 2122.73,-24.52 2039.24,-20.77"/>
<polygon fill="black" stroke="black" points="2039.18,-17.27 2029.04,-20.34 2038.88,-24.26 2039.18,-17.27"/>
</g>
<!-- fish larvae&#45;&gt;sediment particulate orga -->
<g id="edge139" class="edge">
<title>fish larvae&#45;&gt;sediment particulate orga</title>
<path fill="none" stroke="black" d="M1482.74,-431.7C1483.51,-423.98 1484.44,-414.71 1485.3,-406.11"/>
<polygon fill="black" stroke="black" points="1488.79,-406.4 1486.3,-396.1 1481.83,-405.71 1488.79,-406.4"/>
</g>
<!-- alewife &amp; blue herring&#45;&gt;Output -->
<g id="edge10" class="edge">
<title>alewife &amp; blue herring&#45;&gt;Output</title>
<path fill="none" stroke="black" d="M1176.02,-445.35C1071.8,-440.08 912.75,-427.24 778.01,-396 687.61,-375.04 667.35,-360.46 582.01,-324 463.39,-273.32 390.14,-294.13 330.01,-180 307.64,-137.53 304.55,-112.69 330.01,-72 343.43,-50.56 368.28,-37.57 390.87,-29.82"/>
<polygon fill="black" stroke="black" points="392.22,-33.06 400.7,-26.71 390.11,-26.38 392.22,-33.06"/>
</g>
<!-- alewife &amp; blue herring&#45;&gt;striped bass -->
<g id="edge140" class="edge">
<title>alewife &amp; blue herring&#45;&gt;striped bass</title>
<path fill="none" stroke="black" d="M1172.34,-449.66C1050.42,-448.03 868.71,-438.25 815.01,-396 726.42,-326.29 708.51,-179.28 704.91,-118.35"/>
<polygon fill="black" stroke="black" points="708.39,-117.82 704.39,-108.01 701.39,-118.18 708.39,-117.82"/>
</g>
<!-- alewife &amp; blue herring&#45;&gt;Respiration -->
<g id="edge43" class="edge">
<title>alewife &amp; blue herring&#45;&gt;Respiration</title>
<path fill="none" stroke="black" d="M1370.27,-437.26C1571.71,-408.4 2075.91,-335.53 2111.01,-324 2176.37,-302.54 2212.44,-310.88 2248.01,-252 2295.3,-173.72 2214.92,-127.12 2135.01,-72 2103.88,-50.52 2063.68,-37.47 2030.18,-29.69"/>
<polygon fill="black" stroke="black" points="2030.54,-26.19 2020.02,-27.45 2029.03,-33.02 2030.54,-26.19"/>
</g>
<!-- alewife &amp; blue herring&#45;&gt;sediment particulate orga -->
<g id="edge141" class="edge">
<title>alewife &amp; blue herring&#45;&gt;sediment particulate orga</title>
<path fill="none" stroke="black" d="M1332.9,-433.29C1362.54,-422.92 1401.58,-409.25 1433.07,-398.23"/>
<polygon fill="black" stroke="black" points="1434.3,-401.51 1442.59,-394.9 1431.99,-394.9 1434.3,-401.51"/>
</g>
<!-- bay anchovy&#45;&gt;Output -->
<g id="edge11" class="edge">
<title>bay anchovy&#45;&gt;Output</title>
<path fill="none" stroke="black" d="M977.99,-519.93C782.79,-516.44 230.11,-503.51 157.01,-468 109.44,-444.89 78.01,-431.89 78.01,-379 78.01,-379 78.01,-379 78.01,-161 78.01,-118.33 80.68,-98.63 114.01,-72 155.08,-39.19 304.84,-26.17 385.95,-21.44"/>
<polygon fill="black" stroke="black" points="386.18,-24.93 395.97,-20.87 385.79,-17.94 386.18,-24.93"/>
</g>
<!-- spot -->
<g id="node18" class="node">
<title>spot</title>
<ellipse fill="none" stroke="black" cx="1183.01" cy="-162" rx="30.59" ry="18"/>
<text text-anchor="middle" x="1183.01" y="-158.3" font-family="Times,serif" font-size="14.00">spot</text>
</g>
<!-- bay anchovy&#45;&gt;spot -->
<g id="edge142" class="edge">
<title>bay anchovy&#45;&gt;spot</title>
<path fill="none" stroke="black" d="M1046.01,-503.95C1046.01,-477.29 1046.01,-424.11 1046.01,-379 1046.01,-379 1046.01,-379 1046.01,-305 1046.01,-260.06 1062.92,-248.45 1094.01,-216 1109.7,-199.64 1131.51,-186.54 1149.61,-177.46"/>
<polygon fill="black" stroke="black" points="1151.2,-180.58 1158.69,-173.08 1148.16,-174.27 1151.2,-180.58"/>
</g>
<!-- white perch -->
<g id="node19" class="node">
<title>white perch</title>
<ellipse fill="none" stroke="black" cx="1415.01" cy="-162" rx="65.79" ry="18"/>
<text text-anchor="middle" x="1415.01" y="-158.3" font-family="Times,serif" font-size="14.00">white perch</text>
</g>
<!-- bay anchovy&#45;&gt;white perch -->
<g id="edge143" class="edge">
<title>bay anchovy&#45;&gt;white perch</title>
<path fill="none" stroke="black" d="M1058.77,-504.23C1096.4,-455.51 1211.73,-311.36 1330.01,-216 1344.84,-204.05 1362.53,-192.62 1377.93,-183.46"/>
<polygon fill="black" stroke="black" points="1379.82,-186.41 1386.69,-178.34 1376.29,-180.36 1379.82,-186.41"/>
</g>
<!-- bluefish -->
<g id="node21" class="node">
<title>bluefish</title>
<ellipse fill="none" stroke="black" cx="533.01" cy="-90" rx="47.39" ry="18"/>
<text text-anchor="middle" x="533.01" y="-86.3" font-family="Times,serif" font-size="14.00">bluefish</text>
</g>
<!-- bay anchovy&#45;&gt;bluefish -->
<g id="edge144" class="edge">
<title>bay anchovy&#45;&gt;bluefish</title>
<path fill="none" stroke="black" d="M991.62,-511.05C975.97,-508.45 958.85,-505.86 943.01,-504 830.17,-490.73 529.79,-527.53 433.01,-468 307.53,-390.81 275.71,-262.67 363.01,-144 388.58,-109.25 436.78,-96.64 475.34,-92.35"/>
<polygon fill="black" stroke="black" points="475.8,-95.83 485.43,-91.39 475.14,-88.86 475.8,-95.83"/>
</g>
<!-- weakfish -->
<g id="node22" class="node">
<title>weakfish</title>
<ellipse fill="none" stroke="black" cx="718.01" cy="-450" rx="51.19" ry="18"/>
<text text-anchor="middle" x="718.01" y="-446.3" font-family="Times,serif" font-size="14.00">weakfish</text>
</g>
<!-- bay anchovy&#45;&gt;weakfish -->
<g id="edge145" class="edge">
<title>bay anchovy&#45;&gt;weakfish</title>
<path fill="none" stroke="black" d="M993.97,-510.14C984.03,-508.09 973.7,-505.97 964.01,-504 883.63,-487.67 862.95,-486.38 783.01,-468 777.96,-466.84 772.69,-465.56 767.45,-464.26"/>
<polygon fill="black" stroke="black" points="768,-460.79 757.45,-461.72 766.28,-467.57 768,-460.79"/>
</g>
<!-- summer flounder -->
<g id="node23" class="node">
<title>summer flounder</title>
<ellipse fill="none" stroke="black" cx="462.01" cy="-162" rx="90.18" ry="18"/>
<text text-anchor="middle" x="462.01" y="-158.3" font-family="Times,serif" font-size="14.00">summer flounder</text>
</g>
<!-- bay anchovy&#45;&gt;summer flounder -->
<g id="edge146" class="edge">
<title>bay anchovy&#45;&gt;summer flounder</title>
<path fill="none" stroke="black" d="M991.33,-511.2C975.76,-508.61 958.75,-506 943.01,-504 764.18,-481.31 711.62,-519.98 539.01,-468 474.65,-448.62 440.42,-453.75 406.01,-396 365.77,-328.46 415.46,-233.66 444.23,-188.66"/>
<polygon fill="black" stroke="black" points="447.3,-190.37 449.85,-180.09 441.44,-186.54 447.3,-190.37"/>
</g>
<!-- bay anchovy&#45;&gt;striped bass -->
<g id="edge147" class="edge">
<title>bay anchovy&#45;&gt;striped bass</title>
<path fill="none" stroke="black" d="M990.48,-511.44C975.12,-508.9 958.44,-506.25 943.01,-504 879.84,-494.8 705.34,-510.84 658.01,-468 556.69,-376.3 649.57,-185.99 688.62,-116.83"/>
<polygon fill="black" stroke="black" points="691.81,-118.31 693.75,-107.9 685.74,-114.83 691.81,-118.31"/>
</g>
<!-- bay anchovy&#45;&gt;Respiration -->
<g id="edge44" class="edge">
<title>bay anchovy&#45;&gt;Respiration</title>
<path fill="none" stroke="black" d="M1032.43,-504.06C989.27,-448.01 862.64,-265.33 943.01,-144 988.33,-75.6 1033.15,-90.82 1113.01,-72 1259.83,-37.41 1711.81,-24.32 1890.86,-20.41"/>
<polygon fill="black" stroke="black" points="1891.05,-23.9 1900.97,-20.19 1890.9,-16.91 1891.05,-23.9"/>
</g>
<!-- bay anchovy&#45;&gt;sediment particulate orga -->
<g id="edge148" class="edge">
<title>bay anchovy&#45;&gt;sediment particulate orga</title>
<path fill="none" stroke="black" d="M1069.34,-504.97C1084.08,-494.68 1103.4,-480.87 1120.01,-468 1139.71,-452.73 1140.35,-442.38 1163.01,-432 1222.22,-404.89 1293.09,-391.41 1353.51,-384.8"/>
<polygon fill="black" stroke="black" points="1353.92,-388.28 1363.5,-383.76 1353.19,-381.32 1353.92,-388.28"/>
</g>
<!-- menhaden&#45;&gt;Output -->
<g id="edge12" class="edge">
<title>menhaden&#45;&gt;Output</title>
<path fill="none" stroke="black" d="M201.36,-433.29C169.3,-409.89 116.01,-362.63 116.01,-307 116.01,-307 116.01,-307 116.01,-161 116.01,-120.03 109.8,-99.67 140.01,-72 175.11,-39.87 309.37,-26.7 385.5,-21.73"/>
<polygon fill="black" stroke="black" points="386.08,-25.2 395.84,-21.08 385.64,-18.21 386.08,-25.2"/>
</g>
<!-- menhaden&#45;&gt;bluefish -->
<g id="edge149" class="edge">
<title>menhaden&#45;&gt;bluefish</title>
<path fill="none" stroke="black" d="M218.34,-431.81C208.69,-405.4 192.01,-353.06 192.01,-307 192.01,-307 192.01,-307 192.01,-233 192.01,-192.03 185.66,-171.52 216.01,-144 253.28,-110.21 395.28,-97.73 476.01,-93.3"/>
<polygon fill="black" stroke="black" points="476.22,-96.79 486.02,-92.77 475.85,-89.8 476.22,-96.79"/>
</g>
<!-- menhaden&#45;&gt;summer flounder -->
<g id="edge150" class="edge">
<title>menhaden&#45;&gt;summer flounder</title>
<path fill="none" stroke="black" d="M231.89,-431.8C252.46,-380.68 313.08,-232.24 330.01,-216 347.79,-198.95 371.75,-187.14 394.39,-179.07"/>
<polygon fill="black" stroke="black" points="395.62,-182.35 403.98,-175.84 393.39,-175.72 395.62,-182.35"/>
</g>
<!-- menhaden&#45;&gt;striped bass -->
<g id="edge151" class="edge">
<title>menhaden&#45;&gt;striped bass</title>
<path fill="none" stroke="black" d="M226,-431.96C227.46,-405.31 230.01,-352.14 230.01,-307 230.01,-307 230.01,-307 230.01,-233 230.01,-161.88 296.75,-169.85 363.01,-144 369.36,-141.52 539.14,-115.76 636.69,-101.09"/>
<polygon fill="black" stroke="black" points="637.4,-104.52 646.76,-99.58 636.36,-97.6 637.4,-104.52"/>
</g>
<!-- menhaden&#45;&gt;Respiration -->
<g id="edge45" class="edge">
<title>menhaden&#45;&gt;Respiration</title>
<path fill="none" stroke="black" d="M249.4,-433.54C357.41,-365.2 790.42,-92.63 859.01,-72 957.13,-42.49 1658.95,-25.37 1890.85,-20.47"/>
<polygon fill="black" stroke="black" points="1890.96,-23.97 1900.88,-20.26 1890.81,-16.97 1890.96,-23.97"/>
</g>
<!-- menhaden&#45;&gt;sediment particulate orga -->
<g id="edge152" class="edge">
<title>menhaden&#45;&gt;sediment particulate orga</title>
<path fill="none" stroke="black" d="M282.56,-445.81C473.38,-435.23 1088.44,-401.15 1358.65,-386.17"/>
<polygon fill="black" stroke="black" points="1359.11,-389.65 1368.9,-385.6 1358.73,-382.66 1359.11,-389.65"/>
</g>
<!-- shad&#45;&gt;Output -->
<g id="edge13" class="edge">
<title>shad&#45;&gt;Output</title>
<path fill="none" stroke="black" d="M1567,-437.81C1561.22,-435.53 1554.99,-433.4 1549.01,-432 1345.93,-384.3 1286.08,-434.31 1081.01,-396 971.96,-375.63 942.8,-370.36 842.01,-324 707.27,-262.02 695.57,-206.38 561.01,-144 511.65,-121.12 477.55,-150.84 444.01,-108 430.49,-90.73 430.41,-65.3 433.03,-46.04"/>
<polygon fill="black" stroke="black" points="436.5,-46.5 434.7,-36.06 429.6,-45.35 436.5,-46.5"/>
</g>
<!-- shad&#45;&gt;Respiration -->
<g id="edge46" class="edge">
<title>shad&#45;&gt;Respiration</title>
<path fill="none" stroke="black" d="M1623.4,-448.18C1747.84,-444.78 2190.93,-430.36 2243.01,-396 2304.75,-355.28 2367.28,-128.03 2319.01,-72 2283.68,-30.99 2132.49,-21.25 2039.49,-19.21"/>
<polygon fill="black" stroke="black" points="2039.36,-15.71 2029.29,-19.02 2039.22,-22.71 2039.36,-15.71"/>
</g>
<!-- shad&#45;&gt;sediment particulate orga -->
<g id="edge153" class="edge">
<title>shad&#45;&gt;sediment particulate orga</title>
<path fill="none" stroke="black" d="M1571.15,-435.5C1557.02,-425.9 1537.68,-412.76 1521.22,-401.57"/>
<polygon fill="black" stroke="black" points="1523.15,-398.65 1512.91,-395.92 1519.22,-404.44 1523.15,-398.65"/>
</g>
<!-- croaker -->
<g id="node16" class="node">
<title>croaker</title>
<ellipse fill="none" stroke="black" cx="1789.01" cy="-162" rx="46.29" ry="18"/>
<text text-anchor="middle" x="1789.01" y="-158.3" font-family="Times,serif" font-size="14.00">croaker</text>
</g>
<!-- croaker&#45;&gt;Output -->
<g id="edge14" class="edge">
<title>croaker&#45;&gt;Output</title>
<path fill="none" stroke="black" d="M1748.82,-153.12C1732.47,-150.06 1713.37,-146.65 1696.01,-144 1566.32,-124.2 1532.8,-127.25 1403.01,-108 1310.64,-94.3 1288.71,-83.28 1196.01,-72 933.28,-40.04 616.72,-25.6 492.62,-20.87"/>
<polygon fill="black" stroke="black" points="492.39,-17.36 482.26,-20.48 492.12,-24.35 492.39,-17.36"/>
</g>
<!-- croaker&#45;&gt;Respiration -->
<g id="edge47" class="edge">
<title>croaker&#45;&gt;Respiration</title>
<path fill="none" stroke="black" d="M1808.18,-145.53C1839.2,-120.51 1900.53,-71.03 1936.62,-41.91"/>
<polygon fill="black" stroke="black" points="1939.2,-44.32 1944.79,-35.32 1934.81,-38.87 1939.2,-44.32"/>
</g>
<!-- croaker&#45;&gt;sediment particulate orga -->
<g id="edge154" class="edge">
<title>croaker&#45;&gt;sediment particulate orga</title>
<path fill="none" stroke="black" d="M1824,-173.81C1873.98,-189.26 1959.88,-215.82 1960.01,-216 1969.51,-228.88 1967.13,-237.67 1960.01,-252 1936.44,-299.44 1913.93,-303.66 1865.01,-324 1790.26,-355.09 1700.73,-368.56 1627.68,-374.16"/>
<polygon fill="black" stroke="black" points="1627.21,-370.68 1617.49,-374.89 1627.72,-377.66 1627.21,-370.68"/>
</g>
<!-- hogchoker&#45;&gt;Output -->
<g id="edge15" class="edge">
<title>hogchoker&#45;&gt;Output</title>
<path fill="none" stroke="black" d="M1578.35,-152.12C1479.18,-134.63 1249.41,-95.43 1055.01,-72 847.2,-46.95 598.55,-29.31 491.86,-22.33"/>
<polygon fill="black" stroke="black" points="491.89,-18.82 481.68,-21.66 491.44,-25.81 491.89,-18.82"/>
</g>
<!-- hogchoker&#45;&gt;Respiration -->
<g id="edge48" class="edge">
<title>hogchoker&#45;&gt;Respiration</title>
<path fill="none" stroke="black" d="M1637.12,-143.9C1648.99,-123.4 1671.72,-89.6 1701.01,-72 1758.73,-37.32 1835.07,-24.89 1890.81,-20.65"/>
<polygon fill="black" stroke="black" points="1891.23,-24.13 1900.97,-19.95 1890.75,-17.14 1891.23,-24.13"/>
</g>
<!-- hogchoker&#45;&gt;sediment particulate orga -->
<g id="edge155" class="edge">
<title>hogchoker&#45;&gt;sediment particulate orga</title>
<path fill="none" stroke="black" d="M1631.13,-180.26C1633.64,-199.68 1634.54,-231.22 1619.01,-252 1593.72,-285.85 1561.8,-259.06 1531.01,-288 1513.21,-304.74 1501.91,-330.39 1495.38,-349.87"/>
<polygon fill="black" stroke="black" points="1491.96,-349.09 1492.32,-359.68 1498.64,-351.18 1491.96,-349.09"/>
</g>
<!-- spot&#45;&gt;Output -->
<g id="edge16" class="edge">
<title>spot&#45;&gt;Output</title>
<path fill="none" stroke="black" d="M1156.63,-152.79C1100.19,-135.49 963.29,-95.02 846.01,-72 719.71,-47.2 569,-31.01 491.22,-23.63"/>
<polygon fill="black" stroke="black" points="491.48,-20.14 481.19,-22.69 490.82,-27.11 491.48,-20.14"/>
</g>
<!-- spot&#45;&gt;bluefish -->
<g id="edge156" class="edge">
<title>spot&#45;&gt;bluefish</title>
<path fill="none" stroke="black" d="M1154.56,-155.21C1135.51,-151.52 1109.85,-146.91 1087.01,-144 883.59,-118.09 830.39,-134.28 627.01,-108 612.98,-106.19 597.87,-103.7 583.95,-101.18"/>
<polygon fill="black" stroke="black" points="584.52,-97.73 574.05,-99.35 583.25,-104.61 584.52,-97.73"/>
</g>
<!-- spot&#45;&gt;Respiration -->
<g id="edge49" class="edge">
<title>spot&#45;&gt;Respiration</title>
<path fill="none" stroke="black" d="M1192.51,-144.72C1205.75,-123.73 1231.92,-88.02 1265.01,-72 1320.34,-45.21 1723.23,-27.73 1891.49,-21.52"/>
<polygon fill="black" stroke="black" points="1891.64,-25.02 1901.51,-21.16 1891.38,-18.02 1891.64,-25.02"/>
</g>
<!-- spot&#45;&gt;sediment particulate orga -->
<g id="edge157" class="edge">
<title>spot&#45;&gt;sediment particulate orga</title>
<path fill="none" stroke="black" d="M1157.38,-172.25C1138.59,-180.54 1114.44,-194.72 1103.01,-216 1095.44,-230.1 1094.62,-238.38 1103.01,-252 1134.53,-303.15 1295.69,-341.74 1399.26,-361.72"/>
<polygon fill="black" stroke="black" points="1398.62,-365.16 1409.1,-363.6 1399.93,-358.29 1398.62,-365.16"/>
</g>
<!-- white perch&#45;&gt;Output -->
<g id="edge17" class="edge">
<title>white perch&#45;&gt;Output</title>
<path fill="none" stroke="black" d="M1364.78,-150.37C1277.64,-132.22 1092.68,-95.01 935.01,-72 773.91,-48.49 581.92,-30.93 491.3,-23.26"/>
<polygon fill="black" stroke="black" points="491.54,-19.76 481.28,-22.41 490.96,-26.74 491.54,-19.76"/>
</g>
<!-- white perch&#45;&gt;Respiration -->
<g id="edge50" class="edge">
<title>white perch&#45;&gt;Respiration</title>
<path fill="none" stroke="black" d="M1428.34,-144.2C1445.95,-123.33 1479.09,-88.48 1516.01,-72 1581.45,-42.78 1782,-28.28 1891.6,-22.37"/>
<polygon fill="black" stroke="black" points="1892.12,-25.84 1901.92,-21.82 1891.75,-18.85 1892.12,-25.84"/>
</g>
<!-- white perch&#45;&gt;sediment particulate orga -->
<g id="edge158" class="edge">
<title>white perch&#45;&gt;sediment particulate orga</title>
<path fill="none" stroke="black" d="M1381.02,-177.49C1365.2,-186.17 1347.94,-198.89 1339.01,-216 1331.61,-230.19 1332.25,-237.5 1339.01,-252 1360.92,-298.97 1410.12,-334.55 1446.01,-355.52"/>
<polygon fill="black" stroke="black" points="1444.4,-358.63 1454.82,-360.53 1447.86,-352.54 1444.4,-358.63"/>
</g>
<!-- catfish -->
<g id="node20" class="node">
<title>catfish</title>
<ellipse fill="none" stroke="black" cx="1895.01" cy="-162" rx="41.69" ry="18"/>
<text text-anchor="middle" x="1895.01" y="-158.3" font-family="Times,serif" font-size="14.00">catfish</text>
</g>
<!-- catfish&#45;&gt;Output -->
<g id="edge18" class="edge">
<title>catfish&#45;&gt;Output</title>
<path fill="none" stroke="black" d="M1864.26,-149.72C1857.65,-147.59 1850.65,-145.54 1844.01,-144 1612.47,-90.18 1550.6,-95.2 1314.01,-72 1003.65,-41.56 629.53,-25.89 492.57,-20.85"/>
<polygon fill="black" stroke="black" points="492.47,-17.35 482.35,-20.48 492.22,-24.34 492.47,-17.35"/>
</g>
<!-- catfish&#45;&gt;Respiration -->
<g id="edge51" class="edge">
<title>catfish&#45;&gt;Respiration</title>
<path fill="none" stroke="black" d="M1903.32,-144.15C1915.36,-119.73 1937.77,-74.26 1952.01,-45.38"/>
<polygon fill="black" stroke="black" points="1955.22,-46.78 1956.5,-36.27 1948.94,-43.69 1955.22,-46.78"/>
</g>
<!-- catfish&#45;&gt;sediment particulate orga -->
<g id="edge159" class="edge">
<title>catfish&#45;&gt;sediment particulate orga</title>
<path fill="none" stroke="black" d="M1926.52,-174.14C1945.11,-182.53 1967.09,-196.06 1978.01,-216 2004.82,-264.93 1963.4,-298.04 1914.01,-324 1864.4,-350.08 1726.05,-363.81 1620.35,-370.7"/>
<polygon fill="black" stroke="black" points="1619.98,-367.21 1610.23,-371.34 1620.43,-374.2 1619.98,-367.21"/>
</g>
<!-- bluefish&#45;&gt;Output -->
<g id="edge19" class="edge">
<title>bluefish&#45;&gt;Output</title>
<path fill="none" stroke="black" d="M512.15,-73.46C498.95,-63.63 481.71,-50.8 467.29,-40.06"/>
<polygon fill="black" stroke="black" points="469.28,-37.18 459.17,-34.01 465.1,-42.79 469.28,-37.18"/>
</g>
<!-- bluefish&#45;&gt;Respiration -->
<g id="edge52" class="edge">
<title>bluefish&#45;&gt;Respiration</title>
<path fill="none" stroke="black" d="M567.87,-77.78C576.34,-75.48 585.43,-73.34 594.01,-72 847.04,-32.41 1642.33,-21.93 1890.37,-19.6"/>
<polygon fill="black" stroke="black" points="1890.75,-23.09 1900.72,-19.5 1890.69,-16.09 1890.75,-23.09"/>
</g>
<!-- bluefish&#45;&gt;sediment particulate orga -->
<g id="edge160" class="edge">
<title>bluefish&#45;&gt;sediment particulate orga</title>
<path fill="none" stroke="black" d="M573.12,-99.7C609.37,-108.37 663.7,-123.35 708.01,-144 840.76,-205.85 846.01,-274.98 984.01,-324 1050.46,-347.6 1231.27,-362.43 1357.2,-370.21"/>
<polygon fill="black" stroke="black" points="1357.11,-373.71 1367.3,-370.83 1357.53,-366.73 1357.11,-373.71"/>
</g>
<!-- weakfish&#45;&gt;Output -->
<g id="edge20" class="edge">
<title>weakfish&#45;&gt;Output</title>
<path fill="none" stroke="black" d="M667.89,-445.84C590.61,-440.09 447.01,-425.69 406.01,-396 282.37,-306.47 204.27,-196.91 292.01,-72 313.21,-41.82 353.35,-28.75 386.33,-23.13"/>
<polygon fill="black" stroke="black" points="386.95,-26.57 396.31,-21.61 385.89,-19.65 386.95,-26.57"/>
</g>
<!-- weakfish&#45;&gt;summer flounder -->
<g id="edge161" class="edge">
<title>weakfish&#45;&gt;summer flounder</title>
<path fill="none" stroke="black" d="M683.38,-436.42C621.79,-411.91 494.93,-351.32 444.01,-252 433.95,-232.38 440.26,-207.63 448.05,-189.22"/>
<polygon fill="black" stroke="black" points="451.31,-190.52 452.31,-179.97 444.95,-187.59 451.31,-190.52"/>
</g>
<!-- weakfish&#45;&gt;Respiration -->
<g id="edge53" class="edge">
<title>weakfish&#45;&gt;Respiration</title>
<path fill="none" stroke="black" d="M720.06,-431.75C725.46,-391.46 742.75,-289.06 786.01,-216 797.54,-196.53 807.34,-197.23 822.01,-180 860.4,-134.92 847.98,-100.26 900.01,-72 986.38,-25.09 1662.32,-19.54 1890.25,-19.01"/>
<polygon fill="black" stroke="black" points="1890.45,-22.51 1900.44,-18.99 1890.43,-15.51 1890.45,-22.51"/>
</g>
<!-- weakfish&#45;&gt;sediment particulate orga -->
<g id="edge162" class="edge">
<title>weakfish&#45;&gt;sediment particulate orga</title>
<path fill="none" stroke="black" d="M767.06,-444.54C887.55,-433.59 1200.74,-405.12 1372,-389.55"/>
<polygon fill="black" stroke="black" points="1372.42,-393.02 1382.06,-388.63 1371.78,-386.05 1372.42,-393.02"/>
</g>
<!-- summer flounder&#45;&gt;Output -->
<g id="edge21" class="edge">
<title>summer flounder&#45;&gt;Output</title>
<path fill="none" stroke="black" d="M436.77,-144.51C425.07,-135.32 412.36,-122.75 406.01,-108 396.77,-86.54 407.9,-61.55 419.66,-43.52"/>
<polygon fill="black" stroke="black" points="422.55,-45.48 425.39,-35.27 416.81,-41.48 422.55,-45.48"/>
</g>
<!-- summer flounder&#45;&gt;Respiration -->
<g id="edge54" class="edge">
<title>summer flounder&#45;&gt;Respiration</title>
<path fill="none" stroke="black" d="M507.78,-146.47C532.87,-137.41 563.88,-124.35 589.01,-108 608.51,-95.31 605.58,-81.04 627.01,-72 743.34,-22.96 1625.61,-18.98 1890.22,-18.9"/>
<polygon fill="black" stroke="black" points="1890.5,-22.4 1900.49,-18.9 1890.49,-15.4 1890.5,-22.4"/>
</g>
<!-- summer flounder&#45;&gt;sediment particulate orga -->
<g id="edge163" class="edge">
<title>summer flounder&#45;&gt;sediment particulate orga</title>
<path fill="none" stroke="black" d="M499.68,-178.39C581.3,-211.04 781.23,-287.26 956.01,-324 1089.57,-352.07 1245.21,-365.38 1353.5,-371.63"/>
<polygon fill="black" stroke="black" points="1353.32,-375.12 1363.5,-372.19 1353.72,-368.13 1353.32,-375.12"/>
</g>
<!-- striped bass&#45;&gt;Output -->
<g id="edge22" class="edge">
<title>striped bass&#45;&gt;Output</title>
<path fill="none" stroke="black" d="M657.85,-76.81C609.26,-63.97 533.23,-43.89 484.78,-31.09"/>
<polygon fill="black" stroke="black" points="485.44,-27.64 474.88,-28.47 483.66,-34.41 485.44,-27.64"/>
</g>
<!-- striped bass&#45;&gt;Respiration -->
<g id="edge55" class="edge">
<title>striped bass&#45;&gt;Respiration</title>
<path fill="none" stroke="black" d="M753.23,-77.47C763.98,-75.32 775.34,-73.34 786.01,-72 1200.79,-20.02 1703.27,-17.23 1890.23,-18.24"/>
<polygon fill="black" stroke="black" points="1890.47,-21.74 1900.49,-18.3 1890.51,-14.74 1890.47,-21.74"/>
</g>
<!-- striped bass&#45;&gt;sediment particulate orga -->
<g id="edge164" class="edge">
<title>striped bass&#45;&gt;sediment particulate orga</title>
<path fill="none" stroke="black" d="M728.69,-106.99C744.59,-117.38 765.65,-131.31 784.01,-144 874.13,-206.26 898.74,-219.26 984.01,-288 1002.63,-303.01 1002.21,-314.18 1024.01,-324 1081.39,-349.85 1239.78,-363.84 1355.59,-370.84"/>
<polygon fill="black" stroke="black" points="1355.41,-374.34 1365.6,-371.44 1355.83,-367.35 1355.41,-374.34"/>
</g>
<!-- bacteria in suspended poc&#45;&gt;suspended particulate org -->
<g id="edge73" class="edge">
<title>bacteria in suspended poc&#45;&gt;suspended particulate org</title>
<path fill="none" stroke="black" d="M1882.35,-756.1C1889.64,-764.3 1897.7,-774.28 1904.4,-783.36"/>
<polygon fill="black" stroke="black" points="1901.68,-785.58 1910.33,-791.7 1907.38,-781.52 1901.68,-785.58"/>
</g>
<!-- bacteria in suspended poc&#45;&gt;zooplankton -->
<g id="edge66" class="edge">
<title>bacteria in suspended poc&#45;&gt;zooplankton</title>
<path fill="none" stroke="black" d="M1816.73,-721.12C1738.12,-694.16 1579.21,-639.66 1498.48,-611.97"/>
<polygon fill="black" stroke="black" points="1499.16,-608.5 1488.57,-608.57 1496.89,-615.12 1499.16,-608.5"/>
</g>
<!-- bacteria in suspended poc&#45;&gt;mya arenaria -->
<g id="edge69" class="edge">
<title>bacteria in suspended poc&#45;&gt;mya arenaria</title>
<path fill="none" stroke="black" d="M1879.96,-719.87C1889.7,-709.74 1901.95,-696.49 1912.01,-684 1970.14,-611.87 2030.63,-520.29 2058.79,-476.53"/>
<polygon fill="black" stroke="black" points="2061.85,-478.25 2064.3,-467.94 2055.95,-474.47 2061.85,-478.25"/>
</g>
<!-- bacteria in suspended poc&#45;&gt;oysters -->
<g id="edge70" class="edge">
<title>bacteria in suspended poc&#45;&gt;oysters</title>
<path fill="none" stroke="black" d="M1861.81,-719.87C1860.1,-695.67 1856.97,-651.21 1854.94,-622.39"/>
<polygon fill="black" stroke="black" points="1858.42,-621.92 1854.22,-612.19 1851.44,-622.41 1858.42,-621.92"/>
</g>
<!-- bacteria in suspended poc&#45;&gt;bay anchovy -->
<g id="edge71" class="edge">
<title>bacteria in suspended poc&#45;&gt;bay anchovy</title>
<path fill="none" stroke="black" d="M1785.75,-723.39C1733.78,-713.72 1663.91,-699.69 1603.01,-684 1499.29,-657.27 1467,-663.37 1373.01,-612 1351.14,-600.05 1352.56,-586.63 1330.01,-576 1264.19,-544.95 1181.74,-532.07 1122.66,-526.74"/>
<polygon fill="black" stroke="black" points="1122.91,-523.25 1112.65,-525.89 1122.32,-530.22 1122.91,-523.25"/>
</g>
<!-- bacteria in suspended poc&#45;&gt;menhaden -->
<g id="edge72" class="edge">
<title>bacteria in suspended poc&#45;&gt;menhaden</title>
<path fill="none" stroke="black" d="M1757.63,-727.09C1673.84,-718.35 1553.85,-703.89 1450.01,-684 1196.77,-635.5 1113.72,-664.66 888.01,-540 867.65,-528.75 871.33,-513.31 850.01,-504 737.36,-454.8 419.62,-486 298.01,-468 291.68,-467.06 285.08,-465.86 278.55,-464.52"/>
<polygon fill="black" stroke="black" points="278.92,-461.02 268.41,-462.33 277.45,-467.86 278.92,-461.02"/>
</g>
<!-- bacteria in suspended poc&#45;&gt;Respiration -->
<g id="edge24" class="edge">
<title>bacteria in suspended poc&#45;&gt;Respiration</title>
<path fill="none" stroke="black" d="M1954.52,-724.96C2168.78,-694.23 2685.01,-604.27 2685.01,-451 2685.01,-451 2685.01,-451 2685.01,-161 2685.01,-116.47 2676.11,-96.63 2639.01,-72 2589.96,-39.43 2203.66,-25.35 2038.97,-20.79"/>
<polygon fill="black" stroke="black" points="2039.02,-17.29 2028.93,-20.52 2038.83,-24.29 2039.02,-17.29"/>
</g>
<!-- bacteria in suspended poc&#45;&gt;ciliates -->
<g id="edge65" class="edge">
<title>bacteria in suspended poc&#45;&gt;ciliates</title>
<path fill="none" stroke="black" d="M1905.46,-720.76C1935.53,-709.26 1975.64,-693.92 2005.31,-682.57"/>
<polygon fill="black" stroke="black" points="2006.85,-685.73 2014.94,-678.88 2004.35,-679.19 2006.85,-685.73"/>
</g>
<!-- bacteria in suspended poc&#45;&gt;ctenophores -->
<g id="edge67" class="edge">
<title>bacteria in suspended poc&#45;&gt;ctenophores</title>
<path fill="none" stroke="black" d="M1893.17,-720.24C1910.28,-710.34 1931.83,-697.19 1950.01,-684 1958.41,-677.9 2061.26,-589.27 2111.17,-546.18"/>
<polygon fill="black" stroke="black" points="2113.71,-548.62 2118.99,-539.43 2109.14,-543.32 2113.71,-548.62"/>
</g>
<!-- bacteria in suspended poc&#45;&gt;other suspension feeders -->
<g id="edge68" class="edge">
<title>bacteria in suspended poc&#45;&gt;other suspension feeders</title>
<path fill="none" stroke="black" d="M1839.17,-720.15C1803.05,-694.64 1734.42,-646.15 1694,-617.6"/>
<polygon fill="black" stroke="black" points="1696.02,-614.74 1685.83,-611.82 1691.98,-620.45 1696.02,-614.74"/>
</g>
<!-- bacteria in suspended poc&#45;&gt;sediment particulate orga -->
<g id="edge74" class="edge">
<title>bacteria in suspended poc&#45;&gt;sediment particulate orga</title>
<path fill="none" stroke="black" d="M1875.37,-719.82C1895.48,-689.57 1930.8,-625.33 1907.01,-576 1850.78,-459.39 1699.46,-411.54 1594.96,-392.07"/>
<polygon fill="black" stroke="black" points="1595.46,-388.61 1585,-390.28 1594.22,-395.5 1595.46,-388.61"/>
</g>
<!-- bacteria in sediment poc -->
<g id="node27" class="node">
<title>bacteria in sediment poc</title>
<ellipse fill="none" stroke="black" cx="1708.01" cy="-306" rx="125.38" ry="18"/>
<text text-anchor="middle" x="1708.01" y="-302.3" font-family="Times,serif" font-size="14.00">bacteria in sediment poc</text>
</g>
<!-- bacteria in sediment poc&#45;&gt;Respiration -->
<g id="edge25" class="edge">
<title>bacteria in sediment poc&#45;&gt;Respiration</title>
<path fill="none" stroke="black" d="M1809.35,-295.32C1869.94,-287.38 1939.09,-273.82 1960.01,-252 2015.87,-193.74 1997.84,-151.52 1984.01,-72 1982.49,-63.24 1979.65,-54.01 1976.62,-45.75"/>
<polygon fill="black" stroke="black" points="1979.81,-44.29 1972.91,-36.25 1973.29,-46.84 1979.81,-44.29"/>
</g>
<!-- other polychaetes -->
<g id="node34" class="node">
<title>other polychaetes</title>
<ellipse fill="none" stroke="black" cx="1857.01" cy="-234" rx="93.68" ry="18"/>
<text text-anchor="middle" x="1857.01" y="-230.3" font-family="Times,serif" font-size="14.00">other polychaetes</text>
</g>
<!-- bacteria in sediment poc&#45;&gt;other polychaetes -->
<g id="edge75" class="edge">
<title>bacteria in sediment poc&#45;&gt;other polychaetes</title>
<path fill="none" stroke="black" d="M1742.95,-288.59C1764.17,-278.62 1791.43,-265.81 1813.98,-255.22"/>
<polygon fill="black" stroke="black" points="1815.76,-258.25 1823.32,-250.83 1812.78,-251.91 1815.76,-258.25"/>
</g>
<!-- nereis -->
<g id="node35" class="node">
<title>nereis</title>
<ellipse fill="none" stroke="black" cx="1706.01" cy="-234" rx="39.79" ry="18"/>
<text text-anchor="middle" x="1706.01" y="-230.3" font-family="Times,serif" font-size="14.00">nereis</text>
</g>
<!-- bacteria in sediment poc&#45;&gt;nereis -->
<g id="edge76" class="edge">
<title>bacteria in sediment poc&#45;&gt;nereis</title>
<path fill="none" stroke="black" d="M1707.52,-287.7C1707.3,-279.98 1707.03,-270.71 1706.79,-262.11"/>
<polygon fill="black" stroke="black" points="1710.29,-262 1706.5,-252.1 1703.29,-262.2 1710.29,-262"/>
</g>
<!-- macoma spp. -->
<g id="node36" class="node">
<title>macoma spp.</title>
<ellipse fill="none" stroke="black" cx="1183.01" cy="-234" rx="71.49" ry="18"/>
<text text-anchor="middle" x="1183.01" y="-230.3" font-family="Times,serif" font-size="14.00">macoma spp.</text>
</g>
<!-- bacteria in sediment poc&#45;&gt;macoma spp. -->
<g id="edge77" class="edge">
<title>bacteria in sediment poc&#45;&gt;macoma spp.</title>
<path fill="none" stroke="black" d="M1619.55,-293.2C1516.92,-279.52 1349.69,-257.22 1254.77,-244.57"/>
<polygon fill="black" stroke="black" points="1255.06,-241.08 1244.69,-243.22 1254.14,-248.01 1255.06,-241.08"/>
</g>
<!-- bacteria in sediment poc&#45;&gt;meiofauna -->
<g id="edge78" class="edge">
<title>bacteria in sediment poc&#45;&gt;meiofauna</title>
<path fill="none" stroke="black" d="M1805.99,-294.66C1887.02,-285.47 2004.93,-270.62 2107.01,-252 2113.15,-250.88 2119.54,-249.59 2125.88,-248.22"/>
<polygon fill="black" stroke="black" points="2126.76,-251.61 2135.76,-246.03 2125.24,-244.78 2126.76,-251.61"/>
</g>
<!-- crustacean deposit feeder -->
<g id="node38" class="node">
<title>crustacean deposit feeder</title>
<ellipse fill="none" stroke="black" cx="1479.01" cy="-234" rx="131.08" ry="18"/>
<text text-anchor="middle" x="1479.01" y="-230.3" font-family="Times,serif" font-size="14.00">crustacean deposit feeder</text>
</g>
<!-- bacteria in sediment poc&#45;&gt;crustacean deposit feeder -->
<g id="edge79" class="edge">
<title>bacteria in sediment poc&#45;&gt;crustacean deposit feeder</title>
<path fill="none" stroke="black" d="M1657.19,-289.46C1622.48,-278.85 1576.31,-264.74 1539.67,-253.54"/>
<polygon fill="black" stroke="black" points="1540.68,-250.19 1530.09,-250.61 1538.63,-256.88 1540.68,-250.19"/>
</g>
<!-- bacteria in sediment poc&#45;&gt;sediment particulate orga -->
<g id="edge80" class="edge">
<title>bacteria in sediment poc&#45;&gt;sediment particulate orga</title>
<path fill="none" stroke="black" d="M1663.82,-322.89C1631.78,-333.48 1588.04,-347.42 1552.17,-358.51"/>
<polygon fill="black" stroke="black" points="1550.8,-355.26 1542.28,-361.55 1552.86,-361.95 1550.8,-355.26"/>
</g>
<!-- free bacteria&#45;&gt;suspended particulate org -->
<g id="edge84" class="edge">
<title>free bacteria&#45;&gt;suspended particulate org</title>
<path fill="none" stroke="black" d="M2203.94,-937.53C2168.84,-919.1 2107.81,-887.8 2054.01,-864 2027.2,-852.14 1996.84,-840.17 1971.61,-830.62"/>
<polygon fill="black" stroke="black" points="1972.81,-827.33 1962.22,-827.08 1970.34,-833.88 1972.81,-827.33"/>
</g>
<!-- free bacteria&#45;&gt;Respiration -->
<g id="edge27" class="edge">
<title>free bacteria&#45;&gt;Respiration</title>
<path fill="none" stroke="black" d="M2301.29,-949.63C2451.82,-938.15 2799.01,-887.74 2799.01,-667 2799.01,-667 2799.01,-667 2799.01,-161 2799.01,-103.14 2757.02,-95.18 2704.01,-72 2644.14,-45.82 2213.71,-27.81 2038.71,-21.49"/>
<polygon fill="black" stroke="black" points="2038.68,-17.99 2028.56,-21.13 2038.43,-24.99 2038.68,-17.99"/>
</g>
<!-- heterotrophic microflagel -->
<g id="node29" class="node">
<title>heterotrophic microflagel</title>
<ellipse fill="none" stroke="black" cx="2273.01" cy="-882" rx="128.88" ry="18"/>
<text text-anchor="middle" x="2273.01" y="-878.3" font-family="Times,serif" font-size="14.00">heterotrophic microflagel</text>
</g>
<!-- free bacteria&#45;&gt;heterotrophic microflagel -->
<g id="edge83" class="edge">
<title>free bacteria&#45;&gt;heterotrophic microflagel</title>
<path fill="none" stroke="black" d="M2242.7,-936.05C2247.3,-928.01 2252.9,-918.2 2258.03,-909.23"/>
<polygon fill="black" stroke="black" points="2261.22,-910.69 2263.14,-900.28 2255.14,-907.22 2261.22,-910.69"/>
</g>
<!-- heterotrophic microflagel&#45;&gt;suspended particulate org -->
<g id="edge86" class="edge">
<title>heterotrophic microflagel&#45;&gt;suspended particulate org</title>
<path fill="none" stroke="black" d="M2201.6,-866.92C2143.3,-855.42 2060.87,-839.17 1999.9,-827.15"/>
<polygon fill="black" stroke="black" points="2000.41,-823.68 1989.92,-825.18 1999.05,-830.55 2000.41,-823.68"/>
</g>
<!-- heterotrophic microflagel&#45;&gt;Respiration -->
<g id="edge28" class="edge">
<title>heterotrophic microflagel&#45;&gt;Respiration</title>
<path fill="none" stroke="black" d="M2314.94,-864.86C2426.66,-818.81 2723.01,-675.49 2723.01,-451 2723.01,-451 2723.01,-451 2723.01,-161 2723.01,-115.19 2709.86,-96.28 2671.01,-72 2618.37,-39.11 2209.24,-25.13 2038.98,-20.69"/>
<polygon fill="black" stroke="black" points="2038.93,-17.19 2028.85,-20.43 2038.75,-24.18 2038.93,-17.19"/>
</g>
<!-- heterotrophic microflagel&#45;&gt;ciliates -->
<g id="edge85" class="edge">
<title>heterotrophic microflagel&#45;&gt;ciliates</title>
<path fill="none" stroke="black" d="M2254.82,-863.85C2214.14,-825.5 2115.83,-732.82 2070.12,-689.73"/>
<polygon fill="black" stroke="black" points="2072.42,-687.08 2062.74,-682.77 2067.62,-692.18 2072.42,-687.08"/>
</g>
<!-- ciliates&#45;&gt;suspended particulate org -->
<g id="edge92" class="edge">
<title>ciliates&#45;&gt;suspended particulate org</title>
<path fill="none" stroke="black" d="M2047.71,-684.08C2044.11,-703.34 2032.03,-734.73 2013.01,-756 2001.59,-768.77 1986.35,-779.52 1971.38,-787.92"/>
<polygon fill="black" stroke="black" points="1969.31,-785.06 1962.13,-792.85 1972.61,-791.24 1969.31,-785.06"/>
</g>
<!-- ciliates&#45;&gt;zooplankton -->
<g id="edge87" class="edge">
<title>ciliates&#45;&gt;zooplankton</title>
<path fill="none" stroke="black" d="M2002.56,-662.33C1912.87,-656.44 1700.92,-640.52 1525.01,-612 1519.2,-611.06 1513.16,-609.94 1507.15,-608.74"/>
<polygon fill="black" stroke="black" points="1507.59,-605.26 1497.09,-606.66 1506.17,-612.12 1507.59,-605.26"/>
</g>
<!-- ciliates&#45;&gt;mya arenaria -->
<g id="edge90" class="edge">
<title>ciliates&#45;&gt;mya arenaria</title>
<path fill="none" stroke="black" d="M2046.67,-647.96C2048.03,-618.43 2051.79,-555.96 2061.01,-504 2062.55,-495.34 2064.8,-486.02 2067.05,-477.66"/>
<polygon fill="black" stroke="black" points="2070.42,-478.6 2069.75,-468.03 2063.68,-476.71 2070.42,-478.6"/>
</g>
<!-- ciliates&#45;&gt;oysters -->
<g id="edge91" class="edge">
<title>ciliates&#45;&gt;oysters</title>
<path fill="none" stroke="black" d="M2014.14,-653.44C1981.55,-641.62 1930.77,-623.2 1894.93,-610.2"/>
<polygon fill="black" stroke="black" points="1895.85,-606.81 1885.25,-606.69 1893.46,-613.39 1895.85,-606.81"/>
</g>
<!-- ciliates&#45;&gt;Respiration -->
<g id="edge29" class="edge">
<title>ciliates&#45;&gt;Respiration</title>
<path fill="none" stroke="black" d="M2087.32,-659.45C2223.11,-640.08 2647.01,-570.06 2647.01,-451 2647.01,-451 2647.01,-451 2647.01,-161 2647.01,-118.16 2644.64,-97.22 2610.01,-72 2564.74,-39.03 2198.77,-25.27 2039.09,-20.79"/>
<polygon fill="black" stroke="black" points="2038.96,-17.29 2028.87,-20.51 2038.77,-24.29 2038.96,-17.29"/>
</g>
<!-- ciliates&#45;&gt;ctenophores -->
<g id="edge88" class="edge">
<title>ciliates&#45;&gt;ctenophores</title>
<path fill="none" stroke="black" d="M2062.4,-649.28C2072.32,-639.21 2084.79,-625.55 2094.01,-612 2107.43,-592.28 2119.2,-567.88 2127.18,-549.61"/>
<polygon fill="black" stroke="black" points="2130.51,-550.74 2131.21,-540.17 2124.07,-547.99 2130.51,-550.74"/>
</g>
<!-- ciliates&#45;&gt;other suspension feeders -->
<g id="edge89" class="edge">
<title>ciliates&#45;&gt;other suspension feeders</title>
<path fill="none" stroke="black" d="M2006.36,-657.77C1945.54,-646.68 1827.78,-625.22 1747.06,-610.5"/>
<polygon fill="black" stroke="black" points="1747.38,-607 1736.91,-608.65 1746.12,-613.89 1747.38,-607"/>
</g>
<!-- ctenophores&#45;&gt;suspended particulate org -->
<g id="edge102" class="edge">
<title>ctenophores&#45;&gt;suspended particulate org</title>
<path fill="none" stroke="black" d="M2148.22,-539.97C2165.83,-581.9 2192.72,-691.65 2141.01,-756 2126.09,-774.57 2075.11,-787.61 2025.61,-796.11"/>
<polygon fill="black" stroke="black" points="2025.03,-792.65 2015.74,-797.75 2026.18,-799.56 2025.03,-792.65"/>
</g>
<!-- ctenophores&#45;&gt;Respiration -->
<g id="edge31" class="edge">
<title>ctenophores&#45;&gt;Respiration</title>
<path fill="none" stroke="black" d="M2205.88,-521.94C2316.7,-522.04 2529.73,-515.78 2585.01,-468 2616.01,-441.21 2609.01,-419.97 2609.01,-379 2609.01,-379 2609.01,-379 2609.01,-161 2609.01,-120.03 2616.44,-98.28 2585.01,-72 2543.95,-37.67 2194.85,-24.73 2039.29,-20.63"/>
<polygon fill="black" stroke="black" points="2038.96,-17.13 2028.88,-20.37 2038.78,-24.12 2038.96,-17.13"/>
</g>
<!-- ctenophores&#45;&gt;sea nettle -->
<g id="edge101" class="edge">
<title>ctenophores&#45;&gt;sea nettle</title>
<path fill="none" stroke="black" d="M2171.55,-506.33C2196.36,-495.47 2230.3,-480.63 2256.77,-469.04"/>
<polygon fill="black" stroke="black" points="2258.39,-472.15 2266.15,-464.94 2255.59,-465.74 2258.39,-472.15"/>
</g>
<!-- ctenophores&#45;&gt;sediment particulate orga -->
<g id="edge103" class="edge">
<title>ctenophores&#45;&gt;sediment particulate orga</title>
<path fill="none" stroke="black" d="M2092.45,-508.65C2063.2,-499.67 2025.02,-485.95 1994.01,-468 1972.44,-455.51 1973.92,-441.82 1951.01,-432 1820.28,-375.97 1774.31,-412.28 1633.01,-396 1620.37,-394.54 1607.11,-393 1593.96,-391.47"/>
<polygon fill="black" stroke="black" points="1594.28,-387.98 1583.94,-390.3 1593.47,-394.94 1594.28,-387.98"/>
</g>
<!-- sea nettle&#45;&gt;suspended particulate org -->
<g id="edge104" class="edge">
<title>sea nettle&#45;&gt;suspended particulate org</title>
<path fill="none" stroke="black" d="M2339.42,-462.28C2347.55,-464.32 2356.02,-466.32 2364.01,-468 2412.71,-478.22 2552.78,-466.09 2585.01,-504 2595.38,-516.19 2592.96,-526.11 2585.01,-540 2477.75,-727.33 2211.18,-784.32 2049.38,-801.58"/>
<polygon fill="black" stroke="black" points="2048.94,-798.11 2039.35,-802.62 2049.66,-805.07 2048.94,-798.11"/>
</g>
<!-- sea nettle&#45;&gt;Respiration -->
<g id="edge32" class="edge">
<title>sea nettle&#45;&gt;Respiration</title>
<path fill="none" stroke="black" d="M2341.73,-438.39C2399.77,-421.38 2495.01,-382.05 2495.01,-307 2495.01,-307 2495.01,-307 2495.01,-161 2495.01,-120.03 2502.19,-98.58 2471.01,-72 2438.79,-44.53 2170.94,-28.48 2038.53,-22.15"/>
<polygon fill="black" stroke="black" points="2038.62,-18.65 2028.47,-21.67 2038.29,-25.64 2038.62,-18.65"/>
</g>
<!-- sea nettle&#45;&gt;sediment particulate orga -->
<g id="edge105" class="edge">
<title>sea nettle&#45;&gt;sediment particulate orga</title>
<path fill="none" stroke="black" d="M2246.8,-442.37C2219.82,-439 2186.16,-435 2156.01,-432 1967.17,-413.21 1747.76,-396.85 1613.42,-387.45"/>
<polygon fill="black" stroke="black" points="1613.31,-383.93 1603.09,-386.73 1612.82,-390.91 1613.31,-383.93"/>
</g>
<!-- other suspension feeders&#45;&gt;blue crab -->
<g id="edge106" class="edge">
<title>other suspension feeders&#45;&gt;blue crab</title>
<path fill="none" stroke="black" d="M1664.65,-575.9C1668.67,-542.79 1672.13,-469.85 1632.01,-432 1585.74,-388.34 1410.69,-406.91 1348.01,-396 1202.69,-370.7 1142.69,-411.61 1024.01,-324 982.71,-293.51 972.58,-266.27 983.01,-216 984.89,-206.96 988.39,-197.58 992.1,-189.26"/>
<polygon fill="black" stroke="black" points="995.34,-190.61 996.47,-180.07 989.01,-187.6 995.34,-190.61"/>
</g>
<!-- other suspension feeders&#45;&gt;Respiration -->
<g id="edge33" class="edge">
<title>other suspension feeders&#45;&gt;Respiration</title>
<path fill="none" stroke="black" d="M1707.63,-577.14C1765.33,-557.59 1868.01,-524.44 1958.01,-504 2059.34,-480.99 2094.39,-510.92 2189.01,-468 2211.71,-457.7 2209.65,-443 2232.01,-432 2298.58,-399.25 2336.01,-440.97 2395.01,-396 2456,-349.52 2457.01,-311.68 2457.01,-235 2457.01,-235 2457.01,-235 2457.01,-161 2457.01,-120.03 2464.08,-98.71 2433.01,-72 2403.69,-46.79 2162.13,-29.9 2038.02,-22.79"/>
<polygon fill="black" stroke="black" points="2038.03,-19.29 2027.84,-22.22 2037.63,-26.28 2038.03,-19.29"/>
</g>
<!-- other suspension feeders&#45;&gt;sediment particulate orga -->
<g id="edge107" class="edge">
<title>other suspension feeders&#45;&gt;sediment particulate orga</title>
<path fill="none" stroke="black" d="M1668.49,-575.92C1679.35,-544.09 1697.07,-475.06 1665.01,-432 1653.49,-416.52 1613.71,-403.89 1574.77,-394.84"/>
<polygon fill="black" stroke="black" points="1575.43,-391.4 1564.91,-392.62 1573.9,-398.23 1575.43,-391.4"/>
</g>
<!-- other polychaetes&#45;&gt;croaker -->
<g id="edge112" class="edge">
<title>other polychaetes&#45;&gt;croaker</title>
<path fill="none" stroke="black" d="M1840.55,-216.05C1831.99,-207.24 1821.39,-196.33 1812.03,-186.69"/>
<polygon fill="black" stroke="black" points="1814.33,-184.04 1804.85,-179.31 1809.31,-188.92 1814.33,-184.04"/>
</g>
<!-- other polychaetes&#45;&gt;hogchoker -->
<g id="edge113" class="edge">
<title>other polychaetes&#45;&gt;hogchoker</title>
<path fill="none" stroke="black" d="M1809.29,-218.41C1770.86,-206.66 1717.01,-190.2 1677.99,-178.28"/>
<polygon fill="black" stroke="black" points="1679,-174.93 1668.41,-175.35 1676.95,-181.62 1679,-174.93"/>
</g>
<!-- other polychaetes&#45;&gt;spot -->
<g id="edge114" class="edge">
<title>other polychaetes&#45;&gt;spot</title>
<path fill="none" stroke="black" d="M1791.01,-221.22C1779.05,-219.31 1766.68,-217.48 1755.01,-216 1571.34,-192.76 1524.28,-197.97 1340.01,-180 1300.18,-176.12 1254.71,-171.13 1223,-167.57"/>
<polygon fill="black" stroke="black" points="1223.13,-164.06 1212.8,-166.42 1222.34,-171.02 1223.13,-164.06"/>
</g>
<!-- other polychaetes&#45;&gt;white perch -->
<g id="edge115" class="edge">
<title>other polychaetes&#45;&gt;white perch</title>
<path fill="none" stroke="black" d="M1789,-221.56C1777.65,-219.68 1766,-217.77 1755.01,-216 1659.93,-200.67 1549.75,-183.62 1481.21,-173.11"/>
<polygon fill="black" stroke="black" points="1481.41,-169.6 1470.99,-171.54 1480.35,-176.52 1481.41,-169.6"/>
</g>
<!-- other polychaetes&#45;&gt;catfish -->
<g id="edge116" class="edge">
<title>other polychaetes&#45;&gt;catfish</title>
<path fill="none" stroke="black" d="M1866.21,-216.05C1870.65,-207.89 1876.06,-197.91 1880.99,-188.82"/>
<polygon fill="black" stroke="black" points="1884.2,-190.25 1885.9,-179.79 1878.05,-186.91 1884.2,-190.25"/>
</g>
<!-- other polychaetes&#45;&gt;Respiration -->
<g id="edge36" class="edge">
<title>other polychaetes&#45;&gt;Respiration</title>
<path fill="none" stroke="black" d="M1898.95,-217.82C1916.31,-209.37 1934.95,-197.05 1946.01,-180 1972.42,-139.31 1971.88,-80.43 1968.71,-46.3"/>
<polygon fill="black" stroke="black" points="1972.17,-45.71 1967.62,-36.15 1965.21,-46.46 1972.17,-45.71"/>
</g>
<!-- other polychaetes&#45;&gt;sediment particulate orga -->
<g id="edge117" class="edge">
<title>other polychaetes&#45;&gt;sediment particulate orga</title>
<path fill="none" stroke="black" d="M1859.51,-252.07C1861.4,-272.21 1861.02,-305.34 1842.01,-324 1811.46,-354 1711.24,-367.06 1625.2,-372.72"/>
<polygon fill="black" stroke="black" points="1624.81,-369.24 1615.05,-373.36 1625.25,-376.22 1624.81,-369.24"/>
</g>
<!-- nereis&#45;&gt;blue crab -->
<g id="edge118" class="edge">
<title>nereis&#45;&gt;blue crab</title>
<path fill="none" stroke="black" d="M1671.03,-225.19C1655.22,-221.91 1636.25,-218.33 1619.01,-216 1408.76,-187.61 1354.12,-201.07 1143.01,-180 1117.45,-177.45 1089.28,-174.05 1065.16,-170.97"/>
<polygon fill="black" stroke="black" points="1065.46,-167.48 1055.09,-169.67 1064.56,-174.42 1065.46,-167.48"/>
</g>
<!-- nereis&#45;&gt;croaker -->
<g id="edge119" class="edge">
<title>nereis&#45;&gt;croaker</title>
<path fill="none" stroke="black" d="M1724.02,-217.81C1735.29,-208.31 1749.99,-195.91 1762.57,-185.3"/>
<polygon fill="black" stroke="black" points="1765.08,-187.77 1770.46,-178.64 1760.56,-182.42 1765.08,-187.77"/>
</g>
<!-- nereis&#45;&gt;hogchoker -->
<g id="edge120" class="edge">
<title>nereis&#45;&gt;hogchoker</title>
<path fill="none" stroke="black" d="M1688.7,-217.46C1678.42,-208.24 1665.19,-196.36 1653.7,-186.05"/>
<polygon fill="black" stroke="black" points="1655.87,-183.3 1646.09,-179.22 1651.19,-188.51 1655.87,-183.3"/>
</g>
<!-- nereis&#45;&gt;spot -->
<g id="edge121" class="edge">
<title>nereis&#45;&gt;spot</title>
<path fill="none" stroke="black" d="M1670.98,-225.56C1655.15,-222.35 1636.19,-218.72 1619.01,-216 1542.96,-203.96 1315.54,-177.93 1222.92,-167.48"/>
<polygon fill="black" stroke="black" points="1223.16,-163.98 1212.83,-166.34 1222.37,-170.94 1223.16,-163.98"/>
</g>
<!-- nereis&#45;&gt;white perch -->
<g id="edge122" class="edge">
<title>nereis&#45;&gt;white perch</title>
<path fill="none" stroke="black" d="M1671.78,-224.76C1622.78,-212.98 1532.02,-191.15 1472.59,-176.85"/>
<polygon fill="black" stroke="black" points="1473.14,-173.38 1462.6,-174.45 1471.5,-180.19 1473.14,-173.38"/>
</g>
<!-- nereis&#45;&gt;catfish -->
<g id="edge123" class="edge">
<title>nereis&#45;&gt;catfish</title>
<path fill="none" stroke="black" d="M1735.96,-221.91C1768.12,-210 1819.38,-191.01 1854.98,-177.83"/>
<polygon fill="black" stroke="black" points="1856.42,-181.03 1864.58,-174.27 1853.99,-174.46 1856.42,-181.03"/>
</g>
<!-- nereis&#45;&gt;Respiration -->
<g id="edge37" class="edge">
<title>nereis&#45;&gt;Respiration</title>
<path fill="none" stroke="black" d="M1707.75,-215.92C1710.48,-196.67 1717.31,-165.27 1734.01,-144 1779.09,-86.61 1858.08,-52.12 1910.97,-34.33"/>
<polygon fill="black" stroke="black" points="1912.12,-37.64 1920.53,-31.2 1909.94,-30.99 1912.12,-37.64"/>
</g>
<!-- nereis&#45;&gt;sediment particulate orga -->
<g id="edge124" class="edge">
<title>nereis&#45;&gt;sediment particulate orga</title>
<path fill="none" stroke="black" d="M1675.45,-245.59C1642.08,-257.44 1591.12,-276.49 1574.01,-288 1547.81,-305.63 1523.34,-332.36 1507.26,-351.92"/>
<polygon fill="black" stroke="black" points="1504.44,-349.84 1500.9,-359.82 1509.89,-354.23 1504.44,-349.84"/>
</g>
<!-- macoma spp.&#45;&gt;blue crab -->
<g id="edge125" class="edge">
<title>macoma spp.&#45;&gt;blue crab</title>
<path fill="none" stroke="black" d="M1146.34,-218.5C1117.92,-207.26 1078.5,-191.67 1048.67,-179.87"/>
<polygon fill="black" stroke="black" points="1049.94,-176.61 1039.35,-176.19 1047.36,-183.12 1049.94,-176.61"/>
</g>
<!-- macoma spp.&#45;&gt;spot -->
<g id="edge126" class="edge">
<title>macoma spp.&#45;&gt;spot</title>
<path fill="none" stroke="black" d="M1183.01,-215.7C1183.01,-207.98 1183.01,-198.71 1183.01,-190.11"/>
<polygon fill="black" stroke="black" points="1186.51,-190.1 1183.01,-180.1 1179.51,-190.1 1186.51,-190.1"/>
</g>
<!-- macoma spp.&#45;&gt;Respiration -->
<g id="edge38" class="edge">
<title>macoma spp.&#45;&gt;Respiration</title>
<path fill="none" stroke="black" d="M1203.86,-216.71C1248.23,-183.02 1356.54,-106.03 1461.01,-72 1539.25,-46.52 1772.23,-29.98 1892.05,-22.92"/>
<polygon fill="black" stroke="black" points="1892.45,-26.4 1902.23,-22.32 1892.04,-19.41 1892.45,-26.4"/>
</g>
<!-- macoma spp.&#45;&gt;sediment particulate orga -->
<g id="edge127" class="edge">
<title>macoma spp.&#45;&gt;sediment particulate orga</title>
<path fill="none" stroke="black" d="M1201.7,-251.72C1224.73,-271.53 1265.76,-304.31 1306.01,-324 1338.16,-339.72 1375.84,-351.65 1408.55,-360.17"/>
<polygon fill="black" stroke="black" points="1407.98,-363.64 1418.53,-362.71 1409.7,-356.85 1407.98,-363.64"/>
</g>
<!-- meiofauna&#45;&gt;Respiration -->
<g id="edge39" class="edge">
<title>meiofauna&#45;&gt;Respiration</title>
<path fill="none" stroke="black" d="M2176.79,-215.89C2169.81,-183.41 2150.31,-112.43 2107.01,-72 2085.17,-51.61 2054.77,-38.88 2027.7,-31.02"/>
<polygon fill="black" stroke="black" points="2028.46,-27.61 2017.89,-28.35 2026.62,-34.36 2028.46,-27.61"/>
</g>
<!-- meiofauna&#45;&gt;sediment particulate orga -->
<g id="edge128" class="edge">
<title>meiofauna&#45;&gt;sediment particulate orga</title>
<path fill="none" stroke="black" d="M2165.41,-251.6C2145.83,-272.58 2108.87,-307.92 2069.01,-324 1991.44,-355.29 1772.13,-368.27 1626.26,-373.54"/>
<polygon fill="black" stroke="black" points="1625.76,-370.05 1615.89,-373.9 1626,-377.05 1625.76,-370.05"/>
</g>
<!-- crustacean deposit feeder&#45;&gt;blue crab -->
<g id="edge129" class="edge">
<title>crustacean deposit feeder&#45;&gt;blue crab</title>
<path fill="none" stroke="black" d="M1393.36,-220.32C1298.03,-206.22 1146.59,-183.8 1064.15,-171.6"/>
<polygon fill="black" stroke="black" points="1064.61,-168.13 1054.2,-170.13 1063.58,-175.06 1064.61,-168.13"/>
</g>
<!-- crustacean deposit feeder&#45;&gt;croaker -->
<g id="edge130" class="edge">
<title>crustacean deposit feeder&#45;&gt;croaker</title>
<path fill="none" stroke="black" d="M1544,-218.33C1602.54,-205.11 1687.31,-185.97 1740.23,-174.01"/>
<polygon fill="black" stroke="black" points="1741.07,-177.41 1750.05,-171.8 1739.53,-170.59 1741.07,-177.41"/>
</g>
<!-- crustacean deposit feeder&#45;&gt;hogchoker -->
<g id="edge131" class="edge">
<title>crustacean deposit feeder&#45;&gt;hogchoker</title>
<path fill="none" stroke="black" d="M1513.95,-216.59C1536.17,-206.15 1565.02,-192.59 1588.14,-181.73"/>
<polygon fill="black" stroke="black" points="1589.78,-184.83 1597.34,-177.41 1586.8,-178.49 1589.78,-184.83"/>
</g>
<!-- crustacean deposit feeder&#45;&gt;spot -->
<g id="edge132" class="edge">
<title>crustacean deposit feeder&#45;&gt;spot</title>
<path fill="none" stroke="black" d="M1416.24,-218.15C1356.98,-204.14 1270.08,-183.59 1220.8,-171.94"/>
<polygon fill="black" stroke="black" points="1221.41,-168.48 1210.88,-169.59 1219.8,-175.3 1221.41,-168.48"/>
</g>
<!-- crustacean deposit feeder&#45;&gt;catfish -->
<g id="edge133" class="edge">
<title>crustacean deposit feeder&#45;&gt;catfish</title>
<path fill="none" stroke="black" d="M1582.59,-222.92C1656.17,-214.56 1756.95,-200.66 1844.01,-180 1847.43,-179.19 1850.95,-178.25 1854.46,-177.24"/>
<polygon fill="black" stroke="black" points="1855.72,-180.51 1864.25,-174.23 1853.66,-173.82 1855.72,-180.51"/>
</g>
<!-- crustacean deposit feeder&#45;&gt;summer flounder -->
<g id="edge134" class="edge">
<title>crustacean deposit feeder&#45;&gt;summer flounder</title>
<path fill="none" stroke="black" d="M1369.15,-224.09C1335.13,-221.4 1297.53,-218.5 1263.01,-216 1007.9,-197.52 706.88,-178.3 556.9,-168.89"/>
<polygon fill="black" stroke="black" points="557,-165.39 546.81,-168.26 556.57,-172.38 557,-165.39"/>
</g>
<!-- crustacean deposit feeder&#45;&gt;Respiration -->
<g id="edge40" class="edge">
<title>crustacean deposit feeder&#45;&gt;Respiration</title>
<path fill="none" stroke="black" d="M1491.48,-215.9C1517.75,-181.41 1582.63,-104.08 1658.01,-72 1733.72,-39.79 1827.85,-27.14 1891.78,-22.19"/>
<polygon fill="black" stroke="black" points="1892.05,-25.68 1901.77,-21.45 1891.54,-18.69 1892.05,-25.68"/>
</g>
<!-- crustacean deposit feeder&#45;&gt;sediment particulate orga -->
<g id="edge135" class="edge">
<title>crustacean deposit feeder&#45;&gt;sediment particulate orga</title>
<path fill="none" stroke="black" d="M1480.1,-252.19C1481.64,-276.42 1484.46,-320.89 1486.28,-349.68"/>
<polygon fill="black" stroke="black" points="1482.8,-350.11 1486.93,-359.87 1489.79,-349.67 1482.8,-350.11"/>
</g>
<!-- sediment particulate orga&#45;&gt;blue crab -->
<g id="edge177" class="edge">
<title>sediment particulate orga&#45;&gt;blue crab</title>
<path fill="none" stroke="black" d="M1375.7,-368.68C1305.75,-361.31 1214.69,-347.86 1137.01,-324 1065.56,-302.05 1024.99,-315.17 985.01,-252 973.03,-233.07 978.28,-207.34 986.79,-188.42"/>
<polygon fill="black" stroke="black" points="989.92,-189.98 991.31,-179.47 983.68,-186.82 989.92,-189.98"/>
</g>
<!-- sediment particulate orga&#45;&gt;bacteria in sediment poc -->
<g id="edge176" class="edge">
<title>sediment particulate orga&#45;&gt;bacteria in sediment poc</title>
<path fill="none" stroke="black" d="M1532.44,-361.03C1564.61,-350.41 1608.47,-336.42 1644.34,-325.34"/>
<polygon fill="black" stroke="black" points="1645.7,-328.59 1654.23,-322.3 1643.64,-321.9 1645.7,-328.59"/>
</g>
</g>
</svg>
