<?xml version="1.0" encoding="UTF-8" standalone="no"?>
<!DOCTYPE svg PUBLIC "-//W3C//DTD SVG 1.1//EN"
 "http://www.w3.org/Graphics/SVG/1.1/DTD/svg11.dtd">
<!-- Generated by graphviz version 2.43.0 (0)
 -->
<!-- Title: chesapeake Pages: 1 -->
<svg width="2767pt" height="1348pt"
 viewBox="0.00 0.00 2767.00 1348.00" xmlns="http://www.w3.org/2000/svg" xmlns:xlink="http://www.w3.org/1999/xlink">
<g id="graph0" class="graph" transform="scale(1 1) rotate(0) translate(4 1344)">
<title>chesapeake</title>
<polygon fill="white" stroke="transparent" points="-4,4 -4,-1344 2763,-1344 2763,4 -4,4"/>
<!-- 1 -->
<g id="node1" class="node">
<title>1</title>
<ellipse fill="none" stroke="black" cx="777" cy="-1250" rx="77.19" ry="18"/>
<text text-anchor="middle" x="777" y="-1246.3" font-family="Times,serif" font-size="14.00">phytoplankton</text>
</g>
<!-- 7 -->
<g id="node7" class="node">
<title>7</title>
<ellipse fill="none" stroke="black" cx="553" cy="-962" rx="44.39" ry="18"/>
<text text-anchor="middle" x="553" y="-958.3" font-family="Times,serif" font-size="14.00">ciliates</text>
</g>
<!-- 1&#45;&gt;7 -->
<g id="edge56" class="edge">
<title>1&#45;&gt;7</title>
<path fill="none" stroke="black" d="M764.91,-1231.94C737.06,-1192.87 665.81,-1094.3 601,-1016 592.92,-1006.24 583.65,-995.83 575.42,-986.85"/>
<polygon fill="black" stroke="black" points="577.88,-984.35 568.52,-979.37 572.73,-989.09 577.88,-984.35"/>
</g>
<!-- 8 -->
<g id="node8" class="node">
<title>8</title>
<ellipse fill="none" stroke="black" cx="1275" cy="-890" rx="66.89" ry="18"/>
<text text-anchor="middle" x="1275" y="-886.3" font-family="Times,serif" font-size="14.00">zooplankton</text>
</g>
<!-- 1&#45;&gt;8 -->
<g id="edge57" class="edge">
<title>1&#45;&gt;8</title>
<path fill="none" stroke="black" d="M853.44,-1246.8C956.48,-1242.56 1133.26,-1230.36 1187,-1196 1226.37,-1170.83 1243,-1153.73 1243,-1107 1243,-1107 1243,-1107 1243,-1033 1243,-992.04 1255.83,-946.02 1265.24,-917.77"/>
<polygon fill="black" stroke="black" points="1268.59,-918.8 1268.52,-908.21 1261.97,-916.53 1268.59,-918.8"/>
</g>
<!-- 11 -->
<g id="node11" class="node">
<title>11</title>
<ellipse fill="none" stroke="black" cx="886" cy="-530" rx="128.08" ry="18"/>
<text text-anchor="middle" x="886" y="-526.3" font-family="Times,serif" font-size="14.00">other suspension feeders</text>
</g>
<!-- 1&#45;&gt;11 -->
<g id="edge58" class="edge">
<title>1&#45;&gt;11</title>
<path fill="none" stroke="black" d="M840.62,-1239.68C952.56,-1221.46 1173,-1176.75 1173,-1107 1173,-1107 1173,-1107 1173,-745 1173,-636.23 1038.88,-576.16 954.01,-549.05"/>
<polygon fill="black" stroke="black" points="955.01,-545.69 944.42,-546.06 952.93,-552.38 955.01,-545.69"/>
</g>
<!-- 12 -->
<g id="node12" class="node">
<title>12</title>
<ellipse fill="none" stroke="black" cx="554" cy="-458" rx="72.29" ry="18"/>
<text text-anchor="middle" x="554" y="-454.3" font-family="Times,serif" font-size="14.00">mya arenaria</text>
</g>
<!-- 1&#45;&gt;12 -->
<g id="edge59" class="edge">
<title>1&#45;&gt;12</title>
<path fill="none" stroke="black" d="M701.16,-1246.46C542.48,-1239.09 190,-1211 190,-1107 190,-1107 190,-1107 190,-1033 190,-932.07 266,-919.93 266,-819 266,-819 266,-819 266,-601 266,-540.5 315.79,-540.78 369,-512 390.56,-500.34 448.18,-484.63 493.45,-473.35"/>
<polygon fill="black" stroke="black" points="494.32,-476.74 503.19,-470.94 492.64,-469.94 494.32,-476.74"/>
</g>
<!-- 13 -->
<g id="node13" class="node">
<title>13</title>
<ellipse fill="none" stroke="black" cx="454" cy="-530" rx="44.69" ry="18"/>
<text text-anchor="middle" x="454" y="-526.3" font-family="Times,serif" font-size="14.00">oysters</text>
</g>
<!-- 1&#45;&gt;13 -->
<g id="edge60" class="edge">
<title>1&#45;&gt;13</title>
<path fill="none" stroke="black" d="M753.17,-1232.65C739.56,-1222.78 722.56,-1209.53 709,-1196 673.03,-1160.11 606.97,-1048.6 568,-1016 541.77,-994.06 527.78,-999.94 500,-980 462.2,-952.87 456.77,-941.03 424,-908 385.9,-869.6 341,-873.09 341,-819 341,-819 341,-819 341,-745 341,-668.25 398.54,-592.06 431.5,-554.72"/>
<polygon fill="black" stroke="black" points="434.43,-556.7 438.52,-546.93 429.23,-552.01 434.43,-556.7"/>
</g>
<!-- 22 -->
<g id="node22" class="node">
<title>22</title>
<ellipse fill="none" stroke="black" cx="1763" cy="-530" rx="68.49" ry="18"/>
<text text-anchor="middle" x="1763" y="-526.3" font-family="Times,serif" font-size="14.00">bay anchovy</text>
</g>
<!-- 1&#45;&gt;22 -->
<g id="edge61" class="edge">
<title>1&#45;&gt;22</title>
<path fill="none" stroke="black" d="M854.53,-1249.7C1157.24,-1251.44 2243,-1247.84 2243,-1107 2243,-1107 2243,-1107 2243,-889 2243,-681.3 1950.63,-579.74 1822.25,-545.16"/>
<polygon fill="black" stroke="black" points="1823.12,-541.77 1812.56,-542.59 1821.33,-548.53 1823.12,-541.77"/>
</g>
<!-- 23 -->
<g id="node23" class="node">
<title>23</title>
<ellipse fill="none" stroke="black" cx="2504" cy="-458" rx="59.29" ry="18"/>
<text text-anchor="middle" x="2504" y="-454.3" font-family="Times,serif" font-size="14.00">menhaden</text>
</g>
<!-- 1&#45;&gt;23 -->
<g id="edge62" class="edge">
<title>1&#45;&gt;23</title>
<path fill="none" stroke="black" d="M854.31,-1249.31C1059.58,-1249.41 1635.17,-1244.91 2111,-1196 2350.35,-1171.4 2645,-1347.61 2645,-1107 2645,-1107 2645,-1107 2645,-601 2645,-543.39 2585.83,-500.83 2544.15,-478"/>
<polygon fill="black" stroke="black" points="2545.77,-474.89 2535.29,-473.29 2542.48,-481.07 2545.77,-474.89"/>
</g>
<!-- 34 -->
<g id="node34" class="node">
<title>34</title>
<polygon fill="none" stroke="black" points="559,-1196 365,-1196 365,-1160 559,-1160 559,-1196"/>
<text text-anchor="middle" x="462" y="-1174.3" font-family="Times,serif" font-size="14.00">dissolved organic carbon</text>
</g>
<!-- 1&#45;&gt;34 -->
<g id="edge63" class="edge">
<title>1&#45;&gt;34</title>
<path fill="none" stroke="black" d="M723.21,-1237.05C675.3,-1226.4 604.35,-1210.63 548.48,-1198.22"/>
<polygon fill="black" stroke="black" points="549.11,-1194.77 538.59,-1196.02 547.59,-1201.61 549.11,-1194.77"/>
</g>
<!-- 35 -->
<g id="node35" class="node">
<title>35</title>
<polygon fill="none" stroke="black" points="813,-692 609,-692 609,-656 813,-656 813,-692"/>
<text text-anchor="middle" x="711" y="-670.3" font-family="Times,serif" font-size="14.00">suspended particulate org</text>
</g>
<!-- 1&#45;&gt;35 -->
<g id="edge64" class="edge">
<title>1&#45;&gt;35</title>
<path fill="none" stroke="black" d="M777,-1231.95C777,-1205.29 777,-1152.11 777,-1107 777,-1107 777,-1107 777,-961 777,-863.27 739.96,-751.45 721.37,-701.51"/>
<polygon fill="black" stroke="black" points="724.62,-700.21 717.81,-692.09 718.08,-702.68 724.62,-700.21"/>
</g>
<!-- 39 -->
<g id="node39" class="node">
<title>39</title>
<polygon fill="none" stroke="black" points="936.78,-14.54 936.78,-29.46 895.91,-40 838.09,-40 797.22,-29.46 797.22,-14.54 838.09,-4 895.91,-4 936.78,-14.54"/>
<polygon fill="none" stroke="black" points="940.79,-11.45 940.79,-32.55 896.41,-44 837.59,-44 793.21,-32.55 793.21,-11.45 837.59,0 896.41,0 940.79,-11.45"/>
<text text-anchor="middle" x="867" y="-18.3" font-family="Times,serif" font-size="14.00">Respiration</text>
</g>
<!-- 1&#45;&gt;39 -->
<g id="edge23" class="edge">
<title>1&#45;&gt;39</title>
<path fill="none" stroke="black" d="M854.39,-1248.77C1133.25,-1247.6 2085.94,-1240.36 2387,-1196 2538.98,-1173.61 2721,-1260.62 2721,-1107 2721,-1107 2721,-1107 2721,-457 2721,-210.11 2553.33,-136.56 2313,-80 2180.82,-48.89 1240.54,-29.67 951.39,-24.45"/>
<polygon fill="black" stroke="black" points="951.03,-20.94 940.97,-24.26 950.9,-27.94 951.03,-20.94"/>
</g>
<!-- 2 -->
<g id="node2" class="node">
<title>2</title>
<ellipse fill="none" stroke="black" cx="890" cy="-602" rx="131.88" ry="18"/>
<text text-anchor="middle" x="890" y="-598.3" font-family="Times,serif" font-size="14.00">bacteria in suspended poc</text>
</g>
<!-- 2&#45;&gt;7 -->
<g id="edge65" class="edge">
<title>2&#45;&gt;7</title>
<path fill="none" stroke="black" d="M936.18,-618.98C986.22,-639.58 1059,-680.62 1059,-745 1059,-819 1059,-819 1059,-819 1059,-912.17 736.99,-947.05 606.73,-957.36"/>
<polygon fill="black" stroke="black" points="606.28,-953.88 596.58,-958.14 606.82,-960.86 606.28,-953.88"/>
</g>
<!-- 2&#45;&gt;8 -->
<g id="edge66" class="edge">
<title>2&#45;&gt;8</title>
<path fill="none" stroke="black" d="M972.14,-616.24C1005.29,-624.19 1042.77,-636.66 1073,-656 1159.85,-711.57 1230.35,-815.4 1259.94,-863.42"/>
<polygon fill="black" stroke="black" points="1256.96,-865.26 1265.15,-871.99 1262.95,-861.62 1256.96,-865.26"/>
</g>
<!-- 9 -->
<g id="node9" class="node">
<title>9</title>
<ellipse fill="none" stroke="black" cx="891" cy="-818" rx="67.69" ry="18"/>
<text text-anchor="middle" x="891" y="-814.3" font-family="Times,serif" font-size="14.00">ctenophores</text>
</g>
<!-- 2&#45;&gt;9 -->
<g id="edge67" class="edge">
<title>2&#45;&gt;9</title>
<path fill="none" stroke="black" d="M890.08,-620.23C890.25,-657.32 890.66,-744.98 890.87,-789.71"/>
<polygon fill="black" stroke="black" points="887.37,-789.87 890.92,-799.85 894.37,-789.83 887.37,-789.87"/>
</g>
<!-- 2&#45;&gt;11 -->
<g id="edge68" class="edge">
<title>2&#45;&gt;11</title>
<path fill="none" stroke="black" d="M889.01,-583.7C888.57,-575.98 888.04,-566.71 887.55,-558.11"/>
<polygon fill="black" stroke="black" points="891.04,-557.89 886.98,-548.1 884.05,-558.29 891.04,-557.89"/>
</g>
<!-- 2&#45;&gt;12 -->
<g id="edge69" class="edge">
<title>2&#45;&gt;12</title>
<path fill="none" stroke="black" d="M845.24,-585.07C817.37,-574.92 780.88,-561.25 749,-548 695.3,-525.68 634.51,-497.45 595.28,-478.84"/>
<polygon fill="black" stroke="black" points="596.33,-475.46 585.79,-474.33 593.32,-481.78 596.33,-475.46"/>
</g>
<!-- 2&#45;&gt;13 -->
<g id="edge70" class="edge">
<title>2&#45;&gt;13</title>
<path fill="none" stroke="black" d="M804.95,-588.15C736.34,-577.67 637.39,-562.32 551,-548 535.79,-545.48 519.26,-542.62 504.22,-539.98"/>
<polygon fill="black" stroke="black" points="504.54,-536.49 494.09,-538.2 503.33,-543.38 504.54,-536.49"/>
</g>
<!-- 2&#45;&gt;22 -->
<g id="edge71" class="edge">
<title>2&#45;&gt;22</title>
<path fill="none" stroke="black" d="M1000.57,-592.13C1181.09,-577.66 1534.42,-549.33 1688.35,-536.99"/>
<polygon fill="black" stroke="black" points="1688.95,-540.45 1698.64,-536.16 1688.39,-533.47 1688.95,-540.45"/>
</g>
<!-- 2&#45;&gt;23 -->
<g id="edge72" class="edge">
<title>2&#45;&gt;23</title>
<path fill="none" stroke="black" d="M1016.2,-596.59C1198.36,-589.63 1545.47,-574.13 1840,-548 1971.79,-536.31 2300.72,-499.04 2431,-476 2437.14,-474.91 2443.54,-473.64 2449.88,-472.29"/>
<polygon fill="black" stroke="black" points="2450.75,-475.68 2459.76,-470.11 2449.24,-468.84 2450.75,-475.68"/>
</g>
<!-- 2&#45;&gt;35 -->
<g id="edge73" class="edge">
<title>2&#45;&gt;35</title>
<path fill="none" stroke="black" d="M854.02,-619.35C830.01,-629.16 797.98,-641.74 770.28,-652.25"/>
<polygon fill="black" stroke="black" points="768.8,-649.07 760.69,-655.88 771.28,-655.62 768.8,-649.07"/>
</g>
<!-- 36 -->
<g id="node36" class="node">
<title>36</title>
<polygon fill="none" stroke="black" points="1312,-404 1110,-404 1110,-368 1312,-368 1312,-404"/>
<text text-anchor="middle" x="1211" y="-382.3" font-family="Times,serif" font-size="14.00">sediment particulate orga</text>
</g>
<!-- 2&#45;&gt;36 -->
<g id="edge74" class="edge">
<title>2&#45;&gt;36</title>
<path fill="none" stroke="black" d="M940.9,-585.37C966.53,-576.37 997.5,-563.7 1023,-548 1084.66,-510.03 1089.64,-486.68 1145,-440 1156.66,-430.17 1169.72,-419.59 1181.12,-410.5"/>
<polygon fill="black" stroke="black" points="1183.43,-413.13 1189.09,-404.17 1179.08,-407.65 1183.43,-413.13"/>
</g>
<!-- 2&#45;&gt;39 -->
<g id="edge24" class="edge">
<title>2&#45;&gt;39</title>
<path fill="none" stroke="black" d="M823.51,-586.41C778.36,-576.25 717.39,-562.06 664,-548 608.92,-533.49 596.75,-523.67 541,-512 479.6,-499.15 310.1,-515.05 261,-476 227.98,-449.74 228,-429.19 228,-387 228,-387 228,-387 228,-169 228,-125.07 234.94,-105.1 271,-80 312.07,-51.41 628.61,-33.58 782.94,-26.5"/>
<polygon fill="black" stroke="black" points="783.49,-29.98 793.32,-26.03 783.17,-22.98 783.49,-29.98"/>
</g>
<!-- 3 -->
<g id="node3" class="node">
<title>3</title>
<ellipse fill="none" stroke="black" cx="1019" cy="-314" rx="125.38" ry="18"/>
<text text-anchor="middle" x="1019" y="-310.3" font-family="Times,serif" font-size="14.00">bacteria in sediment poc</text>
</g>
<!-- 14 -->
<g id="node14" class="node">
<title>14</title>
<ellipse fill="none" stroke="black" cx="866" cy="-242" rx="93.68" ry="18"/>
<text text-anchor="middle" x="866" y="-238.3" font-family="Times,serif" font-size="14.00">other polychaetes</text>
</g>
<!-- 3&#45;&gt;14 -->
<g id="edge75" class="edge">
<title>3&#45;&gt;14</title>
<path fill="none" stroke="black" d="M983.13,-296.59C961.24,-286.57 933.09,-273.7 909.88,-263.08"/>
<polygon fill="black" stroke="black" points="911.14,-259.81 900.59,-258.83 908.23,-266.17 911.14,-259.81"/>
</g>
<!-- 15 -->
<g id="node15" class="node">
<title>15</title>
<ellipse fill="none" stroke="black" cx="1017" cy="-242" rx="39.79" ry="18"/>
<text text-anchor="middle" x="1017" y="-238.3" font-family="Times,serif" font-size="14.00">nereis</text>
</g>
<!-- 3&#45;&gt;15 -->
<g id="edge76" class="edge">
<title>3&#45;&gt;15</title>
<path fill="none" stroke="black" d="M1018.51,-295.7C1018.29,-287.98 1018.02,-278.71 1017.77,-270.11"/>
<polygon fill="black" stroke="black" points="1021.27,-270 1017.49,-260.1 1014.28,-270.2 1021.27,-270"/>
</g>
<!-- 16 -->
<g id="node16" class="node">
<title>16</title>
<ellipse fill="none" stroke="black" cx="1540" cy="-242" rx="71.49" ry="18"/>
<text text-anchor="middle" x="1540" y="-238.3" font-family="Times,serif" font-size="14.00">macoma spp.</text>
</g>
<!-- 3&#45;&gt;16 -->
<g id="edge77" class="edge">
<title>3&#45;&gt;16</title>
<path fill="none" stroke="black" d="M1107.09,-301.17C1208.85,-287.49 1374.33,-265.26 1468.49,-252.61"/>
<polygon fill="black" stroke="black" points="1469.04,-256.06 1478.49,-251.26 1468.11,-249.13 1469.04,-256.06"/>
</g>
<!-- 17 -->
<g id="node17" class="node">
<title>17</title>
<ellipse fill="none" stroke="black" cx="543" cy="-242" rx="59.29" ry="18"/>
<text text-anchor="middle" x="543" y="-238.3" font-family="Times,serif" font-size="14.00">meiofauna</text>
</g>
<!-- 3&#45;&gt;17 -->
<g id="edge78" class="edge">
<title>3&#45;&gt;17</title>
<path fill="none" stroke="black" d="M920.45,-302.77C838.6,-293.62 719.28,-278.77 616,-260 609.87,-258.89 603.47,-257.59 597.13,-256.23"/>
<polygon fill="black" stroke="black" points="597.77,-252.78 587.25,-254.04 596.26,-259.62 597.77,-252.78"/>
</g>
<!-- 18 -->
<g id="node18" class="node">
<title>18</title>
<ellipse fill="none" stroke="black" cx="1206" cy="-242" rx="131.08" ry="18"/>
<text text-anchor="middle" x="1206" y="-238.3" font-family="Times,serif" font-size="14.00">crustacean deposit feeder</text>
</g>
<!-- 3&#45;&gt;18 -->
<g id="edge79" class="edge">
<title>3&#45;&gt;18</title>
<path fill="none" stroke="black" d="M1061.9,-296.94C1089.12,-286.75 1124.54,-273.49 1153.44,-262.67"/>
<polygon fill="black" stroke="black" points="1154.84,-265.89 1162.97,-259.11 1152.38,-259.33 1154.84,-265.89"/>
</g>
<!-- 3&#45;&gt;36 -->
<g id="edge80" class="edge">
<title>3&#45;&gt;36</title>
<path fill="none" stroke="black" d="M1067.61,-330.63C1096.02,-340.56 1131.75,-353.53 1160.48,-364.31"/>
<polygon fill="black" stroke="black" points="1159.34,-367.62 1169.93,-367.88 1161.81,-361.07 1159.34,-367.62"/>
</g>
<!-- 3&#45;&gt;39 -->
<g id="edge25" class="edge">
<title>3&#45;&gt;39</title>
<path fill="none" stroke="black" d="M912.73,-304.39C851.18,-296.95 782.16,-283.54 763,-260 731.19,-220.92 739.44,-191.13 808,-80 814.48,-69.49 823.35,-59.56 832.23,-51.02"/>
<polygon fill="black" stroke="black" points="834.66,-53.54 839.65,-44.19 829.92,-48.39 834.66,-53.54"/>
</g>
<!-- 4 -->
<g id="node4" class="node">
<title>4</title>
<ellipse fill="none" stroke="black" cx="379" cy="-458" rx="85.29" ry="18"/>
<text text-anchor="middle" x="379" y="-454.3" font-family="Times,serif" font-size="14.00">benthic diatoms</text>
</g>
<!-- 4&#45;&gt;17 -->
<g id="edge81" class="edge">
<title>4&#45;&gt;17</title>
<path fill="none" stroke="black" d="M392.14,-439.85C421.07,-402.1 490.36,-311.69 524.01,-267.77"/>
<polygon fill="black" stroke="black" points="526.94,-269.71 530.25,-259.64 521.39,-265.45 526.94,-269.71"/>
</g>
<!-- 4&#45;&gt;36 -->
<g id="edge82" class="edge">
<title>4&#45;&gt;36</title>
<path fill="none" stroke="black" d="M439.03,-445.15C450.28,-443.21 461.98,-441.39 473,-440 694.23,-412.13 954.75,-397.69 1099.57,-391.28"/>
<polygon fill="black" stroke="black" points="1099.96,-394.76 1109.79,-390.83 1099.65,-387.77 1099.96,-394.76"/>
</g>
<!-- 4&#45;&gt;39 -->
<g id="edge26" class="edge">
<title>4&#45;&gt;39</title>
<path fill="none" stroke="black" d="M363.09,-440.15C341.08,-415 304,-365.18 304,-315 304,-315 304,-315 304,-169 304,-126.5 305.21,-105.78 339,-80 373.5,-53.67 642.88,-35.24 782.97,-27.33"/>
<polygon fill="black" stroke="black" points="783.44,-30.81 793.23,-26.75 783.05,-23.82 783.44,-30.81"/>
</g>
<!-- 5 -->
<g id="node5" class="node">
<title>5</title>
<ellipse fill="none" stroke="black" cx="446" cy="-1106" rx="70.39" ry="18"/>
<text text-anchor="middle" x="446" y="-1102.3" font-family="Times,serif" font-size="14.00">free bacteria</text>
</g>
<!-- 6 -->
<g id="node6" class="node">
<title>6</title>
<ellipse fill="none" stroke="black" cx="430" cy="-1034" rx="128.88" ry="18"/>
<text text-anchor="middle" x="430" y="-1030.3" font-family="Times,serif" font-size="14.00">heterotrophic microflagel</text>
</g>
<!-- 5&#45;&gt;6 -->
<g id="edge83" class="edge">
<title>5&#45;&gt;6</title>
<path fill="none" stroke="black" d="M442.04,-1087.7C440.28,-1079.98 438.16,-1070.71 436.2,-1062.11"/>
<polygon fill="black" stroke="black" points="439.55,-1061.07 433.91,-1052.1 432.73,-1062.63 439.55,-1061.07"/>
</g>
<!-- 5&#45;&gt;35 -->
<g id="edge84" class="edge">
<title>5&#45;&gt;35</title>
<path fill="none" stroke="black" d="M489.79,-1091.71C542.78,-1072.58 625,-1031.82 625,-963 625,-963 625,-963 625,-817 625,-770.31 659.44,-725.84 684.73,-699.49"/>
<polygon fill="black" stroke="black" points="687.37,-701.8 691.91,-692.23 682.39,-696.88 687.37,-701.8"/>
</g>
<!-- 5&#45;&gt;39 -->
<g id="edge27" class="edge">
<title>5&#45;&gt;39</title>
<path fill="none" stroke="black" d="M388.35,-1095.54C357.08,-1088.03 319.35,-1074.83 292,-1052 88.25,-881.87 0,-796.44 0,-531 0,-531 0,-531 0,-169 0,-125.07 6.62,-104.62 43,-80 103.23,-39.25 585.36,-27.29 782.98,-24.08"/>
<polygon fill="black" stroke="black" points="783.08,-27.58 793.02,-23.92 782.97,-20.58 783.08,-27.58"/>
</g>
<!-- 6&#45;&gt;7 -->
<g id="edge85" class="edge">
<title>6&#45;&gt;7</title>
<path fill="none" stroke="black" d="M459.15,-1016.41C477.22,-1006.13 500.5,-992.88 519.35,-982.15"/>
<polygon fill="black" stroke="black" points="521.25,-985.1 528.21,-977.11 517.79,-979.01 521.25,-985.1"/>
</g>
<!-- 6&#45;&gt;35 -->
<g id="edge86" class="edge">
<title>6&#45;&gt;35</title>
<path fill="none" stroke="black" d="M434.25,-1015.97C447.73,-965.26 494.14,-813.5 586,-728 600.83,-714.19 619.8,-703.68 638.46,-695.81"/>
<polygon fill="black" stroke="black" points="639.88,-699.01 647.86,-692.04 637.28,-692.51 639.88,-699.01"/>
</g>
<!-- 6&#45;&gt;39 -->
<g id="edge28" class="edge">
<title>6&#45;&gt;39</title>
<path fill="none" stroke="black" d="M412.56,-1015.94C358.27,-962.11 189.79,-789.3 87,-620 63.57,-581.4 38,-576.15 38,-531 38,-531 38,-531 38,-169 38,-125.26 43.93,-104.74 80,-80 136.92,-40.96 592,-28.06 783.04,-24.34"/>
<polygon fill="black" stroke="black" points="783.38,-27.84 793.31,-24.15 783.25,-20.84 783.38,-27.84"/>
</g>
<!-- 7&#45;&gt;8 -->
<g id="edge87" class="edge">
<title>7&#45;&gt;8</title>
<path fill="none" stroke="black" d="M595.47,-956.88C714.77,-945.32 1053.94,-912.43 1203.11,-897.97"/>
<polygon fill="black" stroke="black" points="1203.47,-901.45 1213.08,-897 1202.79,-894.48 1203.47,-901.45"/>
</g>
<!-- 7&#45;&gt;9 -->
<g id="edge88" class="edge">
<title>7&#45;&gt;9</title>
<path fill="none" stroke="black" d="M582.7,-948.52C642.39,-923.44 777.18,-866.82 847.09,-837.45"/>
<polygon fill="black" stroke="black" points="848.64,-840.59 856.51,-833.49 845.93,-834.14 848.64,-840.59"/>
</g>
<!-- 7&#45;&gt;11 -->
<g id="edge89" class="edge">
<title>7&#45;&gt;11</title>
<path fill="none" stroke="black" d="M551.78,-943.82C551.11,-933.46 550.34,-919.98 550,-908 546.77,-793.86 516.34,-733.7 600,-656 660.3,-599.99 749.71,-566.45 812.47,-548.42"/>
<polygon fill="black" stroke="black" points="813.63,-551.73 822.31,-545.66 811.73,-544.99 813.63,-551.73"/>
</g>
<!-- 7&#45;&gt;12 -->
<g id="edge90" class="edge">
<title>7&#45;&gt;12</title>
<path fill="none" stroke="black" d="M520.66,-949.66C499.91,-941 473.63,-927.24 456,-908 426.82,-876.16 417,-862.19 417,-819 417,-819 417,-819 417,-745 417,-640.75 328.66,-596.29 390,-512 396.59,-502.95 451.54,-486.36 496.04,-474.15"/>
<polygon fill="black" stroke="black" points="497.21,-477.46 505.94,-471.46 495.37,-470.7 497.21,-477.46"/>
</g>
<!-- 7&#45;&gt;13 -->
<g id="edge91" class="edge">
<title>7&#45;&gt;13</title>
<path fill="none" stroke="black" d="M525.74,-947.6C509.9,-938.49 490.8,-925.01 479,-908 455.65,-874.33 455,-859.97 455,-819 455,-819 455,-819 455,-673 455,-633 454.6,-586.65 454.3,-558.08"/>
<polygon fill="black" stroke="black" points="457.8,-558.01 454.2,-548.05 450.8,-558.09 457.8,-558.01"/>
</g>
<!-- 7&#45;&gt;35 -->
<g id="edge92" class="edge">
<title>7&#45;&gt;35</title>
<path fill="none" stroke="black" d="M548.24,-944.05C543.92,-902.64 549.74,-794.82 602,-728 612.42,-714.67 627.15,-704.32 642.44,-696.44"/>
<polygon fill="black" stroke="black" points="643.99,-699.57 651.48,-692.08 640.96,-693.27 643.99,-699.57"/>
</g>
<!-- 7&#45;&gt;39 -->
<g id="edge29" class="edge">
<title>7&#45;&gt;39</title>
<path fill="none" stroke="black" d="M518.02,-950.83C490.97,-942 453.3,-927.56 424,-908 329.17,-844.71 76,-645.01 76,-531 76,-531 76,-531 76,-169 76,-125.63 80.51,-104.92 116,-80 169.53,-42.42 598.18,-28.76 782.85,-24.59"/>
<polygon fill="black" stroke="black" points="783.14,-28.09 793.06,-24.36 782.98,-21.09 783.14,-28.09"/>
</g>
<!-- 8&#45;&gt;9 -->
<g id="edge93" class="edge">
<title>8&#45;&gt;9</title>
<path fill="none" stroke="black" d="M1221.2,-879.19C1151.42,-866.47 1029.81,-844.3 955.25,-830.71"/>
<polygon fill="black" stroke="black" points="955.52,-827.2 945.05,-828.85 954.26,-834.09 955.52,-827.2"/>
</g>
<!-- 10 -->
<g id="node10" class="node">
<title>10</title>
<ellipse fill="none" stroke="black" cx="974" cy="-746" rx="56.59" ry="18"/>
<text text-anchor="middle" x="974" y="-742.3" font-family="Times,serif" font-size="14.00">sea nettle</text>
</g>
<!-- 8&#45;&gt;10 -->
<g id="edge94" class="edge">
<title>8&#45;&gt;10</title>
<path fill="none" stroke="black" d="M1243.36,-874.07C1188.05,-847.98 1073.96,-794.16 1013.54,-765.65"/>
<polygon fill="black" stroke="black" points="1014.86,-762.41 1004.32,-761.31 1011.87,-768.74 1014.86,-762.41"/>
</g>
<!-- 20 -->
<g id="node20" class="node">
<title>20</title>
<ellipse fill="none" stroke="black" cx="1298" cy="-458" rx="59.29" ry="18"/>
<text text-anchor="middle" x="1298" y="-454.3" font-family="Times,serif" font-size="14.00">fish larvae</text>
</g>
<!-- 8&#45;&gt;20 -->
<g id="edge95" class="edge">
<title>8&#45;&gt;20</title>
<path fill="none" stroke="black" d="M1277.96,-872.01C1282.33,-845.43 1290,-792.37 1290,-747 1290,-747 1290,-747 1290,-601 1290,-560.93 1293.21,-514.61 1295.57,-486.05"/>
<polygon fill="black" stroke="black" points="1299.06,-486.29 1296.42,-476.03 1292.09,-485.7 1299.06,-486.29"/>
</g>
<!-- 21 -->
<g id="node21" class="node">
<title>21</title>
<ellipse fill="none" stroke="black" cx="2235" cy="-458" rx="115.88" ry="18"/>
<text text-anchor="middle" x="2235" y="-454.3" font-family="Times,serif" font-size="14.00">alewife &amp; blue herring</text>
</g>
<!-- 8&#45;&gt;21 -->
<g id="edge96" class="edge">
<title>8&#45;&gt;21</title>
<path fill="none" stroke="black" d="M1341.68,-888.05C1527.04,-884.94 2039.23,-873.05 2105,-836 2147,-812.34 2167,-795.21 2167,-747 2167,-747 2167,-747 2167,-601 2167,-556.6 2194.37,-511.38 2214.38,-484.25"/>
<polygon fill="black" stroke="black" points="2217.31,-486.18 2220.58,-476.11 2211.74,-481.95 2217.31,-486.18"/>
</g>
<!-- 8&#45;&gt;22 -->
<g id="edge97" class="edge">
<title>8&#45;&gt;22</title>
<path fill="none" stroke="black" d="M1339.41,-884.97C1424.03,-875.78 1562,-845.68 1562,-747 1562,-747 1562,-747 1562,-673 1562,-602.68 1645.08,-564.08 1704.42,-545.49"/>
<polygon fill="black" stroke="black" points="1705.53,-548.81 1714.09,-542.57 1703.5,-542.11 1705.53,-548.81"/>
</g>
<!-- 8&#45;&gt;23 -->
<g id="edge98" class="edge">
<title>8&#45;&gt;23</title>
<path fill="none" stroke="black" d="M1341.62,-887.71C1532.12,-883.63 2070.11,-869.27 2142,-836 2313.81,-756.5 2446.01,-556.19 2489.05,-484.78"/>
<polygon fill="black" stroke="black" points="2492.19,-486.35 2494.31,-475.96 2486.18,-482.76 2492.19,-486.35"/>
</g>
<!-- 24 -->
<g id="node24" class="node">
<title>24</title>
<ellipse fill="none" stroke="black" cx="2031" cy="-458" rx="32.49" ry="18"/>
<text text-anchor="middle" x="2031" y="-454.3" font-family="Times,serif" font-size="14.00">shad</text>
</g>
<!-- 8&#45;&gt;24 -->
<g id="edge99" class="edge">
<title>8&#45;&gt;24</title>
<path fill="none" stroke="black" d="M1341.82,-888.58C1508.8,-885.72 1931,-866.66 1931,-747 1931,-747 1931,-747 1931,-601 1931,-550.01 1974.63,-504.43 2004.26,-479.35"/>
<polygon fill="black" stroke="black" points="2006.68,-481.89 2012.19,-472.84 2002.24,-476.48 2006.68,-481.89"/>
</g>
<!-- 8&#45;&gt;35 -->
<g id="edge100" class="edge">
<title>8&#45;&gt;35</title>
<path fill="none" stroke="black" d="M1208.07,-888.71C1094.18,-887.1 869.12,-878.52 805,-836 759.06,-805.53 774.77,-773.74 744,-728 737.71,-718.65 730.23,-708.86 723.81,-700.27"/>
<polygon fill="black" stroke="black" points="726.58,-698.13 717.83,-692.15 720.94,-702.28 726.58,-698.13"/>
</g>
<!-- 38 -->
<g id="node38" class="node">
<title>38</title>
<polygon fill="none" stroke="black" points="2183,-40 2121.33,-22 2183,-4 2244.67,-22 2183,-40"/>
<polyline fill="none" stroke="black" points="2132.85,-25.36 2132.85,-18.64 "/>
<polyline fill="none" stroke="black" points="2171.48,-7.36 2194.52,-7.36 "/>
<polyline fill="none" stroke="black" points="2233.15,-18.64 2233.15,-25.36 "/>
<polyline fill="none" stroke="black" points="2194.52,-36.64 2171.48,-36.64 "/>
<text text-anchor="middle" x="2183" y="-18.3" font-family="Times,serif" font-size="14.00">Output</text>
</g>
<!-- 8&#45;&gt;38 -->
<g id="edge5" class="edge">
<title>8&#45;&gt;38</title>
<path fill="none" stroke="black" d="M1341.19,-887.25C1537.37,-881.77 2106.97,-863.63 2186,-836 2510.91,-722.39 2759,-659.2 2759,-315 2759,-315 2759,-315 2759,-169 2759,-118.95 2733.64,-104.5 2690,-80 2615.89,-38.39 2367.98,-27.13 2248.49,-24.1"/>
<polygon fill="black" stroke="black" points="2248.46,-20.6 2238.38,-23.86 2248.29,-27.6 2248.46,-20.6"/>
</g>
<!-- 8&#45;&gt;39 -->
<g id="edge30" class="edge">
<title>8&#45;&gt;39</title>
<path fill="none" stroke="black" d="M1342.3,-889.48C1453.97,-888.86 1683.88,-881.49 1872,-836 1974.12,-811.3 2091,-852.06 2091,-747 2091,-747 2091,-747 2091,-529 2091,-358.66 2139.3,-275.51 2022,-152 1974.19,-101.66 1937.12,-133.76 1870,-116 1814.93,-101.43 1803.09,-89.9 1747,-80 1457.84,-28.96 1108.03,-22.4 950.74,-22.33"/>
<polygon fill="black" stroke="black" points="950.66,-18.83 940.66,-22.33 950.66,-25.83 950.66,-18.83"/>
</g>
<!-- 9&#45;&gt;10 -->
<g id="edge101" class="edge">
<title>9&#45;&gt;10</title>
<path fill="none" stroke="black" d="M910.67,-800.41C921.58,-791.21 935.29,-779.64 947.17,-769.63"/>
<polygon fill="black" stroke="black" points="949.65,-772.11 955.04,-762.99 945.14,-766.76 949.65,-772.11"/>
</g>
<!-- 9&#45;&gt;35 -->
<g id="edge102" class="edge">
<title>9&#45;&gt;35</title>
<path fill="none" stroke="black" d="M872.01,-800.36C854.47,-781.23 827.86,-749.67 800,-728 784.81,-716.19 766.63,-705.55 750.6,-696.96"/>
<polygon fill="black" stroke="black" points="751.93,-693.71 741.45,-692.15 748.67,-699.9 751.93,-693.71"/>
</g>
<!-- 9&#45;&gt;36 -->
<g id="edge103" class="edge">
<title>9&#45;&gt;36</title>
<path fill="none" stroke="black" d="M944.56,-806.82C1035.66,-786.06 1211,-729.65 1211,-603 1211,-603 1211,-603 1211,-529 1211,-489 1211,-442.65 1211,-414.08"/>
<polygon fill="black" stroke="black" points="1214.5,-414.05 1211,-404.05 1207.5,-414.05 1214.5,-414.05"/>
</g>
<!-- 9&#45;&gt;39 -->
<g id="edge31" class="edge">
<title>9&#45;&gt;39</title>
<path fill="none" stroke="black" d="M833.23,-808.56C653.16,-780.64 114,-684.27 114,-531 114,-531 114,-531 114,-169 114,-126.5 114.85,-105.3 149,-80 198.96,-42.99 604.67,-29.08 783.2,-24.72"/>
<polygon fill="black" stroke="black" points="783.42,-28.21 793.34,-24.47 783.26,-21.22 783.42,-28.21"/>
</g>
<!-- 10&#45;&gt;35 -->
<g id="edge104" class="edge">
<title>10&#45;&gt;35</title>
<path fill="none" stroke="black" d="M932.04,-733.83C892.5,-723.31 832.4,-707.31 784.85,-694.66"/>
<polygon fill="black" stroke="black" points="785.47,-691.2 774.9,-692.01 783.67,-697.96 785.47,-691.2"/>
</g>
<!-- 10&#45;&gt;36 -->
<g id="edge105" class="edge">
<title>10&#45;&gt;36</title>
<path fill="none" stroke="black" d="M985.11,-728.21C1023.12,-670.8 1148.12,-481.98 1193.96,-412.75"/>
<polygon fill="black" stroke="black" points="1197.03,-414.44 1199.64,-404.17 1191.2,-410.57 1197.03,-414.44"/>
</g>
<!-- 10&#45;&gt;39 -->
<g id="edge32" class="edge">
<title>10&#45;&gt;39</title>
<path fill="none" stroke="black" d="M950.44,-729.58C921.11,-710.76 869.12,-678.67 822,-656 701.43,-598.01 651.59,-623.31 541,-548 523.06,-535.78 527.26,-522 508,-512 397.42,-454.6 330.04,-550.26 230,-476 195.18,-450.15 190,-430.37 190,-387 190,-387 190,-387 190,-169 190,-125.07 196.87,-104.99 233,-80 277.22,-49.41 620.57,-32.39 782.72,-25.98"/>
<polygon fill="black" stroke="black" points="783.28,-29.47 793.13,-25.58 783,-22.47 783.28,-29.47"/>
</g>
<!-- 19 -->
<g id="node19" class="node">
<title>19</title>
<ellipse fill="none" stroke="black" cx="1667" cy="-170" rx="53.89" ry="18"/>
<text text-anchor="middle" x="1667" y="-166.3" font-family="Times,serif" font-size="14.00">blue crab</text>
</g>
<!-- 11&#45;&gt;19 -->
<g id="edge106" class="edge">
<title>11&#45;&gt;19</title>
<path fill="none" stroke="black" d="M944.66,-513.9C1113.2,-470.45 1588.8,-347.18 1620,-332 1667.96,-308.66 1692.15,-307.7 1716,-260 1723.16,-245.69 1721.83,-238.9 1716,-224 1711.55,-212.63 1703.39,-202.23 1694.98,-193.72"/>
<polygon fill="black" stroke="black" points="1697.29,-191.08 1687.62,-186.75 1692.47,-196.17 1697.29,-191.08"/>
</g>
<!-- 11&#45;&gt;36 -->
<g id="edge107" class="edge">
<title>11&#45;&gt;36</title>
<path fill="none" stroke="black" d="M914.33,-512.31C947.37,-493.27 1003.97,-461.94 1055,-440 1083.68,-427.67 1116.25,-416.22 1144.19,-407.14"/>
<polygon fill="black" stroke="black" points="1145.42,-410.42 1153.87,-404.03 1143.28,-403.76 1145.42,-410.42"/>
</g>
<!-- 11&#45;&gt;39 -->
<g id="edge33" class="edge">
<title>11&#45;&gt;39</title>
<path fill="none" stroke="black" d="M769.9,-522.3C600.31,-512 302.89,-491.82 285,-476 254.7,-449.2 266,-427.45 266,-387 266,-387 266,-387 266,-169 266,-125.63 270.83,-105.37 306,-80 343.8,-52.74 635.79,-34.49 782.88,-26.94"/>
<polygon fill="black" stroke="black" points="783.41,-30.41 793.22,-26.41 783.05,-23.42 783.41,-30.41"/>
</g>
<!-- 12&#45;&gt;19 -->
<g id="edge108" class="edge">
<title>12&#45;&gt;19</title>
<path fill="none" stroke="black" d="M605.72,-445.3C614.16,-443.48 622.81,-441.65 631,-440 685.75,-428.98 1574.96,-293.01 1620,-260 1640.62,-244.89 1653.02,-217.99 1659.86,-197.7"/>
<polygon fill="black" stroke="black" points="1663.23,-198.67 1662.87,-188.08 1656.55,-196.58 1663.23,-198.67"/>
</g>
<!-- 26 -->
<g id="node26" class="node">
<title>26</title>
<ellipse fill="none" stroke="black" cx="867" cy="-170" rx="59.29" ry="18"/>
<text text-anchor="middle" x="867" y="-166.3" font-family="Times,serif" font-size="14.00">hogchoker</text>
</g>
<!-- 12&#45;&gt;26 -->
<g id="edge109" class="edge">
<title>12&#45;&gt;26</title>
<path fill="none" stroke="black" d="M563.04,-439.85C586.17,-397.52 651.57,-286.91 735,-224 758.34,-206.4 788.32,-193.74 813.81,-185.22"/>
<polygon fill="black" stroke="black" points="814.89,-188.55 823.33,-182.16 812.74,-181.89 814.89,-188.55"/>
</g>
<!-- 12&#45;&gt;36 -->
<g id="edge110" class="edge">
<title>12&#45;&gt;36</title>
<path fill="none" stroke="black" d="M607.07,-445.62C617.93,-443.55 629.31,-441.55 640,-440 798.89,-416.98 984.17,-401.93 1099.55,-393.95"/>
<polygon fill="black" stroke="black" points="1100.07,-397.42 1109.81,-393.24 1099.59,-390.44 1100.07,-397.42"/>
</g>
<!-- 12&#45;&gt;38 -->
<g id="edge6" class="edge">
<title>12&#45;&gt;38</title>
<path fill="none" stroke="black" d="M624.59,-454.27C859.69,-444.56 1614.24,-408.06 1844,-332 1921.44,-306.36 2204.03,-130.17 2212,-116 2224.6,-93.6 2212.03,-65.03 2199.73,-45.51"/>
<polygon fill="black" stroke="black" points="2202.48,-43.33 2194,-36.97 2196.66,-47.22 2202.48,-43.33"/>
</g>
<!-- 12&#45;&gt;39 -->
<g id="edge34" class="edge">
<title>12&#45;&gt;39</title>
<path fill="none" stroke="black" d="M500.5,-445.78C437.7,-429.1 342,-391.19 342,-315 342,-315 342,-315 342,-169 342,-128.03 334.94,-106.72 366,-80 396.93,-53.4 648.41,-35.32 782.89,-27.45"/>
<polygon fill="black" stroke="black" points="783.37,-30.93 793.15,-26.86 782.97,-23.94 783.37,-30.93"/>
</g>
<!-- 13&#45;&gt;36 -->
<g id="edge111" class="edge">
<title>13&#45;&gt;36</title>
<path fill="none" stroke="black" d="M494.66,-522.08C532.6,-514.49 589.95,-500.08 635,-476 656.98,-464.25 655.02,-449.66 678,-440 751.57,-409.06 966.12,-395.78 1099.51,-390.39"/>
<polygon fill="black" stroke="black" points="1099.91,-393.88 1109.76,-389.99 1099.63,-386.89 1099.91,-393.88"/>
</g>
<!-- 13&#45;&gt;38 -->
<g id="edge7" class="edge">
<title>13&#45;&gt;38</title>
<path fill="none" stroke="black" d="M497.96,-525.98C555.58,-522.14 659.81,-515.57 749,-512 793.73,-510.21 2323.09,-501.32 2360,-476 2509.52,-373.45 2586.27,-208.14 2458,-80 2427.88,-49.91 2310.85,-34.34 2239.52,-27.49"/>
<polygon fill="black" stroke="black" points="2239.63,-23.99 2229.35,-26.54 2238.98,-30.96 2239.63,-23.99"/>
</g>
<!-- 13&#45;&gt;39 -->
<g id="edge35" class="edge">
<title>13&#45;&gt;39</title>
<path fill="none" stroke="black" d="M409.96,-526.21C340.37,-520.9 209.41,-506.99 176,-476 145.97,-448.14 152,-427.97 152,-387 152,-387 152,-387 152,-169 152,-128.03 144.53,-106.23 176,-80 221.73,-41.89 609.35,-28.64 783.21,-24.59"/>
<polygon fill="black" stroke="black" points="783.42,-28.08 793.34,-24.36 783.26,-21.09 783.42,-28.08"/>
</g>
<!-- 25 -->
<g id="node25" class="node">
<title>25</title>
<ellipse fill="none" stroke="black" cx="1204" cy="-170" rx="46.29" ry="18"/>
<text text-anchor="middle" x="1204" y="-166.3" font-family="Times,serif" font-size="14.00">croaker</text>
</g>
<!-- 14&#45;&gt;25 -->
<g id="edge112" class="edge">
<title>14&#45;&gt;25</title>
<path fill="none" stroke="black" d="M927.21,-228.32C992.13,-214.88 1093.47,-193.89 1153.84,-181.39"/>
<polygon fill="black" stroke="black" points="1154.81,-184.76 1163.9,-179.31 1153.39,-177.91 1154.81,-184.76"/>
</g>
<!-- 14&#45;&gt;26 -->
<g id="edge113" class="edge">
<title>14&#45;&gt;26</title>
<path fill="none" stroke="black" d="M866.25,-223.7C866.36,-215.98 866.49,-206.71 866.61,-198.11"/>
<polygon fill="black" stroke="black" points="870.11,-198.15 866.76,-188.1 863.11,-198.05 870.11,-198.15"/>
</g>
<!-- 27 -->
<g id="node27" class="node">
<title>27</title>
<ellipse fill="none" stroke="black" cx="1540" cy="-170" rx="30.59" ry="18"/>
<text text-anchor="middle" x="1540" y="-166.3" font-family="Times,serif" font-size="14.00">spot</text>
</g>
<!-- 14&#45;&gt;27 -->
<g id="edge114" class="edge">
<title>14&#45;&gt;27</title>
<path fill="none" stroke="black" d="M931.72,-229.18C943.76,-227.26 956.24,-225.43 968,-224 1173.32,-198.97 1226.57,-212.1 1432,-188 1455.06,-185.29 1480.74,-181.29 1501.28,-177.85"/>
<polygon fill="black" stroke="black" points="1501.93,-181.29 1511.21,-176.16 1500.76,-174.39 1501.93,-181.29"/>
</g>
<!-- 28 -->
<g id="node28" class="node">
<title>28</title>
<ellipse fill="none" stroke="black" cx="1357" cy="-170" rx="65.79" ry="18"/>
<text text-anchor="middle" x="1357" y="-166.3" font-family="Times,serif" font-size="14.00">white perch</text>
</g>
<!-- 14&#45;&gt;28 -->
<g id="edge115" class="edge">
<title>14&#45;&gt;28</title>
<path fill="none" stroke="black" d="M933.15,-229.4C944.76,-227.51 956.72,-225.64 968,-224 1096.97,-205.28 1130.09,-207.14 1259,-188 1270.3,-186.32 1282.29,-184.38 1293.88,-182.41"/>
<polygon fill="black" stroke="black" points="1294.66,-185.83 1303.93,-180.69 1293.48,-178.93 1294.66,-185.83"/>
</g>
<!-- 29 -->
<g id="node29" class="node">
<title>29</title>
<ellipse fill="none" stroke="black" cx="986" cy="-170" rx="41.69" ry="18"/>
<text text-anchor="middle" x="986" y="-166.3" font-family="Times,serif" font-size="14.00">catfish</text>
</g>
<!-- 14&#45;&gt;29 -->
<g id="edge116" class="edge">
<title>14&#45;&gt;29</title>
<path fill="none" stroke="black" d="M893.83,-224.76C911.56,-214.42 934.62,-200.97 953.23,-190.12"/>
<polygon fill="black" stroke="black" points="955.09,-193.08 961.97,-185.02 951.57,-187.03 955.09,-193.08"/>
</g>
<!-- 14&#45;&gt;36 -->
<g id="edge117" class="edge">
<title>14&#45;&gt;36</title>
<path fill="none" stroke="black" d="M864.41,-260.11C863.55,-280.31 865.55,-313.48 885,-332 915.4,-360.94 1017.64,-374.11 1099.61,-380.09"/>
<polygon fill="black" stroke="black" points="1099.54,-383.59 1109.76,-380.8 1100.02,-376.61 1099.54,-383.59"/>
</g>
<!-- 14&#45;&gt;39 -->
<g id="edge36" class="edge">
<title>14&#45;&gt;39</title>
<path fill="none" stroke="black" d="M834.88,-224.91C821.2,-216.03 806.56,-203.62 799,-188 792.03,-173.6 795.16,-167.53 799,-152 808.08,-115.29 829.72,-77.49 846.17,-52.38"/>
<polygon fill="black" stroke="black" points="849.09,-54.31 851.74,-44.05 843.27,-50.42 849.09,-54.31"/>
</g>
<!-- 15&#45;&gt;19 -->
<g id="edge118" class="edge">
<title>15&#45;&gt;19</title>
<path fill="none" stroke="black" d="M1045.93,-229.55C1052.44,-227.37 1059.38,-225.35 1066,-224 1290.35,-178.07 1352.97,-218.02 1580,-188 1590.86,-186.56 1602.41,-184.61 1613.43,-182.54"/>
<polygon fill="black" stroke="black" points="1614.21,-185.96 1623.36,-180.62 1612.88,-179.08 1614.21,-185.96"/>
</g>
<!-- 15&#45;&gt;25 -->
<g id="edge119" class="edge">
<title>15&#45;&gt;25</title>
<path fill="none" stroke="black" d="M1046.63,-229.91C1077.88,-218.21 1127.37,-199.68 1162.5,-186.53"/>
<polygon fill="black" stroke="black" points="1163.86,-189.76 1172,-182.98 1161.41,-183.21 1163.86,-189.76"/>
</g>
<!-- 15&#45;&gt;26 -->
<g id="edge120" class="edge">
<title>15&#45;&gt;26</title>
<path fill="none" stroke="black" d="M990.18,-228.49C967.14,-217.73 933.58,-202.07 907.31,-189.81"/>
<polygon fill="black" stroke="black" points="908.53,-186.52 897.99,-185.46 905.57,-192.86 908.53,-186.52"/>
</g>
<!-- 15&#45;&gt;27 -->
<g id="edge121" class="edge">
<title>15&#45;&gt;27</title>
<path fill="none" stroke="black" d="M1045.95,-229.69C1052.47,-227.51 1059.4,-225.45 1066,-224 1225.65,-188.97 1269.87,-208.72 1432,-188 1455.03,-185.06 1480.71,-181.04 1501.25,-177.66"/>
<polygon fill="black" stroke="black" points="1501.9,-181.1 1511.19,-176 1500.75,-174.19 1501.9,-181.1"/>
</g>
<!-- 15&#45;&gt;28 -->
<g id="edge122" class="edge">
<title>15&#45;&gt;28</title>
<path fill="none" stroke="black" d="M1046.57,-229.92C1052.93,-227.77 1059.64,-225.67 1066,-224 1087.61,-218.32 1214.36,-195.86 1293.28,-182.07"/>
<polygon fill="black" stroke="black" points="1293.89,-185.52 1303.14,-180.35 1292.68,-178.62 1293.89,-185.52"/>
</g>
<!-- 15&#45;&gt;29 -->
<g id="edge123" class="edge">
<title>15&#45;&gt;29</title>
<path fill="none" stroke="black" d="M1009.5,-224.05C1005.92,-215.97 1001.55,-206.12 997.56,-197.11"/>
<polygon fill="black" stroke="black" points="1000.68,-195.52 993.44,-187.79 994.28,-198.35 1000.68,-195.52"/>
</g>
<!-- 15&#45;&gt;36 -->
<g id="edge124" class="edge">
<title>15&#45;&gt;36</title>
<path fill="none" stroke="black" d="M1047.29,-253.69C1084.69,-267.06 1144.45,-289.05 1153,-296 1173.79,-312.89 1189.66,-339.26 1199.5,-358.92"/>
<polygon fill="black" stroke="black" points="1196.35,-360.46 1203.84,-367.96 1202.66,-357.43 1196.35,-360.46"/>
</g>
<!-- 15&#45;&gt;39 -->
<g id="edge37" class="edge">
<title>15&#45;&gt;39</title>
<path fill="none" stroke="black" d="M1027.01,-224.47C1036.81,-205.98 1048.69,-175.55 1037,-152 1012.34,-102.33 958.4,-66.64 917.85,-45.57"/>
<polygon fill="black" stroke="black" points="919.4,-42.43 908.9,-41.04 916.24,-48.68 919.4,-42.43"/>
</g>
<!-- 16&#45;&gt;19 -->
<g id="edge125" class="edge">
<title>16&#45;&gt;19</title>
<path fill="none" stroke="black" d="M1568.5,-225.29C1587.15,-215.01 1611.65,-201.51 1631.55,-190.54"/>
<polygon fill="black" stroke="black" points="1633.26,-193.59 1640.33,-185.7 1629.88,-187.46 1633.26,-193.59"/>
</g>
<!-- 16&#45;&gt;27 -->
<g id="edge126" class="edge">
<title>16&#45;&gt;27</title>
<path fill="none" stroke="black" d="M1540,-223.7C1540,-215.98 1540,-206.71 1540,-198.11"/>
<polygon fill="black" stroke="black" points="1543.5,-198.1 1540,-188.1 1536.5,-198.1 1543.5,-198.1"/>
</g>
<!-- 16&#45;&gt;36 -->
<g id="edge127" class="edge">
<title>16&#45;&gt;36</title>
<path fill="none" stroke="black" d="M1521.82,-259.58C1498.97,-279.57 1457.8,-312.84 1417,-332 1386.03,-346.55 1350.49,-357.51 1317.74,-365.57"/>
<polygon fill="black" stroke="black" points="1316.59,-362.25 1307.68,-367.98 1318.22,-369.06 1316.59,-362.25"/>
</g>
<!-- 16&#45;&gt;39 -->
<g id="edge38" class="edge">
<title>16&#45;&gt;39</title>
<path fill="none" stroke="black" d="M1523.9,-224.31C1503.99,-204.54 1468.26,-171.78 1432,-152 1275.96,-66.86 1066.21,-37.8 951.19,-27.96"/>
<polygon fill="black" stroke="black" points="951.3,-24.46 941.04,-27.12 950.72,-31.43 951.3,-24.46"/>
</g>
<!-- 17&#45;&gt;36 -->
<g id="edge128" class="edge">
<title>17&#45;&gt;36</title>
<path fill="none" stroke="black" d="M570.84,-258.06C589.69,-268.42 615.07,-282.66 637,-296 661.96,-311.18 664.46,-322.24 692,-332 764.62,-357.74 969.96,-372.68 1099.53,-379.8"/>
<polygon fill="black" stroke="black" points="1099.71,-383.32 1109.89,-380.36 1100.09,-376.33 1099.71,-383.32"/>
</g>
<!-- 17&#45;&gt;39 -->
<g id="edge39" class="edge">
<title>17&#45;&gt;39</title>
<path fill="none" stroke="black" d="M545.65,-223.87C551.73,-190.69 569.86,-117.63 616,-80 641.47,-59.22 720.57,-43.5 783.25,-33.89"/>
<polygon fill="black" stroke="black" points="783.78,-37.34 793.15,-32.39 782.74,-30.42 783.78,-37.34"/>
</g>
<!-- 18&#45;&gt;19 -->
<g id="edge129" class="edge">
<title>18&#45;&gt;19</title>
<path fill="none" stroke="black" d="M1298.81,-229.22C1374.62,-219.26 1484.45,-204.09 1580,-188 1590.47,-186.24 1601.61,-184.19 1612.3,-182.14"/>
<polygon fill="black" stroke="black" points="1613.23,-185.53 1622.38,-180.18 1611.89,-178.65 1613.23,-185.53"/>
</g>
<!-- 18&#45;&gt;25 -->
<g id="edge130" class="edge">
<title>18&#45;&gt;25</title>
<path fill="none" stroke="black" d="M1205.51,-223.7C1205.29,-215.98 1205.02,-206.71 1204.77,-198.11"/>
<polygon fill="black" stroke="black" points="1208.27,-198 1204.49,-188.1 1201.28,-198.2 1208.27,-198"/>
</g>
<!-- 18&#45;&gt;26 -->
<g id="edge131" class="edge">
<title>18&#45;&gt;26</title>
<path fill="none" stroke="black" d="M1130.14,-227.25C1075.69,-217.12 1000.63,-202.61 935,-188 930.27,-186.95 925.38,-185.81 920.47,-184.64"/>
<polygon fill="black" stroke="black" points="920.99,-181.17 910.45,-182.22 919.35,-187.97 920.99,-181.17"/>
</g>
<!-- 18&#45;&gt;27 -->
<g id="edge132" class="edge">
<title>18&#45;&gt;27</title>
<path fill="none" stroke="black" d="M1274.8,-226.58C1343.33,-212.22 1446.08,-190.68 1501.41,-179.09"/>
<polygon fill="black" stroke="black" points="1502.43,-182.45 1511.5,-176.97 1500.99,-175.6 1502.43,-182.45"/>
</g>
<!-- 18&#45;&gt;29 -->
<g id="edge133" class="edge">
<title>18&#45;&gt;29</title>
<path fill="none" stroke="black" d="M1156.63,-225.29C1118.07,-213.02 1065.05,-196.15 1028.39,-184.49"/>
<polygon fill="black" stroke="black" points="1029.1,-181.04 1018.51,-181.35 1026.98,-187.71 1029.1,-181.04"/>
</g>
<!-- 32 -->
<g id="node32" class="node">
<title>32</title>
<ellipse fill="none" stroke="black" cx="1923" cy="-170" rx="90.18" ry="18"/>
<text text-anchor="middle" x="1923" y="-166.3" font-family="Times,serif" font-size="14.00">summer flounder</text>
</g>
<!-- 18&#45;&gt;32 -->
<g id="edge134" class="edge">
<title>18&#45;&gt;32</title>
<path fill="none" stroke="black" d="M1309.49,-230.9C1450.47,-217.13 1700.54,-192.72 1833.72,-179.72"/>
<polygon fill="black" stroke="black" points="1834.27,-183.18 1843.88,-178.72 1833.59,-176.21 1834.27,-183.18"/>
</g>
<!-- 18&#45;&gt;36 -->
<g id="edge135" class="edge">
<title>18&#45;&gt;36</title>
<path fill="none" stroke="black" d="M1206.61,-260.19C1207.46,-284.42 1209.02,-328.89 1210.04,-357.68"/>
<polygon fill="black" stroke="black" points="1206.55,-358 1210.4,-367.87 1213.54,-357.75 1206.55,-358"/>
</g>
<!-- 18&#45;&gt;39 -->
<g id="edge40" class="edge">
<title>18&#45;&gt;39</title>
<path fill="none" stroke="black" d="M1186.46,-223.95C1144.2,-187.3 1045.07,-102.48 1007,-80 981.65,-65.03 951.64,-52.24 925.92,-42.59"/>
<polygon fill="black" stroke="black" points="926.88,-39.21 916.29,-39.04 924.46,-45.78 926.88,-39.21"/>
</g>
<!-- 19&#45;&gt;19 -->
<g id="edge136" class="edge">
<title>19&#45;&gt;19</title>
<path fill="none" stroke="black" d="M1704.02,-183.1C1722.48,-184.91 1738.95,-180.55 1738.95,-170 1738.95,-161.43 1728.07,-156.94 1714.1,-156.53"/>
<polygon fill="black" stroke="black" points="1713.88,-153.04 1704.02,-156.9 1714.14,-160.03 1713.88,-153.04"/>
</g>
<!-- 33 -->
<g id="node33" class="node">
<title>33</title>
<ellipse fill="none" stroke="black" cx="2135" cy="-98" rx="67.69" ry="18"/>
<text text-anchor="middle" x="2135" y="-94.3" font-family="Times,serif" font-size="14.00">striped bass</text>
</g>
<!-- 19&#45;&gt;33 -->
<g id="edge137" class="edge">
<title>19&#45;&gt;33</title>
<path fill="none" stroke="black" d="M1715.32,-161.77C1799.14,-149.23 1971.69,-123.43 2067.37,-109.12"/>
<polygon fill="black" stroke="black" points="2068.14,-112.54 2077.51,-107.6 2067.1,-105.62 2068.14,-112.54"/>
</g>
<!-- 19&#45;&gt;36 -->
<g id="edge138" class="edge">
<title>19&#45;&gt;36</title>
<path fill="none" stroke="black" d="M1685.13,-187.28C1699.59,-206.08 1714.43,-237.32 1700,-260 1659.44,-323.74 1618.2,-309.73 1546,-332 1473.3,-354.43 1388.38,-367.85 1322.19,-375.57"/>
<polygon fill="black" stroke="black" points="1321.69,-372.1 1312.15,-376.71 1322.48,-379.06 1321.69,-372.1"/>
</g>
<!-- 19&#45;&gt;38 -->
<g id="edge8" class="edge">
<title>19&#45;&gt;38</title>
<path fill="none" stroke="black" d="M1698.63,-155.35C1723.28,-144.68 1758.34,-129.47 1789,-116 1825.07,-100.15 1832.35,-91.61 1870,-80 1959.24,-52.47 2067.15,-36.44 2130.12,-28.73"/>
<polygon fill="black" stroke="black" points="2130.7,-32.19 2140.21,-27.52 2129.87,-25.24 2130.7,-32.19"/>
</g>
<!-- 19&#45;&gt;39 -->
<g id="edge41" class="edge">
<title>19&#45;&gt;39</title>
<path fill="none" stroke="black" d="M1647.38,-153.14C1620.32,-132.26 1569.18,-96.31 1519,-80 1415.61,-46.39 1102.5,-31.18 950.96,-25.64"/>
<polygon fill="black" stroke="black" points="950.89,-22.13 940.77,-25.27 950.64,-29.13 950.89,-22.13"/>
</g>
<!-- 20&#45;&gt;36 -->
<g id="edge139" class="edge">
<title>20&#45;&gt;36</title>
<path fill="none" stroke="black" d="M1277.82,-440.76C1266.62,-431.75 1252.49,-420.39 1240.12,-410.43"/>
<polygon fill="black" stroke="black" points="1242.27,-407.67 1232.28,-404.12 1237.88,-413.12 1242.27,-407.67"/>
</g>
<!-- 20&#45;&gt;38 -->
<g id="edge9" class="edge">
<title>20&#45;&gt;38</title>
<path fill="none" stroke="black" d="M1352.86,-451.16C1523.3,-432.04 2039.75,-366.32 2165,-260 2220.82,-212.62 2226.64,-186.87 2245,-116 2249.01,-100.51 2251.43,-94.65 2245,-80 2237.91,-63.86 2223.75,-50.27 2210.74,-40.42"/>
<polygon fill="black" stroke="black" points="2212.62,-37.46 2202.45,-34.5 2208.55,-43.16 2212.62,-37.46"/>
</g>
<!-- 20&#45;&gt;39 -->
<g id="edge42" class="edge">
<title>20&#45;&gt;39</title>
<path fill="none" stroke="black" d="M1240.59,-453.64C1063.32,-441.85 531.15,-395.52 442,-260 398.03,-193.17 389.33,-140.21 442,-80 464.09,-54.75 665.76,-36.8 783.18,-28.39"/>
<polygon fill="black" stroke="black" points="783.5,-31.87 793.23,-27.68 783.01,-24.89 783.5,-31.87"/>
</g>
<!-- 21&#45;&gt;33 -->
<g id="edge140" class="edge">
<title>21&#45;&gt;33</title>
<path fill="none" stroke="black" d="M2254.47,-439.92C2263.82,-430.4 2274.05,-417.72 2279,-404 2306.16,-328.75 2296.5,-302.06 2279,-224 2271.26,-189.47 2269.93,-177.12 2245,-152 2229.08,-135.96 2207.34,-124.08 2187.39,-115.69"/>
<polygon fill="black" stroke="black" points="2188.66,-112.43 2178.08,-111.96 2186.06,-118.93 2188.66,-112.43"/>
</g>
<!-- 21&#45;&gt;36 -->
<g id="edge141" class="edge">
<title>21&#45;&gt;36</title>
<path fill="none" stroke="black" d="M2144.11,-446.83C2120.64,-444.39 2095.39,-441.94 2072,-440 1803.19,-417.72 1486.46,-400.56 1322.28,-392.34"/>
<polygon fill="black" stroke="black" points="1322.33,-388.84 1312.17,-391.83 1321.98,-395.83 1322.33,-388.84"/>
</g>
<!-- 21&#45;&gt;38 -->
<g id="edge10" class="edge">
<title>21&#45;&gt;38</title>
<path fill="none" stroke="black" d="M2256.89,-440.28C2326.75,-384.93 2534.21,-204.16 2435,-80 2410.98,-49.94 2305.97,-34.57 2239.31,-27.7"/>
<polygon fill="black" stroke="black" points="2239.26,-24.18 2228.96,-26.67 2238.57,-31.14 2239.26,-24.18"/>
</g>
<!-- 21&#45;&gt;39 -->
<g id="edge43" class="edge">
<title>21&#45;&gt;39</title>
<path fill="none" stroke="black" d="M2231.99,-439.78C2222.32,-389.19 2187.6,-239.15 2103,-152 2081.21,-129.55 2011.95,-89.06 1982,-80 1884.38,-50.45 1193.57,-30.96 950.97,-24.96"/>
<polygon fill="black" stroke="black" points="950.88,-21.46 940.8,-24.71 950.71,-28.46 950.88,-21.46"/>
</g>
<!-- 22&#45;&gt;27 -->
<g id="edge142" class="edge">
<title>22&#45;&gt;27</title>
<path fill="none" stroke="black" d="M1789.38,-513.34C1802.08,-504.22 1816.03,-491.46 1823,-476 1829.58,-461.41 1828.57,-455 1823,-440 1778.91,-321.23 1735.51,-303.66 1637,-224 1617.64,-208.34 1592.98,-194.94 1573.37,-185.53"/>
<polygon fill="black" stroke="black" points="1574.74,-182.31 1564.2,-181.24 1571.77,-188.65 1574.74,-182.31"/>
</g>
<!-- 22&#45;&gt;28 -->
<g id="edge143" class="edge">
<title>22&#45;&gt;28</title>
<path fill="none" stroke="black" d="M1744.23,-512.45C1678.63,-454.6 1459.42,-261.31 1383.3,-194.19"/>
<polygon fill="black" stroke="black" points="1385.38,-191.36 1375.57,-187.37 1380.75,-196.61 1385.38,-191.36"/>
</g>
<!-- 30 -->
<g id="node30" class="node">
<title>30</title>
<ellipse fill="none" stroke="black" cx="1926" cy="-98" rx="47.39" ry="18"/>
<text text-anchor="middle" x="1926" y="-94.3" font-family="Times,serif" font-size="14.00">bluefish</text>
</g>
<!-- 22&#45;&gt;30 -->
<g id="edge144" class="edge">
<title>22&#45;&gt;30</title>
<path fill="none" stroke="black" d="M1802.34,-515.13C1882.81,-484.24 2063.96,-401.16 2127,-260 2160.49,-185 2042.4,-134.73 1973.04,-112.32"/>
<polygon fill="black" stroke="black" points="1973.77,-108.88 1963.18,-109.22 1971.67,-115.56 1973.77,-108.88"/>
</g>
<!-- 31 -->
<g id="node31" class="node">
<title>31</title>
<ellipse fill="none" stroke="black" cx="1763" cy="-458" rx="51.19" ry="18"/>
<text text-anchor="middle" x="1763" y="-454.3" font-family="Times,serif" font-size="14.00">weakfish</text>
</g>
<!-- 22&#45;&gt;31 -->
<g id="edge145" class="edge">
<title>22&#45;&gt;31</title>
<path fill="none" stroke="black" d="M1763,-511.7C1763,-503.98 1763,-494.71 1763,-486.11"/>
<polygon fill="black" stroke="black" points="1766.5,-486.1 1763,-476.1 1759.5,-486.1 1766.5,-486.1"/>
</g>
<!-- 22&#45;&gt;32 -->
<g id="edge146" class="edge">
<title>22&#45;&gt;32</title>
<path fill="none" stroke="black" d="M1798.32,-514.56C1817.14,-505.57 1839.69,-492.54 1856,-476 1932.94,-397.94 1947.69,-366.15 1975,-260 1978.99,-244.5 1981.05,-238.81 1975,-224 1970.44,-212.83 1962.26,-202.75 1953.72,-194.45"/>
<polygon fill="black" stroke="black" points="1955.97,-191.75 1946.21,-187.63 1951.26,-196.94 1955.97,-191.75"/>
</g>
<!-- 22&#45;&gt;33 -->
<g id="edge147" class="edge">
<title>22&#45;&gt;33</title>
<path fill="none" stroke="black" d="M1809.91,-516.91C1818.54,-515.02 1827.51,-513.27 1836,-512 1893.72,-503.35 2320.17,-518.66 2360,-476 2461.91,-366.85 2374.6,-259.55 2271,-152 2251.83,-132.1 2224.32,-119.54 2199.06,-111.67"/>
<polygon fill="black" stroke="black" points="2199.72,-108.22 2189.14,-108.78 2197.76,-114.94 2199.72,-108.22"/>
</g>
<!-- 22&#45;&gt;36 -->
<g id="edge148" class="edge">
<title>22&#45;&gt;36</title>
<path fill="none" stroke="black" d="M1715.94,-516.89C1620.43,-492.32 1403.11,-436.42 1287.17,-406.6"/>
<polygon fill="black" stroke="black" points="1287.86,-403.16 1277.3,-404.06 1286.11,-409.94 1287.86,-403.16"/>
</g>
<!-- 22&#45;&gt;38 -->
<g id="edge11" class="edge">
<title>22&#45;&gt;38</title>
<path fill="none" stroke="black" d="M1831.01,-528.04C2014.3,-524.95 2508.98,-513.23 2572,-476 2677.83,-413.48 2721,-365.92 2721,-243 2721,-243 2721,-243 2721,-169 2721,-118.68 2694.85,-104.69 2651,-80 2583.22,-41.84 2358.11,-28.92 2246.65,-24.8"/>
<polygon fill="black" stroke="black" points="2246.67,-21.3 2236.55,-24.44 2246.42,-28.3 2246.67,-21.3"/>
</g>
<!-- 22&#45;&gt;39 -->
<g id="edge44" class="edge">
<title>22&#45;&gt;39</title>
<path fill="none" stroke="black" d="M1695.63,-526.68C1460.01,-517.39 676.47,-476.02 479,-332 385.55,-263.84 330.59,-160.14 414,-80 440.1,-54.93 659.47,-36.62 783.1,-28.19"/>
<polygon fill="black" stroke="black" points="783.55,-31.66 793.3,-27.5 783.08,-24.68 783.55,-31.66"/>
</g>
<!-- 23&#45;&gt;30 -->
<g id="edge149" class="edge">
<title>23&#45;&gt;30</title>
<path fill="none" stroke="black" d="M2489.08,-440.54C2441.89,-389.47 2289.54,-232.38 2131,-152 2083.04,-127.69 2022.96,-113.85 1980.27,-106.46"/>
<polygon fill="black" stroke="black" points="1980.79,-103 1970.35,-104.81 1979.64,-109.91 1980.79,-103"/>
</g>
<!-- 23&#45;&gt;32 -->
<g id="edge150" class="edge">
<title>23&#45;&gt;32</title>
<path fill="none" stroke="black" d="M2473.99,-442.23C2377.58,-394.77 2075.59,-246.11 1964.53,-191.44"/>
<polygon fill="black" stroke="black" points="1965.83,-188.18 1955.31,-186.91 1962.74,-194.46 1965.83,-188.18"/>
</g>
<!-- 23&#45;&gt;33 -->
<g id="edge151" class="edge">
<title>23&#45;&gt;33</title>
<path fill="none" stroke="black" d="M2506.22,-439.86C2508.16,-421.88 2510.22,-392.84 2507,-368 2493.14,-261.16 2491.93,-202.94 2397,-152 2339.47,-121.13 2266.05,-108.18 2211.57,-102.78"/>
<polygon fill="black" stroke="black" points="2211.57,-99.27 2201.29,-101.83 2210.92,-106.24 2211.57,-99.27"/>
</g>
<!-- 23&#45;&gt;36 -->
<g id="edge152" class="edge">
<title>23&#45;&gt;36</title>
<path fill="none" stroke="black" d="M2451.09,-449.84C2423.91,-446.39 2390.23,-442.48 2360,-440 1980.06,-408.85 1527.83,-394.69 1322.4,-389.5"/>
<polygon fill="black" stroke="black" points="1322.3,-385.99 1312.21,-389.24 1322.12,-392.99 1322.3,-385.99"/>
</g>
<!-- 23&#45;&gt;38 -->
<g id="edge12" class="edge">
<title>23&#45;&gt;38</title>
<path fill="none" stroke="black" d="M2535.87,-442.56C2552.21,-433.64 2571.12,-420.68 2583,-404 2667.24,-285.73 2720.88,-189.04 2625,-80 2600.11,-51.69 2357,-33.45 2242.32,-26.36"/>
<polygon fill="black" stroke="black" points="2242.49,-22.86 2232.29,-25.74 2242.06,-29.85 2242.49,-22.86"/>
</g>
<!-- 23&#45;&gt;39 -->
<g id="edge45" class="edge">
<title>23&#45;&gt;39</title>
<path fill="none" stroke="black" d="M2511.07,-439.67C2514.84,-429.47 2519.09,-416.22 2521,-404 2533.48,-324.2 2532.39,-296.11 2496,-224 2432.24,-97.66 2351.3,-104.96 2212,-80 1968.22,-36.31 1206.24,-25.89 951.16,-23.6"/>
<polygon fill="black" stroke="black" points="950.87,-20.1 940.84,-23.51 950.81,-27.1 950.87,-20.1"/>
</g>
<!-- 24&#45;&gt;36 -->
<g id="edge153" class="edge">
<title>24&#45;&gt;36</title>
<path fill="none" stroke="black" d="M1999.11,-454.28C1887.59,-444.76 1511.65,-412.66 1322.15,-396.49"/>
<polygon fill="black" stroke="black" points="1322.42,-393 1312.16,-395.64 1321.83,-399.97 1322.42,-393"/>
</g>
<!-- 24&#45;&gt;38 -->
<g id="edge13" class="edge">
<title>24&#45;&gt;38</title>
<path fill="none" stroke="black" d="M2060.43,-449.99C2090.39,-441.97 2137.36,-426.91 2173,-404 2249.14,-355.06 2280.06,-342.63 2317,-260 2327.27,-237.02 2324.41,-85.1 2321,-80 2301.9,-51.45 2265.6,-37.18 2235.02,-30.06"/>
<polygon fill="black" stroke="black" points="2235.41,-26.57 2224.9,-27.91 2233.95,-33.41 2235.41,-26.57"/>
</g>
<!-- 24&#45;&gt;39 -->
<g id="edge46" class="edge">
<title>24&#45;&gt;39</title>
<path fill="none" stroke="black" d="M2019.97,-440.76C1985.45,-391 1874.16,-238.8 1748,-152 1712.68,-127.7 1610.73,-89.85 1569,-80 1453.79,-52.81 1111.27,-34.14 951.2,-26.66"/>
<polygon fill="black" stroke="black" points="951.08,-23.15 940.93,-26.18 950.75,-30.14 951.08,-23.15"/>
</g>
<!-- 25&#45;&gt;36 -->
<g id="edge154" class="edge">
<title>25&#45;&gt;36</title>
<path fill="none" stroke="black" d="M1242.46,-180.11C1280.21,-189.92 1333.85,-206.49 1346,-224 1382.57,-276.69 1305.22,-332.95 1253.19,-363.02"/>
<polygon fill="black" stroke="black" points="1251.42,-360 1244.44,-367.97 1254.87,-366.09 1251.42,-360"/>
</g>
<!-- 25&#45;&gt;38 -->
<g id="edge14" class="edge">
<title>25&#45;&gt;38</title>
<path fill="none" stroke="black" d="M1239.79,-158.55C1305.3,-139.83 1449.16,-100.61 1573,-80 1772.47,-46.8 2012.1,-31.48 2122.23,-25.79"/>
<polygon fill="black" stroke="black" points="2122.66,-29.27 2132.47,-25.27 2122.31,-22.28 2122.66,-29.27"/>
</g>
<!-- 25&#45;&gt;39 -->
<g id="edge47" class="edge">
<title>25&#45;&gt;39</title>
<path fill="none" stroke="black" d="M1191.27,-152.46C1174.76,-132.21 1144.03,-98.34 1110,-80 1060.85,-53.52 999.63,-39.25 950.93,-31.62"/>
<polygon fill="black" stroke="black" points="951.15,-28.11 940.74,-30.09 950.11,-35.03 951.15,-28.11"/>
</g>
<!-- 26&#45;&gt;36 -->
<g id="edge155" class="edge">
<title>26&#45;&gt;36</title>
<path fill="none" stroke="black" d="M818.53,-180.43C794.14,-187.89 766.7,-201.04 752,-224 724.94,-266.27 744.52,-302.33 785,-332 833.53,-367.56 990.3,-379.35 1099.47,-383.2"/>
<polygon fill="black" stroke="black" points="1099.44,-386.71 1109.55,-383.54 1099.68,-379.71 1099.44,-386.71"/>
</g>
<!-- 26&#45;&gt;38 -->
<g id="edge15" class="edge">
<title>26&#45;&gt;38</title>
<path fill="none" stroke="black" d="M905.38,-156.17C967.37,-136.05 1093.75,-97.59 1204,-80 1540.85,-26.27 1950.08,-21.73 2112.08,-22.29"/>
<polygon fill="black" stroke="black" points="2112.38,-25.79 2122.39,-22.34 2112.41,-18.79 2112.38,-25.79"/>
</g>
<!-- 26&#45;&gt;39 -->
<g id="edge48" class="edge">
<title>26&#45;&gt;39</title>
<path fill="none" stroke="black" d="M867,-151.97C867,-128.12 867,-84.35 867,-54.48"/>
<polygon fill="black" stroke="black" points="870.5,-54.16 867,-44.16 863.5,-54.16 870.5,-54.16"/>
</g>
<!-- 27&#45;&gt;30 -->
<g id="edge156" class="edge">
<title>27&#45;&gt;30</title>
<path fill="none" stroke="black" d="M1566.95,-161.22C1578.33,-158.1 1591.75,-154.63 1604,-152 1697.4,-131.96 1807.45,-115.32 1871.7,-106.3"/>
<polygon fill="black" stroke="black" points="1872.58,-109.72 1882,-104.87 1871.61,-102.78 1872.58,-109.72"/>
</g>
<!-- 27&#45;&gt;36 -->
<g id="edge157" class="edge">
<title>27&#45;&gt;36</title>
<path fill="none" stroke="black" d="M1565.63,-180.25C1584.42,-188.54 1608.57,-202.72 1620,-224 1627.57,-238.1 1628.7,-246.57 1620,-260 1587.25,-310.52 1431.83,-347.2 1322.33,-367.3"/>
<polygon fill="black" stroke="black" points="1321.42,-363.9 1312.21,-369.13 1322.67,-370.79 1321.42,-363.9"/>
</g>
<!-- 27&#45;&gt;38 -->
<g id="edge16" class="edge">
<title>27&#45;&gt;38</title>
<path fill="none" stroke="black" d="M1567.38,-161.6C1578.7,-158.58 1591.97,-155.07 1604,-152 1669.17,-135.37 1691.95,-148.21 1751,-116 1771.42,-104.86 1768.06,-90.14 1789,-80 1847.23,-51.8 2031.04,-34.36 2125.59,-27.02"/>
<polygon fill="black" stroke="black" points="2126.13,-30.49 2135.83,-26.24 2125.59,-23.51 2126.13,-30.49"/>
</g>
<!-- 27&#45;&gt;39 -->
<g id="edge49" class="edge">
<title>27&#45;&gt;39</title>
<path fill="none" stroke="black" d="M1535.65,-151.9C1529.36,-131.06 1515.58,-96.58 1490,-80 1445.8,-51.35 1110.84,-33.39 951.17,-26.37"/>
<polygon fill="black" stroke="black" points="951.05,-22.86 940.91,-25.92 950.75,-29.86 951.05,-22.86"/>
</g>
<!-- 28&#45;&gt;36 -->
<g id="edge158" class="edge">
<title>28&#45;&gt;36</title>
<path fill="none" stroke="black" d="M1359.84,-188.13C1361.42,-198.48 1363.21,-211.96 1364,-224 1367.28,-273.95 1367.49,-296.7 1332,-332 1318.15,-345.77 1300.13,-356.25 1282.24,-364.09"/>
<polygon fill="black" stroke="black" points="1280.82,-360.89 1272.92,-367.96 1283.5,-367.36 1280.82,-360.89"/>
</g>
<!-- 28&#45;&gt;38 -->
<g id="edge17" class="edge">
<title>28&#45;&gt;38</title>
<path fill="none" stroke="black" d="M1403.12,-157.15C1476.41,-138.64 1624.15,-102.65 1751,-80 1886.52,-55.81 2047.65,-37.21 2129.51,-28.47"/>
<polygon fill="black" stroke="black" points="2130,-31.94 2139.57,-27.41 2129.26,-24.98 2130,-31.94"/>
</g>
<!-- 28&#45;&gt;39 -->
<g id="edge50" class="edge">
<title>28&#45;&gt;39</title>
<path fill="none" stroke="black" d="M1326.77,-153.91C1286.59,-134.39 1212.99,-100.48 1147,-80 1081.18,-59.58 1004.35,-44.54 947.84,-35.05"/>
<polygon fill="black" stroke="black" points="948.32,-31.58 937.89,-33.4 947.18,-38.49 948.32,-31.58"/>
</g>
<!-- 29&#45;&gt;36 -->
<g id="edge159" class="edge">
<title>29&#45;&gt;36</title>
<path fill="none" stroke="black" d="M954.89,-182C948.36,-184.13 941.49,-186.25 935,-188 859.61,-208.38 812.24,-163.38 763,-224 752.91,-236.42 755.71,-245.76 763,-260 787.97,-308.74 812.3,-311.3 863,-332 938.36,-362.77 1029.51,-375.86 1099.62,-381.35"/>
<polygon fill="black" stroke="black" points="1099.58,-384.86 1109.81,-382.11 1100.09,-377.88 1099.58,-384.86"/>
</g>
<!-- 29&#45;&gt;38 -->
<g id="edge18" class="edge">
<title>29&#45;&gt;38</title>
<path fill="none" stroke="black" d="M1020.75,-159.94C1092.18,-141.68 1260.88,-100.49 1405,-80 1668.64,-42.52 1986.26,-28.99 2119.41,-24.73"/>
<polygon fill="black" stroke="black" points="2119.55,-28.23 2129.44,-24.41 2119.33,-21.23 2119.55,-28.23"/>
</g>
<!-- 29&#45;&gt;39 -->
<g id="edge51" class="edge">
<title>29&#45;&gt;39</title>
<path fill="none" stroke="black" d="M972.81,-152.82C953.12,-128.66 915.72,-82.77 891.07,-52.53"/>
<polygon fill="black" stroke="black" points="893.51,-49.99 884.48,-44.45 888.09,-54.41 893.51,-49.99"/>
</g>
<!-- 30&#45;&gt;36 -->
<g id="edge160" class="edge">
<title>30&#45;&gt;36</title>
<path fill="none" stroke="black" d="M1895.58,-111.82C1874.52,-121.39 1846.38,-135.61 1824,-152 1726.46,-223.46 1732.01,-286.46 1620,-332 1567.69,-353.27 1424.55,-368.45 1322.38,-376.97"/>
<polygon fill="black" stroke="black" points="1321.99,-373.49 1312.31,-377.8 1322.56,-380.47 1321.99,-373.49"/>
</g>
<!-- 30&#45;&gt;38 -->
<g id="edge19" class="edge">
<title>30&#45;&gt;38</title>
<path fill="none" stroke="black" d="M1962.55,-86.48C2010.52,-72.66 2094.39,-48.51 2143.69,-34.32"/>
<polygon fill="black" stroke="black" points="2144.73,-37.66 2153.37,-31.53 2142.79,-30.94 2144.73,-37.66"/>
</g>
<!-- 30&#45;&gt;39 -->
<g id="edge52" class="edge">
<title>30&#45;&gt;39</title>
<path fill="none" stroke="black" d="M1884.72,-88.86C1867.02,-85.64 1846.06,-82.2 1827,-80 1504.51,-42.85 1118.13,-29.25 950.92,-24.86"/>
<polygon fill="black" stroke="black" points="950.8,-21.36 940.71,-24.6 950.61,-28.35 950.8,-21.36"/>
</g>
<!-- 31&#45;&gt;32 -->
<g id="edge161" class="edge">
<title>31&#45;&gt;32</title>
<path fill="none" stroke="black" d="M1775.52,-440.36C1799.96,-407.33 1854.68,-330.6 1890,-260 1900.09,-239.82 1908.83,-215.78 1914.77,-197.77"/>
<polygon fill="black" stroke="black" points="1918.12,-198.78 1917.86,-188.19 1911.46,-196.64 1918.12,-198.78"/>
</g>
<!-- 31&#45;&gt;36 -->
<g id="edge162" class="edge">
<title>31&#45;&gt;36</title>
<path fill="none" stroke="black" d="M1715.46,-450.97C1628.66,-439.96 1442.39,-416.34 1322.1,-401.09"/>
<polygon fill="black" stroke="black" points="1322.48,-397.61 1312.12,-399.82 1321.6,-404.55 1322.48,-397.61"/>
</g>
<!-- 31&#45;&gt;38 -->
<g id="edge20" class="edge">
<title>31&#45;&gt;38</title>
<path fill="none" stroke="black" d="M1810.5,-450.82C1859.64,-443.44 1938.02,-428.85 2002,-404 2117.6,-359.11 2154.87,-349.22 2241,-260 2298.06,-200.9 2324.27,-151.03 2283,-80 2270.06,-57.72 2244.79,-43.43 2222.89,-34.73"/>
<polygon fill="black" stroke="black" points="2224.04,-31.42 2213.44,-31.22 2221.6,-37.98 2224.04,-31.42"/>
</g>
<!-- 31&#45;&gt;39 -->
<g id="edge53" class="edge">
<title>31&#45;&gt;39</title>
<path fill="none" stroke="black" d="M1712.63,-454.24C1601.81,-447.9 1328.59,-430.73 1101,-404 893.73,-379.66 837.21,-390.89 637,-332 599.21,-320.88 496.47,-293.03 475,-260 426.47,-185.33 490.8,-137.37 581,-80 641.48,-41.54 722.52,-28.18 782.89,-23.93"/>
<polygon fill="black" stroke="black" points="783.4,-27.4 793.16,-23.28 782.96,-20.42 783.4,-27.4"/>
</g>
<!-- 32&#45;&gt;36 -->
<g id="edge163" class="edge">
<title>32&#45;&gt;36</title>
<path fill="none" stroke="black" d="M1914.13,-188.08C1903.5,-207.34 1884.17,-238.74 1861,-260 1813.76,-303.35 1797.03,-312.34 1736,-332 1661.59,-355.97 1453.03,-371.54 1322.28,-379.25"/>
<polygon fill="black" stroke="black" points="1322,-375.76 1312.22,-379.84 1322.41,-382.75 1322,-375.76"/>
</g>
<!-- 32&#45;&gt;38 -->
<g id="edge21" class="edge">
<title>32&#45;&gt;38</title>
<path fill="none" stroke="black" d="M1945.73,-152.44C1972.03,-133.65 2016.98,-102.7 2058,-80 2087.79,-63.52 2123.23,-47.69 2148.75,-36.92"/>
<polygon fill="black" stroke="black" points="2150.14,-40.13 2158.02,-33.04 2147.44,-33.67 2150.14,-40.13"/>
</g>
<!-- 32&#45;&gt;39 -->
<g id="edge54" class="edge">
<title>32&#45;&gt;39</title>
<path fill="none" stroke="black" d="M1888.56,-153.22C1841.46,-132.43 1753.78,-96.59 1675,-80 1538.58,-51.28 1128.78,-32.86 950.91,-26.01"/>
<polygon fill="black" stroke="black" points="950.94,-22.51 940.82,-25.62 950.68,-29.5 950.94,-22.51"/>
</g>
<!-- 33&#45;&gt;36 -->
<g id="edge164" class="edge">
<title>33&#45;&gt;36</title>
<path fill="none" stroke="black" d="M2118.2,-115.46C2071.21,-160.27 1932.54,-284.23 1790,-332 1706.11,-360.11 1465.63,-374.58 1322.34,-380.9"/>
<polygon fill="black" stroke="black" points="1322.04,-377.41 1312.2,-381.34 1322.34,-384.4 1322.04,-377.41"/>
</g>
<!-- 33&#45;&gt;38 -->
<g id="edge22" class="edge">
<title>33&#45;&gt;38</title>
<path fill="none" stroke="black" d="M2145.89,-80.21C2152.37,-70.21 2160.7,-57.38 2167.82,-46.4"/>
<polygon fill="black" stroke="black" points="2170.94,-48.02 2173.45,-37.72 2165.07,-44.21 2170.94,-48.02"/>
</g>
<!-- 33&#45;&gt;39 -->
<g id="edge55" class="edge">
<title>33&#45;&gt;39</title>
<path fill="none" stroke="black" d="M2085.78,-85.49C2075.03,-83.35 2063.67,-81.35 2053,-80 1642.15,-27.86 1145.71,-22.45 951.06,-22.54"/>
<polygon fill="black" stroke="black" points="950.9,-19.04 940.91,-22.55 950.91,-26.04 950.9,-19.04"/>
</g>
<!-- 34&#45;&gt;5 -->
<g id="edge165" class="edge">
<title>34&#45;&gt;5</title>
<path fill="none" stroke="black" d="M458.04,-1159.7C456.28,-1151.98 454.16,-1142.71 452.2,-1134.11"/>
<polygon fill="black" stroke="black" points="455.55,-1133.07 449.91,-1124.1 448.73,-1134.63 455.55,-1133.07"/>
</g>
<!-- 35&#45;&gt;2 -->
<g id="edge166" class="edge">
<title>35&#45;&gt;2</title>
<path fill="none" stroke="black" d="M748.89,-655.88C773.67,-645.77 806.37,-632.96 834.09,-622.47"/>
<polygon fill="black" stroke="black" points="835.54,-625.67 843.66,-618.87 833.07,-619.11 835.54,-625.67"/>
</g>
<!-- 35&#45;&gt;7 -->
<g id="edge167" class="edge">
<title>35&#45;&gt;7</title>
<path fill="none" stroke="black" d="M668.31,-692.08C651.09,-700.36 632.47,-712.06 620,-728 571.52,-789.99 563,-887.27 558.26,-934.07"/>
<polygon fill="black" stroke="black" points="554.78,-933.74 557.2,-944.05 561.74,-934.48 554.78,-933.74"/>
</g>
<!-- 35&#45;&gt;8 -->
<g id="edge168" class="edge">
<title>35&#45;&gt;8</title>
<path fill="none" stroke="black" d="M733.58,-692.15C743.11,-702.28 753.61,-715.53 762,-728 792.77,-773.74 777.06,-805.53 823,-836 883.22,-875.94 1085.43,-885.93 1197.96,-888.33"/>
<polygon fill="black" stroke="black" points="1198.16,-891.84 1208.22,-888.53 1198.3,-884.84 1198.16,-891.84"/>
</g>
<!-- 35&#45;&gt;9 -->
<g id="edge169" class="edge">
<title>35&#45;&gt;9</title>
<path fill="none" stroke="black" d="M757.64,-692.15C777.38,-701.42 799.83,-713.87 818,-728 842.02,-746.68 865.1,-772.71 879,-791.79"/>
<polygon fill="black" stroke="black" points="876.13,-793.8 884.7,-800.02 881.88,-789.81 876.13,-793.8"/>
</g>
<!-- 35&#45;&gt;11 -->
<g id="edge170" class="edge">
<title>35&#45;&gt;11</title>
<path fill="none" stroke="black" d="M714.11,-655.99C718.56,-636.2 728.58,-603.73 749,-584 765.62,-567.95 787.63,-556.62 809.14,-548.68"/>
<polygon fill="black" stroke="black" points="810.34,-551.97 818.63,-545.38 808.04,-545.36 810.34,-551.97"/>
</g>
<!-- 35&#45;&gt;12 -->
<g id="edge171" class="edge">
<title>35&#45;&gt;12</title>
<path fill="none" stroke="black" d="M608.75,-663.43C535.61,-650.43 442.81,-619.86 400,-548 391.81,-534.25 390.71,-525.03 400,-512 411.12,-496.42 453.55,-482.49 491.07,-472.83"/>
<polygon fill="black" stroke="black" points="492.14,-476.17 500.99,-470.34 490.43,-469.38 492.14,-476.17"/>
</g>
<!-- 35&#45;&gt;13 -->
<g id="edge172" class="edge">
<title>35&#45;&gt;13</title>
<path fill="none" stroke="black" d="M671.11,-655.89C648.96,-646.03 621.09,-633.03 597,-620 557.32,-598.53 513.52,-570.61 484.98,-551.81"/>
<polygon fill="black" stroke="black" points="486.55,-548.65 476.28,-546.05 482.69,-554.49 486.55,-548.65"/>
</g>
<!-- 35&#45;&gt;22 -->
<g id="edge173" class="edge">
<title>35&#45;&gt;22</title>
<path fill="none" stroke="black" d="M813.31,-659.19C1026.39,-630.43 1513,-564.75 1693.73,-540.35"/>
<polygon fill="black" stroke="black" points="1694.21,-543.82 1703.65,-539.01 1693.27,-536.88 1694.21,-543.82"/>
</g>
<!-- 35&#45;&gt;23 -->
<g id="edge174" class="edge">
<title>35&#45;&gt;23</title>
<path fill="none" stroke="black" d="M813.17,-665.86C1033.39,-649.88 1568.98,-607.89 2015,-548 2038.25,-544.88 2408.01,-480.66 2431,-476 2436.88,-474.81 2443.01,-473.49 2449.12,-472.14"/>
<polygon fill="black" stroke="black" points="2450.32,-475.45 2459.31,-469.84 2448.78,-468.63 2450.32,-475.45"/>
</g>
<!-- 35&#45;&gt;36 -->
<g id="edge175" class="edge">
<title>35&#45;&gt;36</title>
<path fill="none" stroke="black" d="M709.48,-655.98C707.56,-622.99 708.5,-550.27 749,-512 799.34,-464.44 979.99,-425.82 1099.92,-404.66"/>
<polygon fill="black" stroke="black" points="1100.64,-408.09 1109.89,-402.92 1099.43,-401.19 1100.64,-408.09"/>
</g>
<!-- 36&#45;&gt;3 -->
<g id="edge176" class="edge">
<title>36&#45;&gt;3</title>
<path fill="none" stroke="black" d="M1158.39,-367.97C1129.83,-357.94 1094.83,-345.21 1067.02,-334.75"/>
<polygon fill="black" stroke="black" points="1068.09,-331.41 1057.5,-331.15 1065.61,-337.96 1068.09,-331.41"/>
</g>
<!-- 36&#45;&gt;19 -->
<g id="edge177" class="edge">
<title>36&#45;&gt;19</title>
<path fill="none" stroke="black" d="M1312.06,-374.91C1375.09,-367.09 1457.32,-353.81 1528,-332 1600.2,-309.73 1641.44,-323.74 1682,-260 1694.15,-240.91 1685.56,-215.77 1676.95,-197.08"/>
<polygon fill="black" stroke="black" points="1680.05,-195.45 1672.56,-187.96 1673.74,-198.48 1680.05,-195.45"/>
</g>
<!-- 37 -->
<g id="node37" class="node">
<title>37</title>
<polygon fill="none" stroke="black" points="599.37,-1327.56 555,-1340 510.63,-1327.56 527.58,-1307.44 582.42,-1307.44 599.37,-1327.56"/>
<text text-anchor="middle" x="555" y="-1318.3" font-family="Times,serif" font-size="14.00">Input</text>
</g>
<!-- 37&#45;&gt;1 -->
<g id="edge1" class="edge">
<title>37&#45;&gt;1</title>
<path fill="none" stroke="black" d="M585.87,-1311.27C621.35,-1300.08 680.22,-1281.52 723.26,-1267.94"/>
<polygon fill="black" stroke="black" points="724.53,-1271.21 733.02,-1264.87 722.43,-1264.54 724.53,-1271.21"/>
</g>
<!-- 37&#45;&gt;4 -->
<g id="edge2" class="edge">
<title>37&#45;&gt;4</title>
<path fill="none" stroke="black" d="M519.94,-1316.34C421.89,-1302.33 152,-1256.71 152,-1179 152,-1179 152,-1179 152,-601 152,-526.94 239.92,-490.06 306.33,-472.77"/>
<polygon fill="black" stroke="black" points="307.52,-476.08 316.37,-470.26 305.82,-469.29 307.52,-476.08"/>
</g>
<!-- 37&#45;&gt;34 -->
<g id="edge3" class="edge">
<title>37&#45;&gt;34</title>
<path fill="none" stroke="black" d="M546.08,-1307.38C530.67,-1283.86 498.82,-1235.22 479.04,-1205.02"/>
<polygon fill="black" stroke="black" points="481.73,-1202.74 473.33,-1196.29 475.88,-1206.58 481.73,-1202.74"/>
</g>
<!-- 37&#45;&gt;35 -->
<g id="edge4" class="edge">
<title>37&#45;&gt;35</title>
<path fill="none" stroke="black" d="M565.27,-1307.18C598.5,-1261.02 701,-1106.98 701,-963 701,-963 701,-963 701,-817 701,-776.9 705.02,-730.58 707.96,-702.04"/>
<polygon fill="black" stroke="black" points="711.45,-702.34 709.02,-692.02 704.49,-701.6 711.45,-702.34"/>
</g>
</g>
</svg>
